<svg width="603px" height="182px" viewBox="0 0 603 182" version="1.1" xmlns="http://www.w3.org/2000/svg" xmlns:xlink="http://www.w3.org/1999/xlink">
    <g id="Page-1" stroke="none" stroke-width="1" fill="none" fill-rule="evenodd">
        <g id="amazon-logo">
            <path d="M373.642451,141.937994 C338.642971,167.735384 287.913361,181.499224 244.236112,181.499224 C182.993562,181.499224 127.859552,158.847874 86.148542,121.174264 C82.871442,118.211744 85.807712,114.174364 89.740252,116.481434 C134.754562,142.672074 190.412942,158.428404 247.906482,158.428404 C286.681171,158.428404 329.335981,150.406034 368.556381,133.758344 C374.481391,131.241514 379.436371,137.638434 373.642451,141.937994" id="path8" fill="#FF9900"></path>
            <path d="M388.192811,125.290304 C383.735931,119.575034 358.620201,122.589974 347.346961,123.927034 C343.912541,124.346504 343.388221,121.357784 346.481791,119.207984 C366.485251,105.129544 399.308751,109.193154 403.136411,113.912184 C406.964051,118.657444 402.140171,151.559594 383.342681,167.263464 C380.458831,169.675414 377.706061,168.390804 378.990701,165.192334 C383.211601,154.653164 392.675891,131.031794 388.192811,125.290304" id="path10" fill="#FF9900"></path>
            <path d="M348.133471,19.819934 L348.133471,6.134744 C348.133471,4.063614 349.706481,2.674124 351.594091,2.674124 L412.862841,2.674124 C414.829121,2.674124 416.402131,4.089834 416.402131,6.134744 L416.402131,17.853674 C416.375931,19.819934 414.724251,22.389184 411.787951,26.452794 L380.039361,71.781724 C391.836951,71.493354 404.289951,73.249864 414.986421,79.279744 C417.398371,80.643014 418.053791,82.635494 418.237311,84.601774 L418.237311,99.204554 C418.237311,101.197034 416.035091,103.530314 413.728011,102.324354 C394.878091,92.440594 369.841011,91.365704 348.998621,102.429224 C346.875061,103.582764 344.646631,101.275684 344.646631,99.283204 L344.646631,85.414494 C344.646631,83.186064 344.672831,79.384604 346.901261,76.002634 L383.683501,23.254344 L351.672741,23.254344 C349.706481,23.254344 348.133471,21.864864 348.133471,19.819934" id="path12" fill="#252F3D"></path>
            <path d="M124.634862,105.208194 L105.994692,105.208194 C104.211962,105.077124 102.796242,103.740064 102.665152,102.035954 L102.665152,6.370714 C102.665152,4.456884 104.264382,2.936294 106.256862,2.936294 L123.638622,2.936294 C125.447602,3.014894 126.889512,4.404434 127.020612,6.134744 L127.020612,18.640194 L127.361432,18.640194 C131.896942,6.554214 140.417402,0.917594 151.900392,0.917594 C163.566882,0.917594 170.855162,6.554214 176.098532,18.640194 C180.607832,6.554214 190.858612,0.917594 201.843482,0.917594 C209.656102,0.917594 218.202792,4.142264 223.419942,11.378114 C229.318732,19.426684 228.112752,31.119394 228.112752,41.370194 L228.086542,101.747584 C228.086542,103.661414 226.487312,105.208194 224.494832,105.208194 L205.880862,105.208194 C204.019482,105.077124 202.525122,103.582764 202.525122,101.747584 L202.525122,51.044204 C202.525122,47.006814 202.892142,36.939544 202.000782,33.111874 C200.611292,26.688764 196.442812,24.879784 191.042132,24.879784 C186.532832,24.879784 181.813802,27.894724 179.899972,32.718634 C177.986142,37.542534 178.169662,45.617304 178.169662,51.044204 L178.169662,101.747584 C178.169662,103.661414 176.570432,105.208194 174.577952,105.208194 L155.964002,105.208194 C154.076392,105.077124 152.608242,103.582764 152.608242,101.747584 L152.582032,51.044204 C152.582032,40.373954 154.338542,24.670054 141.099052,24.670054 C127.702232,24.670054 128.226572,39.980684 128.226572,51.044204 L128.226572,101.747584 C128.226572,103.661414 126.627342,105.208194 124.634862,105.208194" id="path14" fill="#252F3D"></path>
            <path d="M469.150421,0.917594 C496.809191,0.917594 511.779001,24.670054 511.779001,54.871864 C511.779001,84.051204 495.236161,107.200674 469.150421,107.200674 C441.989761,107.200674 427.203451,83.448214 427.203451,53.849404 C427.203451,24.067064 442.173281,0.917594 469.150421,0.917594 M469.307711,20.449154 C455.570101,20.449154 454.704931,39.167964 454.704931,50.834474 C454.704931,62.527184 454.521411,87.485614 469.150421,87.485614 C483.595901,87.485614 484.277541,67.351094 484.277541,55.081584 C484.277541,47.006814 483.936721,37.359014 481.498541,29.703684 C479.401191,23.044624 475.232731,20.449154 469.307711,20.449154" id="path16" fill="#252F3D"></path>
            <path d="M547.643651,105.208194 L529.082131,105.208194 C527.220721,105.077124 525.726361,103.582764 525.726361,101.747584 L525.700161,6.056094 C525.857461,4.299564 527.404261,2.936294 529.291871,2.936294 L546.568781,2.936294 C548.194211,3.014894 549.531271,4.116054 549.898321,5.610414 L549.898321,20.239404 L550.239121,20.239404 C555.456291,7.157204 562.770771,0.917594 575.643241,0.917594 C584.006411,0.917594 592.159861,3.932534 597.403231,12.190834 C602.279561,19.846154 602.279561,32.718634 602.279561,41.973164 L602.279561,102.193274 C602.069831,103.871134 600.523031,105.208194 598.687871,105.208194 L579.995251,105.208194 C578.291141,105.077124 576.875431,103.818714 576.691931,102.193274 L576.691931,50.231484 C576.691931,39.770964 577.897901,24.460314 565.025421,24.460314 C560.489921,24.460314 556.321431,27.501484 554.250301,32.115634 C551.628631,37.962004 551.287811,43.782144 551.287811,50.231484 L551.287811,101.747584 C551.261611,103.661414 549.636151,105.208194 547.643671,105.208194" id="path18" fill="#252F3D"></path>
            <path d="M299.291481,59.512244 C299.291481,66.774304 299.475001,72.830394 295.804641,79.279744 C292.842141,84.523124 288.123111,87.747794 282.905961,87.747794 C275.748761,87.747794 271.554071,82.294674 271.554071,74.246104 C271.554071,58.358704 285.789811,55.474854 299.291481,55.474854 L299.291481,59.512244 M318.088961,104.946024 C316.856781,106.047134 315.074021,106.125784 313.684531,105.391724 C307.497351,100.253224 306.370031,97.867494 302.988061,92.964944 C292.763491,103.399244 285.501411,106.519034 272.261911,106.519034 C256.558021,106.519034 244.367192,96.845024 244.367192,77.470794 C244.367192,62.343664 252.546861,52.040444 264.239571,47.006814 C274.359271,42.549934 288.490131,41.763444 299.291481,40.531254 L299.291481,38.119304 C299.291481,33.688644 299.632301,28.445274 297.010621,24.617634 C294.755971,21.183214 290.403961,19.767504 286.550101,19.767504 C279.445321,19.767504 273.127081,23.411644 271.580271,30.962094 C271.265671,32.639984 270.033491,34.291644 268.329381,34.370294 L250.265982,32.430234 C248.745402,32.089434 247.041312,30.857224 247.487002,28.523944 C251.629261,6.606664 271.449201,3.99999965e-06 289.171771,3.99999965e-06 C298.242811,3.99999965e-06 310.092821,2.411954 317.250021,9.280764 C326.321041,17.748804 325.455891,29.048264 325.455891,41.343974 L325.455891,70.392234 C325.455891,79.122454 329.073811,82.950094 332.482001,87.669144 C333.661771,89.347004 333.923941,91.365704 332.403301,92.624114 C328.601861,95.796364 321.837911,101.695154 318.115121,104.998474 L318.088921,104.945974" id="path28" fill="#252F3D"></path>
            <path d="M54.924292,59.512244 C54.924292,66.774304 55.107792,72.830394 51.437451,79.279744 C48.474931,84.523124 43.782121,87.747794 38.538751,87.747794 C31.381551,87.747794 27.213081,82.294674 27.213081,74.246104 C27.213081,58.358704 41.448821,55.474854 54.924292,55.474854 L54.924292,59.512244 M73.721762,104.946024 C72.489572,106.047134 70.706812,106.125784 69.317322,105.391724 C63.130162,100.253224 62.029042,97.867494 58.620852,92.964944 C48.396281,103.399244 41.160451,106.519034 27.894711,106.519034 C12.217031,106.519034 9.99999997e-07,96.845024 9.99999997e-07,77.470794 C9.99999997e-07,62.343664 8.205871,52.040444 19.872361,47.006814 C29.992061,42.549934 44.122941,41.763444 54.924292,40.531254 L54.924292,38.119304 C54.924292,33.688644 55.265112,28.445274 52.669642,24.617634 C50.388761,21.183214 46.036781,19.767504 42.209111,19.767504 C35.104361,19.767504 28.759871,23.411644 27.213081,30.962094 C26.898471,32.639984 25.666281,34.291644 23.988411,34.370294 L5.898791,32.430234 C4.378211,32.089434 2.700331,30.857224 3.119801,28.523944 C7.288281,6.606664 27.081991,3.99999965e-06 44.804591,3.99999965e-06 C53.875602,3.99999965e-06 65.725612,2.411954 72.882812,9.280764 C81.953852,17.748804 81.088682,29.048264 81.088682,41.343974 L81.088682,70.392234 C81.088682,79.122454 84.706622,82.950094 88.114812,87.669144 C89.320782,89.347004 89.582952,91.365704 88.062372,92.624114 C84.260932,95.796364 77.496992,101.695154 73.774182,104.998474 L73.721762,104.945974" id="path30" fill="#252F3D"></path>
        </g>
    </g>
</svg>