<svg xmlns="http://www.w3.org/2000/svg" width="2000" height="2000" viewBox="0 0 2000 2000"><defs><style>.cls-1,.cls-2{fill:#c9292c}.cls-1{fill-opacity:.57;opacity:.4}.cls-1,.cls-2,.cls-3,.cls-4{fill-rule:evenodd}.cls-3{fill:#fff}.cls-4{fill:#1b1919}</style></defs><path id="Прямоугольник_1" data-name="Прямоугольник 1" class="cls-1" d="M756.323 295.45h872.907a60 60 0 0 1 60 60v956.38H756.323a60 60 0 0 1-60-60V355.45a60 60 0 0 1 60-60z"/><path id="Прямоугольник_1_копия_3" data-name="Прямоугольник 1 копия 3" class="cls-2" d="M470.742 4H1529.45a60 60 0 0 1 60 60v1148.03H470.742a60 60 0 0 1-60-60V64a60 60 0 0 1 60-60z"/><path id="Фигура_3_копия" data-name="Фигура 3 копия" class="cls-3" d="M1465.55 985.5l-464.3-491.13L533.553 985.5l467.7-754.97zM918.582 694.248h164.208l-81.54-84.521zm292.168 133.633l-74.74-78.81H865.357l-74.74 78.81h420.133z"/><path id="_.io" data-name=".io" class="cls-4" d="M585.013 1994.08l-159.935-433.95H259.942l-159.935 433.95h148.882l15.6-50.75h156.038l15.6 50.75h148.886zm-199.594-165.25H299.6l42.909-139.88zm624.091 165.25l-78.668-153.54c34.458-16.92 78.018-56.6 78.018-131.42 0-81.33-54.613-148.99-156.035-148.99H621.374v433.95H752.7v-136.63h47.461l59.813 136.63h149.536zm-176.839-251.13H752.7v-68.32h79.968c22.1 0 42.909 10.41 42.909 33.84.003 24.07-20.801 34.48-42.906 34.48zm655.3 251.13l-170.99-232.26 163.84-201.69H1320.23l-113.77 162.65v-162.65h-131.33v433.95h131.33v-120.36l24.05-32.53 97.53 152.89h159.93zm61.89 4.5a27.335 27.335 0 1 0-27.27-27.33 27.628 27.628 0 0 0 27.269 27.33zm94.64-215.97a25.385 25.385 0 1 0-25.32-25.39 25.3 25.3 0 0 0 25.319 25.39zm20.64 211.68v-188.64h-40.9v188.64h40.9zm137.87 4.68c60.37 0 96.98-44.91 96.98-99.2 0-53.89-36.61-98.8-96.98-98.8-59.59 0-96.59 44.91-96.59 98.8-.001 54.29 36.999 99.2 96.589 99.2zm0-36.32c-34.66 0-54.14-29.29-54.14-62.88 0-33.19 19.48-62.48 54.14-62.48 35.05 0 54.53 29.29 54.53 62.48-.001 33.59-19.481 62.88-54.531 62.88z"/></svg>