
<svg width="704px" height="240px" viewBox="0 0 352 120" version="1.1" xmlns="http://www.w3.org/2000/svg" xmlns:xlink="http://www.w3.org/1999/xlink">
    <defs>
        <polygon id="path-1" points="0.06 0.754 52.3462258 0.754 52.3462258 62.935 0.06 62.935"></polygon>
    </defs>
    <g id="Page-1" stroke="none" stroke-width="1" fill="none" fill-rule="evenodd">
        <g id="VECTORIZED-image---cse-cst-fip-monogram">
            <g id="Group-3" transform="translate(0.000000, 45.000000)">
                <mask id="mask-2" fill="white">
                    <use xlink:href="#path-1"></use>
                </mask>
                <g id="Clip-2"></g>
                <path d="M30.985,0.754 C39.568,0.754 45.92,3.43 51.756,8.785 C52.528,9.476 52.528,10.512 51.842,11.204 L45.148,18.199 C44.546,18.803 43.602,18.803 43.001,18.199 C39.825,15.349 35.62,13.795 31.414,13.795 C21.715,13.795 14.592,21.913 14.592,31.586 C14.592,41.172 21.801,49.117 31.5,49.117 C35.534,49.117 39.911,47.649 43.001,44.971 C43.602,44.454 44.718,44.454 45.233,45.058 L51.928,52.226 C52.528,52.831 52.442,53.954 51.842,54.558 C46.006,60.259 38.624,62.935 30.985,62.935 C13.819,62.935 0,49.204 0,31.93 C0,14.658 13.819,0.754 30.985,0.754" id="Fill-1" fill="#1A1919" mask="url(#mask-2)"></path>
            </g>
            <path d="M58.713,98.867 L62.747,91.699 C63.434,90.576 65.065,90.749 65.665,91.181 C66.009,91.353 72.188,95.931 77.854,95.931 C81.286,95.931 83.775,93.772 83.775,90.749 C83.775,87.122 80.772,84.358 74.935,82.026 C67.554,79.09 58.284,73.303 58.284,62.94 C58.284,54.389 64.893,45.754 78.11,45.754 C87.037,45.754 93.903,50.331 96.479,52.23 C97.509,52.835 97.337,54.389 96.993,54.994 L92.616,61.644 C92.016,62.594 90.471,63.372 89.697,62.767 C88.925,62.336 82.659,57.586 77.424,57.586 C74.334,57.586 72.017,59.658 72.017,61.99 C72.017,65.185 74.592,67.603 81.372,70.367 C88.067,73.045 98.71,78.312 98.71,90.058 C98.71,98.954 91.071,107.935 78.454,107.935 C67.296,107.935 61.116,103.272 59.142,101.286 C58.284,100.422 58.026,100.077 58.713,98.867" id="Fill-4" fill="#1A1919"></path>
            <path d="M109.185,48.257 C109.185,47.394 109.871,46.617 110.815,46.617 L146.349,46.617 C147.293,46.617 147.979,47.394 147.979,48.257 L147.979,57.672 C147.979,58.535 147.293,59.312 146.349,59.312 L122.574,59.312 L122.574,70.021 L142.144,70.021 C143.002,70.021 143.774,70.798 143.774,71.663 L143.774,81.076 C143.774,82.026 143.002,82.717 142.144,82.717 L122.574,82.717 L122.574,94.377 L146.349,94.377 C147.293,94.377 147.979,95.154 147.979,96.017 L147.979,105.431 C147.979,106.295 147.293,107.072 146.349,107.072 L110.815,107.072 C109.871,107.072 109.185,106.295 109.185,105.431 L109.185,48.257" id="Fill-5" fill="#1A1919"></path>
            <path d="M238.605,45.754 C247.188,45.754 253.54,48.43 259.376,53.785 C260.148,54.476 260.148,55.512 259.462,56.204 L252.768,63.199 C252.166,63.803 251.223,63.803 250.621,63.199 C247.445,60.349 243.24,58.795 239.034,58.795 C229.335,58.795 222.212,66.913 222.212,76.586 C222.212,86.172 229.421,94.117 239.12,94.117 C243.154,94.117 247.531,92.649 250.621,89.971 C251.223,89.454 252.338,89.454 252.854,90.058 L259.548,97.226 C260.148,97.831 260.063,98.954 259.462,99.558 C253.626,105.259 246.244,107.935 238.605,107.935 C221.439,107.935 207.62,94.204 207.62,76.93 C207.62,59.658 221.439,45.754 238.605,45.754" id="Fill-6" fill="#1A1919"></path>
            <path d="M266.333,98.867 L270.367,91.699 C271.054,90.576 272.685,90.749 273.285,91.181 C273.629,91.353 279.809,95.931 285.474,95.931 C288.906,95.931 291.396,93.772 291.396,90.749 C291.396,87.122 288.392,84.358 282.555,82.026 C275.174,79.09 265.904,73.303 265.904,62.94 C265.904,54.389 272.513,45.754 285.73,45.754 C294.657,45.754 301.523,50.331 304.099,52.23 C305.129,52.835 304.957,54.389 304.613,54.994 L300.236,61.644 C299.636,62.594 298.091,63.372 297.317,62.767 C296.545,62.336 290.279,57.586 285.044,57.586 C281.954,57.586 279.637,59.658 279.637,61.99 C279.637,65.185 282.212,67.603 288.992,70.367 C295.688,73.045 306.33,78.312 306.33,90.058 C306.33,98.954 298.691,107.935 286.074,107.935 C274.916,107.935 268.736,103.272 266.762,101.286 C265.904,100.422 265.646,100.077 266.333,98.867" id="Fill-7" fill="#1A1919"></path>
            <g id="Group-11" transform="translate(174.000000, 33.000000)" fill="#1A1919">
                <path d="M150.529,26.312 L138.255,26.312 C137.312,26.312 136.624,25.535 136.624,24.672 L136.624,15.257 C136.624,14.394 137.312,13.617 138.255,13.617 L176.364,13.617 C177.309,13.617 177.995,14.394 177.995,15.257 L177.995,24.672 C177.995,25.535 177.309,26.312 176.364,26.312 L164.09,26.312 L164.09,72.431 C164.09,73.295 163.317,74.072 162.46,74.072 L152.16,74.072 C151.302,74.072 150.529,73.295 150.529,72.431 L150.529,26.312" id="Fill-8"></path>
                <polygon id="Fill-10" points="0.8 86.94 6.8 86.94 6.8 0.642 0.8 0.642"></polygon>
            </g>
            <path d="M91.871,3.296 C91.659,2.218 90.801,1.675 89.751,1.675 C87.947,1.675 87.185,3.168 87.185,4.757 C87.185,6.495 87.947,7.946 89.761,7.946 C91.087,7.946 91.851,7.008 91.945,5.749 L92.953,5.749 C92.763,7.647 91.585,8.799 89.677,8.799 C87.322,8.799 86.177,7.05 86.177,4.831 C86.177,2.624 87.428,0.821 89.761,0.821 C91.341,0.821 92.646,1.675 92.879,3.296 L91.871,3.296" id="Fill-12" fill="#1A1919"></path>
            <path d="M96.424,7.946 C97.367,7.946 98.131,7.199 98.131,5.866 C98.131,4.522 97.367,3.776 96.424,3.776 C95.48,3.776 94.716,4.522 94.716,5.866 C94.716,7.199 95.48,7.946 96.424,7.946 Z M96.424,2.976 C98.163,2.976 99.085,4.245 99.085,5.866 C99.085,7.477 98.163,8.746 96.424,8.746 C94.685,8.746 93.762,7.477 93.762,5.866 C93.762,4.245 94.685,2.976 96.424,2.976 Z" id="Fill-13" fill="#1A1919"></path>
            <path d="M100.147,3.104 L100.996,3.104 L100.996,3.914 L101.017,3.914 C101.42,3.296 102.035,2.976 102.788,2.976 C103.456,2.976 104.071,3.242 104.294,3.914 C104.665,3.328 105.313,2.976 106.012,2.976 C107.104,2.976 107.836,3.434 107.836,4.575 L107.836,8.618 L106.935,8.618 L106.935,5.002 C106.935,4.32 106.754,3.776 105.874,3.776 C105.005,3.776 104.442,4.33 104.442,5.183 L104.442,8.618 L103.541,8.618 L103.541,5.002 C103.541,4.287 103.318,3.776 102.513,3.776 C101.441,3.776 101.049,4.767 101.049,5.183 L101.049,8.618 L100.147,8.618 L100.147,3.104" id="Fill-14" fill="#1A1919"></path>
            <path d="M109.196,3.104 L110.045,3.104 L110.045,3.914 L110.065,3.914 C110.469,3.296 111.084,2.976 111.837,2.976 C112.505,2.976 113.12,3.242 113.343,3.914 C113.714,3.328 114.361,2.976 115.061,2.976 C116.153,2.976 116.885,3.434 116.885,4.575 L116.885,8.618 L115.983,8.618 L115.983,5.002 C115.983,4.32 115.803,3.776 114.923,3.776 C114.054,3.776 113.491,4.33 113.491,5.183 L113.491,8.618 L112.59,8.618 L112.59,5.002 C112.59,4.287 112.367,3.776 111.562,3.776 C110.49,3.776 110.098,4.767 110.098,5.183 L110.098,8.618 L109.196,8.618 L109.196,3.104" id="Fill-15" fill="#1A1919"></path>
            <path d="M122.784,8.618 L121.936,8.618 L121.936,7.743 L121.914,7.743 C121.532,8.426 120.918,8.746 120.133,8.746 C118.69,8.746 118.245,7.914 118.245,6.73 L118.245,3.104 L119.146,3.104 L119.146,6.837 C119.146,7.508 119.57,7.946 120.26,7.946 C121.353,7.946 121.883,7.21 121.883,6.218 L121.883,3.104 L122.784,3.104 L122.784,8.618" id="Fill-16" fill="#1A1919"></path>
            <path d="M124.144,3.104 L124.992,3.104 L124.992,3.978 L125.013,3.978 C125.395,3.296 126.01,2.976 126.795,2.976 C128.237,2.976 128.683,3.807 128.683,4.991 L128.683,8.618 L127.781,8.618 L127.781,4.885 C127.781,4.213 127.356,3.776 126.668,3.776 C125.575,3.776 125.045,4.511 125.045,5.504 L125.045,8.618 L124.144,8.618 L124.144,3.104" id="Fill-17" fill="#1A1919"></path>
            <path d="M130.095,8.618 L130.996,8.618 L130.996,3.104 L130.095,3.104 L130.095,8.618 Z M130.095,2.112 L130.996,2.112 L130.996,1.003 L130.095,1.003 L130.095,2.112 Z" id="Fill-18" fill="#1A1919"></path>
            <path d="M136.119,4.874 C135.98,4.181 135.504,3.776 134.762,3.776 C133.457,3.776 133.054,4.81 133.054,5.93 C133.054,6.944 133.51,7.946 134.655,7.946 C135.525,7.946 136.045,7.434 136.161,6.602 L137.084,6.602 C136.883,7.946 136.045,8.746 134.666,8.746 C132.99,8.746 132.1,7.572 132.1,5.93 C132.1,4.277 132.948,2.976 134.688,2.976 C135.928,2.976 136.925,3.562 137.052,4.874 L136.119,4.874" id="Fill-19" fill="#1A1919"></path>
            <path d="M141.487,5.77 C141.138,6.026 140.459,6.037 139.854,6.143 C139.261,6.25 138.751,6.464 138.751,7.135 C138.751,7.733 139.261,7.946 139.812,7.946 C140.999,7.946 141.487,7.199 141.487,6.698 L141.487,5.77 Z M142.951,8.596 C142.792,8.693 142.59,8.746 142.304,8.746 C141.837,8.746 141.54,8.49 141.54,7.893 C141.042,8.479 140.374,8.746 139.61,8.746 C138.613,8.746 137.797,8.298 137.797,7.199 C137.797,5.951 138.72,5.685 139.652,5.504 C140.649,5.311 141.498,5.376 141.498,4.693 C141.498,3.904 140.851,3.776 140.278,3.776 C139.515,3.776 138.953,4.01 138.91,4.821 L138.009,4.821 C138.062,3.456 139.112,2.976 140.331,2.976 C141.317,2.976 142.389,3.199 142.389,4.49 L142.389,7.327 C142.389,7.754 142.389,7.946 142.675,7.946 C142.749,7.946 142.834,7.935 142.951,7.893 L142.951,8.596 Z" id="Fill-20" fill="#1A1919"></path>
            <path d="M145.042,3.104 L146.135,3.104 L146.135,3.904 L145.042,3.904 L145.042,7.327 C145.042,7.743 145.159,7.818 145.721,7.818 L146.135,7.818 L146.135,8.618 L145.445,8.618 C144.512,8.618 144.141,8.426 144.141,7.413 L144.141,3.904 L143.208,3.904 L143.208,3.104 L144.141,3.104 L144.141,1.45 L145.042,1.45 L145.042,3.104" id="Fill-21" fill="#1A1919"></path>
            <path d="M147.186,8.618 L148.087,8.618 L148.087,3.104 L147.186,3.104 L147.186,8.618 Z M147.186,2.112 L148.087,2.112 L148.087,1.003 L147.186,1.003 L147.186,2.112 Z" id="Fill-22" fill="#1A1919"></path>
            <path d="M151.854,7.946 C152.797,7.946 153.561,7.199 153.561,5.866 C153.561,4.522 152.797,3.776 151.854,3.776 C150.909,3.776 150.146,4.522 150.146,5.866 C150.146,7.199 150.909,7.946 151.854,7.946 Z M151.854,2.976 C153.593,2.976 154.515,4.245 154.515,5.866 C154.515,7.477 153.593,8.746 151.854,8.746 C150.114,8.746 149.191,7.477 149.191,5.866 C149.191,4.245 150.114,2.976 151.854,2.976 Z" id="Fill-23" fill="#1A1919"></path>
            <path d="M155.577,3.104 L156.426,3.104 L156.426,3.978 L156.446,3.978 C156.828,3.296 157.443,2.976 158.229,2.976 C159.671,2.976 160.116,3.807 160.116,4.991 L160.116,8.618 L159.215,8.618 L159.215,4.885 C159.215,4.213 158.79,3.776 158.102,3.776 C157.009,3.776 156.479,4.511 156.479,5.504 L156.479,8.618 L155.577,8.618 L155.577,3.104" id="Fill-24" fill="#1A1919"></path>
            <path d="M162.027,6.879 C162.059,7.69 162.759,7.946 163.501,7.946 C164.063,7.946 164.827,7.818 164.827,7.125 C164.827,6.421 163.936,6.303 163.034,6.101 C162.144,5.898 161.242,5.599 161.242,4.544 C161.242,3.434 162.335,2.976 163.289,2.976 C164.498,2.976 165.463,3.36 165.537,4.703 L164.636,4.703 C164.572,4 163.957,3.776 163.363,3.776 C162.822,3.776 162.196,3.925 162.196,4.48 C162.196,5.13 163.151,5.237 163.989,5.44 C164.891,5.642 165.781,5.941 165.781,7.008 C165.781,8.319 164.562,8.746 163.448,8.746 C162.218,8.746 161.179,8.244 161.126,6.879 L162.027,6.879" id="Fill-25" fill="#1A1919"></path>
            <path d="M90.928,14.324 C90.812,13.236 90.09,12.767 89.051,12.767 C88.202,12.767 87.354,13.076 87.354,14.068 C87.354,15.007 88.563,15.145 89.782,15.423 C90.991,15.7 92.2,16.127 92.2,17.62 C92.2,19.241 90.62,19.891 89.241,19.891 C87.545,19.891 86.113,19.06 86.113,17.204 L87.067,17.204 C87.067,18.484 88.128,19.038 89.273,19.038 C90.186,19.038 91.192,18.75 91.192,17.652 C91.192,16.606 89.983,16.425 88.774,16.158 C87.566,15.892 86.347,15.54 86.347,14.143 C86.347,12.596 87.715,11.913 89.093,11.913 C90.642,11.913 91.818,12.649 91.882,14.324 L90.928,14.324" id="Fill-26" fill="#1A1919"></path>
            <path d="M97.081,16.425 C97.038,15.561 96.392,14.868 95.5,14.868 C94.557,14.868 93.994,15.582 93.931,16.425 L97.081,16.425 Z M97.95,17.961 C97.706,19.177 96.837,19.838 95.606,19.838 C93.856,19.838 93.029,18.622 92.977,16.937 C92.977,15.284 94.059,14.068 95.554,14.068 C97.494,14.068 98.088,15.892 98.035,17.225 L93.931,17.225 C93.899,18.185 94.44,19.038 95.639,19.038 C96.381,19.038 96.9,18.675 97.06,17.961 L97.95,17.961 Z" id="Fill-27" fill="#1A1919"></path>
            <path d="M102.693,15.966 C102.555,15.273 102.078,14.868 101.336,14.868 C100.031,14.868 99.628,15.902 99.628,17.022 C99.628,18.036 100.084,19.038 101.229,19.038 C102.1,19.038 102.619,18.526 102.735,17.694 L103.658,17.694 C103.457,19.038 102.619,19.838 101.24,19.838 C99.564,19.838 98.674,18.665 98.674,17.022 C98.674,15.369 99.523,14.068 101.262,14.068 C102.502,14.068 103.499,14.654 103.626,15.966 L102.693,15.966" id="Fill-28" fill="#1A1919"></path>
            <path d="M109.207,19.71 L108.358,19.71 L108.358,18.836 L108.337,18.836 C107.955,19.518 107.341,19.838 106.556,19.838 C105.113,19.838 104.668,19.006 104.668,17.822 L104.668,14.196 L105.569,14.196 L105.569,17.929 C105.569,18.601 105.993,19.038 106.683,19.038 C107.775,19.038 108.306,18.302 108.306,17.31 L108.306,14.196 L109.207,14.196 L109.207,19.71" id="Fill-29" fill="#1A1919"></path>
            <path d="M110.534,14.196 L111.383,14.196 L111.383,15.359 L111.404,15.359 C111.839,14.473 112.443,14.036 113.419,14.068 L113.419,15.028 C111.966,15.028 111.436,15.86 111.436,17.257 L111.436,19.71 L110.534,19.71 L110.534,14.196" id="Fill-30" fill="#1A1919"></path>
            <path d="M114.151,19.71 L115.053,19.71 L115.053,14.196 L114.151,14.196 L114.151,19.71 Z M114.151,13.204 L115.053,13.204 L115.053,12.095 L114.151,12.095 L114.151,13.204 Z" id="Fill-31" fill="#1A1919"></path>
            <path d="M117.704,14.196 L118.797,14.196 L118.797,14.996 L117.704,14.996 L117.704,18.42 C117.704,18.836 117.821,18.91 118.383,18.91 L118.797,18.91 L118.797,19.71 L118.107,19.71 C117.174,19.71 116.803,19.518 116.803,18.505 L116.803,14.996 L115.87,14.996 L115.87,14.196 L116.803,14.196 L116.803,12.543 L117.704,12.543 L117.704,14.196" id="Fill-32" fill="#1A1919"></path>
            <path d="M121.947,20.446 C121.534,21.523 121.163,21.918 120.357,21.918 C120.145,21.918 119.933,21.897 119.731,21.822 L119.731,20.99 C119.901,21.043 120.081,21.118 120.262,21.118 C120.633,21.118 120.834,20.937 121.004,20.617 L121.375,19.678 L119.201,14.196 L120.219,14.196 L121.82,18.708 L121.842,18.708 L123.379,14.196 L124.334,14.196 L121.947,20.446" id="Fill-33" fill="#1A1919"></path>
            <polyline id="Fill-34" fill="#1A1919" points="128.197 12.095 133.426 12.095 133.426 12.948 129.205 12.948 129.205 15.369 133.14 15.369 133.14 16.222 129.205 16.222 129.205 18.857 133.457 18.857 133.457 19.71 128.197 19.71 128.197 12.095"></polyline>
            <path d="M135.082,17.971 C135.113,18.782 135.813,19.038 136.556,19.038 C137.118,19.038 137.882,18.91 137.882,18.217 C137.882,17.513 136.99,17.396 136.089,17.193 C135.198,16.99 134.297,16.692 134.297,15.636 C134.297,14.527 135.39,14.068 136.344,14.068 C137.553,14.068 138.518,14.452 138.592,15.796 L137.69,15.796 C137.627,15.092 137.012,14.868 136.418,14.868 C135.877,14.868 135.251,15.017 135.251,15.572 C135.251,16.222 136.206,16.329 137.044,16.532 C137.945,16.735 138.836,17.033 138.836,18.1 C138.836,19.411 137.616,19.838 136.503,19.838 C135.272,19.838 134.233,19.337 134.181,17.971 L135.082,17.971" id="Fill-35" fill="#1A1919"></path>
            <path d="M141.086,14.196 L142.179,14.196 L142.179,14.996 L141.086,14.996 L141.086,18.42 C141.086,18.836 141.203,18.91 141.765,18.91 L142.179,18.91 L142.179,19.71 L141.489,19.71 C140.556,19.71 140.185,19.518 140.185,18.505 L140.185,14.996 L139.252,14.996 L139.252,14.196 L140.185,14.196 L140.185,12.543 L141.086,12.543 L141.086,14.196" id="Fill-36" fill="#1A1919"></path>
            <path d="M146.57,16.863 C146.221,17.118 145.542,17.129 144.938,17.236 C144.344,17.342 143.834,17.556 143.834,18.228 C143.834,18.825 144.344,19.038 144.895,19.038 C146.082,19.038 146.57,18.292 146.57,17.79 L146.57,16.863 Z M148.034,19.689 C147.875,19.785 147.673,19.838 147.387,19.838 C146.92,19.838 146.623,19.582 146.623,18.985 C146.125,19.571 145.457,19.838 144.693,19.838 C143.696,19.838 142.88,19.39 142.88,18.292 C142.88,17.044 143.803,16.777 144.735,16.596 C145.732,16.404 146.581,16.467 146.581,15.785 C146.581,14.996 145.934,14.868 145.361,14.868 C144.598,14.868 144.036,15.102 143.993,15.913 L143.092,15.913 C143.145,14.548 144.194,14.068 145.414,14.068 C146.4,14.068 147.472,14.292 147.472,15.582 L147.472,18.42 C147.472,18.846 147.472,19.038 147.758,19.038 C147.832,19.038 147.917,19.027 148.034,18.985 L148.034,19.689 Z" id="Fill-37" fill="#1A1919"></path>
            <path d="M151.45,14.868 C150.241,14.868 149.774,15.913 149.774,16.947 C149.774,18.036 150.263,19.038 151.503,19.038 C152.733,19.038 153.146,17.982 153.146,16.905 C153.146,15.87 152.616,14.868 151.45,14.868 Z M148.905,12.095 L149.807,12.095 L149.807,14.943 L149.827,14.943 C150.124,14.335 150.824,14.068 151.577,14.068 C153.264,14.068 154.102,15.412 154.102,16.969 C154.102,18.526 153.274,19.838 151.599,19.838 C151.036,19.838 150.23,19.625 149.827,18.974 L149.807,18.974 L149.807,19.71 L148.905,19.71 L148.905,12.095 Z" id="Fill-38" fill="#1A1919"></path>
            <polygon id="Fill-39" fill="#1A1919" points="155.217 19.71 156.118 19.71 156.118 12.095 155.217 12.095"></polygon>
            <path d="M157.572,19.71 L158.474,19.71 L158.474,14.196 L157.572,14.196 L157.572,19.71 Z M157.572,13.204 L158.474,13.204 L158.474,12.095 L157.572,12.095 L157.572,13.204 Z" id="Fill-40" fill="#1A1919"></path>
            <path d="M160.427,17.971 C160.458,18.782 161.158,19.038 161.9,19.038 C162.463,19.038 163.227,18.91 163.227,18.217 C163.227,17.513 162.335,17.396 161.434,17.193 C160.543,16.99 159.642,16.692 159.642,15.636 C159.642,14.527 160.734,14.068 161.688,14.068 C162.897,14.068 163.862,14.452 163.937,15.796 L163.035,15.796 C162.972,15.092 162.356,14.868 161.763,14.868 C161.222,14.868 160.596,15.017 160.596,15.572 C160.596,16.222 161.551,16.329 162.389,16.532 C163.29,16.735 164.181,17.033 164.181,18.1 C164.181,19.411 162.961,19.838 161.848,19.838 C160.617,19.838 159.578,19.337 159.525,17.971 L160.427,17.971" id="Fill-41" fill="#1A1919"></path>
            <path d="M165.18,12.095 L166.081,12.095 L166.081,15.007 L166.103,15.007 C166.399,14.345 167.174,14.068 167.831,14.068 C169.273,14.068 169.719,14.9 169.719,16.084 L169.719,19.71 L168.817,19.71 L168.817,15.977 C168.817,15.305 168.393,14.868 167.704,14.868 C166.611,14.868 166.081,15.604 166.081,16.596 L166.081,19.71 L165.18,19.71 L165.18,12.095" id="Fill-42" fill="#1A1919"></path>
            <path d="M171.078,14.196 L171.927,14.196 L171.927,15.007 L171.947,15.007 C172.351,14.388 172.966,14.068 173.719,14.068 C174.387,14.068 175.002,14.335 175.225,15.007 C175.596,14.42 176.243,14.068 176.942,14.068 C178.035,14.068 178.767,14.527 178.767,15.668 L178.767,19.71 L177.865,19.71 L177.865,16.094 C177.865,15.412 177.685,14.868 176.805,14.868 C175.936,14.868 175.373,15.423 175.373,16.276 L175.373,19.71 L174.472,19.71 L174.472,16.094 C174.472,15.38 174.249,14.868 173.443,14.868 C172.372,14.868 171.979,15.86 171.979,16.276 L171.979,19.71 L171.078,19.71 L171.078,14.196" id="Fill-43" fill="#1A1919"></path>
            <path d="M183.935,16.425 C183.892,15.561 183.245,14.868 182.354,14.868 C181.41,14.868 180.848,15.582 180.784,16.425 L183.935,16.425 Z M184.804,17.961 C184.56,19.177 183.69,19.838 182.46,19.838 C180.71,19.838 179.883,18.622 179.83,16.937 C179.83,15.284 180.912,14.068 182.407,14.068 C184.348,14.068 184.941,15.892 184.889,17.225 L180.784,17.225 C180.753,18.185 181.294,19.038 182.492,19.038 C183.234,19.038 183.754,18.675 183.913,17.961 L184.804,17.961 Z" id="Fill-44" fill="#1A1919"></path>
            <path d="M185.824,14.196 L186.673,14.196 L186.673,15.07 L186.693,15.07 C187.075,14.388 187.69,14.068 188.476,14.068 C189.918,14.068 190.363,14.9 190.363,16.084 L190.363,19.71 L189.462,19.71 L189.462,15.977 C189.462,15.305 189.037,14.868 188.349,14.868 C187.256,14.868 186.726,15.604 186.726,16.596 L186.726,19.71 L185.824,19.71 L185.824,14.196" id="Fill-45" fill="#1A1919"></path>
            <path d="M192.974,14.196 L194.066,14.196 L194.066,14.996 L192.974,14.996 L192.974,18.42 C192.974,18.836 193.091,18.91 193.652,18.91 L194.066,18.91 L194.066,19.71 L193.377,19.71 C192.443,19.71 192.072,19.518 192.072,18.505 L192.072,14.996 L191.14,14.996 L191.14,14.196 L192.072,14.196 L192.072,12.543 L192.974,12.543 L192.974,14.196" id="Fill-46" fill="#1A1919"></path>
            <path d="M216.928,5.042 C216.716,3.965 215.857,3.421 214.808,3.421 C213.004,3.421 212.241,4.914 212.241,6.503 C212.241,8.241 213.004,9.692 214.817,9.692 C216.144,9.692 216.907,8.754 217.002,7.495 L218.01,7.495 C217.819,9.393 216.642,10.545 214.733,10.545 C212.379,10.545 211.233,8.796 211.233,6.577 C211.233,4.37 212.484,2.567 214.817,2.567 C216.397,2.567 217.702,3.421 217.936,5.042 L216.928,5.042" id="Fill-47" fill="#1A1919"></path>
            <path d="M222.923,7.079 C222.88,6.215 222.233,5.522 221.342,5.522 C220.398,5.522 219.836,6.236 219.772,7.079 L222.923,7.079 Z M223.792,8.615 C223.548,9.831 222.679,10.492 221.448,10.492 C219.698,10.492 218.871,9.276 218.818,7.591 C218.818,5.938 219.9,4.722 221.396,4.722 C223.336,4.722 223.93,6.546 223.877,7.879 L219.772,7.879 C219.741,8.839 220.282,9.692 221.48,9.692 C222.223,9.692 222.742,9.329 222.901,8.615 L223.792,8.615 Z" id="Fill-48" fill="#1A1919"></path>
            <path d="M224.813,4.85 L225.661,4.85 L225.661,5.724 L225.682,5.724 C226.063,5.042 226.679,4.722 227.464,4.722 C228.906,4.722 229.352,5.553 229.352,6.738 L229.352,10.364 L228.45,10.364 L228.45,6.631 C228.45,5.959 228.025,5.522 227.337,5.522 C226.244,5.522 225.714,6.258 225.714,7.25 L225.714,10.364 L224.813,10.364 L224.813,4.85" id="Fill-49" fill="#1A1919"></path>
            <path d="M231.962,4.85 L233.055,4.85 L233.055,5.65 L231.962,5.65 L231.962,9.073 C231.962,9.489 232.079,9.564 232.641,9.564 L233.055,9.564 L233.055,10.364 L232.365,10.364 C231.432,10.364 231.061,10.172 231.061,9.159 L231.061,5.65 L230.128,5.65 L230.128,4.85 L231.061,4.85 L231.061,3.196 L231.962,3.196 L231.962,4.85" id="Fill-50" fill="#1A1919"></path>
            <path d="M234.021,4.85 L234.869,4.85 L234.869,6.012 L234.891,6.012 C235.325,5.127 235.93,4.69 236.905,4.722 L236.905,5.682 C235.452,5.682 234.922,6.513 234.922,7.911 L234.922,10.364 L234.021,10.364 L234.021,4.85" id="Fill-51" fill="#1A1919"></path>
            <path d="M241.202,7.079 C241.159,6.215 240.513,5.522 239.621,5.522 C238.678,5.522 238.115,6.236 238.052,7.079 L241.202,7.079 Z M242.071,8.615 C241.827,9.831 240.958,10.492 239.728,10.492 C237.978,10.492 237.15,9.276 237.098,7.591 C237.098,5.938 238.18,4.722 239.675,4.722 C241.615,4.722 242.209,6.546 242.156,7.879 L238.052,7.879 C238.021,8.839 238.562,9.692 239.76,9.692 C240.502,9.692 241.021,9.329 241.181,8.615 L242.071,8.615 Z" id="Fill-52" fill="#1A1919"></path>
            <path d="M248.395,9.692 C249.604,9.692 250.07,8.647 250.07,7.612 C250.07,6.524 249.582,5.522 248.341,5.522 C247.111,5.522 246.697,6.577 246.697,7.655 C246.697,8.69 247.228,9.692 248.395,9.692 Z M250.939,10.364 L250.038,10.364 L250.038,9.617 L250.017,9.617 C249.72,10.225 249.02,10.492 248.267,10.492 C246.581,10.492 245.743,9.148 245.743,7.591 C245.743,6.033 246.57,4.722 248.246,4.722 C248.808,4.722 249.614,4.935 250.017,5.586 L250.038,5.586 L250.038,2.749 L250.939,2.749 L250.939,10.364 Z" id="Fill-53" fill="#1A1919"></path>
            <path d="M256.139,7.079 C256.096,6.215 255.449,5.522 254.558,5.522 C253.614,5.522 253.052,6.236 252.988,7.079 L256.139,7.079 Z M257.008,8.615 C256.764,9.831 255.895,10.492 254.664,10.492 C252.914,10.492 252.087,9.276 252.034,7.591 C252.034,5.938 253.116,4.722 254.611,4.722 C256.552,4.722 257.146,6.546 257.093,7.879 L252.988,7.879 C252.957,8.839 253.498,9.692 254.696,9.692 C255.438,9.692 255.958,9.329 256.117,8.615 L257.008,8.615 Z" id="Fill-54" fill="#1A1919"></path>
            <polygon id="Fill-55" fill="#1A1919" points="261.03 10.364 261.932 10.364 261.932 2.749 261.03 2.749"></polygon>
            <path d="M266.727,7.516 C266.377,7.772 265.698,7.783 265.094,7.889 C264.5,7.996 263.99,8.21 263.99,8.882 C263.99,9.479 264.5,9.692 265.051,9.692 C266.238,9.692 266.727,8.946 266.727,8.444 L266.727,7.516 Z M268.19,10.342 C268.031,10.439 267.829,10.492 267.543,10.492 C267.076,10.492 266.779,10.236 266.779,9.639 C266.281,10.225 265.613,10.492 264.85,10.492 C263.853,10.492 263.036,10.044 263.036,8.946 C263.036,7.697 263.959,7.431 264.892,7.25 C265.889,7.057 266.737,7.122 266.737,6.439 C266.737,5.65 266.09,5.522 265.518,5.522 C264.754,5.522 264.192,5.757 264.149,6.567 L263.248,6.567 C263.301,5.202 264.351,4.722 265.57,4.722 C266.557,4.722 267.628,4.946 267.628,6.236 L267.628,9.073 C267.628,9.5 267.628,9.692 267.914,9.692 C267.988,9.692 268.073,9.681 268.19,9.639 L268.19,10.342 Z" id="Fill-56" fill="#1A1919"></path>
            <path d="M272.531,8.625 C272.563,9.436 273.263,9.692 274.005,9.692 C274.567,9.692 275.331,9.564 275.331,8.871 C275.331,8.167 274.439,8.05 273.538,7.847 C272.647,7.644 271.746,7.345 271.746,6.29 C271.746,5.18 272.839,4.722 273.793,4.722 C275.002,4.722 275.967,5.106 276.041,6.449 L275.14,6.449 C275.076,5.746 274.461,5.522 273.867,5.522 C273.326,5.522 272.7,5.671 272.7,6.226 C272.7,6.876 273.655,6.983 274.493,7.186 C275.395,7.388 276.285,7.687 276.285,8.754 C276.285,10.065 275.065,10.492 273.952,10.492 C272.722,10.492 271.683,9.99 271.63,8.625 L272.531,8.625" id="Fill-57" fill="#1A1919"></path>
            <path d="M279.724,2.567 L280.879,2.567 L279.49,4.092 L278.812,4.092 L279.724,2.567 Z M281.092,7.079 C281.049,6.215 280.402,5.522 279.511,5.522 C278.567,5.522 278.005,6.236 277.941,7.079 L281.092,7.079 Z M281.961,8.615 C281.717,9.831 280.848,10.492 279.617,10.492 C277.867,10.492 277.04,9.276 276.987,7.591 C276.987,5.938 278.069,4.722 279.564,4.722 C281.505,4.722 282.099,6.546 282.046,7.879 L277.941,7.879 C277.91,8.839 278.451,9.692 279.649,9.692 C280.392,9.692 280.911,9.329 281.07,8.615 L281.961,8.615 Z" id="Fill-58" fill="#1A1919"></path>
            <path d="M286.704,6.62 C286.565,5.927 286.089,5.522 285.347,5.522 C284.042,5.522 283.639,6.556 283.639,7.676 C283.639,8.69 284.095,9.692 285.24,9.692 C286.11,9.692 286.63,9.18 286.746,8.348 L287.669,8.348 C287.468,9.692 286.63,10.492 285.251,10.492 C283.575,10.492 282.685,9.319 282.685,7.676 C282.685,6.023 283.533,4.722 285.272,4.722 C286.513,4.722 287.51,5.308 287.637,6.62 L286.704,6.62" id="Fill-59" fill="#1A1919"></path>
            <path d="M293.218,10.364 L292.369,10.364 L292.369,9.489 L292.348,9.489 C291.966,10.172 291.352,10.492 290.566,10.492 C289.124,10.492 288.679,9.66 288.679,8.476 L288.679,4.85 L289.58,4.85 L289.58,8.583 C289.58,9.255 290.004,9.692 290.693,9.692 C291.786,9.692 292.316,8.956 292.316,7.964 L292.316,4.85 L293.218,4.85 L293.218,10.364" id="Fill-60" fill="#1A1919"></path>
            <path d="M294.545,4.85 L295.394,4.85 L295.394,6.012 L295.415,6.012 C295.85,5.127 296.454,4.69 297.43,4.722 L297.43,5.682 C295.977,5.682 295.446,6.513 295.446,7.911 L295.446,10.364 L294.545,10.364 L294.545,4.85" id="Fill-61" fill="#1A1919"></path>
            <path d="M298.162,10.364 L299.063,10.364 L299.063,4.85 L298.162,4.85 L298.162,10.364 Z M298.162,3.858 L299.063,3.858 L299.063,2.749 L298.162,2.749 L298.162,3.858 Z" id="Fill-62" fill="#1A1919"></path>
            <path d="M301.715,4.85 L302.808,4.85 L302.808,5.65 L301.715,5.65 L301.715,9.073 C301.715,9.489 301.832,9.564 302.394,9.564 L302.808,9.564 L302.808,10.364 L302.118,10.364 C301.185,10.364 300.813,10.172 300.813,9.159 L300.813,5.65 L299.881,5.65 L299.881,4.85 L300.813,4.85 L300.813,3.196 L301.715,3.196 L301.715,4.85" id="Fill-63" fill="#1A1919"></path>
            <path d="M306.245,2.567 L307.4,2.567 L306.012,4.092 L305.333,4.092 L306.245,2.567 Z M307.613,7.079 C307.57,6.215 306.924,5.522 306.032,5.522 C305.089,5.522 304.526,6.236 304.463,7.079 L307.613,7.079 Z M308.482,8.615 C308.238,9.831 307.369,10.492 306.139,10.492 C304.389,10.492 303.562,9.276 303.509,7.591 C303.509,5.938 304.591,4.722 306.086,4.722 C308.026,4.722 308.62,6.546 308.567,7.879 L304.463,7.879 C304.432,8.839 304.973,9.692 306.171,9.692 C306.913,9.692 307.433,9.329 307.592,8.615 L308.482,8.615 Z" id="Fill-64" fill="#1A1919"></path>
            <path d="M213.811,20.784 C215.02,20.784 215.486,19.739 215.486,18.704 C215.486,17.616 214.998,16.614 213.757,16.614 C212.527,16.614 212.113,17.67 212.113,18.747 C212.113,19.782 212.644,20.784 213.811,20.784 Z M216.355,21.456 L215.454,21.456 L215.454,20.71 L215.433,20.71 C215.136,21.318 214.436,21.584 213.683,21.584 C211.997,21.584 211.159,20.24 211.159,18.683 C211.159,17.126 211.986,15.814 213.662,15.814 C214.224,15.814 215.03,16.027 215.433,16.678 L215.454,16.678 L215.454,13.841 L216.355,13.841 L216.355,21.456 Z" id="Fill-65" fill="#1A1919"></path>
            <path d="M221.555,18.171 C221.512,17.307 220.865,16.614 219.974,16.614 C219.03,16.614 218.468,17.328 218.404,18.171 L221.555,18.171 Z M222.424,19.707 C222.18,20.923 221.311,21.584 220.08,21.584 C218.33,21.584 217.503,20.368 217.45,18.683 C217.45,17.03 218.532,15.814 220.027,15.814 C221.968,15.814 222.562,17.638 222.509,18.971 L218.404,18.971 C218.373,19.931 218.914,20.784 220.112,20.784 C220.854,20.784 221.374,20.422 221.533,19.707 L222.424,19.707 Z" id="Fill-66" fill="#1A1919"></path>
            <path d="M223.995,19.717 C224.026,20.529 224.727,20.784 225.469,20.784 C226.031,20.784 226.795,20.656 226.795,19.963 C226.795,19.259 225.903,19.142 225.002,18.939 C224.111,18.736 223.21,18.438 223.21,17.382 C223.21,16.273 224.303,15.814 225.257,15.814 C226.466,15.814 227.431,16.198 227.505,17.542 L226.604,17.542 C226.54,16.838 225.925,16.614 225.331,16.614 C224.79,16.614 224.164,16.763 224.164,17.318 C224.164,17.968 225.119,18.075 225.957,18.278 C226.858,18.481 227.749,18.779 227.749,19.846 C227.749,21.157 226.529,21.584 225.416,21.584 C224.186,21.584 223.146,21.083 223.094,19.717 L223.995,19.717" id="Fill-67" fill="#1A1919"></path>
            <path d="M232.948,15.942 L234.041,15.942 L234.041,16.742 L232.948,16.742 L232.948,20.166 C232.948,20.582 233.065,20.656 233.627,20.656 L234.041,20.656 L234.041,21.456 L233.352,21.456 C232.418,21.456 232.047,21.264 232.047,20.251 L232.047,16.742 L231.114,16.742 L231.114,15.942 L232.047,15.942 L232.047,14.289 L232.948,14.289 L232.948,15.942" id="Fill-68" fill="#1A1919"></path>
            <path d="M237.479,13.659 L238.634,13.659 L237.245,15.185 L236.566,15.185 L237.479,13.659 Z M238.847,18.171 C238.804,17.307 238.157,16.614 237.266,16.614 C236.322,16.614 235.76,17.328 235.696,18.171 L238.847,18.171 Z M239.716,19.707 C239.472,20.923 238.603,21.584 237.372,21.584 C235.622,21.584 234.795,20.368 234.742,18.683 C234.742,17.03 235.824,15.814 237.319,15.814 C239.26,15.814 239.854,17.638 239.801,18.971 L235.696,18.971 C235.665,19.931 236.206,20.784 237.404,20.784 C238.146,20.784 238.666,20.422 238.825,19.707 L239.716,19.707 Z" id="Fill-69" fill="#1A1919"></path>
            <polygon id="Fill-70" fill="#1A1919" points="240.789 21.456 241.69 21.456 241.69 13.841 240.789 13.841"></polygon>
            <path d="M245.531,13.659 L246.687,13.659 L245.298,15.185 L244.619,15.185 L245.531,13.659 Z M246.899,18.171 C246.856,17.307 246.21,16.614 245.318,16.614 C244.375,16.614 243.813,17.328 243.749,18.171 L246.899,18.171 Z M247.769,19.707 C247.524,20.923 246.655,21.584 245.425,21.584 C243.675,21.584 242.848,20.368 242.795,18.683 C242.795,17.03 243.877,15.814 245.372,15.814 C247.313,15.814 247.906,17.638 247.854,18.971 L243.749,18.971 C243.718,19.931 244.259,20.784 245.457,20.784 C246.199,20.784 246.719,20.422 246.878,19.707 L247.769,19.707 Z" id="Fill-71" fill="#1A1919"></path>
            <path d="M252.512,17.713 C252.373,17.019 251.896,16.614 251.154,16.614 C249.85,16.614 249.446,17.649 249.446,18.768 C249.446,19.782 249.902,20.784 251.048,20.784 C251.918,20.784 252.438,20.272 252.554,19.441 L253.477,19.441 C253.275,20.784 252.438,21.584 251.059,21.584 C249.383,21.584 248.492,20.411 248.492,18.768 C248.492,17.115 249.341,15.814 251.08,15.814 C252.32,15.814 253.317,16.401 253.444,17.713 L252.512,17.713" id="Fill-72" fill="#1A1919"></path>
            <path d="M256.852,20.784 C257.795,20.784 258.559,20.038 258.559,18.704 C258.559,17.361 257.795,16.614 256.852,16.614 C255.907,16.614 255.144,17.361 255.144,18.704 C255.144,20.038 255.907,20.784 256.852,20.784 Z M256.852,15.814 C258.591,15.814 259.513,17.083 259.513,18.704 C259.513,20.315 258.591,21.584 256.852,21.584 C255.112,21.584 254.189,20.315 254.189,18.704 C254.189,17.083 255.112,15.814 256.852,15.814 Z" id="Fill-73" fill="#1A1919"></path>
            <path d="M260.575,15.942 L261.424,15.942 L261.424,16.753 L261.444,16.753 C261.848,16.134 262.463,15.814 263.216,15.814 C263.884,15.814 264.499,16.081 264.722,16.753 C265.093,16.166 265.74,15.814 266.439,15.814 C267.532,15.814 268.264,16.273 268.264,17.414 L268.264,21.456 L267.362,21.456 L267.362,17.84 C267.362,17.158 267.182,16.614 266.302,16.614 C265.433,16.614 264.87,17.169 264.87,18.022 L264.87,21.456 L263.969,21.456 L263.969,17.84 C263.969,17.126 263.746,16.614 262.94,16.614 C261.869,16.614 261.477,17.606 261.477,18.022 L261.477,21.456 L260.575,21.456 L260.575,15.942" id="Fill-74" fill="#1A1919"></path>
            <path d="M269.624,15.942 L270.473,15.942 L270.473,16.753 L270.493,16.753 C270.896,16.134 271.512,15.814 272.265,15.814 C272.933,15.814 273.548,16.081 273.771,16.753 C274.142,16.166 274.789,15.814 275.488,15.814 C276.581,15.814 277.313,16.273 277.313,17.414 L277.313,21.456 L276.411,21.456 L276.411,17.84 C276.411,17.158 276.23,16.614 275.351,16.614 C274.481,16.614 273.919,17.169 273.919,18.022 L273.919,21.456 L273.018,21.456 L273.018,17.84 C273.018,17.126 272.795,16.614 271.989,16.614 C270.918,16.614 270.525,17.606 270.525,18.022 L270.525,21.456 L269.624,21.456 L269.624,15.942" id="Fill-75" fill="#1A1919"></path>
            <path d="M283.212,21.456 L282.363,21.456 L282.363,20.582 L282.342,20.582 C281.96,21.264 281.346,21.584 280.561,21.584 C279.118,21.584 278.673,20.752 278.673,19.569 L278.673,15.942 L279.574,15.942 L279.574,19.675 C279.574,20.347 279.998,20.784 280.688,20.784 C281.78,20.784 282.311,20.049 282.311,19.056 L282.311,15.942 L283.212,15.942 L283.212,21.456" id="Fill-76" fill="#1A1919"></path>
            <path d="M284.571,15.942 L285.42,15.942 L285.42,16.817 L285.44,16.817 C285.822,16.134 286.438,15.814 287.223,15.814 C288.665,15.814 289.11,16.646 289.11,17.83 L289.11,21.456 L288.209,21.456 L288.209,17.723 C288.209,17.051 287.784,16.614 287.096,16.614 C286.003,16.614 285.473,17.35 285.473,18.342 L285.473,21.456 L284.571,21.456 L284.571,15.942" id="Fill-77" fill="#1A1919"></path>
            <path d="M290.522,21.456 L291.424,21.456 L291.424,15.942 L290.522,15.942 L290.522,21.456 Z M290.522,14.95 L291.424,14.95 L291.424,13.841 L290.522,13.841 L290.522,14.95 Z" id="Fill-78" fill="#1A1919"></path>
            <path d="M296.547,17.713 C296.408,17.019 295.932,16.614 295.189,16.614 C293.885,16.614 293.481,17.649 293.481,18.768 C293.481,19.782 293.938,20.784 295.083,20.784 C295.953,20.784 296.473,20.272 296.589,19.441 L297.512,19.441 C297.311,20.784 296.473,21.584 295.094,21.584 C293.418,21.584 292.527,20.411 292.527,18.768 C292.527,17.115 293.376,15.814 295.115,15.814 C296.355,15.814 297.353,16.401 297.479,17.713 L296.547,17.713" id="Fill-79" fill="#1A1919"></path>
            <path d="M301.915,18.609 C301.565,18.865 300.887,18.875 300.282,18.982 C299.688,19.089 299.179,19.302 299.179,19.974 C299.179,20.571 299.688,20.784 300.239,20.784 C301.427,20.784 301.915,20.038 301.915,19.536 L301.915,18.609 Z M303.379,21.435 C303.22,21.531 303.018,21.584 302.731,21.584 C302.265,21.584 301.968,21.328 301.968,20.731 C301.47,21.318 300.802,21.584 300.038,21.584 C299.041,21.584 298.225,21.136 298.225,20.038 C298.225,18.79 299.147,18.523 300.08,18.342 C301.077,18.15 301.926,18.214 301.926,17.531 C301.926,16.742 301.278,16.614 300.706,16.614 C299.942,16.614 299.381,16.848 299.338,17.659 L298.437,17.659 C298.489,16.294 299.54,15.814 300.759,15.814 C301.745,15.814 302.816,16.038 302.816,17.328 L302.816,20.166 C302.816,20.592 302.816,20.784 303.103,20.784 C303.177,20.784 303.262,20.774 303.379,20.731 L303.379,21.435 Z" id="Fill-80" fill="#1A1919"></path>
            <path d="M305.47,15.942 L306.563,15.942 L306.563,16.742 L305.47,16.742 L305.47,20.166 C305.47,20.582 305.587,20.656 306.148,20.656 L306.563,20.656 L306.563,21.456 L305.873,21.456 C304.939,21.456 304.568,21.264 304.568,20.251 L304.568,16.742 L303.636,16.742 L303.636,15.942 L304.568,15.942 L304.568,14.289 L305.47,14.289 L305.47,15.942" id="Fill-81" fill="#1A1919"></path>
            <path d="M307.613,21.456 L308.515,21.456 L308.515,15.942 L307.613,15.942 L307.613,21.456 Z M307.613,14.95 L308.515,14.95 L308.515,13.841 L307.613,13.841 L307.613,14.95 Z" id="Fill-82" fill="#1A1919"></path>
            <path d="M312.281,20.784 C313.225,20.784 313.988,20.038 313.988,18.704 C313.988,17.361 313.225,16.614 312.281,16.614 C311.337,16.614 310.573,17.361 310.573,18.704 C310.573,20.038 311.337,20.784 312.281,20.784 Z M312.281,15.814 C314.021,15.814 314.942,17.083 314.942,18.704 C314.942,20.315 314.021,21.584 312.281,21.584 C310.542,21.584 309.619,20.315 309.619,18.704 C309.619,17.083 310.542,15.814 312.281,15.814 Z" id="Fill-83" fill="#1A1919"></path>
            <path d="M316.005,15.942 L316.854,15.942 L316.854,16.817 L316.874,16.817 C317.256,16.134 317.871,15.814 318.656,15.814 C320.099,15.814 320.544,16.646 320.544,17.83 L320.544,21.456 L319.643,21.456 L319.643,17.723 C319.643,17.051 319.218,16.614 318.529,16.614 C317.437,16.614 316.906,17.35 316.906,18.342 L316.906,21.456 L316.005,21.456 L316.005,15.942" id="Fill-84" fill="#1A1919"></path>
            <path d="M322.455,19.717 C322.486,20.529 323.187,20.784 323.929,20.784 C324.491,20.784 325.255,20.656 325.255,19.963 C325.255,19.259 324.363,19.142 323.462,18.939 C322.571,18.736 321.67,18.438 321.67,17.382 C321.67,16.273 322.763,15.814 323.717,15.814 C324.926,15.814 325.891,16.198 325.965,17.542 L325.063,17.542 C325,16.838 324.385,16.614 323.791,16.614 C323.25,16.614 322.624,16.763 322.624,17.318 C322.624,17.968 323.579,18.075 324.417,18.278 C325.318,18.481 326.209,18.779 326.209,19.846 C326.209,21.157 324.989,21.584 323.876,21.584 C322.646,21.584 321.606,21.083 321.554,19.717 L322.455,19.717" id="Fill-85" fill="#1A1919"></path>
            <polygon id="Fill-86" fill="#1A1919" points="31.194 19.678 40.311 19.678 40.311 1.003 31.194 1.003"></polygon>
            <polygon id="Fill-87" fill="#1A1919" points="60.542 19.678 69.659 19.678 69.659 1.003 60.542 1.003"></polygon>
            <path d="M49.163,4.883 L50.464,2.216 L51.76,4.786 C51.921,5.058 52.05,5.038 52.309,4.905 L53.422,4.352 L52.695,7.945 C52.545,8.646 52.944,8.853 53.376,8.376 L54.958,6.671 L55.377,7.638 C55.523,7.93 55.734,7.889 56.017,7.832 L57.651,7.485 L57.107,9.566 L57.09,9.612 C57.026,9.883 56.899,10.113 57.197,10.238 L57.785,10.53 L54.412,13.404 C54.063,13.761 54.183,13.873 54.316,14.27 L54.627,15.236 L51.48,14.664 C51.091,14.566 50.824,14.566 50.813,14.878 L50.942,18.511 L49.992,18.511 L50.117,14.896 C50.117,14.531 49.852,14.542 49.215,14.673 L46.309,15.236 L46.681,14.27 C46.814,13.902 46.846,13.651 46.554,13.404 L43.106,10.573 L43.74,10.185 C43.921,10.043 43.936,9.893 43.835,9.577 L43.194,7.467 L44.851,7.825 C45.317,7.93 45.443,7.825 45.561,7.564 L46.025,6.608 L47.662,8.474 C47.955,8.821 48.363,8.591 48.237,8.092 L47.446,4.207 L48.668,4.905 C48.861,5.027 49.068,5.058 49.18,4.832 L49.163,4.883" id="Fill-88" fill="#1A1919"></path>
        </g>
    </g>
</svg>