<svg width="596px" height="124px" viewBox="0 0 596 124" version="1.1" xmlns="http://www.w3.org/2000/svg" xmlns:xlink="http://www.w3.org/1999/xlink">
    <g id="Page-1" stroke="none" stroke-width="1" fill="none" fill-rule="evenodd">
        <g id="geotab">
            <path d="M596,70.67 C596.011908,73.863737 593.767901,76.6218999 590.63852,77.2599243 C587.50914,77.8979486 584.36445,76.2384437 583.12509,73.2949623 C581.885729,70.3514809 582.896278,66.9424018 585.539538,65.1498407 C588.182798,63.3572796 591.72386,63.679624 594,65.92 C595.296752,67.1573188 596.021154,68.8777738 596,70.67 Z M595.09,70.67 C595.079349,69.1633301 594.467347,67.7233243 593.39,66.67 C591.157841,64.4078292 587.515263,64.3809797 585.25,66.61 L585.19,66.67 C582.921981,68.9484708 582.921981,72.6315292 585.19,74.91 C587.422159,77.1721708 591.064737,77.1990203 593.33,74.97 L593.39,74.91 C594.517798,73.8084786 595.134096,72.2858594 595.09,70.71 L595.09,70.67 Z M593.6,74.12 L591.86,74.12 L589.3,71.37 L588.05,71.37 L588.05,74.12 L586.74,74.12 L586.74,67 L589.16,67 C589.556279,66.9752102 589.953721,66.9752102 590.35,67 C590.675329,67.0440975 590.990228,67.1456778 591.28,67.3 C591.570714,67.4490191 591.815959,67.6735391 591.99,67.95 C592.150335,68.2400141 592.226528,68.5690283 592.21,68.9 C592.223674,69.3568532 592.066827,69.8024432 591.77,70.15 C591.437061,70.5079909 591.021678,70.7791916 590.56,70.94 L593.6,74.12 Z M590.87,69.05 C590.876667,68.8777711 590.842396,68.7064162 590.77,68.55 C590.690675,68.3952506 590.564749,68.2693247 590.41,68.19 C590.254117,68.1074945 590.084823,68.0533205 589.91,68.03 L588.07,68.03 L588.07,70.43 L589.07,70.43 C589.345918,70.4587818 589.624082,70.4587818 589.9,70.43 C590.106012,70.3951859 590.301132,70.3130302 590.47,70.19 C590.61679,70.0807572 590.733716,69.9363187 590.81,69.77 C590.899681,69.5307924 590.927206,69.2727422 590.89,69.02 L590.87,69.05 Z" id="Shape" fill="#25477B" fill-rule="nonzero"></path>
            <path d="M1.7,97.77 L4.08,97.77 L4.08,101 C4.74324519,99.9630656 5.60677857,99.0689346 6.62,98.37 C7.7612401,97.6616736 9.07681846,97.2843104 10.42,97.28 C11.3009457,97.2763149 12.1729318,97.4568432 12.98,97.81 C13.7435956,98.12475 14.4269919,98.6065444 14.98,99.22 C15.5774475,99.9617232 16.0287598,100.810055 16.31,101.72 C16.9883173,100.367843 18.0044907,99.2138834 19.26,98.37 C20.4027232,97.62759 21.7372959,97.2348642 23.1,97.24 C24.3042622,97.2290786 25.4844691,97.5772223 26.49,98.24 C27.4776602,98.898096 28.2387942,99.8442764 28.67,100.95 C29.2236414,102.648945 29.4575927,104.43579 29.36,106.22 L29.36,116.32 L27,116.32 L27,106.22 C27.0653032,104.873036 26.9236569,103.524023 26.58,102.22 C26.3012863,101.480553 25.79315,100.849763 25.13,100.42 C24.4034895,99.9522318 23.5538864,99.7119752 22.69,99.73 C21.5537517,99.7168987 20.4430543,100.067276 19.52,100.73 C18.6002063,101.424343 17.9047294,102.373669 17.52,103.46 C16.9814211,105.306134 16.7549723,107.229259 16.85,109.15 L16.85,116.4 L14.32,116.4 L14.32,106.91 C14.3955427,105.377804 14.2541442,103.84262 13.9,102.35 C13.6515167,101.541139 13.1415033,100.837672 12.45,100.35 C11.7373564,99.8331598 10.8803259,99.5533131 10,99.55 C8.89105075,99.5537652 7.81089003,99.9033318 6.91,100.55 C5.9528937,101.217317 5.21513582,102.153435 4.79,103.24 C4.24080643,104.926175 4.00690397,106.699087 4.1,108.47 L4.1,116.33 L1.7,116.33 L1.7,97.77 Z" id="Path" fill="#4B4F54"></path>
            <path d="M53.62,97.77 L53.62,116.29 L51.22,116.29 L51.22,113.1 C50.3070073,114.247863 49.1576467,115.185768 47.85,115.85 C44.1948414,117.577899 39.8440306,116.772193 37.05,113.85 C35.2125388,112.00982 34.2049609,109.499903 34.26,106.9 C34.202496,104.312401 35.2156043,101.815813 37.06,100 C38.8209788,98.1481895 41.274802,97.1151916 43.83,97.15 C45.2241014,97.1587863 46.5957758,97.5017049 47.83,98.15 C49.1263236,98.8520288 50.2395696,99.8488121 51.08,101.06 L51.08,97.77 L53.62,97.77 Z M44.09,99.59 C41.4474617,99.5669873 39.0052761,100.995435 37.73,103.31 C36.3920404,105.627414 36.3920404,108.482586 37.73,110.8 C38.363989,111.958266 39.300663,112.922591 40.44,113.59 C41.5388668,114.250372 42.7979861,114.596284 44.08,114.59 C45.386224,114.588549 46.6691082,114.243687 47.8,113.59 C48.9279931,112.968111 49.8597111,112.043321 50.49,110.92 C51.1328099,109.757923 51.4603256,108.44786 51.44,107.12 C51.5250013,105.133499 50.8037465,103.19693 49.44,101.75 C48.0291592,100.27005 46.0417712,99.4809401 44,99.59 L44.09,99.59 Z" id="Shape" fill="#4B4F54" fill-rule="nonzero"></path>
            <path d="M59.68,97.77 L62.06,97.77 L62.06,101.08 C62.8995494,99.9132064 63.9807786,98.9411233 65.23,98.23 C66.386782,97.6024519 67.6840059,97.2790062 69,97.29 C70.3105391,97.2624695 71.5992733,97.6281914 72.7,98.34 C73.7319703,99.0412848 74.5324668,100.033204 75,101.19 C75.6174099,102.979321 75.8922019,104.86894 75.81,106.76 L75.81,116.29 L73.41,116.29 L73.41,107.44 C73.4641269,106.008256 73.3770395,104.574663 73.15,103.16 C72.9621846,102.070484 72.3955093,101.082344 71.55,100.37 C70.6632269,99.7178514 69.5796013,99.3895869 68.48,99.44 C67.0561877,99.4311746 65.6775384,99.939285 64.6,100.87 C63.4959349,101.777629 62.7110435,103.014533 62.36,104.4 C62.0770285,106.05078 61.963106,107.726109 62.02,109.4 L62.02,116.19 L59.68,116.19 L59.68,97.77 Z" id="Path" fill="#4B4F54"></path>
            <path d="M100.07,97.77 L100.07,116.29 L97.71,116.29 L97.71,113.1 C96.7970073,114.247863 95.6476467,115.185768 94.34,115.85 C90.6848414,117.577899 86.3340306,116.772193 83.54,113.85 C81.7025388,112.00982 80.6949609,109.499903 80.75,106.9 C80.692496,104.312401 81.7056043,101.815813 83.55,100 C85.3109788,98.1481895 87.764802,97.1151916 90.32,97.15 C91.7140033,97.1595618 93.0854974,97.5024354 94.32,98.15 C95.6167572,98.8514126 96.7301343,99.8483134 97.57,101.06 L97.57,97.77 L100.07,97.77 Z M90.54,99.59 C87.8974617,99.5669873 85.4552761,100.995435 84.18,103.31 C82.8461521,105.628514 82.8461521,108.481486 84.18,110.8 C84.8148007,111.957667 85.7512857,112.921797 86.89,113.59 C87.9888668,114.250372 89.2479861,114.596284 90.53,114.59 C91.836224,114.588549 93.1191082,114.243687 94.25,113.59 C95.3853626,112.971097 96.3242839,112.046035 96.96,110.92 C97.60194,109.757581 97.9293969,108.447753 97.91,107.12 C97.9950013,105.133499 97.2737465,103.19693 95.91,101.75 C94.5154387,100.289007 92.5577918,99.5015732 90.54,99.59 Z" id="Shape" fill="#4B4F54" fill-rule="nonzero"></path>
            <path d="M122.1,97.77 L124.48,97.77 L124.48,112.5 C124.565194,114.421733 124.33205,116.344329 123.79,118.19 C123.207819,119.846983 122.056021,121.243316 120.54,122.13 C118.851789,123.080732 116.936749,123.554307 115,123.5 C113.545546,123.522646 112.097955,123.296037 110.72,122.83 C109.561521,122.449202 108.497776,121.825274 107.6,121 C106.667491,120.04285 105.921434,118.920372 105.4,117.69 L108,117.69 C108.628511,118.843613 109.576387,119.791489 110.73,120.42 C112.016451,121.050768 113.437982,121.356362 114.87,121.31 C116.257382,121.335359 117.630133,121.023059 118.87,120.4 C119.882573,119.900782 120.719546,119.105658 121.27,118.12 C121.837285,116.712152 122.079965,115.194548 121.98,113.68 L121.98,112.73 C121.104496,113.847269 119.977141,114.741614 118.69,115.34 C115.830365,116.671663 112.503162,116.537531 109.76,114.98 C108.31222,114.183442 107.111687,113.003667 106.29,111.57 C105.466997,110.130634 105.04243,108.49795 105.06,106.84 C105.070878,101.552644 109.342735,97.2629319 114.63,97.23 C115.972507,97.2226325 117.299173,97.5201064 118.51,98.1 C119.853645,98.7875393 121.036301,99.7520682 121.98,100.93 L122.1,97.77 Z M115.1,99.59 C113.780705,99.5881917 112.484089,99.9330364 111.34,100.59 C110.197653,101.224495 109.252878,102.162349 108.61,103.3 C107.951139,104.436026 107.606027,105.726745 107.61,107.04 C107.552961,108.912164 108.277548,110.723632 109.61,112.04 C112.646368,114.669919 117.153632,114.669919 120.19,112.04 C121.54486,110.660476 122.268752,108.781976 122.19,106.85 C122.210598,105.543661 121.890043,104.254548 121.26,103.11 C120.651533,102.012788 119.747212,101.108467 118.65,100.5 C117.539459,99.8755513 116.283972,99.5547812 115.01,99.57 L115.1,99.59 Z" id="Shape" fill="#4B4F54" fill-rule="nonzero"></path>
            <path d="M146.52,110.15 L148.52,111.2 C147.951069,112.36995 147.17911,113.429701 146.24,114.33 C145.395733,115.117723 144.40777,115.735624 143.33,116.15 C142.159429,116.584423 140.918453,116.798034 139.67,116.78 C136.973253,116.911178 134.363578,115.806944 132.58,113.78 C130.93113,111.929929 130.02,109.538212 130.02,107.06 C129.99546,104.780408 130.758412,102.562197 132.18,100.78 C133.914029,98.4851009 136.655179,97.1760618 139.53,97.27 C142.48516,97.1732892 145.304917,98.5105316 147.1,100.86 C148.463008,102.687091 149.167877,104.921526 149.1,107.2 L132.52,107.2 C132.47401,109.156215 133.191323,111.053507 134.52,112.49 C135.808536,113.820919 137.598401,114.547031 139.45,114.49 C140.387856,114.494086 141.318984,114.331562 142.2,114.01 C143.030747,113.728478 143.803331,113.298134 144.48,112.74 C145.284587,111.982526 145.972101,111.109653 146.52,110.15 Z M146.52,105.15 C146.27346,104.06315 145.799753,103.040761 145.13,102.15 C144.484221,101.35812 143.662385,100.728046 142.73,100.31 C141.745175,99.844026 140.6695,99.6015723 139.58,99.6 C137.849488,99.5674675 136.171876,100.197019 134.89,101.36 C133.821301,102.409942 133.072317,103.741468 132.73,105.2 L146.52,105.15 Z" id="Shape" fill="#4B4F54" fill-rule="nonzero"></path>
            <path d="M155,97.77 L157.38,97.77 L157.38,101 C158.065142,99.9513308 158.956571,99.0530964 160,98.36 C161.14124,97.6516736 162.456818,97.2743104 163.8,97.27 C164.680887,97.2669025 165.552753,97.447406 166.36,97.8 C167.123596,98.11475 167.806992,98.5965444 168.36,99.21 C168.957043,99.9519904 169.408312,100.800241 169.69,101.71 C170.363495,100.360728 171.372428,99.2071695 172.62,98.36 C173.762723,97.61759 175.097296,97.2248642 176.46,97.23 C177.677892,97.2573706 178.859264,97.6511612 179.85,98.36 C180.836779,99.0190597 181.597664,99.9649309 182.03,101.07 C182.583087,102.74868 182.823732,104.514536 182.74,106.28 L182.74,116.38 L180.3,116.38 L180.3,106.28 C180.364359,104.933063 180.222728,103.584193 179.88,102.28 C179.61773,101.521288 179.115821,100.868455 178.45,100.42 C177.723489,99.9522318 176.873886,99.7119752 176.01,99.73 C174.873752,99.7168987 173.763054,100.067276 172.84,100.73 C171.920206,101.424343 171.224729,102.373669 170.84,103.46 C170.301421,105.306134 170.074972,107.229259 170.17,109.15 L170.17,116.4 L167.71,116.4 L167.71,106.9 C167.787165,105.367769 167.645745,103.832357 167.29,102.34 C167.041517,101.531139 166.531503,100.827672 165.84,100.34 C165.116232,99.8459981 164.256075,99.5907483 163.38,99.61 C162.271051,99.6137652 161.19089,99.9633318 160.29,100.61 C159.332894,101.277317 158.595136,102.213435 158.17,103.3 C157.618896,104.972246 157.378271,106.731182 157.46,108.49 L157.46,116.35 L155,116.35 L155,97.77 Z" id="Path" fill="#4B4F54"></path>
            <path d="M204,110.15 L206,111.2 C205.431069,112.36995 204.65911,113.429701 203.72,114.33 C202.874674,115.116344 201.886993,115.734069 200.81,116.15 C199.633144,116.586868 198.385159,116.800518 197.13,116.78 C194.433253,116.911178 191.823578,115.806944 190.04,113.78 C188.39113,111.929929 187.48,109.538212 187.48,107.06 C187.457099,104.780674 188.219867,102.562996 189.64,100.78 C191.380363,98.4896826 194.125277,97.1880858 197,97.29 C199.95516,97.1932892 202.774917,98.5305316 204.57,100.88 C205.933008,102.707091 206.637877,104.941526 206.57,107.22 L190,107.22 C189.95401,109.176215 190.671323,111.073507 192,112.51 C193.305066,113.859381 195.124345,114.587092 197,114.51 C197.937856,114.514086 198.868984,114.351562 199.75,114.03 C200.583686,113.736372 201.356464,113.292363 202.03,112.72 C202.808442,111.963951 203.472131,111.098123 204,110.15 Z M204,105.15 C203.75346,104.06315 203.279753,103.040761 202.61,102.15 C201.964221,101.35812 201.142385,100.728046 200.21,100.31 C199.194707,99.8294059 198.083215,99.5865876 196.96,99.6 C195.229488,99.5674675 193.551876,100.197019 192.27,101.36 C191.201301,102.409942 190.452317,103.741468 190.11,105.2 L204,105.15 Z" id="Shape" fill="#4B4F54" fill-rule="nonzero"></path>
            <path d="M212.51,97.77 L214.89,97.77 L214.89,101.08 C215.729549,99.9132064 216.810779,98.9411233 218.06,98.23 C219.218824,97.5973263 220.519751,97.2703736 221.84,97.28 C223.150539,97.2524695 224.439273,97.6181914 225.54,98.33 C226.60163,99.0193333 227.430992,100.012477 227.92,101.18 C228.525483,102.971529 228.786739,104.861395 228.69,106.75 L228.69,116.28 L226.29,116.28 L226.29,107.43 C226.344257,105.998255 226.257169,104.564649 226.03,103.15 C225.837764,102.067694 225.27147,101.087297 224.43,100.38 C223.543227,99.7278514 222.459601,99.3995869 221.36,99.45 C219.936188,99.4411746 218.557538,99.949285 217.48,100.88 C216.357255,101.773525 215.551028,103.003897 215.18,104.39 C214.896752,106.040747 214.782827,107.716105 214.84,109.39 L214.84,116.18 L212.46,116.18 L212.51,97.77 Z" id="Path" fill="#4B4F54"></path>
            <polygon id="Path" fill="#4B4F54" points="236.54 90.89 238.92 90.89 238.92 97.78 242.7 97.78 242.7 99.78 238.92 99.78 238.92 116.24 236.54 116.24 236.54 99.83 233.35 99.83 233.35 97.83 236.6 97.83"></polygon>
            <path d="M269.92,116.29 L269.92,90.62 L272.3,90.62 L272.3,101 C273.231143,99.8330342 274.40941,98.887005 275.75,98.23 C279.399889,96.5118325 283.73934,97.3169255 286.53,100.23 C288.362406,102.065333 289.369567,104.56699 289.32,107.16 C289.364208,109.738287 288.34841,112.22175 286.51,114.03 C284.757558,115.876149 282.315287,116.90886 279.77,116.88 C278.375404,116.875148 277.002809,116.532 275.77,115.88 C274.476662,115.173737 273.364311,114.177754 272.52,112.97 L272.52,116.38 L269.92,116.29 Z M279.45,114.47 C282.112273,114.50834 284.57656,113.068272 285.85,110.73 C287.183336,108.404208 287.183336,105.545792 285.85,103.22 C285.213046,102.035051 284.261452,101.048854 283.1,100.37 C282.009857,99.7149048 280.761834,99.3691921 279.49,99.37 C278.176745,99.3660273 276.886026,99.7111394 275.75,100.37 C274.612586,100.995198 273.673606,101.927248 273.04,103.06 C272.398925,104.222759 272.071527,105.532354 272.09,106.86 C272.007286,108.846138 272.728221,110.781848 274.09,112.23 C275.458309,113.729885 277.410409,114.561808 279.44,114.51 L279.45,114.47 Z" id="Shape" fill="#4B4F54" fill-rule="nonzero"></path>
            <polygon id="Path" fill="#4B4F54" points="292.28 97.77 294.8 97.77 301.17 112 307.35 97.74 309.89 97.74 298.89 123.04 296.37 123.04 299.94 114.86"></polygon>
            <path d="M336.34,97.77 L338.72,97.77 L338.72,101 C339.414953,99.9519664 340.316732,99.0569931 341.37,98.37 C342.51124,97.6616736 343.826818,97.2843104 345.17,97.28 C346.050946,97.2763149 346.922932,97.4568432 347.73,97.81 C348.493596,98.12475 349.176992,98.6065444 349.73,99.22 C350.327447,99.9617232 350.77876,100.810055 351.06,101.72 C351.734867,100.365888 352.747456,99.2086438 354,98.36 C355.142723,97.61759 356.477296,97.2248642 357.84,97.23 C359.044262,97.2190786 360.224469,97.5672223 361.23,98.23 C362.216779,98.8890597 362.977664,99.8349309 363.41,100.94 C363.963087,102.61868 364.203732,104.384536 364.12,106.15 L364.12,116.25 L361.68,116.25 L361.68,106.15 C361.744673,104.803054 361.603036,103.454137 361.26,102.15 C360.981286,101.410553 360.47315,100.779763 359.81,100.35 C359.083489,99.8822318 358.233886,99.6419752 357.37,99.66 C356.233752,99.6468987 355.123054,99.9972764 354.2,100.66 C353.280206,101.354343 352.584729,102.303669 352.2,103.39 C351.661421,105.236134 351.434972,107.159259 351.53,109.08 L351.53,116.33 L349.09,116.33 L349.09,106.8 C349.167301,105.267767 349.02588,103.732335 348.67,102.24 C348.421517,101.431139 347.911503,100.727672 347.22,100.24 C346.496232,99.7459981 345.636075,99.4907483 344.76,99.51 C343.651051,99.5137652 342.57089,99.8633318 341.67,100.51 C340.712894,101.177317 339.975136,102.113435 339.55,103.2 C339.011357,104.86102 338.777594,106.605772 338.86,108.35 L338.86,116.21 L336.38,116.21 L336.34,97.77 Z" id="Path" fill="#4B4F54"></path>
            <path d="M385.46,110.15 L387.46,111.2 C386.891069,112.36995 386.11911,113.429701 385.18,114.33 C384.334674,115.116344 383.346993,115.734069 382.27,116.15 C381.099429,116.584423 379.858453,116.798034 378.61,116.78 C375.912726,116.914148 373.301814,115.80939 371.52,113.78 C369.87113,111.929929 368.96,109.538212 368.96,107.06 C368.93546,104.780408 369.698412,102.562197 371.12,100.78 C372.854029,98.4851009 375.595179,97.1760618 378.47,97.27 C381.42516,97.1732892 384.244917,98.5105316 386.04,100.86 C387.403008,102.687091 388.107877,104.921526 388.04,107.2 L371.42,107.2 C371.37401,109.156215 372.091323,111.053507 373.42,112.49 C374.708536,113.820919 376.498401,114.547031 378.35,114.49 C379.287856,114.494086 380.218984,114.331562 381.1,114.01 C381.933686,113.716372 382.706464,113.272363 383.38,112.7 C384.195639,111.957554 384.896605,111.098197 385.46,110.15 Z M385.46,105.15 C385.212887,104.063345 384.739234,103.041072 384.07,102.15 C383.424221,101.35812 382.602385,100.728046 381.67,100.31 C380.685175,99.844026 379.6095,99.6015723 378.52,99.6 C376.789836,99.5694908 375.112945,100.198772 373.83,101.36 C372.762177,102.410612 372.013345,103.741869 371.67,105.2 L385.46,105.15 Z" id="Shape" fill="#4B4F54" fill-rule="nonzero"></path>
            <path d="M412.38,97.77 L412.38,116.29 L410,116.29 L410,113.1 C409.089726,114.250544 407.939729,115.18897 406.63,115.85 C402.974841,117.577899 398.624031,116.772193 395.83,113.85 C393.992539,112.00982 392.984961,109.499903 393.04,106.9 C392.998941,104.328175 394.014675,101.852096 395.85,100.05 C397.610979,98.1981895 400.064802,97.1651916 402.62,97.2 C404.014003,97.2095618 405.385497,97.5524354 406.62,98.2 C407.916757,98.9014126 409.030134,99.8983134 409.87,101.11 L409.87,97.77 L412.38,97.77 Z M402.85,99.59 C400.207462,99.5669873 397.765276,100.995435 396.49,103.31 C395.156152,105.628514 395.156152,108.481486 396.49,110.8 C397.119313,111.955086 398.048643,112.918964 399.18,113.59 C400.278867,114.250372 401.537986,114.596284 402.82,114.59 C404.126224,114.588549 405.409108,114.243687 406.54,113.59 C407.667993,112.968111 408.599711,112.043321 409.23,110.92 C409.87281,109.757923 410.200326,108.44786 410.18,107.12 C410.265001,105.133499 409.543746,103.19693 408.18,101.75 C406.792449,100.297044 404.847493,99.5103198 402.84,99.59 L402.85,99.59 Z" id="Shape" fill="#4B4F54" fill-rule="nonzero"></path>
            <path d="M428.45,99.79 L426.92,101.37 C425.965758,100.283183 424.622462,99.6151264 423.18,99.51 C422.438169,99.4945542 421.719946,99.7710703 421.18,100.28 C420.652563,100.729104 420.349078,101.387263 420.35,102.08 C420.365494,102.717692 420.610486,103.328397 421.04,103.8 C421.865958,104.636985 422.838806,105.314928 423.91,105.8 C425.297553,106.415167 426.538352,107.318496 427.55,108.45 C428.165382,109.29449 428.49157,110.315144 428.48,111.36 C428.506143,112.813085 427.926479,114.211525 426.88,115.22 C425.818322,116.270723 424.373135,116.841572 422.88,116.8 C421.816006,116.799728 420.766075,116.55691 419.81,116.09 C418.862321,115.623699 418.03955,114.938056 417.41,114.09 L418.9,112.39 C419.838246,113.592449 421.25627,114.323389 422.78,114.39 C423.683032,114.407411 424.557648,114.074053 425.22,113.46 C425.852433,112.920324 426.217679,112.131394 426.22,111.3 C426.22328,110.632417 425.985353,109.986108 425.55,109.48 C424.670089,108.648739 423.655745,107.97251 422.55,107.48 C421.273237,106.9311 420.130407,106.112356 419.2,105.08 C418.593256,104.239852 418.274082,103.226211 418.29,102.19 C418.251631,100.870923 418.770753,99.5967151 419.72,98.68 C420.695456,97.7435193 422.008626,97.2420615 423.36,97.29 C425.317059,97.4302854 427.142636,98.3269344 428.45,99.79 Z" id="Path" fill="#4B4F54"></path>
            <path d="M433.76,97.77 L436.14,97.77 L436.14,106.43 C436.079605,107.891682 436.193744,109.355351 436.48,110.79 C436.807353,111.895079 437.516026,112.848245 438.48,113.48 C439.493619,114.157429 440.691136,114.50656 441.91,114.48 C443.116518,114.50747 444.301556,114.157901 445.3,113.48 C446.199819,112.874114 446.874679,111.98836 447.22,110.96 C447.533574,109.468277 447.654561,107.9425 447.58,106.42 L447.58,97.77 L450.02,97.77 L450.02,106.86 C450.121803,108.827261 449.81889,110.79449 449.13,112.64 C448.555427,113.887761 447.617954,114.93327 446.44,115.64 C443.613782,117.084087 440.266218,117.084087 437.44,115.64 C436.241411,114.920955 435.29476,113.848549 434.73,112.57 C434.038566,110.676514 433.735872,108.663089 433.84,106.65 L433.76,97.77 Z" id="Path" fill="#4B4F54"></path>
            <path d="M455.07,97.77 L457.51,97.77 L457.51,100.38 C458.114129,99.4442721 458.895467,98.6357574 459.81,98 C460.553159,97.4927719 461.430276,97.2178027 462.33,97.21 C463.038139,97.2533719 463.724848,97.4696852 464.33,97.84 L463.1,99.84 C462.708182,99.6528563 462.283545,99.5441493 461.85,99.52 C460.985031,99.5529977 460.164071,99.9099372 459.55,100.52 C458.717489,101.340946 458.134939,102.381213 457.87,103.52 C457.488078,105.630618 457.340516,107.776973 457.43,109.92 L457.43,116.18 L455,116.18 L455.07,97.77 Z" id="Path" fill="#4B4F54"></path>
            <path d="M482.61,110.15 L484.61,111.2 C484.042351,112.37072 483.270236,113.430685 482.33,114.33 C481.485733,115.117723 480.49777,115.735624 479.42,116.15 C478.249429,116.584423 477.008453,116.798034 475.76,116.78 C473.062726,116.914148 470.451814,115.80939 468.67,113.78 C467.02113,111.929929 466.11,109.538212 466.11,107.06 C466.08546,104.780408 466.848412,102.562197 468.27,100.78 C470.012252,98.4732948 472.771254,97.1628623 475.66,97.27 C478.61516,97.1732892 481.434917,98.5105316 483.23,100.86 C484.593008,102.687091 485.297877,104.921526 485.23,107.2 L468.62,107.2 C468.57401,109.156215 469.291323,111.053507 470.62,112.49 C471.908536,113.820919 473.698401,114.547031 475.55,114.49 C476.487856,114.494086 477.418984,114.331562 478.3,114.01 C479.133497,113.71596 479.906204,113.271993 480.58,112.7 C481.377707,111.953827 482.061653,111.094683 482.61,110.15 Z M482.61,105.15 C482.362887,104.063345 481.889234,103.041072 481.22,102.15 C480.574221,101.35812 479.752385,100.728046 478.82,100.31 C477.841279,99.8468927 476.772748,99.6045104 475.69,99.6 C473.959488,99.5674675 472.281876,100.197019 471,101.36 C469.931301,102.409942 469.182317,103.741468 468.84,105.2 L482.61,105.15 Z" id="Shape" fill="#4B4F54" fill-rule="nonzero"></path>
            <path d="M490.35,97.77 L492.73,97.77 L492.73,101 C493.398673,99.9608021 494.269214,99.0664572 495.29,98.37 C496.43124,97.6616736 497.746818,97.2843104 499.09,97.28 C499.970946,97.2763149 500.842932,97.4568432 501.65,97.81 C502.413596,98.12475 503.096992,98.6065444 503.65,99.22 C504.247043,99.9619904 504.698312,100.810241 504.98,101.72 C505.672227,100.361835 506.70614,99.2072997 507.98,98.37 C509.122723,97.62759 510.457296,97.2348642 511.82,97.24 C513.024262,97.2290786 514.204469,97.5772223 515.21,98.24 C516.196779,98.8990597 516.957664,99.8449309 517.39,100.95 C517.943087,102.62868 518.183732,104.394536 518.1,106.16 L518.1,116.26 L515.66,116.26 L515.66,106.16 C515.724673,104.813054 515.583036,103.464137 515.24,102.16 C514.961286,101.420553 514.45315,100.789763 513.79,100.36 C513.063489,99.8922318 512.213886,99.6519752 511.35,99.67 C510.213752,99.6568987 509.103054,100.007276 508.18,100.67 C507.260206,101.364343 506.564729,102.313669 506.18,103.4 C505.641789,105.246209 505.415348,107.169271 505.51,109.09 L505.51,116.34 L503.13,116.34 L503.13,106.8 C503.207301,105.267767 503.06588,103.732335 502.71,102.24 C502.461517,101.431139 501.951503,100.727672 501.26,100.24 C500.536232,99.7459981 499.676075,99.4907483 498.8,99.51 C497.691051,99.5137652 496.61089,99.8633318 495.71,100.51 C494.752894,101.177317 494.015136,102.113435 493.59,103.2 C493.050493,104.860823 492.816709,106.605734 492.9,108.35 L492.9,116.21 L490.52,116.21 L490.35,97.77 Z" id="Path" fill="#4B4F54"></path>
            <path d="M539.38,110.15 L541.38,111.2 C540.811069,112.36995 540.03911,113.429701 539.1,114.33 C538.254674,115.116344 537.266993,115.734069 536.19,116.15 C535.019429,116.584423 533.778453,116.798034 532.53,116.78 C529.832726,116.914148 527.221814,115.80939 525.44,113.78 C523.79113,111.929929 522.88,109.538212 522.88,107.06 C522.85546,104.780408 523.618412,102.562197 525.04,100.78 C526.774029,98.4851009 529.515179,97.1760618 532.39,97.27 C535.34516,97.1732892 538.164917,98.5105316 539.96,100.86 C541.323008,102.687091 542.027877,104.921526 541.96,107.2 L525.34,107.2 C525.29401,109.156215 526.011323,111.053507 527.34,112.49 C528.614277,113.805333 530.379078,114.530097 532.21,114.49 C533.16189,114.495659 534.107004,114.329671 535,114 C535.833686,113.706372 536.606464,113.262363 537.28,112.69 C538.102169,111.952237 538.809926,111.096188 539.38,110.15 Z M539.38,105.15 C539.132887,104.063345 538.659234,103.041072 537.99,102.15 C537.343706,101.358652 536.522006,100.728682 535.59,100.31 C534.605175,99.844026 533.5295,99.6015723 532.44,99.6 C530.709488,99.5674675 529.031876,100.197019 527.75,101.36 C526.682177,102.410612 525.933345,103.741869 525.59,105.2 L539.38,105.15 Z" id="Shape" fill="#4B4F54" fill-rule="nonzero"></path>
            <path d="M547.13,97.77 L549.51,97.77 L549.51,101.08 C550.349549,99.9132064 551.430779,98.9411233 552.68,98.23 C553.838824,97.5973263 555.139751,97.2703736 556.46,97.28 C557.770539,97.2524695 559.059273,97.6181914 560.16,98.33 C561.214211,99.0223519 562.036347,100.015186 562.52,101.18 C563.123844,102.971916 563.385057,104.861468 563.29,106.75 L563.29,116.28 L560.91,116.28 L560.91,107.43 C560.964127,105.998256 560.877039,104.564663 560.65,103.15 C560.45615,102.068283 559.890153,101.088401 559.05,100.38 C558.163227,99.7278514 557.079601,99.3995869 555.98,99.45 C554.556188,99.4411746 553.177538,99.949285 552.1,100.88 C550.999496,101.782401 550.214929,103.01179 549.86,104.39 C549.576959,106.040771 549.463036,107.716108 549.52,109.39 L549.52,116.18 L547.14,116.18 L547.13,97.77 Z" id="Path" fill="#4B4F54"></path>
            <polygon id="Path" fill="#4B4F54" points="571.19 90.89 573.57 90.89 573.57 97.78 577.35 97.78 577.35 99.78 573.57 99.78 573.57 116.24 571.19 116.24 571.19 99.83 567.94 99.83 567.94 97.83 571.19 97.83"></polygon>
            <polygon id="Path" fill="#25477B" points="108.79 77.36 183.69 77.36 183.69 69.7 122.32 69.7 122.32 41.9 181.15 41.9 181.15 34.22 122.32 34.22 122.32 8.92 183.69 8.92 183.69 1.24 108.79 1.24"></polygon>
            <path d="M284.46,6.78 C279,2.6 265.1,0.48 243.25,0.48 C224.35,0.48 211.25,2.34 204.32,6.01 C197.39,9.68 193.78,16.71 193.78,26.81 L193.61,34 L193.61,39.31 C193.61,56.7 196.34,67.58 201.69,71.86 C207.04,76.14 221.06,78.2 243.25,78.2 C265.44,78.2 279.6,76 284.81,71.8 C290.02,67.6 292.89,56.29 292.89,38.32 C292.78,21.62 289.9,11 284.46,6.78 Z M279.8,39.27 C279.8,54.76 278.27,63.93 275.22,66.53 C272.17,69.13 261.37,70.47 243.11,70.47 C224.85,70.47 214.11,69.14 211.11,66.53 C208.11,63.92 206.53,54.76 206.53,39.27 C206.53,23.78 208.11,14.67 211.15,12.07 C214.19,9.47 224.98,8.13 243.15,8.13 C258.98,8.13 269.15,9.26 273.44,11.48 C277.73,13.7 279.8,19 279.8,27.19 L279.8,39.27 Z" id="Shape" fill="#25477B" fill-rule="nonzero"></path>
            <polygon id="Path" fill="#25477B" points="386.79 1.24 298.06 1.24 298.06 9.64 335.82 9.64 335.82 77.36 349.37 77.36 349.37 9.64 386.79 9.64"></polygon>
            <path d="M434.61,1.24 L416,1.24 L373.3,77.36 L387.68,77.36 L396.59,61.36 L455,61.36 L464,77.36 L478.14,77.36 L434.67,1.43 L434.61,1.24 Z M400.61,54.45 L425.61,8.93 L450.93,54.43 L400.61,54.45 Z" id="Shape" fill="#25477B" fill-rule="nonzero"></path>
            <path d="M561.9,37.45 C571.39,35.13 576.22,29.76 576.22,21.45 C576.22,13.14 574,7.67 569.53,5.1 C565.06,2.53 555.72,1.24 541.53,1.24 L490,1.24 L490,77.36 L547,77.36 C559,77.36 567.52,75.7 572.38,72.45 C577.24,69.2 579.73,63.45 579.73,55.35 C579.79,45.53 573.77,39.51 561.9,37.45 Z M503.57,8.92 L541.27,8.92 C550.52,8.92 556.58,9.67 559.27,11.14 C561.96,12.61 563.27,15.85 563.27,20.83 C563.27,26.59 561.74,30.34 558.69,31.98 C555.64,33.62 548.59,34.5 537.69,34.5 L503.57,34.5 L503.57,8.92 Z M562.34,67.14 C559.34,68.8 552.77,69.62 542.89,69.62 L503.57,69.62 L503.57,42.18 L537,42.18 C550.71,42.18 559.21,42.95 562.28,44.46 C565.35,45.97 566.82,50.05 566.82,56.7 C566.84,62 565.33,65.52 562.34,67.14 Z" id="Shape" fill="#25477B" fill-rule="nonzero"></path>
            <path d="M45.93,39.27 L45.93,46.94 L83.45,46.94 L83.45,51.34 L83.45,51.62 C83.45,60.08 81.77,65.39 78.6,67.37 C75.43,69.35 66.67,70.44 52.79,70.44 C34.61,70.44 23.33,69.35 19.17,67.19 C15.01,65.03 13,59.26 13,49.89 L13,39.09 L13.13,29 C13.13,19.75 15.01,13.89 18.7,11.59 C22.39,9.29 31.93,8.09 47,8.09 C63.16,8.09 73.43,8.82 77.29,10.27 C81.15,11.72 82.78,15.56 82.78,21.62 L82.78,23.62 L96,23.62 L96,20.55 C96,12.11 93.07,6.55 87.28,4.13 C81.49,1.71 68.77,0.48 49.14,0.48 C29.51,0.48 16.34,2.35 9.86,6.05 C3.38,9.75 0,17.36 0,28.59 L0,46.44 C0,59.81 3,68.53 8.85,72.37 C14.7,76.21 27.97,78.17 48.35,78.17 C69.92,78.17 83.45,76.53 88.58,73.28 C93.71,70.03 96.01,62.46 96.33,50.28 L96.33,39.28 L45.93,39.27 Z" id="Path" fill="#25477B"></path>
        </g>
    </g>
</svg>