<svg id="Isolation_Mode" xmlns="http://www.w3.org/2000/svg" viewBox="0 0 697.7 119.5"><style>.st0{fill:#00a6c4}</style><path class="st0" d="M399.6 64.3v22.6c-6.2 4.7-15.4 8-23.8 8-18.1 0-32.2-13.6-32.2-31.1s14.3-30.9 32.9-30.9c8.8 0 17.5 3.3 23.6 8.6l-5.9 7.6c-4.7-4.4-11.3-7-17.7-7-12.5 0-22.3 9.5-22.3 21.7 0 12.3 9.9 21.8 22.4 21.8 4.6 0 9.7-1.6 14.1-4.2V64.3h8.9zm61.6 30.1l-32.7-44v44h-10.3V33.1h10.2l32.9 44.1V33.1h10.2v61.3h-10.3zm90.2-30.7c0 17.5-14.2 31.1-32.5 31.1s-32.5-13.6-32.5-31.1c0-17.6 14.2-30.9 32.5-30.9 18.4 0 32.5 13.4 32.5 30.9zm-54.5 0c0 12.2 10.1 21.8 22.1 21.8 12 0 21.8-9.6 21.8-21.8 0-12.2-9.8-21.6-21.8-21.6-12.1 0-22.1 9.5-22.1 21.6zm111.2-24.8l-4.3 9.1c-6.7-4-13.3-5.7-18-5.7-6 0-10 2.3-10 6.4 0 13.4 33.1 6.2 33 28.3 0 11-9.6 17.7-23.1 17.7-9.6 0-18.7-3.9-25.1-9.7l4.5-8.9c6.3 5.8 14.2 8.9 20.8 8.9 7.2 0 11.5-2.7 11.5-7.4 0-13.7-33.1-6-33.1-27.9 0-10.5 9-17.1 22.3-17.1 8 0 15.8 2.6 21.5 6.3zm16.8 55.5V33.1h10.3v61.3h-10.3zm72-55.5l-4.3 9.1c-6.7-4-13.3-5.7-18-5.7-6 0-10 2.3-10 6.4 0 13.4 33.1 6.2 33 28.3 0 11-9.6 17.7-23.1 17.7-9.6 0-18.7-3.9-25.1-9.7l4.5-8.9c6.3 5.8 14.2 8.9 20.8 8.9 7.2 0 11.5-2.7 11.5-7.4 0-13.7-33.1-6-33.1-27.9 0-10.5 9-17.1 22.3-17.1 8 0 15.8 2.6 21.5 6.3zm-496.2-9l-4.4 4.4c3.5 5.5 4.6 12.4 2.2 19-4 11.2-16.4 17.1-27.7 13.1-1.6-.6-3.1-1.3-4.4-2.2l-14.1 14.1L140 65.9c-5.7 3.8-13 4.9-19.9 2.5-11.6-4.2-17.6-16.9-13.4-28.4.6-1.8 1.5-3.4 2.5-4.9l-5.3-5.3-1 1.7c-5.5 9-8.5 19.4-8.5 30.1-.1 31.9 25.9 58 57.8 58h.1c31.9 0 57.8-25.9 57.9-57.8 0-10.6-2.9-21-8.4-30.1l-1.1-1.8z"/><path class="st0" d="M115.7 41.6c-1.5 2-2.4 4.5-2.4 7.2 0 6.5 5.3 11.8 11.8 11.8 2.7 0 5.2-.9 7.2-2.5l-16.6-16.5zm57.9 15.5c1.9 1.3 4.1 2 6.6 2 6.5 0 11.8-5.3 11.8-11.8 0-2.4-.7-4.7-2-6.6l-16.4 16.4zm-21.1 12.4l-47.8-48 1.9-2C118.4 7 134.5 0 151.8 0h.1c17.5 0 34.3 7.5 46 20.5l1.8 2-47.2 47zm-40-48l40 40.1L192 22.3c-10.6-10.6-25-16.7-40-16.7h-.1c-14.9 0-28.8 5.6-39.4 15.9zm-12.7 78.9l-5.6-.4c-23.8-1.5-56.6-7.4-77.8-26.5C3.3 61.8.8 50.7.7 50.2L0 46.8h86.6l-.5 3.2c-.4 2.9-.6 5.9-.6 8.8 0 13.2 3.8 26 11.1 36.9l3.2 4.7zm104.8 0l3.1-4.7c7.3-10.9 11.1-23.6 11.1-36.7 0-3-.2-6.1-.6-9l-.4-3.2h86.6l-.7 3.4c-.1.5-2.6 11.6-15.6 23.3-21.2 19.1-54.1 25-77.9 26.5l-5.6.4z"/></svg>
