<svg width="576px" height="199px" viewBox="0 0 576 199" version="1.1" xmlns="http://www.w3.org/2000/svg" xmlns:xlink="http://www.w3.org/1999/xlink">
    <defs>
        <polygon id="path-1" points="0 0.945 575.596 0.945 575.596 198.94 0 198.94"></polygon>
    </defs>
    <g id="Page-1" stroke="none" stroke-width="1" fill="none" fill-rule="evenodd">
        <g id="gorilla">
            <polyline id="Fill-1" fill="#D8662C" points="490.028 88.162 502.79 88.162 496.4 73.126 490.028 88.162"></polyline>
            <path d="M235.004,63.853 C233.947,63.853 232.925,63.868 231.958,63.916 C231.18,63.956 230.432,64.041 229.715,64.162 L229.715,80.618 C230.341,80.685 230.98,80.741 231.655,80.777 C232.506,80.826 233.339,80.847 234.171,80.847 C237.905,80.847 240.617,80.023 242.374,78.476 C244.156,76.907 245.031,74.812 245.042,72 C245.031,69.535 244.186,67.622 242.447,66.123 C240.72,64.625 238.27,63.853 235.004,63.853" id="Fill-2" fill="#D8662C"></path>
            <g id="Group-8">
                <mask id="mask-2" fill="white">
                    <use xlink:href="#path-1"></use>
                </mask>
                <g id="Clip-4"></g>
                <path d="M172.337,68.876 C170.933,67.256 169.285,66.013 167.321,65.113 C165.381,64.222 163.242,63.766 160.901,63.763 C158.547,63.766 156.408,64.222 154.431,65.113 C152.461,66.013 150.777,67.256 149.391,68.876 C148.004,70.5 146.916,72.397 146.12,74.619 C145.324,76.832 144.928,79.24 144.928,81.833 C144.928,84.432 145.324,86.827 146.12,89.035 C146.916,91.257 148.004,93.155 149.391,94.747 C150.777,96.346 152.461,97.589 154.444,98.511 C156.414,99.432 158.547,99.894 160.901,99.894 C163.242,99.894 165.381,99.432 167.315,98.517 C169.285,97.602 170.945,96.346 172.337,94.747 C173.723,93.155 174.812,91.257 175.608,89.035 C176.399,86.827 176.8,84.432 176.8,81.833 C176.8,79.24 176.399,76.832 175.608,74.619 C174.812,72.397 173.723,70.5 172.337,68.876" id="Fill-3" fill="#D8662C" mask="url(#mask-2)"></path>
                <path d="M511.85,108.719 L511.455,108.719 L506.153,96.24 L486.672,96.24 L481.376,108.719 L471.07,108.719 L495.548,54.919 L497.549,54.919 L521.955,108.719 L511.85,108.719 Z M443.911,108.726 L411.522,108.726 L411.522,54.919 L421.426,54.919 L421.426,99.605 L443.911,99.605 L443.911,108.726 Z M377.905,108.726 L345.523,108.726 L345.523,54.867 L355.415,54.867 L355.409,99.599 L377.905,99.599 L377.905,108.726 Z M295.368,108.726 L305.272,108.726 L305.272,54.867 L295.368,54.867 L295.368,108.726 Z M248.59,108.726 L247.809,107.571 L236.659,89.154 C236.306,89.184 235.959,89.202 235.637,89.19 C235.211,89.19 234.755,89.19 234.239,89.19 C233.393,89.19 232.542,89.184 231.679,89.154 C231.016,89.148 230.366,89.129 229.715,89.093 L229.715,108.726 L219.823,108.726 L219.823,55.766 L220.339,55.702 C222.401,55.468 224.517,55.265 226.675,55.107 C228.876,54.939 231.272,54.867 233.892,54.867 C237.565,54.867 240.75,55.286 243.462,56.146 C246.15,57 248.393,58.177 250.187,59.669 C251.98,61.174 253.306,62.947 254.169,65.005 C255.008,67.027 255.428,69.228 255.428,71.58 C255.428,75.031 254.54,78.108 252.747,80.777 C251.062,83.264 248.704,85.227 245.706,86.624 L259.796,108.726 L248.59,108.726 Z M185.282,92.558 C183.938,95.866 182.047,98.73 179.645,101.131 C177.238,103.545 174.416,105.414 171.17,106.777 C167.959,108.129 164.463,108.807 160.7,108.807 C160.669,108.807 160.645,108.807 160.615,108.807 C156.881,108.82 153.379,108.129 150.157,106.765 C146.953,105.414 144.174,103.53 141.833,101.119 C139.499,98.724 137.668,95.854 136.368,92.558 C135.054,89.247 134.404,85.666 134.404,81.833 C134.404,77.945 135.084,74.345 136.447,71.035 C137.79,67.724 139.681,64.861 142.089,62.452 C144.491,60.048 147.324,58.163 150.577,56.811 C153.847,55.454 157.362,54.774 161.114,54.78 C164.901,54.774 168.404,55.454 171.601,56.811 C174.788,58.175 177.554,60.048 179.895,62.465 C182.23,64.869 184.06,67.737 185.361,71.035 C186.674,74.345 187.325,77.945 187.325,81.833 C187.325,85.679 186.644,89.247 185.282,92.558 Z M101.036,102.955 L100.762,103.132 C97.978,104.922 95.035,106.312 91.94,107.315 C88.815,108.318 85.3,108.807 81.391,108.807 C81.361,108.807 81.336,108.807 81.312,108.807 C77.64,108.807 74.113,108.151 70.769,106.85 C67.395,105.539 64.446,103.715 61.929,101.35 C59.4,98.997 57.387,96.163 55.891,92.86 C54.389,89.549 53.641,85.855 53.641,81.833 C53.641,77.759 54.395,74.047 55.927,70.737 C57.448,67.426 59.485,64.58 62.033,62.198 C64.568,59.82 67.529,57.981 70.872,56.699 C74.223,55.421 77.731,54.774 81.391,54.774 C85.209,54.78 88.584,55.26 91.527,56.233 C94.439,57.208 97.217,58.525 99.863,60.179 L100.325,60.468 L95.77,68.475 L95.247,68.147 C93.205,66.825 91.028,65.797 88.717,65.061 C86.425,64.337 84.121,63.97 81.811,63.97 C78.941,63.97 76.417,64.435 74.247,65.359 C72.058,66.295 70.228,67.554 68.756,69.162 C67.273,70.777 66.136,72.67 65.34,74.832 C64.562,77.008 64.161,79.337 64.161,81.833 C64.161,84.472 64.604,86.889 65.51,89.12 C66.422,91.355 67.668,93.251 69.261,94.824 C70.848,96.401 72.721,97.641 74.873,98.547 C77.013,99.453 79.293,99.894 81.738,99.894 C83.939,99.894 85.805,99.694 87.326,99.317 C88.748,98.963 90.134,98.413 91.496,97.681 L91.496,88.555 L79.549,88.555 L79.549,79.708 L101.036,79.708 L101.036,102.955 Z M0,162.558 L575.596,162.558 L575.596,0.945 L0,0.945 L0,162.558 Z" id="Fill-5" fill="#D8662C" mask="url(#mask-2)"></path>
                <path d="M19.124,192.258 L16.87,186.478 L14.527,192.258 L19.124,192.258 Z M19.847,194.097 L13.761,194.097 L12.076,198.256 L9.974,198.256 L16.892,181.772 L17.023,181.772 L23.941,198.256 L21.489,198.256 L19.847,194.097 Z" id="Fill-6" fill="#4D4E4C" mask="url(#mask-2)"></path>
                <polyline id="Fill-7" fill="#4D4E4C" mask="url(#mask-2)" points="55.246 198.956 51.546 189.499 47.496 199 41.191 182.493 43.665 182.493 47.759 194.009 50.496 186.828 48.81 182.493 50.912 182.493 55.312 193.768 59.208 182.493 61.486 182.493 55.246 198.956"></polyline>
            </g>
            <path d="M71.447,194.545 C71.783,195.108 72.238,195.552 72.815,195.881 C73.391,196.209 74.03,196.373 74.73,196.373 C75.46,196.373 76.121,196.213 76.711,195.892 C77.302,195.571 77.766,195.125 78.102,194.556 C78.437,193.988 78.605,193.352 78.605,192.652 L78.605,182.428 L80.685,182.428 L80.685,192.717 C80.685,193.841 80.422,194.837 79.897,195.705 C79.371,196.575 78.656,197.245 77.751,197.72 C76.846,198.195 75.839,198.431 74.73,198.431 C73.636,198.431 72.636,198.195 71.731,197.72 C70.826,197.245 70.115,196.575 69.597,195.705 C69.079,194.837 68.82,193.841 68.82,192.717 L68.82,182.428 L70.943,182.428 L70.943,192.652 C70.943,193.352 71.111,193.984 71.447,194.545" id="Fill-9" fill="#4D4E4C"></path>
            <polyline id="Fill-10" fill="#4D4E4C" points="103.212 182.428 103.212 198.782 103.146 198.782 91.521 186.982 91.566 198.256 89.419 198.256 89.419 181.947 89.529 181.947 101.132 193.877 101.088 182.428 103.212 182.428"></polyline>
            <path d="M116.83,196.199 C117.997,196.199 119.04,195.968 119.959,195.509 C120.878,195.049 121.597,194.381 122.116,193.505 C122.634,192.63 122.893,191.586 122.893,190.375 C122.893,189.135 122.623,188.069 122.083,187.179 C121.542,186.288 120.824,185.614 119.927,185.154 C119.029,184.694 118.062,184.464 117.026,184.464 L114.267,184.464 L114.267,196.199 L116.83,196.199 Z M112.144,182.428 L116.478,182.428 C118.449,182.428 120.08,182.819 121.372,183.599 C122.664,184.38 123.605,185.387 124.196,186.62 C124.787,187.854 125.082,189.157 125.082,190.529 C125.082,192.061 124.724,193.414 124.009,194.589 C123.294,195.764 122.338,196.669 121.142,197.304 C119.945,197.939 118.646,198.256 117.245,198.256 L112.144,198.256 L112.144,182.428 Z" id="Fill-11" fill="#4D4E4C"></path>
            <polyline id="Fill-12" fill="#4D4E4C" points="143.318 182.428 143.318 184.464 135.152 184.464 135.152 189.281 142.443 189.281 142.443 191.317 135.152 191.317 135.152 196.199 143.624 196.199 143.624 198.256 133.029 198.256 133.029 182.428 143.318 182.428"></polyline>
            <path d="M158.588,189.478 C159.091,188.879 159.343,188.194 159.343,187.419 C159.343,186.952 159.238,186.492 159.026,186.04 C158.814,185.588 158.478,185.212 158.019,184.912 C157.559,184.614 156.979,184.464 156.279,184.464 L153.827,184.464 L153.827,190.375 L156.125,190.375 C157.263,190.375 158.084,190.076 158.588,189.478 Z M160.415,198.256 L156.695,192.41 C156.578,192.426 156.402,192.433 156.169,192.433 L153.827,192.433 L153.827,198.256 L151.703,198.256 L151.703,182.428 L155.928,182.428 C157.008,182.428 157.971,182.617 158.818,182.997 C159.664,183.377 160.329,183.935 160.81,184.672 C161.292,185.409 161.533,186.296 161.533,187.332 C161.533,188.31 161.318,189.207 160.886,190.025 C160.457,190.842 159.796,191.462 158.906,191.885 L162.89,198.256 L160.415,198.256 Z" id="Fill-13" fill="#4D4E4C"></path>
            <polyline id="Fill-14" fill="#4D4E4C" points="186.271 181.924 186.271 198.256 184.169 198.256 184.169 188.011 178.345 196.264 178.302 196.264 172.587 188.295 172.587 198.256 170.531 198.256 170.531 181.924 170.552 181.924 178.345 192.958 186.249 181.924 186.271 181.924"></polyline>
            <path d="M202.777,192.258 L200.522,186.478 L198.179,192.258 L202.777,192.258 Z M203.499,194.097 L197.414,194.097 L195.728,198.256 L193.626,198.256 L200.544,181.772 L200.675,181.772 L207.593,198.256 L205.141,198.256 L203.499,194.097 Z" id="Fill-15" fill="#4D4E4C"></path>
            <polyline id="Fill-16" fill="#4D4E4C" points="228.718 182.428 228.718 198.782 228.654 198.782 217.029 186.982 217.072 198.256 214.927 198.256 214.927 181.947 215.037 181.947 226.639 193.877 226.595 182.428 228.718 182.428"></polyline>
            <path d="M258.634,198.004 C257.853,198.289 257.003,198.431 256.083,198.431 C254.464,198.431 253.037,198.074 251.804,197.359 C250.571,196.644 249.623,195.68 248.958,194.469 C248.294,193.257 247.962,191.922 247.962,190.462 C247.962,188.901 248.298,187.496 248.969,186.248 C249.64,185 250.571,184.023 251.76,183.315 C252.95,182.607 254.296,182.253 255.799,182.253 C256.689,182.253 257.521,182.37 258.295,182.603 C259.068,182.837 259.761,183.143 260.374,183.523 L259.521,185.515 C258.31,184.698 257.091,184.289 255.865,184.289 C254.843,184.289 253.898,184.559 253.031,185.099 C252.162,185.639 251.468,186.372 250.951,187.299 C250.432,188.226 250.173,189.244 250.173,190.353 C250.173,191.491 250.41,192.521 250.884,193.44 C251.359,194.36 252.038,195.078 252.92,195.596 C253.804,196.115 254.822,196.373 255.974,196.373 C257.39,196.373 258.624,195.972 259.674,195.169 L260.572,197.074 C260.061,197.409 259.415,197.72 258.634,198.004" id="Fill-17" fill="#4D4E4C"></path>
            <path d="M270.511,193.374 C271.037,194.293 271.755,195.024 272.667,195.564 C273.58,196.104 274.576,196.373 275.656,196.373 C276.736,196.373 277.724,196.108 278.622,195.575 C279.519,195.041 280.227,194.312 280.746,193.385 C281.263,192.458 281.523,191.448 281.523,190.353 C281.523,189.258 281.259,188.244 280.734,187.31 C280.208,186.376 279.494,185.639 278.589,185.099 C277.683,184.559 276.691,184.289 275.611,184.289 C274.531,184.289 273.539,184.563 272.634,185.11 C271.729,185.658 271.017,186.398 270.499,187.332 C269.982,188.266 269.722,189.281 269.722,190.375 C269.722,191.455 269.986,192.454 270.511,193.374 Z M268.628,186.325 C269.357,185.084 270.339,184.096 271.572,183.359 C272.806,182.621 274.152,182.253 275.611,182.253 C277.056,182.253 278.399,182.621 279.64,183.359 C280.88,184.096 281.869,185.084 282.606,186.325 C283.343,187.566 283.712,188.908 283.712,190.353 C283.712,191.813 283.347,193.162 282.617,194.403 C281.887,195.644 280.898,196.625 279.651,197.348 C278.403,198.07 277.056,198.431 275.611,198.431 C274.152,198.431 272.802,198.074 271.562,197.359 C270.321,196.644 269.339,195.669 268.617,194.436 C267.894,193.202 267.533,191.842 267.533,190.353 C267.533,188.908 267.898,187.566 268.628,186.325 Z" id="Fill-18" fill="#4D4E4C"></path>
            <polyline id="Fill-19" fill="#4D4E4C" points="307.398 181.924 307.398 198.256 305.296 198.256 305.296 188.011 299.474 196.264 299.429 196.264 293.716 188.295 293.716 198.256 291.658 198.256 291.658 181.924 291.68 181.924 299.474 192.958 307.376 181.924 307.398 181.924"></polyline>
            <polyline id="Fill-20" fill="#4D4E4C" points="332.071 181.924 332.071 198.256 329.969 198.256 329.969 188.011 324.146 196.264 324.102 196.264 318.388 188.295 318.388 198.256 316.331 198.256 316.331 181.924 316.353 181.924 324.146 192.958 332.049 181.924 332.071 181.924"></polyline>
            <polyline id="Fill-21" fill="#4D4E4C" points="351.292 182.428 351.292 184.464 343.126 184.464 343.126 189.281 350.416 189.281 350.416 191.317 343.126 191.317 343.126 196.199 351.599 196.199 351.599 198.256 341.003 198.256 341.003 182.428 351.292 182.428"></polyline>
            <path d="M366.562,189.478 C367.066,188.879 367.317,188.194 367.317,187.419 C367.317,186.952 367.21,186.492 366.999,186.04 C366.789,185.588 366.453,185.212 365.993,184.912 C365.533,184.614 364.953,184.464 364.251,184.464 L361.8,184.464 L361.8,190.375 L364.099,190.375 C365.238,190.375 366.058,190.076 366.562,189.478 Z M368.39,198.256 L364.667,192.41 C364.551,192.426 364.376,192.433 364.142,192.433 L361.8,192.433 L361.8,198.256 L359.677,198.256 L359.677,182.428 L363.902,182.428 C364.982,182.428 365.945,182.617 366.791,182.997 C367.638,183.377 368.302,183.935 368.784,184.672 C369.265,185.409 369.506,186.296 369.506,187.332 C369.506,188.31 369.29,189.207 368.861,190.025 C368.429,190.842 367.769,191.462 366.879,191.885 L370.864,198.256 L368.39,198.256 Z" id="Fill-22" fill="#4D4E4C"></path>
            <path d="M387.841,198.004 C387.06,198.289 386.21,198.431 385.29,198.431 C383.67,198.431 382.244,198.074 381.011,197.359 C379.777,196.644 378.829,195.68 378.165,194.469 C377.5,193.257 377.168,191.922 377.168,190.462 C377.168,188.901 377.504,187.496 378.175,186.248 C378.847,185 379.777,184.023 380.966,183.315 C382.156,182.607 383.502,182.253 385.005,182.253 C385.896,182.253 386.728,182.37 387.501,182.603 C388.275,182.837 388.968,183.143 389.582,183.523 L388.728,185.515 C387.516,184.698 386.298,184.289 385.072,184.289 C384.05,184.289 383.105,184.559 382.237,185.099 C381.369,185.639 380.675,186.372 380.157,187.299 C379.638,188.226 379.38,189.244 379.38,190.353 C379.38,191.491 379.617,192.521 380.091,193.44 C380.566,194.36 381.244,195.078 382.126,195.596 C383.01,196.115 384.028,196.373 385.181,196.373 C386.597,196.373 387.83,195.972 388.88,195.169 L389.779,197.074 C389.267,197.409 388.622,197.72 387.841,198.004" id="Fill-23" fill="#4D4E4C"></path>
            <polyline id="Fill-24" fill="#4D4E4C" points="408.014 182.428 408.014 184.464 399.849 184.464 399.849 189.281 407.138 189.281 407.138 191.317 399.849 191.317 399.849 196.199 408.321 196.199 408.321 198.256 397.725 198.256 397.725 182.428 408.014 182.428"></polyline>
            <path d="M437.382,198.004 C436.601,198.289 435.751,198.431 434.832,198.431 C433.212,198.431 431.785,198.074 430.552,197.359 C429.319,196.644 428.371,195.68 427.707,194.469 C427.042,193.257 426.71,191.922 426.71,190.462 C426.71,188.901 427.046,187.496 427.717,186.248 C428.388,185 429.319,184.023 430.508,183.315 C431.698,182.607 433.044,182.253 434.547,182.253 C435.437,182.253 436.269,182.37 437.043,182.603 C437.816,182.837 438.509,183.143 439.123,183.523 L438.269,185.515 C437.058,184.698 435.839,184.289 434.613,184.289 C433.591,184.289 432.646,184.559 431.779,185.099 C430.91,185.639 430.216,186.372 429.699,187.299 C429.18,188.226 428.921,189.244 428.921,190.353 C428.921,191.491 429.158,192.521 429.632,193.44 C430.107,194.36 430.786,195.078 431.668,195.596 C432.552,196.115 433.57,196.373 434.722,196.373 C436.138,196.373 437.372,195.972 438.422,195.169 L439.32,197.074 C438.809,197.409 438.164,197.72 437.382,198.004" id="Fill-25" fill="#4D4E4C"></path>
            <path d="M449.259,193.374 C449.785,194.293 450.503,195.024 451.415,195.564 C452.328,196.104 453.324,196.373 454.404,196.373 C455.484,196.373 456.472,196.108 457.37,195.575 C458.267,195.041 458.975,194.312 459.494,193.385 C460.011,192.458 460.271,191.448 460.271,190.353 C460.271,189.258 460.007,188.244 459.482,187.31 C458.957,186.376 458.242,185.639 457.337,185.099 C456.431,184.559 455.439,184.289 454.359,184.289 C453.279,184.289 452.287,184.563 451.382,185.11 C450.477,185.658 449.765,186.398 449.248,187.332 C448.73,188.266 448.47,189.281 448.47,190.375 C448.47,191.455 448.734,192.454 449.259,193.374 Z M447.376,186.325 C448.105,185.084 449.087,184.096 450.32,183.359 C451.554,182.621 452.9,182.253 454.359,182.253 C455.804,182.253 457.147,182.621 458.388,183.359 C459.628,184.096 460.617,185.084 461.354,186.325 C462.091,187.566 462.46,188.908 462.46,190.353 C462.46,191.813 462.095,193.162 461.365,194.403 C460.635,195.644 459.646,196.625 458.399,197.348 C457.151,198.07 455.804,198.431 454.359,198.431 C452.9,198.431 451.55,198.074 450.31,197.359 C449.069,196.644 448.087,195.669 447.365,194.436 C446.642,193.202 446.281,191.842 446.281,190.353 C446.281,188.908 446.646,187.566 447.376,186.325 Z" id="Fill-26" fill="#4D4E4C"></path>
            <polyline id="Fill-27" fill="#4D4E4C" points="486.147 181.924 486.147 198.256 484.045 198.256 484.045 188.011 478.222 196.264 478.178 196.264 472.464 188.295 472.464 198.256 470.407 198.256 470.407 181.924 470.429 181.924 478.222 192.958 486.125 181.924 486.147 181.924"></polyline>
            <path d="M501.395,189.893 C501.869,189.573 502.208,189.182 502.414,188.722 C502.617,188.262 502.719,187.814 502.719,187.375 C502.719,186.617 502.471,185.942 501.975,185.351 C501.478,184.76 500.706,184.464 499.654,184.464 L497.203,184.464 L497.203,190.375 L499.544,190.375 C500.304,190.375 500.92,190.214 501.395,189.893 Z M503.365,183.72 C504.335,184.581 504.822,185.785 504.822,187.332 C504.822,188.222 504.642,189.054 504.285,189.827 C503.927,190.602 503.351,191.229 502.555,191.71 C501.759,192.192 500.756,192.433 499.544,192.433 L497.203,192.433 L497.203,198.256 L495.08,198.256 L495.08,182.428 L499.326,182.428 C501.048,182.428 502.394,182.859 503.365,183.72 Z" id="Fill-28" fill="#4D4E4C"></path>
            <path d="M518.525,192.258 L516.271,186.478 L513.927,192.258 L518.525,192.258 Z M519.247,194.097 L513.162,194.097 L511.476,198.256 L509.374,198.256 L516.292,181.772 L516.423,181.772 L523.341,198.256 L520.89,198.256 L519.247,194.097 Z" id="Fill-29" fill="#4D4E4C"></path>
            <polyline id="Fill-30" fill="#4D4E4C" points="544.467 182.428 544.467 198.782 544.402 198.782 532.777 186.982 532.821 198.256 530.675 198.256 530.675 181.947 530.785 181.947 542.388 193.877 542.343 182.428 544.467 182.428"></polyline>
            <polyline id="Fill-31" fill="#4D4E4C" points="565.66 182.428 559.726 192.98 559.726 198.256 557.603 198.256 557.603 192.98 551.736 182.428 554.363 182.428 558.719 190.572 563.054 182.428 565.66 182.428"></polyline>
        </g>
    </g>
</svg>