<svg viewBox="0 0 147 38" fill="none" xmlns="http://www.w3.org/2000/svg">
<path d="M40.8 37.3H38.9V28.2H40.8V37.3ZM47.1 37.3L43.6 30.9V37.3H41.8V28.2H44.1L47.5 34.6V28.2H49.3V37.3H47.1ZM50.5 37.3V28.2H53.7C56.8 28.2 58.2 29.9 58.2 32.6C58.2 35.4 56.7 37.3 53.5 37.3H50.5ZM53.3 35.7C55.4 35.7 56.1 34.6 56.1 32.7C56.1 30.4 55.2 29.8 53.4 29.8H52.3V35.8H53.3V35.7ZM60.8 35.7H64.8V37.3H58.8V28.2H64.6V29.8H60.8V32H64.4V33.6H60.8V35.7ZM70.8 32.7L73.8 37.3H71.6L69.6 34.3L67.7 37.3H65.6L68.5 32.7L65.7 28.2H67.9L69.8 31.3L71.7 28.2H73.7L70.8 32.7ZM78.8 35.7H82.8V37.3H76.8V28.2H82.6V29.8H78.8V32H82.4V33.6H78.8V35.7ZM88.7 32.7L91.7 37.3H89.5L87.5 34.3L85.6 37.3H83.5L86.4 32.7L83.6 28.2H85.8L87.7 31.3L89.6 28.2H91.6L88.7 32.7ZM91.5 32.9C91.5 30 93 28.1 95.9 28.1C97.9 28.1 99.4 29.1 99.5 31.4L97.7 31.6C97.6 30.3 97 29.8 95.9 29.8C94.4 29.8 93.5 30.8 93.5 32.9C93.5 35.1 94.3 36 95.7 36C97 36 97.5 35.3 97.7 34.4L99.4 34.7C99.1 36.9 97.3 37.6 95.7 37.6C92.7 37.4 91.5 35.7 91.5 32.9ZM107.7 37.3H105.8V33.6H102.3V37.3H100.4V28.2H102.3V31.9H105.8V28.2H107.7V37.3ZM114 28.2L117.2 37.3H115.1L114.3 35.1H111.3L110.6 37.3H108.6L111.6 28.2H114V28.2ZM112.9 30L111.7 33.5H114L112.9 30ZM123.3 37.3L119.8 30.9V37.3H118V28.2H120.3L123.7 34.6V28.2H125.5V37.3H123.3ZM133 36.2C132.6 37 131.5 37.5 130.4 37.5C127.7 37.5 126.6 35.6 126.6 33C126.6 30.1 128.1 28.2 131 28.2C133 28.2 134.4 29.1 134.6 31.4L132.8 31.6C132.7 30.6 132.3 29.8 131 29.8C129.4 29.8 128.6 30.9 128.6 32.9C128.6 35.1 129.3 36.1 130.9 36.1C132.1 36.1 132.8 35.4 132.8 34.5V34H131.1V32.6H134.7V37.3H133.3L133 36.2ZM137.7 35.7H141.7V37.3H135.7V28.2H141.5V29.8H137.7V32H141.3V33.6H137.7V35.7Z" fill="black"/>
<path d="M22.1 17.2V35.4H2V15.3H20.2V13.4H0V37.4H24V17.2H22.1ZM36.9 0.4V11.4H35V2.4H24V13.4H33V15.3H22V0.4H36.9ZM44.7 13.3V23H38.9V21.1H42.8V15.3H37V19.2H35V13.4H44.7V13.3ZM36.9 21.1V28.3H29.7V21.1H36.9Z" fill="#1D428A"/>
<path d="M145.8 30.7H145.5L145.1 29.9H144.7V30.7H144.5V28.9H145.1C145.6 28.9 145.7 29.1 145.7 29.4C145.7 29.7 145.6 29.8 145.3 29.9L145.8 30.7ZM145.1 29.7C145.3 29.7 145.5 29.6 145.5 29.3C145.5 29.1 145.3 29 145.1 29H144.8V29.7H145.1V29.7Z" fill="black"/>
<path d="M145.1 31.4C144.2 31.4 143.4 30.6 143.4 29.7C143.4 28.8 144.2 28 145.1 28C146 28 146.8 28.8 146.8 29.7C146.8 30.7 146 31.4 145.1 31.4ZM145.1 28.2C144.3 28.2 143.6 28.9 143.6 29.7C143.6 30.5 144.3 31.2 145.1 31.2C145.9 31.2 146.6 30.5 146.6 29.7C146.6 28.9 145.9 28.2 145.1 28.2Z" fill="black"/>
</svg>
