
<svg width="773px" height="196px" viewBox="0 0 773 196" version="1.1" xmlns="http://www.w3.org/2000/svg" xmlns:xlink="http://www.w3.org/1999/xlink">
    <g id="Page-1" stroke="none" stroke-width="1" fill="none" fill-rule="evenodd">
        <g id="index_exchange" transform="translate(0.000000, -2.000000)" fill-rule="nonzero">
            <path d="M214.736842,196.315789 L204.736842,196.315789 L204.736842,148.421053 L214.736842,148.421053 L214.736842,196.315789 Z M247.894737,196.315789 L229.473684,162.631579 L229.473684,196.315789 L220,196.315789 L220,148.421053 L232.105263,148.421053 L250,182.105263 L250,148.421053 L259.473684,148.421053 L259.473684,196.315789 L247.894737,196.315789 Z M265.789474,196.315789 L265.789474,148.421053 L282.631579,148.421053 C298.947368,148.421053 306.315789,157.368421 306.315789,171.578947 C306.315789,186.315789 298.421053,196.315789 281.578947,196.315789 L265.789474,196.315789 Z M280.526316,187.894737 C291.578947,187.894737 295.263158,182.105263 295.263158,172.105263 C295.263158,160 290.526316,156.842105 281.052632,156.842105 L275.263158,156.842105 L275.263158,188.421053 L280.526316,188.421053 L280.526316,187.894737 Z M320,187.894737 L341.052632,187.894737 L341.052632,196.315789 L309.473684,196.315789 L309.473684,148.421053 L340,148.421053 L340,156.842105 L320,156.842105 L320,168.421053 L338.947368,168.421053 L338.947368,176.842105 L320,176.842105 L320,187.894737 Z M372.631579,172.105263 L388.421053,196.315789 L376.842105,196.315789 L366.315789,180.526316 L356.315789,196.315789 L345.263158,196.315789 L360.526316,172.105263 L345.789474,148.421053 L357.368421,148.421053 L367.368421,164.736842 L377.368421,148.421053 L387.894737,148.421053 L372.631579,172.105263 Z M414.736842,187.894737 L435.789474,187.894737 L435.789474,196.315789 L404.210526,196.315789 L404.210526,148.421053 L434.736842,148.421053 L434.736842,156.842105 L414.736842,156.842105 L414.736842,168.421053 L433.684211,168.421053 L433.684211,176.842105 L414.736842,176.842105 L414.736842,187.894737 Z M466.842105,172.105263 L482.631579,196.315789 L471.052632,196.315789 L460.526316,180.526316 L450.526316,196.315789 L439.473684,196.315789 L454.736842,172.105263 L440,148.421053 L451.578947,148.421053 L461.578947,164.736842 L471.578947,148.421053 L482.105263,148.421053 L466.842105,172.105263 Z M481.578947,173.157895 C481.578947,157.894737 489.473684,147.894737 504.736842,147.894737 C515.263158,147.894737 523.157895,153.157895 523.684211,165.263158 L514.210526,166.315789 C513.684211,159.473684 510.526316,156.842105 504.736842,156.842105 C496.842105,156.842105 492.105263,162.105263 492.105263,173.157895 C492.105263,184.736842 496.315789,189.473684 503.684211,189.473684 C510.526316,189.473684 513.157895,185.789474 514.210526,181.052632 L523.157895,182.631579 C521.578947,194.210526 512.105263,197.894737 503.684211,197.894737 C487.894737,196.842105 481.578947,187.894737 481.578947,173.157895 Z M566.842105,196.315789 L556.842105,196.315789 L556.842105,176.842105 L538.421053,176.842105 L538.421053,196.315789 L528.421053,196.315789 L528.421053,148.421053 L538.421053,148.421053 L538.421053,167.894737 L556.842105,167.894737 L556.842105,148.421053 L566.842105,148.421053 L566.842105,196.315789 Z M600,148.421053 L616.842105,196.315789 L605.789474,196.315789 L601.578947,184.736842 L585.789474,184.736842 L582.105263,196.315789 L571.578947,196.315789 L587.368421,148.421053 L600,148.421053 Z M594.210526,157.894737 L587.894737,176.315789 L600,176.315789 L594.210526,157.894737 Z M648.947368,196.315789 L630.526316,162.631579 L630.526316,196.315789 L621.052632,196.315789 L621.052632,148.421053 L633.157895,148.421053 L651.052632,182.105263 L651.052632,148.421053 L660.526316,148.421053 L660.526316,196.315789 L648.947368,196.315789 Z M700,190.526316 C697.894737,194.736842 692.105263,197.368421 686.315789,197.368421 C672.105263,197.368421 666.315789,187.368421 666.315789,173.684211 C666.315789,158.421053 674.210526,148.421053 689.473684,148.421053 C700,148.421053 707.368421,153.157895 708.421053,165.263158 L698.947368,166.315789 C698.421053,161.052632 696.315789,156.842105 689.473684,156.842105 C681.052632,156.842105 676.842105,162.631579 676.842105,173.157895 C676.842105,184.736842 680.526316,190 688.947368,190 C695.263158,190 698.947368,186.315789 698.947368,181.578947 L698.947368,178.947368 L690,178.947368 L690,171.578947 L708.947368,171.578947 L708.947368,196.315789 L701.578947,196.315789 L700,190.526316 Z M724.736842,187.894737 L745.789474,187.894737 L745.789474,196.315789 L714.210526,196.315789 L714.210526,148.421053 L744.736842,148.421053 L744.736842,156.842105 L724.736842,156.842105 L724.736842,168.421053 L743.684211,168.421053 L743.684211,176.842105 L724.736842,176.842105 L724.736842,187.894737 Z" id="Logotype" fill="#000000"></path>
            <path d="M116.315789,90.5263158 L116.315789,186.315789 L10.5263158,186.315789 L10.5263158,80.5263158 L106.315789,80.5263158 L106.315789,70.5263158 L0,70.5263158 L0,196.842105 L126.315789,196.842105 L126.315789,90.5263158 L116.315789,90.5263158 Z M194.210526,2.10526316 L194.210526,60 L184.210526,60 L184.210526,12.6315789 L126.315789,12.6315789 L126.315789,70.5263158 L173.684211,70.5263158 L173.684211,80.5263158 L115.789474,80.5263158 L115.789474,2.10526316 L194.210526,2.10526316 Z M235.263158,70 L235.263158,121.052632 L204.736842,121.052632 L204.736842,111.052632 L225.263158,111.052632 L225.263158,80.5263158 L194.736842,80.5263158 L194.736842,101.052632 L184.210526,101.052632 L184.210526,70.5263158 L235.263158,70.5263158 L235.263158,70 Z M194.210526,111.052632 L194.210526,148.947368 L156.315789,148.947368 L156.315789,111.052632 L194.210526,111.052632 Z" id="Logomark" fill="#1D428A"></path>
            <g id="Registered_Trademark" transform="translate(752.631579, 147.368421)" fill="#000000">
                <path d="M14.7368421,14.2105263 L13.1578947,14.2105263 L11.0526316,10 L8.94736842,10 L8.94736842,14.2105263 L7.89473684,14.2105263 L7.89473684,4.73684211 L11.0526316,4.73684211 C13.6842105,4.73684211 14.2105263,5.78947368 14.2105263,7.36842105 C14.2105263,8.94736842 13.6842105,9.47368421 12.1052632,10 L14.7368421,14.2105263 Z M11.0526316,8.94736842 C12.1052632,8.94736842 13.1578947,8.42105263 13.1578947,6.84210526 C13.1578947,5.78947368 12.1052632,5.26315789 11.0526316,5.26315789 L9.47368421,5.26315789 L9.47368421,8.94736842 L11.0526316,8.94736842 Z" id="Shape"></path>
                <path d="M11.0526316,17.8947368 C6.31578947,17.8947368 2.10526316,13.6842105 2.10526316,8.94736842 C2.10526316,4.21052632 6.31578947,-7.10542736e-15 11.0526316,-7.10542736e-15 C15.7894737,-7.10542736e-15 20,4.21052632 20,8.94736842 C20,14.2105263 15.7894737,17.8947368 11.0526316,17.8947368 Z M11.0526316,1.05263158 C6.84210526,1.05263158 3.15789474,4.73684211 3.15789474,8.94736842 C3.15789474,13.1578947 6.84210526,16.8421053 11.0526316,16.8421053 C15.2631579,16.8421053 18.9473684,13.1578947 18.9473684,8.94736842 C18.9473684,4.73684211 15.2631579,1.05263158 11.0526316,1.05263158 Z" id="Shape"></path>
            </g>
        </g>
    </g>
</svg>