<?xml version="1.0" encoding="utf-8"?>
<!-- Generator: Adobe Illustrator 22.0.1, SVG Export Plug-In . SVG Version: 6.00 Build 0)  -->
<svg version="1.1" id="Layer_1" xmlns="http://www.w3.org/2000/svg" xmlns:xlink="http://www.w3.org/1999/xlink" x="0px" y="0px"
	 viewBox="0 0 200 100" style="enable-background:new 0 0 200 100;" xml:space="preserve">
<style type="text/css">
	.st0{fill:#1D428A;}
</style>
<g>
	<path id="Logotype" d="M68.8,68.3h-1.9v-9.1h1.9V68.3z M75.1,68.3l-3.5-6.4v6.4h-1.8v-9.1h2.3l3.4,6.4v-6.4h1.8v9.1H75.1z
		 M78.5,68.3v-9.1h3.2c3.1,0,4.5,1.7,4.5,4.4c0,2.8-1.5,4.7-4.7,4.7H78.5z M81.3,66.7c2.1,0,2.8-1.1,2.8-3c0-2.3-0.9-2.9-2.7-2.9
		h-1.1v6H81.3z M88.8,66.7h4v1.6h-6v-9.1h5.8v1.6h-3.8V63h3.6v1.6h-3.6V66.7z M98.8,63.7l3,4.6h-2.2l-2-3l-1.9,3h-2.1l2.9-4.6
		l-2.8-4.5h2.2l1.9,3.1l1.9-3.1h2L98.8,63.7z M106.8,66.7h4v1.6h-6v-9.1h5.8v1.6h-3.8V63h3.6v1.6h-3.6V66.7z M116.7,63.7l3,4.6h-2.2
		l-2-3l-1.9,3h-2.1l2.9-4.6l-2.8-4.5h2.2l1.9,3.1l1.9-3.1h2L116.7,63.7z M119.5,63.9c0-2.9,1.5-4.8,4.4-4.8c2,0,3.5,1,3.6,3.3
		l-1.8,0.2c-0.1-1.3-0.7-1.8-1.8-1.8c-1.5,0-2.4,1-2.4,3.1c0,2.2,0.8,3.1,2.2,3.1c1.3,0,1.8-0.7,2-1.6l1.7,0.3
		c-0.3,2.2-2.1,2.9-3.7,2.9C120.7,68.4,119.5,66.7,119.5,63.9z M135.7,68.3h-1.9v-3.7h-3.5v3.7h-1.9v-9.1h1.9v3.7h3.5v-3.7h1.9V68.3
		z M142,59.2l3.2,9.1h-2.1l-0.8-2.2h-3l-0.7,2.2h-2l3-9.1H142z M140.9,61L140.9,61l-1.2,3.5h2.3L140.9,61z M151.3,68.3l-3.5-6.4v6.4
		H146v-9.1h2.3l3.4,6.4v-6.4h1.8v9.1H151.3z M161,67.2c-0.4,0.8-1.5,1.3-2.6,1.3c-2.7,0-3.8-1.9-3.8-4.5c0-2.9,1.5-4.8,4.4-4.8
		c2,0,3.4,0.9,3.6,3.2l-1.8,0.2c-0.1-1-0.5-1.8-1.8-1.8c-1.6,0-2.4,1.1-2.4,3.1c0,2.2,0.7,3.2,2.3,3.2c1.2,0,1.9-0.7,1.9-1.6V65
		h-1.7v-1.4h3.6v4.7h-1.4L161,67.2z M165.7,66.7h4v1.6h-6v-9.1h5.8v1.6h-3.8V63h3.6v1.6h-3.6V66.7z"/>
	<path id="Logomark" class="st0" d="M50.1,48.2v18.2H30V46.3l18.2,0v-1.9H28v24h24V48.2H50.1z M64.9,31.4v11H63v-9H52v11h9v1.9h-11
		V31.4H64.9z M72.7,44.3V54h-5.8v-1.9h3.9v-5.8h-5.8v3.9H63v-5.8H72.7z M64.9,52.1v7.2h-7.2v-7.2H64.9z"/>
	<g id="Registered_Trademark">
		<g>
			<path d="M173.8,61.7h-0.3l-0.4-0.8h-0.4v0.8h-0.2v-1.8h0.6c0.5,0,0.6,0.2,0.6,0.5c0,0.3-0.1,0.4-0.4,0.5L173.8,61.7z M173.1,60.7
				c0.2,0,0.4-0.1,0.4-0.4c0-0.2-0.2-0.3-0.4-0.3h-0.3v0.7H173.1z"/>
		</g>
		<path d="M173.1,62.4c-0.9,0-1.7-0.8-1.7-1.7c0-0.9,0.8-1.7,1.7-1.7s1.7,0.8,1.7,1.7C174.8,61.7,174,62.4,173.1,62.4z M173.1,59.2
			c-0.8,0-1.5,0.7-1.5,1.5c0,0.8,0.7,1.5,1.5,1.5c0.8,0,1.5-0.7,1.5-1.5C174.6,59.9,173.9,59.2,173.1,59.2z"/>
	</g>
</g>
</svg>
