<svg width="600px" height="600px" viewBox="0 0 170 170" version="1.1" xmlns="http://www.w3.org/2000/svg" xmlns:xlink="http://www.w3.org/1999/xlink">
    <g id="Page-1" stroke="none" stroke-width="1" fill="none" fill-rule="evenodd">
        <g id="InteracLogo" transform="translate(-2.000000, -2.000000)">
            <g id="Group" transform="translate(2.000000, 2.000000)">
                <path d="M14.99622,0.96921 L155.27322,0.96921 C163.021223,0.96921 169.30222,7.25020724 169.30222,14.99821 L169.30222,155.27721 C169.30222,163.02466 163.02167,169.30521 155.27422,169.30521 L14.9942,169.30521 C7.2478541,169.30521 0.9682,163.025556 0.9682,155.27921 L0.9682,14.99722 C0.968197348,11.2767579 2.44614468,7.70867559 5.07690961,5.07791254 C7.70767454,2.44714948 11.2757579,0.969204696 14.99622,0.96921 Z" id="Path" fill="#FDB913"></path>
                <path d="M94.95849,86.95432 L94.94449,56.81532 L102.81149,54.94832 L102.81149,58.89932 C102.81149,58.89932 104.84949,53.70332 109.57849,52.49732 C110.284758,52.2697635 111.03613,52.2192828 111.76649,52.35032 L111.76649,60.04032 C110.350123,60.0588075 108.950596,60.350121 107.64449,60.89832 C104.73749,62.04632 103.27449,64.55132 103.27449,68.37532 L103.27949,85.01732 L94.95849,86.95432 Z" id="Path" fill="#231F20"></path>
                <path d="M53.4868,96.75491 C53.4868,96.75491 52.2078,94.83691 52.2078,88.05591 L52.2078,73.04891 L48.1598,74.01191 L48.1598,67.82991 L52.2168,66.87191 L52.2168,60.13291 L60.5818,58.15691 L60.5818,64.89591 L66.4928,63.49191 L66.4928,69.66691 L60.5818,71.06991 C60.5818,71.06991 60.5728,83.36491 60.5818,86.35091 C60.5818,93.29891 62.4258,94.63291 62.4258,94.63291 L53.4868,96.75491 Z" id="Path" fill="#231F20"></path>
                <path d="M67.3671,78.82492 C67.3671,73.46692 68.1301,69.55792 69.7681,66.55792 C71.7171,62.99792 74.9131,60.67792 79.5691,59.61792 C88.7461,57.53092 92.0581,62.96292 91.9301,70.24692 C91.8811,72.85192 91.8931,74.12092 91.8931,74.12092 L75.7251,77.92092 L75.7251,78.18192 C75.7251,83.27092 76.7921,85.68592 80.0171,85.00192 C82.8031,84.41392 83.5781,82.66892 83.7981,80.51092 C83.8341,80.16292 83.8511,79.27792 83.8511,79.27792 L91.4251,77.46292 C91.4251,77.46292 91.4431,78.08292 91.4321,78.77892 C91.3661,81.67092 90.5251,88.84492 79.9981,91.33392 C70.0261,93.70092 67.3671,87.61092 67.3671,78.82492 M79.9051,65.23192 C77.2261,65.83992 75.8211,68.46792 75.7601,72.82192 L83.8931,70.88492 C83.9071,70.68792 83.9091,70.25392 83.9071,69.57392 C83.8931,66.28692 82.8771,64.55192 79.9051,65.23192" id="Shape" fill="#231F20" fill-rule="nonzero"></path>
                <path d="M140.07921,61.2 C139.76621,52.021 142.14721,44.736 152.38821,42.416 C158.91521,40.933 161.39421,42.631 162.64921,44.272 C163.85621,45.838 164.32221,47.95 164.32221,50.908 L164.32921,51.451 L156.31721,53.355 C156.31721,53.355 156.31121,52.275 156.31121,52.24 C156.31721,48.732 155.34221,47.398 152.79421,48.036 C149.76421,48.797 148.54021,51.673 148.54021,57.391 C148.54021,59.421 148.54921,59.785 148.54921,60.059 C148.54921,65.87 149.34321,68.53 152.83521,67.799 C155.86421,67.173 156.27921,64.513 156.32821,62.181 C156.33421,61.815 156.34921,60.643 156.34921,60.643 L164.34921,58.753 C164.34921,58.753 164.35721,59.344 164.35721,60.001 C164.33721,67.621 160.32121,72.423 152.79721,74.174 C142.43121,76.604 140.40121,70.614 140.07921,61.2" id="Path" fill="#231F20"></path>
                <path d="M112.38269,74.051 C112.38269,67.069 116.47269,64.861 122.62869,62.314 C128.16469,60.024 128.28469,58.887 128.30769,56.897 C128.33869,55.222 127.56169,53.789 124.80569,54.492 C122.913564,54.8731804 121.532214,56.5058732 121.46969,58.435 C121.424573,58.9493578 121.407215,59.4657736 121.41769,59.982 L113.65569,61.815 C113.603513,60.2681098 113.784199,58.7221654 114.19169,57.229 C115.43269,53.054 119.11469,50.245 125.47069,48.774 C133.72869,46.871 136.48169,50.495 136.49169,56.132 L136.49169,69.481 C136.49169,75.937 137.68969,76.883 137.68969,76.883 L130.06969,78.686 C129.649393,77.8055252 129.307731,76.8896291 129.04869,75.949 C129.04869,75.949 127.37969,80.153 121.62569,81.505 C115.58269,82.93 112.38269,79.185 112.38269,74.051 Z M128.25469,64.517 C126.970332,65.4175229 125.614479,66.2115024 124.20069,66.891 C121.66069,68.132 120.51269,69.663 120.51269,72.021 C120.51269,74.063 121.77769,75.404 124.07669,74.836 C126.54269,74.214 128.25469,71.913 128.25469,68.716 L128.25469,64.517 Z" id="Shape" fill="#231F20" fill-rule="nonzero"></path>
                <path d="M9.7486,117.88239 C7.97701135,117.880141 6.34838405,116.909604 5.50334309,115.352544 C4.65830212,113.795484 4.73205852,111.901037 5.6956,110.41439 L5.7496,110.34439 L5.8406,110.32039 L17.2186,107.63439 L17.2186,116.27539 L17.0416,116.31639 C14.4606,116.93739 11.3756,117.64439 10.7406,117.77939 C10.4144543,117.848378 10.0819618,117.882901 9.7486,117.88239" id="Path" fill="#231F20"></path>
                <path d="M9.7486,128.93631 C7.08258455,128.936963 4.92026052,126.777324 4.9176,124.11131 C4.9149829,123.178479 5.18543254,122.265277 5.6956,121.48431 L5.7496,121.40331 L5.8406,121.38031 L17.2186,118.69531 L17.2186,127.33631 L17.0416,127.38231 C14.4606,128.00131 11.3756,128.71631 10.7406,128.84331 C10.413747,128.906514 10.081505,128.937661 9.7486,128.93631" id="Path" fill="#231F20"></path>
                <path d="M9.7486,140.01151 C7.08195094,140.009923 4.92029162,137.849158 4.9176,135.18251 C4.91398516,134.249536 5.18451787,133.336054 5.6956,132.55551 L5.7496,132.46851 L17.2186,129.76551 L17.2186,138.40651 L17.0416,138.45251 C14.3156,139.10851 11.2886,139.79251 10.7406,139.91351 C10.4139833,139.978871 10.0816924,140.011698 9.7486,140.01151" id="Path" fill="#231F20"></path>
                <polygon id="Path" fill="#231F20" points="8.406 107.294 8.403 58.945 17.218 56.862 17.218 105.21"></polygon>
                <path d="M30.3621,103.18069 C30.3621,100.177089 27.9272006,97.74219 24.9236,97.74219 C21.9199994,97.74219 19.4851,100.177089 19.4851,103.18069 L19.4941,148.36969 C19.5041858,156.494551 26.0852472,163.080085 34.2101,163.09569 C38.3271,163.09569 49.6051,163.07569 49.6051,163.07569 L49.6101,144.22369 C49.6131,133.92369 49.6151,123.43969 49.6151,123.20069 C49.6178854,120.820489 48.4309614,118.596367 46.4521,117.27369 L32.7311,107.95469 C32.7311,107.95469 32.7281,128.18669 32.7281,129.11669 C32.7281,129.762863 32.2042732,130.28669 31.5581,130.28669 C30.9119268,130.28669 30.3881,129.762863 30.3881,129.11669 C30.3881,128.88969 30.3621,105.97569 30.3621,103.18069" id="Path" fill="#231F20"></path>
                <path d="M37.7071,69.4653 C34.333198,70.248251 31.4682853,72.463209 29.8611,75.5313 L29.8611,72.1333 L21.9241,74.0113 L21.9331,95.7113 C24.7719278,94.5886566 28.0005413,95.1530941 30.2901,97.1723 L30.2901,83.1613 C30.2901,79.8053 31.9601,77.1243 34.3461,76.5983 C36.1411,76.2043 37.6401,76.8463 37.6401,80.0433 L37.6461,100.4853 L46.0061,98.5253 L46.0061,76.9003 C46.0061,71.6573 43.9871,67.9923 37.7071,69.4653" id="Path" fill="#231F20"></path>
                <path d="M159.17289,38.52094 C157.082189,38.5227644 155.196385,37.2646268 154.395279,35.3334975 C153.594172,33.4023682 154.035629,31.1787936 155.513692,29.7001583 C156.991754,28.2215229 159.215158,27.7792053 161.146597,28.5795637 C163.078037,29.3799222 164.336905,31.2652389 164.33589,33.35594 C164.333136,36.2065684 162.023517,38.5170817 159.17289,38.52094 M159.17289,28.83594 C156.677115,28.8353878 154.653442,30.8581652 154.65289,33.3539399 C154.652338,35.8497146 156.675115,37.8733875 159.17089,37.8739398 C161.666665,37.8744921 163.690338,35.8517147 163.69089,33.35594 C163.688879,30.8612271 161.667602,28.8390551 159.17289,28.83594" id="Shape" fill="#231F20" fill-rule="nonzero"></path>
                <path d="M157.2912,30.27661 L159.5182,30.27661 C159.959209,30.2293661 160.397708,30.3856856 160.709379,30.7012508 C161.021051,31.016816 161.171915,31.4572217 161.1192,31.89761 C161.1192,32.71561 160.7562,33.34461 160.0682,33.45161 L160.0682,33.46361 C160.6942,33.52761 161.0232,33.87261 161.0552,34.75961 C161.0672,35.15961 161.0732,35.65561 161.0922,36.04161 C161.09276,36.2622877 161.205382,36.4675695 161.3912,36.58661 L160.2532,36.58661 C160.144644,36.4198095 160.08569,36.2256093 160.0832,36.02661 C160.0482,35.64961 160.0572,35.29361 160.0402,34.83561 C160.0232,34.14761 159.8122,33.84661 159.1212,33.84661 L158.2972,33.84661 L158.2972,36.58661 L157.2912,36.58661 L157.2912,30.27661 Z M159.1032,33.08661 C159.38015,33.1120057 159.653882,33.0118005 159.848981,32.8136018 C160.04408,32.6154032 160.139958,32.3401253 160.1102,32.06361 C160.1102,31.39061 159.8192,31.03661 159.1562,31.03661 L158.2972,31.03661 L158.2972,33.08661 L159.1032,33.08661 Z" id="Shape" fill="#231F20" fill-rule="nonzero"></path>
            </g>
        </g>
    </g>
</svg>