
<svg width="121px" height="131px" viewBox="0 0 121 131" version="1.1" xmlns="http://www.w3.org/2000/svg" xmlns:xlink="http://www.w3.org/1999/xlink">
    <defs>
        <linearGradient x1="9.61187896%" y1="85.6271471%" x2="89.8988937%" y2="14.3830882%" id="linearGradient-1">
            <stop stop-color="#FCEE39" offset="0%"></stop>
            <stop stop-color="#F37B3D" offset="100%"></stop>
        </linearGradient>
        <linearGradient x1="8.60139949%" y1="9.46293588%" x2="99.6410941%" y2="95.2753529%" id="linearGradient-2">
            <stop stop-color="#EF5A6B" offset="0%"></stop>
            <stop stop-color="#F26F4E" offset="57%"></stop>
            <stop stop-color="#F37B3D" offset="100%"></stop>
        </linearGradient>
        <linearGradient x1="90.1184803%" y1="91.3292284%" x2="17.9382833%" y2="26.4180105%" id="linearGradient-3">
            <stop stop-color="#7C59A4" offset="0%"></stop>
            <stop stop-color="#AF4C92" offset="38.52%"></stop>
            <stop stop-color="#DC4183" offset="76.54%"></stop>
            <stop stop-color="#ED3D7D" offset="95.7%"></stop>
        </linearGradient>
        <linearGradient x1="91.3757491%" y1="7.59701288%" x2="18.8948586%" y2="77.7721593%" id="linearGradient-4">
            <stop stop-color="#EF5A6B" offset="0%"></stop>
            <stop stop-color="#EE4E72" offset="36.4%"></stop>
            <stop stop-color="#ED3D7D" offset="100%"></stop>
        </linearGradient>
    </defs>
    <g id="Page-1" stroke="none" stroke-width="1" fill="none" fill-rule="evenodd">
        <g id="jetbrains" transform="translate(-1.000000, 0.000000)">
            <path d="M119.6,71.8 C120.5,71 121,69.9 121.1,68.6 C121.2,66 119.3,63.9 116.7,63.7 C115.5,63.6 114.3,64.1 113.4,64.8 L29.6,110.7 C27.7,111.5 26,112.9 24.9,114.8 C22,119.6 23.6,125.8 28.5,128.7 C31.9,130.7 36,130.5 39.2,128.5 C39.4,128.3 39.7,128.2 39.9,128 L117.9,73.2 C118.3,72.9 119.4,72.1 119.6,71.8 Z" id="XMLID_3041_" fill="url(#linearGradient-1)"></path>
            <path d="M119.8,65.1 L56,2.5 C54.6,1 52.6,0 50.3,0 C46,0 42.6,3.5 42.6,7.7 C42.6,9.8 43.4,11.6 44.7,13 C45.1,13.4 45.5,13.7 45.9,14 L113.3,71.7 C114.1,72.4 115.1,72.9 116.3,73 C118.9,73.1 121,71.2 121.2,68.6 C121.2,67.3 120.7,66 119.8,65.1 Z" id="XMLID_3049_" fill="url(#linearGradient-2)"></path>
            <path d="M58.1,59.5 C58,59.5 18.7,28.5 17.9,28 C17.3,27.7 16.7,27.4 16.1,27.1 C10.3,24.9 3.9,27.9 1.7,33.7 C-0.2,38.8 1.9,44.4 6.3,47.1 C7,47.5 7.6,47.8 8.3,48 C8.7,48.2 53.7,66.8 53.7,66.8 C55.5,67.6 57.6,67.1 58.8,65.6 C60.3,63.7 60,61 58.1,59.5 Z" id="XMLID_3042_" fill="url(#linearGradient-3)"></path>
            <path d="M50.3,0 C48.6,0 47,0.6 45.7,1.5 L5.9,28.3 C5.8,28.4 5.7,28.4 5.7,28.5 L5.6,28.5 C3.9,29.7 2.5,31.5 1.7,33.6 C-0.5,39.4 2.5,45.9 8.3,48 C11.9,49.4 15.8,48.7 18.7,46.6 C19.4,46.1 20,45.6 20.5,45 L55.1,13.8 C56.9,12.4 58.1,10.2 58.1,7.7 C58.1,3.5 54.6,0 50.3,0 Z" id="XMLID_3057_" fill="url(#linearGradient-4)"></path>
            <g id="XMLID_3008_" transform="translate(35.000000, 37.000000)">
                <rect id="XMLID_3033_" fill="#000000" x="0.6" y="0.4" width="51" height="51"></rect>
                <rect id="XMLID_3032_" fill="#FFFFFF" x="5" y="41.8" width="19.1" height="3.2"></rect>
                <g id="XMLID_3009_" transform="translate(4.000000, 6.000000)" fill="#FFFFFF">
                    <path d="M0.8,7.8 L2.3,6.4 C2.7,6.9 3.1,7.2 3.6,7.2 C4.2,7.2 4.5,6.8 4.5,6 L4.5,0.7 L6.8,0.7 L6.8,6 C6.8,7 6.5,7.8 6,8.3 C5.5,8.8 4.7,9.1 3.7,9.1 C2.2,9.2 1.4,8.6 0.8,7.8 Z" id="XMLID_3030_"></path>
                    <polygon id="XMLID_3028_" points="7.3 0.8 14 0.8 14 2.7 9.6 2.7 9.6 4 13.6 4 13.6 5.8 9.6 5.8 9.6 7.1 14.1 7.1 14.1 9.1 7.4 9.1"></polygon>
                    <polygon id="XMLID_3026_" points="17 2.8 14.5 2.8 14.5 0.8 21.8 0.8 21.8 2.8 19.3 2.8 19.3 9.1 17 9.1"></polygon>
                    <path d="M1,11 L5.3,11 C6.3,11 7.1,11.3 7.6,11.7 C7.9,12 8.1,12.5 8.1,13.1 C8.1,14.1 7.6,14.6 6.8,15 C7.8,15.3 8.4,15.9 8.4,17 C8.4,18.4 7.2,19.3 5.3,19.3 L1,19.3 L1,11 Z M5.8,13.6 C5.8,13.1 5.4,12.9 4.8,12.9 L3.3,12.9 L3.3,14.4 L4.7,14.4 C5.4,14.3 5.8,14.1 5.8,13.6 Z M5,16 L3.2,16 L3.2,17.5 L5,17.5 C5.7,17.5 6.1,17.2 6.1,16.7 C6.1,16.2 5.7,16 5,16 Z" id="XMLID_3022_" fill-rule="nonzero"></path>
                    <path d="M8.8,11 L12.7,11 C14,11 14.8,11.3 15.4,11.9 C15.9,12.4 16.1,13 16.1,13.8 C16.1,15.1 15.4,15.9 14.4,16.4 L16.4,19.3 L13.8,19.3 L12.1,16.8 L11.1,16.8 L11.1,19.3 L8.8,19.3 L8.8,11 Z M12.6,15 C13.4,15 13.8,14.6 13.8,14 C13.8,13.3 13.3,13 12.6,13 L11.1,13 L11.1,15 L12.6,15 Z" id="XMLID_3019_" fill-rule="nonzero"></path>
                    <path d="M18.8,11 L21,11 L24.5,19.4 L22,19.4 L21.4,17.9 L18.2,17.9 L17.6,19.4 L15.2,19.4 L18.8,11 Z M20.8,16 L19.9,13.7 L19,16 L20.8,16 Z" id="XMLID_3016_" fill-rule="nonzero"></path>
                    <polygon id="XMLID_3014_" points="24.8 11 27.1 11 27.1 19.3 24.8 19.3"></polygon>
                    <polygon id="XMLID_3012_" points="27.7 11 29.8 11 33.2 15.4 33.2 11 35.5 11 35.5 19.3 33.5 19.3 30 14.8 30 19.4 27.7 19.4"></polygon>
                    <path d="M35.7,18.1 L37,16.6 C37.8,17.3 38.7,17.6 39.7,17.6 C40.3,17.6 40.7,17.4 40.7,17 C40.7,16.6 40.4,16.5 39.3,16.2 C37.5,15.8 36.2,15.3 36.2,13.6 C36.2,12.1 37.4,10.9 39.4,10.9 C40.8,10.9 41.9,11.3 42.8,12 L41.6,13.6 C40.8,13.1 40,12.8 39.3,12.8 C38.7,12.8 38.5,13 38.5,13.3 C38.5,13.7 38.8,13.8 39.9,14.1 C41.8,14.5 43,15.1 43,16.7 C43,18.4 41.7,19.4 39.6,19.4 C38.1,19.5 36.7,19 35.7,18.1 Z" id="XMLID_3010_"></path>
                </g>
            </g>
        </g>
    </g>
</svg>