<svg width="726px" height="149px" viewBox="0 0 726 149" version="1.1" xmlns="http://www.w3.org/2000/svg" xmlns:xlink="http://www.w3.org/1999/xlink">
    <g id="Page-1" stroke="none" stroke-width="1" fill="none" fill-rule="evenodd">
        <g id="jumpstart">
            <path d="M80.18,4.60742555e-15 C80.38,0.5 80.85,0.3 81.18,0.33 C87.4635238,0.938903143 93.649251,2.31238981 99.6,4.42 C122.999598,12.8751477 140.664484,32.4103459 146.73,56.54 C152.820135,81.0545425 146.040187,106.984077 128.73,125.38 C112.993423,142.272473 90.2745685,150.852604 67.3,148.58 C53.3193715,147.289043 40.0142182,141.966982 29,133.26 C14.9158172,122.437684 5.21118872,106.895364 1.67,89.49 C1.08167948,86.7467352 0.677444523,83.9672023 0.46,81.17 C0.37,80.05 0.16,78.93 0,77.81 L0,71.24 C0.16,70.12 0.37,69 0.46,67.88 C0.680566381,65.0876256 1.07803102,62.3120532 1.65,59.57 C6.91538826,34.1734385 24.9628507,13.3180044 49.34,4.46 C55.3226584,2.32424717 61.5466192,0.937039482 67.87,0.33 C68.2,0.33 68.67,0.5 68.87,0 L80.18,4.60742555e-15 Z M74.62,11.26 C49.0237644,11.2114459 25.9207042,26.5923452 16.090853,50.2258735 C6.26100172,73.8594019 11.6417661,101.087528 29.7224476,119.205436 C47.803129,137.323344 75.02013,142.760099 98.6738263,132.978878 C122.327523,123.197657 137.755908,100.126281 137.76,74.53 C137.8,39.53 109.16,11.16 74.62,11.26 Z" id="Shape" fill="#D00A66" fill-rule="nonzero"></path>
            <path d="M317.06,60.16 C317.239495,61.3746036 317.309776,62.6028496 317.27,63.83 L317.27,99.18 C317.259999,99.3531891 317.259999,99.5268109 317.27,99.7 C317.33,100.29 317.04,100.45 316.5,100.44 C315.14,100.44 313.78,100.44 312.42,100.44 C311.52,100.44 310.37,100.84 309.79,100.21 C309.21,99.58 309.64,98.54 309.64,97.67 L309.64,48.51 C309.64,48.25 309.64,47.99 309.64,47.72 C309.64,46.72 309.64,46.72 310.64,46.72 C312.64,46.72 314.58,46.72 316.55,46.72 C317.66656,46.6534036 318.707054,47.2872677 319.16,48.31 C324.82,58.6366667 330.486667,68.9533333 336.16,79.26 C336.899869,80.6459961 337.547929,82.079079 338.1,83.55 C338.53,83.55 338.51,83.14 338.62,82.88 C339.40524,80.9812765 340.303516,79.1312965 341.31,77.34 C346.476667,67.84 351.633333,58.34 356.78,48.84 C356.920169,48.6176988 357.047058,48.3872959 357.16,48.15 C357.580562,47.145117 358.593018,46.5183585 359.68,46.59 C361.35,46.59 363.01,46.59 364.68,46.59 C366.68,46.59 366.68,46.59 366.68,48.5 L366.68,99.5 C366.68,100.5 366.68,100.5 365.68,100.5 C363.79,100.5 361.91,100.5 360.03,100.5 C359.03,100.5 359.03,100.5 359.03,99.5 C359.03,93.15 359.03,86.8 359.03,80.5 C359.03,73.88 358.93,67.27 359.1,60.66 C359.082512,60.5469641 359.052321,60.4362634 359.01,60.33 C358.654082,60.6427264 358.385336,61.0423995 358.23,61.49 C352.996667,71.15 347.773333,80.8166667 342.56,90.49 C342.47,90.64 342.39,90.8 342.31,90.95 C340.97,93.41 339.49,94.07 336.78,93.45 C336.133155,93.318854 335.5528,92.9649793 335.14,92.45 C334.903425,92.1341681 334.69274,91.7997479 334.51,91.45 C328.883333,81.21 323.26,70.97 317.64,60.73 C317.55,60.57 317.49,60.41 317.41,60.26 C317.33,60.11 317.29,59.96 317.11,59.99 C316.93,60.02 317.09,60.05 317.06,60.16 Z" id="Path" fill="#2F2C3F"></path>
            <path d="M652.15,77.16 C653.552353,78.1954227 654.740904,79.4926404 655.65,80.98 L668.52,99.23 C668.77,99.57 669,99.92 669.25,100.29 C668.917469,100.471633 668.532049,100.531744 668.16,100.46 C666.1,100.46 664.04,100.46 661.98,100.46 C660.364177,100.586072 658.81575,99.7886324 657.98,98.4 C654.04,92.6 649.98,86.88 646.07,81.08 C645.177577,79.5236678 643.455511,78.6352383 641.67,78.81 C640.67,78.88 639.75,78.81 638.78,78.81 C637,78.81 637.22,78.62 637.21,80.31 L637.21,98.49 C637.21,100.49 637.21,100.49 635.21,100.49 L629.43,100.49 C628.53,100.49 628.51,100.49 628.51,99.49 C628.51,94.9433333 628.51,90.3866667 628.51,85.82 L628.51,47.72 C628.51,46.77 628.51,46.72 629.42,46.72 C635.25,46.72 641.08,46.72 646.9,46.79 C649.98923,46.8299177 653.042986,47.454241 655.9,48.63 C661.49,50.9 664.28,55.16 664.53,61.11 C664.86,68.98 660.14,74.44 653.47,76.71 L652.15,77.16 Z M637.25,63 C637.25,65.89 637.25,68.78 637.25,71.66 C637.25,72.15 637.25,72.51 637.92,72.5 C640.982083,72.5900865 644.046807,72.509963 647.1,72.26 C652.37,71.55 655.61,68.39 656.01,63.36 C656.31,59.54 654.87,56.51 651.68,54.95 C650.619576,54.4278945 649.487062,54.0672425 648.32,53.88 C644.84,53.32 641.32,53.66 637.84,53.57 C637.13,53.57 637.26,54.06 637.25,54.48 L637.25,63 Z" id="Shape" fill="#2F2C3F" fill-rule="nonzero"></path>
            <path d="M282.9,64.58 C282.9,69.66 282.9,74.75 282.9,79.83 C282.910179,82.9040279 282.287243,85.9472227 281.07,88.77 C278.871725,94.1867091 274.33797,98.3159928 268.74,100 C263.494522,101.746354 257.809227,101.644011 252.63,99.71 C245.5,97.08 241.37,91.83 239.74,84.51 C239.368807,82.7513235 239.191083,80.9573229 239.21,79.16 C239.21,68.78 239.21,58.4 239.21,48.02 C239.21,47.8 239.21,47.58 239.21,47.36 C239.21,46.9 239.41,46.74 239.84,46.76 L240.1,46.76 C242.42,46.76 244.75,46.76 247.1,46.76 C247.7,46.76 248.02,46.9 247.93,47.57 C247.93,47.87 247.93,48.18 247.93,48.49 L247.93,78.66 C247.853324,80.9380473 248.216622,83.20951 249,85.35 C250.89,90.2 254.51,92.74 259.63,93.29 C262.073002,93.6137604 264.558068,93.2681322 266.82,92.29 C270.87,90.47 273.03,87.2 273.92,82.97 C274.21275,81.3741096 274.336766,79.7518451 274.29,78.13 C274.29,68.13 274.29,58.13 274.29,48.13 C274.29,46.51 274.1,46.66 275.76,46.66 C277.76,46.66 279.76,46.66 281.81,46.66 C283.01,46.66 282.92,46.59 282.92,47.82 L282.92,64.58 L282.9,64.58 Z" id="Path" fill="#2F2C3F"></path>
            <path d="M607.88,100.45 C605.32,100.45 602.96,100.45 600.6,100.45 C599.355055,100.373965 598.302955,99.4999119 598,98.29 C597.36,96.66 596.77,95.02 596.16,93.38 C595.43,91.38 594.68,89.44 593.98,87.47 C593.860037,86.9010664 593.327914,86.5160348 592.75,86.58 C585.663333,86.58 578.566667,86.58 571.46,86.58 C570.68,86.58 570.46,86.92 570.17,87.58 C568.95,90.95 567.69,94.31 566.43,97.67 C566.280229,98.2191026 566.040298,98.739517 565.72,99.21 C565.254687,99.9216634 564.487324,100.37913 563.64,100.45 C561.33,100.45 559.02,100.45 556.72,100.45 C556.651649,99.987975 556.758666,99.5170966 557.02,99.13 C563.773333,82.0366667 570.526667,64.95 577.28,47.87 C577.72,46.75 577.73,46.75 578.98,46.75 C581.12,46.75 583.27,46.75 585.42,46.75 C586.74,46.75 586.53,46.54 587.07,47.91 L596.82,72.56 L607.32,99 L607.88,100.45 Z M591.14,80.17 C588.19,71.79 584.74,63.74 582.08,55.28 C579.31,63.72 575.91,71.81 572.96,80.17 L591.14,80.17 Z" id="Shape" fill="#2F2C3F" fill-rule="nonzero"></path>
            <path d="M394,73.47 L394,48.37 C394.020071,48.1070491 394.020071,47.8429509 394,47.58 C393.9,46.86 394.25,46.71 394.9,46.72 C400.9,46.72 406.9,46.72 412.9,46.8 C415.975969,46.8471652 419.01172,47.5066676 421.83,48.74 C427.69,51.27 430.59,55.88 431.07,62.12 C431.256425,64.3961385 431.043211,66.687343 430.44,68.89 C429.443346,72.61833 427.027944,75.8089576 423.71,77.78 C420.350365,79.7951803 416.517285,80.8854171 412.6,80.94 C409.71,81.04 406.82,80.94 403.93,80.94 C402.72,80.94 402.71,80.94 402.71,82.14 L402.71,98.88 C402.71,99.19 402.71,99.49 402.71,99.8 C402.71,100.26 402.5,100.41 402.07,100.4 C401.07,100.4 400.07,100.4 399.07,100.4 C397.63,100.4 396.18,100.4 394.74,100.4 C394.25,100.4 393.99,100.26 394.03,99.74 C394.03,99.43 394.03,99.12 394.03,98.82 L394,73.47 Z M402.76,63.88 L402.76,72.67 C402.76,74.3 402.61,74.1 404.27,74.11 C406.37,74.11 408.46,74.11 410.56,74.11 C411.6999,74.1323467 412.839113,74.0385292 413.96,73.83 C417.96,73.04 420.96,70.95 422.06,66.83 C422.534478,64.99977 422.595962,63.0869227 422.24,61.23 C421.775714,58.0780508 419.568226,55.4600473 416.54,54.47 C415.063427,53.9107613 413.4989,53.6195289 411.92,53.61 C409.213333,53.61 406.503333,53.61 403.79,53.61 C402.79,53.61 402.79,53.61 402.79,54.61 L402.76,63.88 Z" id="Shape" fill="#2F2C3F" fill-rule="nonzero"></path>
            <path d="M466.49,101.3 C461.008404,101.290731 455.69207,99.4222578 451.41,96 C450.96,95.65 450.57,95.23 450.13,94.87 C449.69,94.51 449.68,94.13 450,93.64 C450.66,92.64 451.25,91.53 451.9,90.49 C452.9,88.84 454.11,88.6 455.76,89.7 C456.86,90.42 457.91,91.21 459.03,91.89 C462.560691,94.1282186 466.877335,94.7573503 470.9,93.62 C475.73,92.28 477.44,88.13 476.75,83.83 C476.375548,82.1399526 475.304,80.6870056 473.8,79.83 C472.491166,78.9484642 471.054305,78.2738815 469.54,77.83 C466.253311,76.9078205 463.027096,75.7823188 459.88,74.46 C457.028836,73.2768937 454.663295,71.1616558 453.17,68.46 C450.5,63.52 450.71,54.38 457.98,49.46 C460.482894,47.7397548 463.392873,46.7054022 466.42,46.46 C470.625056,46.0155711 474.872381,46.706193 478.72,48.46 C480.344237,49.2311081 481.857727,50.2165578 483.22,51.39 C483.440201,51.526572 483.59344,51.7488185 483.642796,52.0031889 C483.692151,52.2575593 483.633147,52.5209874 483.48,52.73 C482.783518,53.8853978 482.213561,55.1124805 481.78,56.39 C481.61,57.08 480.57,57.48 479.78,57.33 C479.229022,57.1976179 478.711467,56.9524604 478.26,56.61 C476.782149,55.5844645 475.170414,54.7668203 473.47,54.18 C470.581832,53.1924147 467.438252,53.2525959 464.59,54.35 C461.218608,55.5716831 459.333095,59.1606608 460.24,62.63 C460.707626,64.2010688 461.764676,65.5304429 463.19,66.34 C464.698415,67.2225958 466.315344,67.9050003 468,68.37 C471.056341,69.3097879 474.060578,70.4113413 477,71.67 C478.606075,72.3766151 480.090913,73.331636 481.4,74.5 C483.686308,76.5559587 485.069694,79.4305276 485.25,82.5 C485.580403,86.0959896 484.794762,89.7064496 483,92.84 C480.37,97.45 476.23,99.9 471.14,100.94 C469.604397,101.202972 468.04778,101.323485 466.49,101.3 Z" id="Path" fill="#2F2C3F"></path>
            <path d="M520.73,77.2 L520.73,55.79 C520.73,55.53 520.73,55.26 520.73,55 C520.73,54 520.73,54 519.68,54 L505.37,54 C503.68,54 503.96,54 503.95,52.6 C503.95,50.89 503.95,49.18 503.95,47.48 C503.95,46.9 504.14,46.68 504.7,46.72 C504.963123,46.7348714 505.226877,46.7348714 505.49,46.72 L544.64,46.72 C544.856405,46.7350645 545.073595,46.7350645 545.29,46.72 C546.02,46.63 546.17,46.99 546.16,47.64 C546.16,49.35 546.16,51.06 546.16,52.77 C546.16,53.98 546.16,53.99 544.96,53.99 L531.41,53.99 C529.41,53.99 529.41,53.99 529.41,55.99 L529.41,99.47 C529.41,100.47 529.41,100.47 528.41,100.47 C526.223333,100.47 524.033333,100.47 521.84,100.47 C520.78,100.47 520.77,100.47 520.76,99.41 L520.76,77.2 L520.73,77.2 Z" id="Path" fill="#2F2C3F"></path>
            <path d="M709,77.31 L709,98.86 C709,99.17 709,99.47 709,99.78 C709,100.27 708.86,100.48 708.34,100.47 C705.88,100.47 703.43,100.47 700.98,100.47 C700.46,100.47 700.28,100.24 700.32,99.76 C700.32,99.45 700.32,99.14 700.32,98.84 L700.32,55.48 C700.32,53.82 700.52,54.01 698.86,54.01 L684.17,54.01 C683.81,54.01 683.58,53.88 683.58,53.48 C683.58,51.42 683.58,49.37 683.58,47.31 C683.58,46.93 683.75,46.75 684.13,46.75 L724.33,46.75 C726.02,46.75 725.77,46.61 725.78,48.24 C725.78,49.68 725.78,51.13 725.78,52.57 C725.78,54.01 726.06,54.01 724.28,54.01 L710.09,54.01 C709,54 709,54 709,55.11 C709,62.51 709,69.91 709,77.31 Z" id="Path" fill="#2F2C3F"></path>
            <path d="M204.73,65.46 L204.73,48.24 C204.73,47.94 204.73,47.63 204.73,47.32 C204.73,47.01 204.87,46.77 205.26,46.77 L212.88,46.77 C213.28,46.77 213.42,46.97 213.41,47.34 C213.4,47.71 213.41,47.95 213.41,48.26 C213.41,58.9 213.48,69.55 213.41,80.19 C213.47387,83.649598 212.980909,87.0969522 211.95,90.4 C210.079399,96.4172079 204.671078,100.641837 198.38,101 C195.321758,101.238095 192.245117,101.022427 189.25,100.36 C188.25,100.13 188.25,100.11 188.34,99.05 C188.47,97.79 188.58,96.53 188.71,95.26 C188.88,93.71 189.49,93.19 191.04,93.26 C191.474589,93.3032766 191.905633,93.376788 192.33,93.48 C194.137428,93.8549282 196.002572,93.8549282 197.81,93.48 C200.842113,92.975837 203.279212,90.7080358 204,87.72 C204.552369,85.6908351 204.808352,83.592447 204.76,81.49 L204.76,65.49 L204.73,65.46 Z" id="Path" fill="#2F2C3F"></path>
            <path d="M317.06,60.16 C317.06,60.05 317.06,59.86 317.14,59.85 C317.22,59.84 317.38,59.99 317.44,60.12 L317.06,60.16 Z" id="Path" fill="#D00A66"></path>
            <path d="M85.66,69.52 C85.66,77.7533333 85.66,85.9833333 85.66,94.21 C85.7149542,95.8763979 85.4185281,97.5357026 84.79,99.08 C82.79,103.55 79.39,105.99 74.49,106.14 C71.16,106.25 67.83,106.14 64.49,106.14 C63.38,106.14 63.37,106.14 63.37,104.96 L63.37,86.59 C63.37,75.9233333 63.37,65.24 63.37,54.54 C63.2432996,50.695848 65.0823571,47.05165 68.25,44.87 C69.9917072,43.5924204 72.0900865,42.8929607 74.25,42.87 C77.71,42.87 81.17,42.87 84.63,42.87 C85.63,42.87 85.63,42.87 85.63,43.87 C85.63,47.15 85.63,50.43 85.63,53.72 L85.66,69.52 Z" id="Path" fill="#D00A66"></path>
            <path d="M117.29,54 C117.300533,60.1422338 112.341592,65.1362294 106.199437,65.1689625 C100.057281,65.2016956 95.0453949,60.260837 94.9904623,54.1188398 C94.9355297,47.9768427 99.8582415,42.9471314 106,42.87 C108.978682,42.8298875 111.849343,43.9844556 113.970759,46.0758072 C116.092175,48.1671588 117.287596,51.0210486 117.29,54 Z" id="Path" fill="#D00A66"></path>
            <path d="M42.88,83.84 C46.9442905,83.707849 50.7587655,85.7968264 52.8362908,89.2925108 C54.9138162,92.7881953 54.9255123,97.1372077 52.8668193,100.644016 C50.8081263,104.150824 47.0049426,106.260288 42.94,106.15 C36.9082626,105.986349 32.0989452,101.058054 32.0827177,95.0241186 C32.0664902,88.9901834 36.8492301,84.0360913 42.88,83.84 Z" id="Path" fill="#D00A66"></path>
        </g>
    </g>
</svg>