<?xml version="1.0" encoding="UTF-8" standalone="no"?>
<!-- Created with Inkscape (http://www.inkscape.org/) -->

<svg
   xmlns:dc="http://purl.org/dc/elements/1.1/"
   xmlns:cc="http://creativecommons.org/ns#"
   xmlns:rdf="http://www.w3.org/1999/02/22-rdf-syntax-ns#"
   xmlns:svg="http://www.w3.org/2000/svg"
   xmlns="http://www.w3.org/2000/svg"
   xmlns:sodipodi="http://sodipodi.sourceforge.net/DTD/sodipodi-0.dtd"
   xmlns:inkscape="http://www.inkscape.org/namespaces/inkscape"
   width="124.8592"
   height="23.903749"
   viewBox="0 0 33.035663 6.3245337"
   version="1.1"
   id="svg7278"
   inkscape:version="0.92.0 r15299"
   sodipodi:docname="manulife.svg">
  <defs
     id="defs7272" />
  <sodipodi:namedview
     id="base"
     pagecolor="#ffffff"
     bordercolor="#666666"
     borderopacity="1.0"
     inkscape:pageopacity="0.0"
     inkscape:pageshadow="2"
     inkscape:zoom="6.4750943"
     inkscape:cx="61.9296"
     inkscape:cy="11.451874"
     inkscape:document-units="mm"
     inkscape:current-layer="layer1"
     showgrid="false"
     fit-margin-top="0"
     fit-margin-left="0"
     fit-margin-right="0"
     fit-margin-bottom="0"
     units="px"
     inkscape:window-width="1280"
     inkscape:window-height="744"
     inkscape:window-x="-4"
     inkscape:window-y="-4"
     inkscape:window-maximized="1" />
  <metadata
     id="metadata7275">
    <rdf:RDF>
      <cc:Work
         rdf:about="">
        <dc:format>image/svg+xml</dc:format>
        <dc:type
           rdf:resource="http://purl.org/dc/dcmitype/StillImage" />
        <dc:title></dc:title>
      </cc:Work>
    </rdf:RDF>
  </metadata>
  <g
     inkscape:label="Layer 1"
     inkscape:groupmode="layer"
     id="layer1"
     transform="translate(-110.61446,-202.23502)">
    <g
       id="g7345"
       style="fill:#0f6a37;fill-opacity:1"
       transform="translate(0.1322916,-0.13228814)">
      <path
         d="m 124.62087,204.03648 v 0.20919 h -0.13053 c -0.49036,0 -0.62759,0.14994 -0.62759,0.67981 v 2.62114 c 0,0.52916 0.13723,0.6798 0.62759,0.6798 h 0.13053 v 0.20884 h -2.41864 v -0.20884 h 0.13088 c 0.49036,0 0.62759,-0.15064 0.62759,-0.6798 v -2.84339 h -0.0134 l -1.75154,3.73203 h -0.20214 l -1.75825,-3.66677 h -0.0134 v 2.77813 c 0,0.52916 0.13758,0.6798 0.62724,0.6798 h 0.0921 v 0.20884 h -1.75824 v -0.20884 h 0.0914 c 0.48366,0 0.62053,-0.15064 0.62053,-0.6798 v -2.62114 c 0,-0.52987 -0.13687,-0.67981 -0.62053,-0.67981 h -0.0977 v -0.20919 h 1.69898 l 1.52294,3.19652 1.50953,-3.19652 z"
         style="fill:#0f6a37;fill-opacity:1;fill-rule:nonzero;stroke:none;stroke-width:0.35277778"
         id="path1864"
         inkscape:connector-curvature="0" />
      <path
         d="m 127.8764,207.98417 c -0.0723,0.11782 -0.20285,0.26811 -0.33337,0.37253 -0.15699,0.13088 -0.34643,0.20285 -0.52952,0.20285 -0.29422,0 -0.49672,-0.19615 -0.49672,-0.47731 v -0.072 c -0.17003,0.16333 -0.43144,0.34008 -0.6731,0.45755 -0.13088,0.0656 -0.24835,0.0917 -0.37253,0.0917 -0.4512,0 -0.73872,-0.32702 -0.73872,-0.83009 0,-0.2159 0.0914,-0.43144 0.23531,-0.57538 0.18979,-0.18309 0.43815,-0.31362 0.9084,-0.47695 l 0.58843,-0.19615 0.0522,-0.0198 v -0.13723 -0.27482 c 0,-0.34607 -0.12417,-0.47696 -0.4639,-0.47696 -0.28751,0 -0.45755,0.11783 -0.45755,0.32703 0,0.007 0,0.0392 0.007,0.0917 v 0.0325 c 0,0.22225 -0.13088,0.35948 -0.33972,0.35948 -0.20285,0 -0.34043,-0.13723 -0.34043,-0.34008 0,-0.43144 0.49671,-0.73201 1.19627,-0.73201 0.40534,0 0.73871,0.085 0.94791,0.24835 0.15663,0.13088 0.2286,0.28787 0.2353,0.55563 v 0.29422 1.25518 c 0,0.2219 0.006,0.24835 0.0194,0.30021 0.006,0.0261 0.0198,0.0526 0.0459,0.0723 0.0194,0.019 0.0459,0.0257 0.0783,0.0257 0.0917,0 0.20885,-0.0847 0.32703,-0.2286 z m -1.39876,-1.22838 c -0.57503,0.1958 -0.53552,0.17604 -0.72567,0.29387 -0.0914,0.0589 -0.16333,0.13088 -0.21554,0.21555 -0.0392,0.072 -0.0586,0.15063 -0.0586,0.2353 0,0.27446 0.18945,0.49706 0.41805,0.49706 0.16333,0 0.45085,-0.15099 0.62088,-0.31362 v -0.94156 z"
         style="fill:#0f6a37;fill-opacity:1;fill-rule:nonzero;stroke:none;stroke-width:0.35277778"
         id="path1868"
         inkscape:connector-curvature="0" />
      <path
         d="m 129.15,205.76209 c 0.33937,-0.30092 0.6925,-0.4512 1.03893,-0.4512 0.38594,0 0.71896,0.20249 0.83009,0.51011 0.066,0.17604 0.085,0.38524 0.085,0.82339 v 1.11125 c 0,0.37253 0.0783,0.47025 0.36618,0.47025 h 0.0586 v 0.2092 h -1.61431 v -0.2092 h 0.0325 c 0.29457,0 0.37253,-0.0977 0.37253,-0.47025 v -1.05904 c 0,-0.45791 -0.019,-0.56868 -0.0977,-0.69286 -0.0783,-0.11112 -0.20884,-0.17639 -0.34643,-0.17639 -0.242,0 -0.49036,0.0981 -0.72531,0.28752 v 1.64077 c 0,0.37253 0.0783,0.47025 0.36583,0.47025 h 0.10478 v 0.2092 h -1.66688 v -0.2092 h 0.0395 c 0.28716,0 0.36583,-0.0977 0.36583,-0.47025 v -1.33985 c 0,-0.28117 -0.0134,-0.40534 -0.0526,-0.50342 -0.0455,-0.0977 -0.13053,-0.15028 -0.2413,-0.15028 -0.0328,0 -0.066,0 -0.11783,0.013 v -0.23566 l 0.92816,-0.2286 h 0.27446 z"
         style="fill:#0f6a37;fill-opacity:1;fill-rule:nonzero;stroke:none;stroke-width:0.35277778"
         id="path1872"
         inkscape:connector-curvature="0" />
      <path
         d="m 134.62755,207.48107 0.006,0.27446 c 0.007,0.2159 0.072,0.30692 0.2286,0.30692 0.0392,0 0.12418,-0.0194 0.19614,-0.0388 v 0.22225 l -0.96061,0.31362 h -0.26141 v -0.45755 c -0.33337,0.29421 -0.70591,0.45755 -1.04598,0.45755 -0.41805,0 -0.77118,-0.26811 -0.85584,-0.64065 -0.0459,-0.18944 -0.0526,-0.27446 -0.0526,-0.74506 v -1.05904 c 0,-0.33937 -0.0787,-0.46355 -0.31362,-0.46355 v -0.2099 h 1.10419 v 1.84326 c 0,0.41875 0.0332,0.53587 0.16369,0.6477 0.0783,0.0716 0.1898,0.11077 0.31397,0.11077 0.15029,0 0.26106,-0.0325 0.4505,-0.13688 0.12418,-0.066 0.15699,-0.0857 0.23566,-0.15063 v -1.64077 c 0,-0.36583 -0.0787,-0.46355 -0.36619,-0.46355 h -0.13723 v -0.2099 h 1.29434 z"
         style="fill:#0f6a37;fill-opacity:1;fill-rule:nonzero;stroke:none;stroke-width:0.35277778"
         id="path1876"
         inkscape:connector-curvature="0" />
      <path
         d="m 136.29425,207.75567 c 0,0.35948 0.0787,0.47061 0.34678,0.47061 h 0.0194 v 0.2092 h -1.54234 v -0.2092 h 0.0194 c 0.29421,0 0.36618,-0.0981 0.36618,-0.47061 v -2.71251 c 0,-0.34007 -0.006,-0.45755 -0.0392,-0.54927 -0.0328,-0.0977 -0.13088,-0.16334 -0.24236,-0.16334 h -0.0586 c -0.006,0 -0.0198,0 -0.0395,0.007 l -0.0388,-0.21625 0.94121,-0.16333 h 0.26776 z"
         style="fill:#0f6a37;fill-opacity:1;fill-rule:nonzero;stroke:none;stroke-width:0.35277778"
         id="path1880"
         inkscape:connector-curvature="0" />
      <path
         d="M 136.77826,208.43519 V 208.226 h 0.10477 c 0.28752,0 0.36584,-0.0981 0.36584,-0.47061 v -1.36595 c 0,-0.28752 -0.013,-0.4117 -0.0522,-0.50307 -0.0455,-0.10477 -0.13053,-0.15733 -0.24166,-0.15733 -0.0526,0 -0.0854,0.007 -0.13723,0.0261 l -0.0526,-0.21554 1.00013,-0.2286 h 0.27446 v 2.44439 c 0,0.37254 0.0787,0.47061 0.36618,0.47061 h 0.0653 v 0.2092 z m 0.889,-3.53589 c -0.26141,0 -0.47061,-0.2092 -0.47061,-0.4706 0,-0.26141 0.2092,-0.47061 0.47061,-0.47061 0.26176,0 0.47061,0.2092 0.47061,0.47061 0,0.2614 -0.2159,0.4706 -0.47061,0.4706"
         style="fill:#0f6a37;fill-opacity:1;fill-rule:nonzero;stroke:none;stroke-width:0.35277778"
         id="path1884"
         inkscape:connector-curvature="0" />
      <path
         d="M 138.62822,208.43519 V 208.226 h 0.13089 c 0.28751,0 0.36583,-0.0981 0.36583,-0.47061 v -1.94098 h -0.49672 v -0.37289 h 0.49672 v -0.0977 c 0,-0.80398 0.61489,-1.38571 1.45732,-1.38571 0.42545,0 0.70626,0.18944 0.70626,0.48366 0,0.21555 -0.15063,0.36618 -0.38558,0.36618 -0.12418,0 -0.23531,-0.072 -0.33938,-0.22895 l -0.066,-0.0917 c -0.0783,-0.12418 -0.15028,-0.16969 -0.2614,-0.16969 -0.14993,0 -0.26141,0.10443 -0.29387,0.26811 -0.0265,0.0981 -0.0328,0.1958 -0.0328,0.41805 v 0.43779 h 0.58173 v 0.37289 h -0.58173 v 1.94098 c 0,0.37254 0.0783,0.47061 0.37254,0.47061 h 0.20919 v 0.2092 z"
         style="fill:#0f6a37;fill-opacity:1;fill-rule:nonzero;stroke:none;stroke-width:0.35277778"
         id="path1888"
         inkscape:connector-curvature="0" />
      <path
         d="m 143.38554,207.41563 c -0.0656,0.24836 -0.242,0.54257 -0.47695,0.77117 -0.24236,0.24201 -0.55598,0.37254 -0.89571,0.37254 -0.80363,0 -1.3723,-0.6731 -1.3723,-1.63372 0,-0.96731 0.57467,-1.61466 1.43157,-1.61466 0.77082,0 1.27388,0.51646 1.27388,1.30069 v 0.072 h -1.99284 c 0.0455,0.69921 0.45014,1.18322 0.99307,1.18322 0.35948,0 0.6925,-0.2092 0.88229,-0.54258 z m -0.89535,-1.06574 v -0.0519 c 0,-0.4251 -0.20285,-0.69956 -0.51012,-0.69956 -0.35277,0 -0.59478,0.28787 -0.63394,0.75142 z"
         style="fill:#0f6a37;fill-opacity:1;fill-rule:nonzero;stroke:none;stroke-width:0.35277778"
         id="path1892"
         inkscape:connector-curvature="0" />
      <path
         d="m 115.87861,207.23215 -0.88794,0.86289 v -3.50273 l 0.88794,-0.86254 z m -1.46544,0.0106 -0.88759,0.86254 v -3.50238 l 0.88759,-0.86254 z m -1.45838,0.001 -0.88724,0.8629 v -3.50274 l 0.88724,-0.86289 z m -2.34033,1.19098 h 5.93513 v -5.93513 h -5.93513 z"
         style="fill:#0f6a37;fill-opacity:1;fill-rule:nonzero;stroke:none;stroke-width:0.35277778"
         id="path1896"
         inkscape:connector-curvature="0" />
    </g>
  </g>
</svg>
