<svg width="782px" height="112px" viewBox="0 0 391 56" version="1.1" xmlns="http://www.w3.org/2000/svg" xmlns:xlink="http://www.w3.org/1999/xlink">
    <g id="Page-1" stroke="none" stroke-width="1" fill="none" fill-rule="evenodd">
        <g id="Martello-Logo">
            <path d="M289.902,45.577 L269.423,45.577 L269.423,1.531 C269.423,0.757 269.342,0.577 268.559,0.577 L261.396,0.577 C260.313,0.577 259.423,0.702 259.423,1.781 L259.423,53.069 C259.423,54.218 260.36,55.577 261.579,55.577 L289.47,55.577 C290.798,55.577 291.423,54.202 291.423,53.069 L291.423,46.682 C291.423,45.899 290.76,45.577 289.902,45.577" id="Fill-1" fill="#1B1A19"></path>
            <path d="M247.308,0.577 L215.612,0.577 C214.755,0.577 213.423,0.757 213.423,1.531 L213.423,52.843 C213.423,54.359 214.548,55.577 215.923,55.577 L247.308,55.577 C248.165,55.577 248.423,53.843 248.423,53.069 L248.423,46.682 C248.423,45.899 248.165,45.577 247.308,45.577 L223.423,45.577 L223.423,32.577 L243.493,32.577 C244.268,32.577 245.423,30.96 245.423,30.102 L245.423,23.64 C245.423,22.857 244.268,22.577 243.493,22.577 L223.423,22.577 L223.423,9.577 L247.308,9.577 C248.165,9.577 248.423,8.693 248.423,7.919 L248.423,1.531 C248.423,0.757 248.165,0.577 247.308,0.577" id="Fill-2" fill="#1B1A19"></path>
            <path d="M204.767,0.577 L170.518,0.577 C169.66,0.577 168.423,0.593 168.423,1.531 L168.423,7.919 C168.423,8.906 169.66,9.577 170.518,9.577 L181.423,9.577 L181.423,53.069 C181.423,54.312 182.147,55.577 183.704,55.577 L191.032,55.577 C192.173,55.577 192.423,53.999 192.423,53.069 L192.423,9.577 L204.554,9.577 C205.579,9.577 206.423,8.812 206.423,7.781 L206.423,1.656 C206.423,0.672 205.798,0.577 204.767,0.577" id="Fill-3" fill="#1B1A19"></path>
            <path d="M146.147,25.577 L132.423,25.577 L132.423,9.577 L146.147,9.577 C150.278,9.577 153.859,13.26 153.859,17.382 C153.859,21.745 150.278,25.577 146.147,25.577 Z M163.981,17.051 C163.981,7.791 156.344,0.577 147.001,0.577 L124.733,0.577 C123.875,0.577 122.423,0.757 122.423,1.531 L122.423,53.069 C122.423,54.234 123.423,55.577 124.733,55.577 L131.048,55.577 C132.157,55.577 132.392,54.546 132.423,53.069 L132.423,33.577 L142.021,33.577 L152.381,54.541 C152.626,55.031 153.017,55.577 153.829,55.577 L161.799,55.577 C163.376,55.577 163.673,53.815 163.123,52.808 L152.456,32.902 C159.235,30.178 163.981,24.222 163.981,17.051 Z" id="Fill-4" fill="#1B1A19"></path>
            <g id="Group-10">
                <path d="M82.529,36.577 L90.156,19.577 L90.39,19.577 L98.176,36.577 L82.529,36.577 Z M92.181,1.288 C91.948,0.822 91.64,0.577 90.857,0.577 L90.082,0.577 C89.374,0.577 88.992,0.98 88.759,1.447 L64.533,53.195 C64.067,54.201 64.691,55.577 65.857,55.577 L72.636,55.577 C73.877,55.577 74.585,54.783 74.893,53.999 L78.706,45.577 L101.99,45.577 L105.813,53.999 C106.354,55.091 106.895,55.577 108.07,55.577 L114.84,55.577 C116.015,55.577 116.63,54.117 116.164,53.111 L92.181,1.288 Z" id="Fill-5" fill="#1B1A19"></path>
                <path d="M51.768,1.596 C51.693,0.971 51.217,0.577 50.369,0.577 L49.119,0.577 C48.42,0.577 48.028,0.628 47.795,1.095 L30.665,36.577 L30.433,36.577 L13.294,1.095 C13.061,0.628 12.735,0.577 11.97,0.577 L10.73,0.577 C9.872,0.577 9.405,1.131 9.321,1.755 L0.062,53.422 C-0.187,54.765 0.313,55.577 1.535,55.577 L8.547,55.577 C9.532,55.577 9.767,54.718 9.946,53.746 L14.469,23.577 L14.702,23.577 L28.484,54.445 C28.717,54.912 29.108,55.577 29.808,55.577 L31.207,55.577 C31.906,55.577 32.372,54.912 32.531,54.445 L46.164,23.577 L46.396,23.577 L50.984,53.746 C51.189,54.765 51.595,55.577 52.467,55.577 L59.554,55.577 C60.673,55.577 61.22,54.702 60.952,53.348 L51.768,1.596" id="Fill-7" fill="#1B1A19"></path>
                <path d="M328.902,45.577 L308.423,45.577 L308.423,1.531 C308.423,0.757 308.341,0.577 307.558,0.577 L300.396,0.577 C299.313,0.577 298.423,0.702 298.423,1.781 L298.423,53.069 C298.423,54.218 299.36,55.577 300.579,55.577 L328.47,55.577 C329.798,55.577 330.423,54.202 330.423,53.069 L330.423,46.682 C330.423,45.899 329.761,45.577 328.902,45.577" id="Fill-8" fill="#1B1A19"></path>
                <path d="M344.517,28.159 C344.517,19.226 351.186,11.662 359.794,10.386 L359.794,0.174 C345.439,1.457 334.384,13.451 334.384,28.165 C334.384,42.871 345.439,54.732 359.794,56 L359.794,45.786 C351.186,44.534 344.517,37.101 344.517,28.159" id="Fill-9" fill="#B9252C"></path>
            </g>
            <path d="M365.407,0.221 L365.407,10.465 C373.786,11.952 380.267,19.399 380.267,28.159 C380.267,36.928 373.786,44.248 365.407,45.709 L365.407,55.953 C379.532,54.454 390.392,42.698 390.392,28.165 C390.392,13.625 379.532,1.738 365.407,0.221" id="Fill-11" fill="#B9252C"></path>
        </g>
    </g>
</svg>