<?xml version="1.0" encoding="utf-8"?>
<!-- Generator: Adobe Illustrator 19.2.1, SVG Export Plug-In . SVG Version: 6.00 Build 0)  -->
<svg version="1.1" id="One_line_x2C__cmyk_x2C__positive"
	 xmlns="http://www.w3.org/2000/svg" xmlns:xlink="http://www.w3.org/1999/xlink" x="0px" y="0px" viewBox="0 0 26.0504 34.0724"
	 style="enable-background:new 0 0 26.0504 34.0724;" xml:space="preserve">
<style type="text/css">
	.st0{fill:#0051A5;}
	.st1{fill:#FEDF01;}
	.st2{fill:#FFFFFF;}
</style>
<g>
	<g>
		<g>
			<g>
				<g>
					<g>
						<path class="st0" d="M25.7664,29.6817c0,1.1075-0.4541,1.7496-1.3403,2.0904c-3.4433,1.3281-7.5215,2.0127-11.4009,2.0127
							c-3.8789,0-7.957-0.6846-11.4013-2.0127c-0.8858-0.3408-1.3399-0.9829-1.3399-2.0904V0.2877h25.4824V29.6817z"/>
						<g>
							<g>
								<path class="st1" d="M7.118,18.2003c-3.5273-2.2021-4.6933-3.1777-4.792-4.6221c-0.0166-0.2939,0.0498-0.7885,0.1729-1.1421
									l-0.3325-0.2207c-0.2666,0.4234-0.4351,0.9815-0.4351,1.4942c-0.0005,0.8345,0.2671,1.4663,0.5947,1.9712
									c0.4961,0.7636,1.0176,1.2426,2.3013,2.2055c1.3848,1.0391,2.3286,2.2515,2.8725,3.5201h0.1968v-1.44
									c1.8706,1.0615,3.52,2.0611,4.3306,3.8457h0.1968C11.9061,21.962,10.8602,20.5362,7.118,18.2003z"/>
								<path class="st1" d="M23.369,23.8151h-0.2388c0-1.3169-1.207-1.6758-2.4717-1.6758h-3.9506
									c0.1269,0.6489,0.1865,1.4087,0.0874,2.1264H16.599c-0.3662-2.9585-2.0381-4.4243-4.375-5.9926v1.3461h-0.1968
									c-0.6206-1.3891-1.9863-2.6933-3.2788-3.6181h0.0005c-0.3443-0.2456-0.6997-0.5-1.0523-0.751v1.4522H7.4998
									c-0.5478-1.4405-1.5429-2.5152-2.9614-3.7945C3.0067,11.5284,2.388,10.7032,2.0301,9.754
									C1.8123,9.1793,1.7513,8.7145,1.743,8.0831C1.7289,6.9542,2.2997,5.9347,3.0111,5.5528v0.5469
									c-0.353,0.4678-0.5357,1.0586-0.5366,1.6592c-0.001,0.5537,0.1308,1.1704,0.4077,1.6963
									c0.8623,1.6426,3.768,3.6587,5.6137,4.896c5.7383,3.8486,6.8838,4.5205,7.837,6.563
									c0.1059,0.2275,0.2119,0.5337,0.3002,0.8882c0.8292-0.128,3.836-0.5855,4.3907-0.6734
									c0.1059-0.0166,0.3281-0.0449,0.4428-0.0517c0.5176-0.3277,0.9224-0.7447,1.2779-1.2652l-2.1997-0.1709
									c-0.1133,0.2525-0.2261,0.4644-0.3252,0.6343h-0.1787c0.06-0.2236,0.1123-0.4438,0.1567-0.6611l-0.5615-0.0415v-0.1197
									l0.6089-0.0752c0.1157-0.6225,0.1714-1.2109,0.1831-1.7612l-2.7705-0.1567c-0.0152,0.2841-0.0176,0.5517-0.0083,0.7998
									H17.472c-0.0591-0.2764-0.1055-0.5508-0.1411-0.8189l-0.6069-0.0346v-0.1851l0.5766-0.0312
									c-0.0805-0.733-0.0859-1.4175-0.0561-2.0049l-1.6197-0.0747c0.0762,0.1425,0.1553,0.2871,0.211,0.4438
									c0.3496,0.9775,0.2666,2.1235,0.1509,2.6499h-0.1963c-0.0283-0.6099-0.2334-1.3569-0.4278-1.813
									c-0.4482-1.0561-1.4541-1.9892-3.1386-3.0722v1.3496h-0.1968c-0.5606-1.7735-1.9556-2.7598-4.0298-3.8252
									C6.286,9.965,5.7538,8.9068,5.8504,7.2682l0.5782,0.3423c0.1479,1.5327,1.3256,2.4165,2.5576,2.4072
									c0.7251-0.0049,1.4048-0.1011,2.062-0.2329c0.9482-0.1914,1.8257-0.355,2.5586-0.0952V8.7843h-0.5757
									c-0.2056,0.1777-0.623,0.3848-1.2373,0.394C11.1185,9.191,9.8407,8.8019,9.8407,7.3741
									c0-1.2397,1.0498-1.4375,1.9043-1.4375c0.4565,0,1.2168-0.0171,1.4741-0.0317c0.1914-0.0112,0.3345-0.0405,0.4272-0.1323
									c0.0972-0.0952,0.1265-0.1934,0.149-0.3199c0.0268-0.1538,0.0268-0.3115,0.0268-0.5771c0-0.0977,0-0.9053,0-0.9053H9.8626
									v1.5679l-1.498-0.5698v-0.375h0.7173V3.9703H6.411V2.6681H5.4998c-0.4873,0-1.0478,0.3408-1.0869,1.0019
									C4.3748,4.3038,4.66,4.8375,5.3123,4.8375h0.1172v0.7588H5.3123c-1.143,0-2.0048-0.8589-2.0048-1.9985
									c0-1.1875,1.0117-2.0918,2.2343-2.0918h1.9317v1.3022h7.5102c0,0,0,1.5567,0,1.9243c0,0.3242-0.0175,0.7598-0.0493,1.0352
									c-0.022,0.1997-0.0932,0.5605-0.4726,0.8501c-0.2286,0.1743-0.5738,0.2446-1.1343,0.2471
									c-0.1826,0.0009-0.7153-0.0083-1.3535-0.0474C11.1185,6.7638,10.8758,7.0934,10.8412,7.4
									c-0.0079,0.065-0.0069,0.1279,0,0.1885c0.4008-0.3106,0.9677-0.5293,1.6118-0.3272
									c1.1333,0.3565,1.4565,0.3882,2.0464-0.0756l0.06,0.1328c-0.0635,0.0986-0.1772,0.2397-0.3428,0.3652h0.5474v2.9653
									l1.7041-1.021h4.7827c0,0,2.022,1.0562,2.3545,1.2305c0.2935,0.1543,0.4092,0.3408,0.4551,0.6148
									c0.0381,0.229-0.021,0.519-0.1338,0.7045c-0.0703,0.1158-0.6196,1.0162-0.9102,1.4971
									c0.813,0.8799,1.3619,2.1109,1.3619,3.4819c0,1.2422-0.4595,2.8448-1.9522,4.0357
									c0.6563,0.2148,1.0772,0.5723,1.4068,1.0434L23.369,23.8151z M12.7044,7.8443c-0.6718-0.1474-1.0463-0.0644-1.4326,0.3038
									c0.189,0.0903,0.4258,0.1396,0.6875,0.1206C12.3363,8.2423,12.5711,8.0162,12.7044,7.8443z M12.3163,12.1168l1.8925-1.1343
									c-0.3711-0.185-0.7822-0.3022-1.27-0.3086c-0.6518-0.0102-1.7529,0.2901-2.2856,0.3716
									C10.891,11.2081,11.7367,11.7486,12.3163,12.1168z M20.7679,12.2369l0.2622-0.3677l-0.4062-0.5424l0.0678-0.1197
									l1.1426,0.6163l-0.249,0.7553c0.1836,0.0879,0.3535,0.2002,0.5796,0.3501l0.7378-1.2134l-1.9112-0.999h-4.2241
									l-3.4277,2.0625c0.644,0.4473,1.2363,0.9307,1.6572,1.4175c0.9185-1.3364,2.5327-2.1895,4.1304-2.1895
									C19.6498,12.0069,20.2586,12.0626,20.7679,12.2369z M20.4237,17.0255c-0.0215-0.6309-0.1011-1.2017-0.2066-1.7051
									l-2.2378-0.1015c-0.1543,0.6811-0.2548,1.3462-0.3027,1.9521L20.4237,17.0255z M21.1776,15.3649
									c0.0718,0.5776,0.0791,1.1191,0.0425,1.6191l2.2172-0.1177c-0.0566-0.5034-0.1997-0.9804-0.4145-1.4165L21.1776,15.3649z
									 M20.0467,14.6388c-0.2309-0.8003-0.5073-1.357-0.6528-1.6192c-0.0928-0.0053-0.1865-0.0078-0.2808-0.0078
									c-0.1557,0-0.3125,0.02-0.4638,0.0366c-0.2246,0.5596-0.4068,1.1255-0.5557,1.6988L20.0467,14.6388z M20.6624,13.2955
									c0.1651,0.4434,0.2896,0.874,0.3809,1.2881l1.3555-0.0747C21.933,13.9733,21.3377,13.5524,20.6624,13.2955z
									 M23.1561,19.0133c0.1587-0.3848,0.2607-0.7554,0.2886-1.2241l-2.3042-0.1309c-0.104,0.645-0.2759,1.2066-0.459,1.6665
									L23.1561,19.0133z M17.4725,13.3844c-0.772,0.3462-1.3037,0.8154-1.7783,1.4897l1.5771-0.0825
									C17.328,14.0914,17.4198,13.6266,17.4725,13.3844z"/>
							</g>
							<g>
								<path class="st2" d="M14.5457,27.2189c0.6426-0.1045,1.2574-0.6045,1.2574-1.3604c0-0.6816-0.2896-1.4302-2.2959-1.4302
									c-1.5005,0-3.3848,0-3.3848,0v0.0547c0.1025,0.0313,0.2642,0.1143,0.3701,0.2193c0.23,0.2246,0.3057,0.5605,0.3169,1.0058
									v5.0674c0,0,1.8545,0,2.8052,0c1.543,0,2.6597-0.5884,2.6597-1.9365C16.2743,27.7428,15.4212,27.276,14.5457,27.2189z
									 M13.1024,25.0333c0.7178,0,1.2046,0.1553,1.2046,0.9219c0,0.8169-0.6524,1.042-1.3965,1.042c-0.3608,0-0.6411,0-0.6411,0
									v-1.9639C12.2694,25.0333,12.6707,25.0333,13.1024,25.0333z M13.1747,30.1754c-0.3038,0-0.9053,0-0.9053,0v-2.5913
									c0,0,0.4922,0,0.8637,0c1.1866,0,1.6421,0.3535,1.6421,1.2432C14.7752,29.7897,14.181,30.1754,13.1747,30.1754z"/>
								<path class="st2" d="M7.6244,30.7755H9.452l-2.335-2.9849c0.9361-0.2505,1.6372-0.7622,1.6372-1.6923
									c0-1.0923-0.6533-1.67-2.3628-1.67c-1.5156,0-3.5307,0-3.5307,0v0.0547c0.1299,0.0464,0.2754,0.1304,0.3706,0.2241
									c0.2471,0.2437,0.3208,0.6158,0.3208,1.1187c0,0.0015,0,4.9497,0,4.9497h1.4663V27.962c0,0,0.3184,0,0.5352,0
									L7.6244,30.7755z M5.0184,25.0333c0,0,0.5571,0,0.9878,0c0.8223,0,1.2515,0.2402,1.2515,1.1143
									c0,0.7793-0.5616,1.2407-1.462,1.2407c-0.3608,0-0.7773,0-0.7773,0V25.0333z"/>
								<path class="st2" d="M22.203,25.298c0.3921,0.2226,0.5112,0.5131,0.5136,0.5156c0.0191,0.0215,0.0611,0.0146,0.0611,0.0146
									l0.3193-1.0854c0,0-0.5732-0.4116-1.9365-0.4116c-2.0635,0-3.6084,1.0395-3.6084,3.3139
									c0,2.563,1.8403,3.2285,3.4624,3.2285c1.5093,0,2.102-0.4799,2.102-0.4799V29.649c0,0-0.5332,0.4981-1.6762,0.4981
									c-0.9448,0-2.3301-0.4312-2.3599-2.5386c-0.0278-1.9448,0.8203-2.5796,1.957-2.5796
									C21.6707,25.0289,21.9876,25.1769,22.203,25.298z"/>
							</g>
						</g>
					</g>
				</g>
			</g>
		</g>
	</g>
</g>
</svg>
