
<svg width="107px" height="95px" viewBox="0 0 107 95" version="1.1" xmlns="http://www.w3.org/2000/svg" xmlns:xlink="http://www.w3.org/1999/xlink">
    <g id="Page-1" stroke="none" stroke-width="1" fill="none" fill-rule="evenodd">
        <g id="TD_SHIELD_PRINT_LOGO_COL_PMS">
            <g id="Group">
                <polygon id="Fill-1" fill="#51AF46" points="0 94.8944444 106.225833 94.8944444 106.225833 0 0 0"></polygon>
                <path d="M69.7387963,74.4483333 L44.9948148,74.4483333 L44.9948148,29.8775 L57.4239815,29.8775 L57.4239815,66.5527778 L69.3763889,66.5527778 C77.6273148,66.5527778 81.0930556,60.8369444 81.0930556,46.1172222 C81.0930556,31.3112963 77.1540741,27.0063889 68.78,27.0063889 L41.5202778,27.0063889 L41.5202778,74.4483333 L29.2125,74.4483333 L29.2125,27.0063889 L11.155463,27.0063889 L11.155463,19.0932407 L72.6116667,19.0932407 C87.4351852,19.0932407 94.4775,26.7636111 94.4775,45.9993519 C94.4775,71.3432407 83.9641667,74.4483333 69.7387963,74.4483333" id="Fill-3" fill="#FFFFFE"></path>
            </g>
        </g>
    </g>
</svg>