<svg width="2160px" height="420px" viewBox="0 0 216 42" version="1.1" xmlns="http://www.w3.org/2000/svg" xmlns:xlink="http://www.w3.org/1999/xlink">
    <g id="Page-1" stroke="none" stroke-width="1" fill="none" fill-rule="evenodd">
        <g id="Telus-Logo">
            <polyline id="polyline2384" fill="#49266C" points="128.175728 11.6431291 128.175728 7.22883021 112.428723 7.22883021 112.428723 29.9406988 128.175728 29.9406988 128.175728 25.3341966 118.804224 25.3341966 118.804224 20.2995639 126.598933 20.2995639 126.598933 15.8907305 118.804224 15.8907305 118.804224 11.6431291 128.175728 11.6431291"></polyline>
            <polyline id="polyline2386" fill="#49266C" points="155.944092 25.4589921 146.106199 25.4589921 146.106199 7.22883021 139.652359 7.22883021 139.652359 29.9406988 155.944092 29.9406988 155.944092 25.4589921"></polyline>
            <path d="M207.924602,15.884354 C203.569513,14.9032975 202.044639,14.789433 202.044639,13.0568708 C202.044639,11.449104 204.202599,10.9490112 205.444178,10.9490112 C207.451837,10.9490112 209.822951,11.417222 212.239611,12.6560677 L213.996768,8.47678513 C211.519988,7.12680762 208.342713,6.56477245 205.286589,6.56477245 C199.28092,6.56477245 195.251028,9.00147275 195.081597,13.7518997 C194.910345,18.0842162 198.432857,19.7047357 201.670253,20.3733481 C204.791051,21.0182766 207.957395,21.5702917 208.021159,23.4240058 C208.078547,25.1337951 206.540921,25.8661716 203.639653,25.8661716 C200.952451,25.8661716 198.453808,25.0026232 195.901422,23.9332078 L194.409341,28.4759459 C197.344313,29.7239008 200.323008,30.4116424 203.393706,30.4116424 C207.660436,30.4116424 210.773947,29.7457628 213.065812,27.5941792 C214.65445,26.1166735 215.174583,24.3330999 215.174583,22.6305979 C215.178226,19.040678 212.940106,17.0184445 207.924602,15.884354" id="path2388" fill="#49266C"></path>
            <polyline id="polyline2390" fill="#49266C" points="103.273107 11.7123588 103.273107 7.22883021 83.466149 7.22883021 83.466149 11.7123588 90.157738 11.7123588 90.157738 29.9406988 96.5733194 29.9406988 96.5733194 11.7123588 103.273107 11.7123588"></polyline>
            <path d="M177.962753,7.22883021 L177.962753,21.6586506 C177.962753,22.7890973 177.962753,23.1015415 177.895345,23.5415139 C177.687656,24.9169971 176.355897,25.7149595 174.229819,25.7431979 C172.655756,25.7176923 171.502537,25.2522142 170.966007,24.429657 C170.695465,24.006992 170.564293,23.2472881 170.564293,22.033948 L170.564293,7.22883021 L163.870883,7.22883021 L163.870883,22.8810998 C163.870883,25.0499908 164.160554,26.0292255 165.139789,27.2671604 C166.755754,29.2866612 169.905701,30.3487892 174.242572,30.3487892 C174.291762,30.3487892 174.334575,30.3487892 174.385586,30.3487892 C174.408359,30.3487892 174.447528,30.3487892 174.480321,30.3487892 C180.287411,30.3487892 183.287057,28.084252 184.153338,25.9654614 C184.586023,24.9379482 184.617905,24.451519 184.617905,22.3782742 L184.617905,7.22883021 L177.962753,7.22883021" id="path2392" fill="#49266C"></path>
            <path d="M86.4894792,1.01000668 L48.9533636,8.48316154 L48.9533636,11.1011341 L49.0726936,11.070163 C73.869649,5.04263181 86.4885683,1.41718613 86.5905909,1.39168048 C86.730872,1.35524384 86.7800615,1.24593392 86.7609322,1.15393141 C86.7399811,1.05737431 86.6388695,0.977213704 86.4894792,1.01000668" id="path2394" fill="#49266C"></path>
            <path d="M55.9710605,0.295848536 C54.1464958,0.39969296 50.7679083,3.10238073 48.9132833,4.70741472 C41.5284873,11.0965795 36.0374857,16.969255 32.0449408,23.1197598 C23.7219014,27.5777827 13.108819,32.162423 2.57316458,35.740501 L2.31901902,35.8261271 L0.29132,41.2861576 L1.44909424,40.8388979 C8.15161416,38.2846894 19.3385736,33.4878057 29.4798014,28.1553035 C28.9086571,29.678355 28.6208076,31.0784329 28.6208076,32.3546262 C28.6208076,33.3065335 28.7802179,34.1919438 29.0981276,34.9962826 C29.7357688,36.6031385 30.9928329,37.8201222 32.7354152,38.5115075 C35.3306149,39.547219 38.8713453,39.5663482 42.9112578,38.342988 C53.2319361,35.2149025 65.4737362,25.6102042 68.1390764,23.7000133 L68.241099,23.628051 C68.3458544,23.5524449 68.3531417,23.4385804 68.3094177,23.3611526 C68.2511191,23.2727937 68.1281454,23.2491099 68.0270338,23.3110522 L68.0261228,23.3110522 L68.0270338,23.3110522 L67.8958619,23.3903019 C65.0355856,25.1073785 51.1368293,33.3593666 42.1023644,35.7824031 C37.5004168,37.0166943 33.9933902,36.3426165 32.6707401,34.4925461 C32.2116385,33.8603704 31.9902859,33.0605861 31.9902859,32.1278082 C31.9902859,30.3068871 32.8474578,27.9886059 34.4980376,25.4116245 C36.0174455,24.5471652 37.4366526,23.7018352 38.7155787,22.8984072 C47.5296019,17.944846 57.6844935,8.31373117 58.1180895,2.4346793 C58.1199113,2.394599 58.1199113,2.34814228 58.1199113,2.30441832 C58.1199113,1.7970381 57.9003806,1.27508324 57.5150631,0.889765768 C57.1015073,0.46801166 56.5567795,0.257590064 55.9710605,0.295848536 Z M54.9881821,3.09782615 C55.5666138,2.72343968 55.7333114,2.95754509 55.5629701,3.38021011 C55.2878735,4.05519887 54.0153238,8.1160624 44.5663922,15.8734231 C42.1005426,17.8929238 40.3470293,19.0270142 36.7962787,21.1294084 C42.6106555,12.9812648 51.0994817,5.6228853 54.9881821,3.09782615 Z" id="path2396" fill="#6EBE44" fill-rule="nonzero"></path>
            <polyline id="polyline2398" fill="#49266C" points="48.83039 8.50775628 9.33853771 16.9965825 7.81548616 21.1039027 48.9533636 11.1002232 50.2259133 10.3815105 50.1903876 8.51231086 48.83039 8.50775628"></polyline>
        </g>
    </g>
</svg>