<svg viewBox="0 0 100 30" fill="none" xmlns="http://www.w3.org/2000/svg">
<path d="M14.4 11.3C14.4 13 13 14.4 11.3 14.4C9.6 14.4 8.2 13 8.2 11.3C8.2 9.6 9.6 8.2 11.3 8.2C13 8.2 14.4 9.6 14.4 11.3V11.3ZM11.3 15.6C9.6 15.6 8.2 17 8.2 18.7C8.2 20.4 9.6 21.8 11.3 21.8C13 21.8 14.4 20.4 14.4 18.7C14.4 17 13 15.6 11.3 15.6V15.6ZM30 15C30 23.3 23.3 30 15 30C6.7 30 0 23.3 0 15C0 6.7 6.7 0 15 0C23.3 0 30 6.7 30 15ZM26 15C26 8.9 21.1 4 15 4C8.9 4 4 8.9 4 15C4 21.1 8.9 26 15 26C21.1 26 26 21.1 26 15ZM18.7 15.6C17 15.6 15.6 17 15.6 18.7C15.6 20.4 17 21.8 18.7 21.8C20.4 21.8 21.8 20.4 21.8 18.7C21.8 17 20.4 15.6 18.7 15.6ZM18.7 8.2C17 8.2 15.6 9.6 15.6 11.3C15.6 13 17 14.4 18.7 14.4C20.4 14.4 21.8 13 21.8 11.3C21.8 9.6 20.4 8.2 18.7 8.2ZM70.3 5.9C70.4 5.9 70.5 6 70.6 6.1V9.3C70.6 9.5 70.4 9.6 70.3 9.6H65C64.8 9.6 64.7 9.4 64.7 9.3V6.2C64.7 6 64.9 5.9 65 5.9H70.3V5.9ZM70.2 10.4H60C59.9 10.4 59.7 10.5 59.7 10.7L58.4 15.7L58.3 16L56.7 10.7C56.7 10.6 56.5 10.4 56.4 10.4H52.4C52.3 10.4 52.1 10.5 52.1 10.7L50.6 15.7L50.5 16L50.4 15.7L49.8 13.2L49.2 10.7C49.2 10.6 49 10.4 48.9 10.4H40.9V6.1C40.9 6 40.7 5.8 40.5 5.9L35.5 7.5C35.3 7.5 35.2 7.6 35.2 7.8V10.5H33.9C33.8 10.5 33.6 10.6 33.6 10.8V14.6C33.6 14.7 33.7 14.9 33.9 14.9H35.2V19.6C35.2 22.9 37 24.4 40.3 24.4C41.7 24.4 43 24.1 43.9 23.6V19.6C43.9 19.4 43.7 19.3 43.6 19.4C43.1 19.6 42.6 19.7 42.2 19.7C41.3 19.7 40.8 19.3 40.8 18.3V14.9H43.7C43.8 14.9 44 14.8 44 14.6V11.4L47.8 24C47.8 24.1 48 24.3 48.1 24.3H52.3C52.4 24.3 52.6 24.2 52.6 24L54.4 18.4L55.3 21.3L56.1 24C56.1 24.1 56.3 24.3 56.4 24.3H60.6C60.7 24.3 60.9 24.2 60.9 24L64.7 11.4V24C64.7 24.1 64.8 24.3 65 24.3H70.1C70.2 24.3 70.4 24.2 70.4 24V10.7C70.4 10.6 70.3 10.4 70.2 10.4V10.4ZM76.9 5.9H71.8C71.7 5.9 71.5 6 71.5 6.2V23.9C71.5 24 71.6 24.2 71.8 24.2H76.9C77 24.2 77.2 24.1 77.2 23.9V6.1C77.2 6 77.1 5.9 76.9 5.9V5.9ZM83.7 5.9H78.4C78.3 5.9 78.1 6 78.1 6.2V9.3C78.1 9.4 78.2 9.6 78.4 9.6H83.7C83.8 9.6 84 9.5 84 9.3V6.1C84 6 83.9 5.9 83.7 5.9V5.9ZM83.6 10.4H78.5C78.4 10.4 78.2 10.5 78.2 10.7V23.8C78.2 23.9 78.3 24.1 78.5 24.1H83.6C83.7 24.1 83.9 24 83.9 23.8V10.7C83.9 10.6 83.8 10.4 83.6 10.4ZM99.7 17.2C99.7 21 96.5 24.3 92 24.3C87.6 24.3 84.4 21 84.4 17.2C84.4 13.4 87.6 10.1 92.1 10.1C96.5 10.1 99.7 13.4 99.7 17.2V17.2ZM94.3 17.3C94.3 15.9 93.3 14.8 92.1 14.9C90.8 14.9 89.9 16 89.9 17.3C89.9 18.6 90.9 19.7 92.1 19.7C93.4 19.7 94.3 18.6 94.3 17.3Z" fill="#F22F46"/>
</svg>
