<svg width="1300" height="792" viewBox="0 0 1300 792" fill="none" xmlns="http://www.w3.org/2000/svg">
<path d="M193.37 555.366C252.5 555.366 298.22 509.637 298.22 441.967V178.596H362.22V605.356H298.83V565.726C270.18 595.596 230.56 612.666 186.05 612.666C94.6 612.666 24.49 546.216 24.49 445.666V178.667H88.49V441.967C88.49 510.857 133.6 555.366 193.35 555.366" fill="black"/>
<path d="M409.79 178.607H471.36V334.066C485.719 319.358 502.883 307.678 521.836 299.719C540.788 291.759 561.144 287.681 581.7 287.726C673.15 287.726 745.08 360.276 745.08 450.507C745.08 540.127 673.15 612.666 581.7 612.666C561.045 612.722 540.588 608.653 521.527 600.697C502.466 592.742 485.186 581.06 470.7 566.337V605.337H409.7L409.79 178.607ZM577.44 558.416C635.97 558.416 684.13 510.247 684.13 450.507C684.13 390.146 635.97 342.596 577.44 342.596C518.3 342.596 470.14 390.146 470.14 450.507C470.14 510.247 517.69 558.416 577.44 558.416Z" fill="black"/>
<path d="M929.21 288.337C1018.82 288.337 1084.67 357.227 1084.67 449.897V470.017H831.7C840.24 520.617 882.3 558.416 934.7 558.416C970.7 558.416 1001.16 543.776 1024.32 512.686L1068.83 545.606C1037.73 587.066 991.4 612.056 934.7 612.056C841.43 612.056 769.49 542.557 769.49 449.897C769.49 362.107 838.38 288.337 929.22 288.337H929.21ZM832.89 421.246H1022.49C1012.13 373.686 973.72 341.986 928 341.986C882.28 341.986 843.87 373.686 832.89 421.246Z" fill="black"/>
<path d="M1249.88 349.306C1209.64 349.306 1180.38 380.396 1180.38 428.556V605.356H1118.8V294.436H1179.8V332.876C1195.04 307.876 1220.04 292.027 1254.18 292.027H1275.51V349.337L1249.88 349.306Z" fill="black"/>
</svg>
