<svg width="1259" height="490" viewBox="0 0 1259 490" fill="none" xmlns="http://www.w3.org/2000/svg">
<path fill-rule="evenodd" clip-rule="evenodd" d="M5 0C4.44775 0 4 0.447723 4 1V70.5966C4 71.1489 3.55228 71.5966 3 71.5966H1C0.447715 71.5966 0 72.0443 0 72.5966V78.6638C0 79.2161 0.447715 79.6638 1 79.6638H15C15.5523 79.6638 16 79.2161 16 78.6638V72.5966C16 72.0443 15.5523 71.5966 15 71.5966H13C12.4477 71.5966 12 71.1489 12 70.5966V1C12 0.447723 11.5522 0 11 0H5Z" transform="translate(14 393.336)" fill="white" stroke="#4D4D4D" stroke-width="4"/>
<ellipse cx="20" cy="20.1681" rx="20" ry="20.1681" transform="translate(2 353)" fill="white" stroke="#4D4D4D" stroke-width="4"/>
<path d="M0 0L6.90766 7.33233C7.28895 7.73705 7.92717 7.75302 8.32821 7.36786L16 0" transform="translate(14 375.185)" stroke="#4D4D4D" stroke-width="4" stroke-linecap="round"/>
<path d="M0 16.1345V0" transform="translate(22 363.084)" stroke="#4D4D4D" stroke-width="4" stroke-linecap="round"/>
<path fill-rule="evenodd" clip-rule="evenodd" d="M0.174316 25.9572L0.0871588 26.9534C0.0390224 27.5035 0.446015 27.9886 0.996201 28.0367L1.99243 28.1239L104.254 37.0706C104.77 37.1158 105.167 37.5483 105.167 38.0668V435.223V436.223C105.167 436.775 105.614 437.223 106.167 437.223H107.167H131.167H132.167C132.719 437.223 133.167 436.775 133.167 436.223V435.223V40.6914C133.167 40.1048 133.669 39.6441 134.254 39.6953L288.896 53.2247L289.893 53.3119C290.443 53.36 290.928 52.953 290.976 52.4028L291.063 51.4067L292.458 35.4675L292.542 34.4986C292.59 33.9592 292.199 33.4802 291.661 33.4181L290.695 33.3064L4.48804 0.236031L3.46669 0.118017C2.90725 0.0533752 2.40479 0.46324 2.35571 1.02426L2.26611 2.0485L0.174316 25.9572ZM287.34 48.0695C287.292 48.6196 286.807 49.0266 286.257 48.9785L5.32968 24.4006C4.7795 24.3524 4.37251 23.8674 4.42064 23.3172L5.98193 5.46989C6.03101 4.90886 6.53347 4.499 7.09291 4.56364L287.337 36.9451C287.875 37.0072 288.266 37.4862 288.219 38.0256L287.34 48.0695ZM110.167 433.223C109.614 433.223 109.167 432.775 109.167 432.223V39.5994C109.167 39.0127 109.669 38.5521 110.254 38.6032L128.254 40.178C128.77 40.2232 129.167 40.6557 129.167 41.1742V432.223C129.167 432.775 128.719 433.223 128.167 433.223H110.167Z" transform="translate(822.833 36.7772)" fill="#4D4D4D"/>
<path d="M0 70.5L12 0H21.5L23.5 72.5" transform="translate(929 2)" stroke="#4D4D4D" stroke-width="4"/>
<path d="M0 40L82.5 0H93.5L256 68.5" transform="translate(856 2)" stroke="#4D4D4D" stroke-width="4" stroke-linecap="round"/>
<rect width="32" height="8" rx="1" transform="translate(1035 129)" fill="white" stroke="#4D4D4D" stroke-width="4"/>
<path d="M0 46.5V0" transform="translate(1047 83)" stroke="#4D4D4D" stroke-width="4"/>
<path d="M0 46.5V0" transform="translate(1055 83)" stroke="#4D4D4D" stroke-width="4"/>
<line x1="2" y1="-2" x2="30" y2="-2" transform="translate(932 99.6274) rotate(-45)" stroke="#4D4D4D" stroke-width="4" stroke-linecap="round"/>
<line x1="2" y1="-2" x2="30" y2="-2" transform="translate(929 77) rotate(45)" stroke="#4D4D4D" stroke-width="4" stroke-linecap="round"/>
<line x1="2" y1="-2" x2="30" y2="-2" transform="translate(932 121.627) rotate(-45)" stroke="#4D4D4D" stroke-width="4" stroke-linecap="round"/>
<line x1="2" y1="-2" x2="30" y2="-2" transform="translate(929 99) rotate(45)" stroke="#4D4D4D" stroke-width="4" stroke-linecap="round"/>
<line x1="2" y1="-2" x2="30" y2="-2" transform="translate(932 142.627) rotate(-45)" stroke="#4D4D4D" stroke-width="4" stroke-linecap="round"/>
<line x1="2" y1="-2" x2="30" y2="-2" transform="translate(929 120) rotate(45)" stroke="#4D4D4D" stroke-width="4" stroke-linecap="round"/>
<line x1="2" y1="-2" x2="30" y2="-2" transform="translate(932 162.627) rotate(-45)" stroke="#4D4D4D" stroke-width="4" stroke-linecap="round"/>
<line x1="2" y1="-2" x2="30" y2="-2" transform="translate(929 140) rotate(45)" stroke="#4D4D4D" stroke-width="4" stroke-linecap="round"/>
<line x1="2" y1="-2" x2="30" y2="-2" transform="translate(932 183.627) rotate(-45)" stroke="#4D4D4D" stroke-width="4" stroke-linecap="round"/>
<line x1="2" y1="-2" x2="30" y2="-2" transform="translate(929 161) rotate(45)" stroke="#4D4D4D" stroke-width="4" stroke-linecap="round"/>
<line x1="2" y1="-2" x2="30" y2="-2" transform="translate(932 205.627) rotate(-45)" stroke="#4D4D4D" stroke-width="4" stroke-linecap="round"/>
<line x1="2" y1="-2" x2="30" y2="-2" transform="translate(929 183) rotate(45)" stroke="#4D4D4D" stroke-width="4" stroke-linecap="round"/>
<line x1="2" y1="-2" x2="30" y2="-2" transform="translate(932 227.627) rotate(-45)" stroke="#4D4D4D" stroke-width="4" stroke-linecap="round"/>
<line x1="2" y1="-2" x2="30" y2="-2" transform="translate(929 205) rotate(45)" stroke="#4D4D4D" stroke-width="4" stroke-linecap="round"/>
<line x1="2" y1="-2" x2="30" y2="-2" transform="translate(839.988 65.8028) rotate(-40)" stroke="#4D4D4D" stroke-width="4" stroke-linecap="round"/>
<line x1="2" y1="-2" x2="30" y2="-2" transform="translate(838.972 43) rotate(50)" stroke="#4D4D4D" stroke-width="4" stroke-linecap="round"/>
<line x1="2" y1="-2" x2="30" y2="-2" transform="translate(862.988 66.8028) rotate(-40)" stroke="#4D4D4D" stroke-width="4" stroke-linecap="round"/>
<line x1="2" y1="-2" x2="30" y2="-2" transform="translate(861.972 44) rotate(50)" stroke="#4D4D4D" stroke-width="4" stroke-linecap="round"/>
<line x1="2" y1="-2" x2="30" y2="-2" transform="translate(883.988 68.8028) rotate(-40)" stroke="#4D4D4D" stroke-width="4" stroke-linecap="round"/>
<line x1="2" y1="-2" x2="30" y2="-2" transform="translate(882.972 46) rotate(50)" stroke="#4D4D4D" stroke-width="4" stroke-linecap="round"/>
<line x1="2" y1="-2" x2="30" y2="-2" transform="translate(905.988 71.8028) rotate(-40)" stroke="#4D4D4D" stroke-width="4" stroke-linecap="round"/>
<line x1="2" y1="-2" x2="30" y2="-2" transform="translate(904.972 49) rotate(50)" stroke="#4D4D4D" stroke-width="4" stroke-linecap="round"/>
<line x1="2" y1="-2" x2="30" y2="-2" transform="translate(931.988 74.8028) rotate(-40)" stroke="#4D4D4D" stroke-width="4" stroke-linecap="round"/>
<line x1="2" y1="-2" x2="30" y2="-2" transform="translate(930.972 52) rotate(50)" stroke="#4D4D4D" stroke-width="4" stroke-linecap="round"/>
<line x1="2" y1="-2" x2="30" y2="-2" transform="translate(953.988 76.8028) rotate(-40)" stroke="#4D4D4D" stroke-width="4" stroke-linecap="round"/>
<line x1="2" y1="-2" x2="30" y2="-2" transform="translate(952.972 54) rotate(50)" stroke="#4D4D4D" stroke-width="4" stroke-linecap="round"/>
<line x1="2" y1="-2" x2="28.1993" y2="-2" transform="matrix(0.804138 -0.594443 0.688698 0.725049 975.217 77.1854)" stroke="#4D4D4D" stroke-width="4" stroke-linecap="round"/>
<line x1="2" y1="-2" x2="28.1993" y2="-2" transform="matrix(0.688698 0.725049 -0.804138 0.594443 973.972 57)" stroke="#4D4D4D" stroke-width="4" stroke-linecap="round"/>
<line x1="2" y1="-2" x2="28.1993" y2="-2" transform="matrix(0.804138 -0.594443 0.688698 0.725049 995.989 79.1854)" stroke="#4D4D4D" stroke-width="4" stroke-linecap="round"/>
<line x1="2" y1="-2" x2="28.1993" y2="-2" transform="matrix(0.688698 0.725049 -0.804138 0.594443 994.743 59)" stroke="#4D4D4D" stroke-width="4" stroke-linecap="round"/>
<line x1="2" y1="-2" x2="25.8036" y2="-2" transform="matrix(0.815677 -0.578507 0.702828 0.711359 1016.8 81.1764)" stroke="#4D4D4D" stroke-width="4" stroke-linecap="round"/>
<line x1="2" y1="-2" x2="25.8036" y2="-2" transform="matrix(0.702828 0.711359 -0.815677 0.578507 1015.57 63)" stroke="#4D4D4D" stroke-width="4" stroke-linecap="round"/>
<line x1="2" y1="-2" x2="25.8036" y2="-2" transform="matrix(0.815677 -0.578507 0.702828 0.711359 1037.8 83.1764)" stroke="#4D4D4D" stroke-width="4" stroke-linecap="round"/>
<line x1="2" y1="-2" x2="25.8036" y2="-2" transform="matrix(0.702828 0.711359 -0.815677 0.578507 1036.57 65)" stroke="#4D4D4D" stroke-width="4" stroke-linecap="round"/>
<line x1="2" y1="-2" x2="25.8036" y2="-2" transform="matrix(0.815677 -0.578507 0.702828 0.711359 1057.8 84.1764)" stroke="#4D4D4D" stroke-width="4" stroke-linecap="round"/>
<line x1="2" y1="-2" x2="25.8036" y2="-2" transform="matrix(0.702828 0.711359 -0.815677 0.578507 1056.57 66)" stroke="#4D4D4D" stroke-width="4" stroke-linecap="round"/>
<line x1="2" y1="-2" x2="23.1658" y2="-2" transform="matrix(0.824344 -0.56609 0.71352 0.700635 1078.57 86.1636)" stroke="#4D4D4D" stroke-width="4" stroke-linecap="round"/>
<line x1="2" y1="-2" x2="23.1658" y2="-2" transform="matrix(0.71352 0.700635 -0.824344 0.56609 1077.39 70)" stroke="#4D4D4D" stroke-width="4" stroke-linecap="round"/>
<line x1="2" y1="-2" x2="23.1658" y2="-2" transform="matrix(0.824344 -0.56609 0.71352 0.700635 1095 87.2461)" stroke="#4D4D4D" stroke-width="4" stroke-linecap="round"/>
<line x1="2" y1="-2" x2="23.1658" y2="-2" transform="matrix(0.71352 0.700635 -0.824344 0.56609 1093 71)" stroke="#4D4D4D" stroke-width="4" stroke-linecap="round"/>
<rect width="16" height="32" rx="1" transform="translate(822.789 35) rotate(5)" fill="white" stroke="#4D4D4D" stroke-width="4"/>
<path fill-rule="evenodd" clip-rule="evenodd" d="M4.05884 102.239C4.05884 102.236 4.05993 102.233 4.06188 102.231L4.18498 102.108C4.35315 101.94 4.62579 101.94 4.79388 102.108L15.7899 113.111C16.1801 113.502 16.1801 114.135 15.7899 114.525L7.73265 122.588C7.1755 123.145 6.22461 122.868 6.06617 122.096C4.75022 115.683 4.05884 109.042 4.05884 102.239ZM20.0313 117.355C19.6407 116.965 19.0072 116.965 18.6166 117.355L7.86932 128.109C7.68992 128.289 7.62057 128.551 7.68895 128.796C7.7738 129.099 8.05079 129.307 8.36568 129.307H29.5624C30.4532 129.307 30.8994 128.23 30.2698 127.6L20.0313 117.355ZM36.504 126.764C36.1134 127.155 35.4799 127.155 35.0893 126.764L22.858 114.525C22.4678 114.135 22.4678 113.502 22.858 113.111L34.7692 101.193C35.1598 100.802 35.7933 100.802 36.1839 101.193L48.4154 113.432C48.8056 113.822 48.8056 114.455 48.4154 114.845L36.504 126.764ZM35.7966 133.307C35.6836 133.307 35.5752 133.352 35.4953 133.432L23.5475 145.387C23.1573 145.778 23.1573 146.411 23.5475 146.801L35.8308 159.092C36.2213 159.483 36.8548 159.483 37.2454 159.092L48.787 147.543C49.1772 147.152 49.1772 146.52 48.787 146.129L36.0979 133.432C36.018 133.352 35.9096 133.307 35.7966 133.307ZM12.4754 133.307C11.5846 133.307 11.1384 134.384 11.7681 135.014L19.3063 142.557C19.6969 142.948 20.3304 142.948 20.721 142.557L28.2593 135.014C28.8889 134.384 28.4427 133.307 27.5519 133.307H12.4754ZM14.6962 146.756C15.0018 147.356 15.8036 147.477 16.2799 147.001L16.4796 146.801C16.8698 146.411 16.8698 145.778 16.4796 145.387L15.5898 144.497C14.8118 143.719 13.6028 144.553 14.0884 145.541C14.2883 145.947 14.4909 146.352 14.6962 146.756ZM29.0448 160.375C29.9356 160.375 30.3818 159.298 29.7522 158.668L20.7208 149.631C20.3302 149.241 19.6967 149.241 19.3061 149.631L17.8814 151.057C17.5606 151.378 17.4957 151.875 17.727 152.265C19.2973 154.915 20.9885 157.485 22.7931 159.967C22.9802 160.224 23.2797 160.375 23.5978 160.375H29.0448ZM53.0284 143.299C52.6378 143.69 52.0043 143.69 51.6137 143.299L43.334 135.014C42.7043 134.384 43.1506 133.307 44.0413 133.307H60.6008C61.4915 133.307 61.9377 134.384 61.3081 135.014L53.0284 143.299ZM53.0284 150.373C52.6378 149.982 52.0043 149.982 51.6137 150.373L43.3238 158.668C42.6941 159.298 43.1403 160.375 44.0311 160.375H60.611C61.5018 160.375 61.948 159.298 61.3183 158.668L53.0284 150.373ZM69.3682 159.649C68.9776 160.04 68.3441 160.04 67.9536 159.649L55.8551 147.543C55.4649 147.153 55.4649 146.52 55.8551 146.129L67.7665 134.21C68.1571 133.82 68.7906 133.82 69.1812 134.21L81.2796 146.316C81.6699 146.707 81.6699 147.34 81.2796 147.73L69.3682 159.649ZM20.0313 110.281C19.6407 110.672 19.0072 110.672 18.6166 110.281L8.0246 99.6826C7.63426 99.292 7.63439 98.659 8.02488 98.2686L8.27645 98.017C8.46398 97.8295 8.71831 97.7242 8.9835 97.7242H30.1672C31.0579 97.7242 31.5042 98.801 30.8745 99.4311L20.0313 110.281ZM0.0223625 97.2262C0.036651 97.2119 0.0446777 97.1926 0.0446777 97.1724V93.9132C0.0446777 93.8088 0.129287 93.7242 0.233658 93.7242C0.332015 93.7242 0.413974 93.648 0.422213 93.55C4.82702 41.1532 48.7251 0 102.231 0C131.265 0 157.471 12.1181 176.072 31.5751C176.249 31.7603 176.347 32.0068 176.347 32.2628V35.1374C176.347 36.0625 175.19 36.499 174.565 35.8173C173.482 34.637 172.37 33.4833 171.232 32.3572C171.045 32.1731 170.794 32.0706 170.532 32.0706H170.257C169.992 32.0706 169.737 32.176 169.55 32.3637L154.086 47.8366C153.696 48.2271 153.696 48.8601 154.087 49.2506L166.189 61.3529C166.58 61.7435 167.213 61.7434 167.603 61.3527L174.639 54.3122C175.269 53.682 176.347 54.1281 176.347 55.0191V57.8483C176.347 58.1134 176.241 58.3677 176.054 58.5552L173.165 61.4457C172.536 62.0758 172.982 63.1526 173.873 63.1526H175.347C175.899 63.1526 176.347 63.6003 176.347 64.1526V66.1526C176.347 66.7049 175.899 67.1526 175.347 67.1526H174.403C173.512 67.1526 173.066 68.2298 173.696 68.8597L176.054 71.2178C176.241 71.4054 176.347 71.6597 176.347 71.925V74.7534C176.347 75.6443 175.27 76.0905 174.64 75.4605L167.604 68.4252C167.214 68.0346 166.58 68.0347 166.19 68.4254L155.609 79.0127C155.219 79.4031 155.219 80.036 155.609 80.4264L166.957 91.7814C167.348 92.1722 167.981 92.1722 168.372 91.7814L174.639 85.51C175.269 84.8797 176.347 85.3258 176.347 86.2169V89.0463C176.347 89.3114 176.241 89.5657 176.054 89.7532L173.791 92.0173C173.162 92.6474 173.608 93.7242 174.499 93.7242H175.347C175.899 93.7242 176.347 94.1719 176.347 94.7242V96.7242C176.347 97.2765 175.899 97.7242 175.347 97.7242H175.309C174.419 97.7242 173.972 98.801 174.602 99.4311L176.054 100.884C176.241 101.071 176.347 101.326 176.347 101.591V104.42C176.347 105.311 175.269 105.757 174.639 105.127L168.372 98.8556C167.981 98.4648 167.348 98.4648 166.957 98.8556L152.547 113.275C152.157 113.666 152.157 114.298 152.547 114.689L165.21 127.36C165.6 127.751 166.234 127.751 166.625 127.36L174.639 119.34C175.269 118.71 176.347 119.156 176.347 120.047V122.877C176.347 123.142 176.241 123.396 176.054 123.583L172.04 127.6C171.41 128.23 171.856 129.307 172.747 129.307H175.347C175.899 129.307 176.347 129.755 176.347 130.307V132.307C176.347 132.86 175.899 133.307 175.347 133.307H173.566C172.676 133.307 172.23 134.384 172.859 135.014L176.054 138.211C176.241 138.398 176.347 138.653 176.347 138.918V141.747C176.347 142.638 175.269 143.084 174.639 142.454L166.625 134.434C166.234 134.043 165.6 134.043 165.21 134.434L155.019 144.632C154.629 145.022 154.629 145.655 155.019 146.045L166.398 157.432C166.789 157.823 167.422 157.823 167.813 157.432L174.639 150.601C175.269 149.971 176.347 150.417 176.347 151.308V154.138C176.347 154.403 176.241 154.657 176.054 154.845L172.233 158.668C171.603 159.298 172.049 160.375 172.94 160.375H175.347C175.899 160.375 176.347 160.823 176.347 161.375V162.377C176.347 162.93 176.794 163.377 177.347 163.377H183.875C183.978 163.377 184.036 163.494 183.975 163.576L183.675 163.975C183.486 164.227 183.19 164.375 182.875 164.375H182.375H166.612C166.559 164.375 166.508 164.396 166.471 164.434C166.393 164.512 166.266 164.512 166.188 164.434C166.151 164.396 166.1 164.375 166.047 164.375H135.294C135.29 164.375 135.286 164.377 135.283 164.379C135.278 164.385 135.269 164.385 135.263 164.379C135.26 164.377 135.257 164.375 135.253 164.375H70.5377C70.3856 164.375 70.2396 164.436 70.132 164.543C69.908 164.768 69.5446 164.768 69.3206 164.543C69.213 164.436 69.0671 164.375 68.9149 164.375H22.0859H21.5861C21.2715 164.375 20.9753 164.227 20.7864 163.976L20.4863 163.576C17.8776 160.101 15.4851 156.454 13.3287 152.655C13.2842 152.576 13.2294 152.504 13.1656 152.44L12.211 151.485C12.097 151.371 12.097 151.186 12.211 151.072C12.3023 150.981 12.3227 150.84 12.2614 150.726C4.47738 136.296 0.0588379 119.78 0.0588379 102.234C0.0588379 100.742 0.0907258 99.2578 0.154032 97.7813C0.155366 97.7502 0.130511 97.7242 0.0993725 97.7242C0.0691654 97.7242 0.0446777 97.6997 0.0446777 97.6695V97.3879C0.0446777 97.3677 0.0366485 97.3483 0.0223625 97.334C-0.00738098 97.3043 -0.00738693 97.256 0.0223625 97.2262ZM52.6565 110.601C52.266 110.992 51.6325 110.992 51.2419 110.601L40.0786 99.4311C39.449 98.801 39.8952 97.7242 40.7859 97.7242H63.1127C64.0035 97.7242 64.4497 98.801 63.82 99.4311L52.6565 110.601ZM61.8678 129.307C62.7586 129.307 63.2048 128.23 62.5752 127.6L52.6565 117.676C52.266 117.285 51.6325 117.285 51.2419 117.676L41.3235 127.6C40.6938 128.23 41.1401 129.307 42.0308 129.307H61.8678ZM55.4833 113.432C55.0931 113.822 55.0931 114.455 55.4833 114.845L67.7665 127.136C68.1571 127.527 68.7906 127.527 69.1812 127.136L81.5306 114.779C81.9208 114.389 81.9208 113.756 81.5306 113.365L69.2474 101.074C68.8568 100.684 68.2233 100.684 67.8327 101.074L55.4833 113.432ZM76.3467 133.307C75.456 133.307 75.0097 134.384 75.6394 135.014L84.1062 143.486C84.4967 143.877 85.1302 143.877 85.5208 143.486L93.9877 135.014C94.6174 134.384 94.1712 133.307 93.2804 133.307H76.3467ZM76.7107 160.375C75.82 160.375 75.3738 159.298 76.0034 158.668L84.1062 150.56C84.4967 150.17 85.1302 150.17 85.5208 150.56L93.6237 158.668C94.2534 159.298 93.8072 160.375 92.9164 160.375H76.7107ZM88.3476 146.316C87.9573 146.707 87.9573 147.34 88.3476 147.73L99.6955 159.085C100.086 159.476 100.72 159.476 101.11 159.085L113.46 146.728C113.85 146.338 113.85 145.705 113.46 145.314L101.5 133.347C101.474 133.321 101.44 133.307 101.404 133.307C101.369 133.307 101.334 133.321 101.309 133.347L88.3476 146.316ZM102.112 126.885C101.721 127.276 101.088 127.276 100.697 126.885L88.5985 114.779C88.2083 114.389 88.2083 113.756 88.5985 113.365L101.944 100.012C102.335 99.6207 102.968 99.6207 103.359 100.012L115.457 112.117C115.847 112.508 115.847 113.141 115.457 113.531L102.112 126.885ZM95.0495 129.307C95.9403 129.307 96.3865 128.23 95.7568 127.6L85.772 117.609C85.3814 117.218 84.7479 117.218 84.3574 117.609L74.3724 127.6C73.7427 128.23 74.1889 129.307 75.0797 129.307H95.0495ZM84.3571 110.535C84.7477 110.926 85.3812 110.926 85.7718 110.535L96.8689 99.4311C97.4985 98.801 97.0523 97.7242 96.1616 97.7242H73.9676C73.0768 97.7242 72.6306 98.801 73.2602 99.4311L84.3571 110.535ZM67.264 93.4311C67.4515 93.6188 67.706 93.7242 67.9713 93.7242H69.109C69.3744 93.7242 69.6288 93.6188 69.8164 93.4311L82.5929 80.6465C82.9831 80.2561 82.9831 79.6232 82.5929 79.2327L70.8132 67.4457C70.6256 67.2581 70.3712 67.1526 70.1059 67.1526H69.2025C68.9372 67.1526 68.6827 67.2581 68.4952 67.4457L55.6015 80.3476C55.2112 80.738 55.2112 81.3708 55.6015 81.7613L67.264 93.4311ZM51.3601 84.5915C51.7506 84.2007 52.3841 84.2006 52.7747 84.5915L60.196 92.0173C60.8257 92.6474 60.3794 93.7242 59.4887 93.7242H44.6463C43.7555 93.7242 43.3093 92.6474 43.9389 92.0173L51.3601 84.5915ZM51.3601 77.5173C51.7506 77.9081 52.3841 77.9081 52.7747 77.5173L61.427 68.8595C62.0567 68.2294 61.6104 67.1526 60.7197 67.1526H43.4151C42.5243 67.1526 42.0781 68.2294 42.7078 68.8595L51.3601 77.5173ZM36.5366 69.7581C36.9272 69.3675 37.5605 69.3676 37.951 69.7583L48.5333 80.3474C48.9235 80.7379 48.9235 81.3707 48.5333 81.7612L36.8708 93.4311C36.6833 93.6188 36.4288 93.7242 36.1635 93.7242H34.7896C34.5243 93.7242 34.2699 93.6188 34.0823 93.4311L24.1827 83.5252C23.7924 83.1346 23.7925 82.5016 24.183 82.1112L36.5366 69.7581ZM19.9401 86.3538C20.3307 85.9632 20.9641 85.9633 21.3545 86.354L27.0144 92.0173C27.644 92.6474 27.1978 93.7242 26.3071 93.7242H14.9836C14.0927 93.7242 13.6466 92.647 14.2765 92.0171L19.9401 86.3538ZM6.50253 93.7242C6.76775 93.7242 7.02211 93.6189 7.20964 93.4313L17.1149 83.5259C17.5053 83.1355 17.5054 82.5025 17.1151 82.112L9.5439 74.536C9.01088 74.0027 8.10305 74.229 7.89417 74.9536C6.25111 80.6529 5.10993 86.5651 4.52145 92.6392C4.46494 93.2225 4.9258 93.7242 5.5118 93.7242H6.50253ZM9.87482 69.3304C9.90849 69.2967 9.96309 69.2967 9.99675 69.3304L19.943 79.283C20.3335 79.6738 20.9669 79.6739 21.3575 79.2832L31.7809 68.8597C32.4109 68.2298 31.9647 67.1526 31.0738 67.1526H10.8569C10.6446 67.1526 10.4542 67.2836 10.3791 67.4822C10.1585 68.0658 9.94307 68.6522 9.73326 69.2411C9.70247 69.3275 9.80996 69.3953 9.87482 69.3304ZM36.8334 62.9815C36.9429 63.0911 37.0914 63.1526 37.2463 63.1526C37.4011 63.1526 37.5495 63.0911 37.659 62.9817L51.3031 49.3376C51.6936 48.9471 51.6937 48.3141 51.3033 47.9236L35.1977 31.8079C34.8137 31.4237 34.1928 31.4159 33.8035 31.7947C29.2237 36.25 25.0771 41.1488 21.4325 46.4216C21.1597 46.8163 21.2105 47.3489 21.5496 47.6882L36.8334 62.9815ZM18.0809 51.6116C18.4135 51.0592 19.1756 50.9712 19.6314 51.4273L29.6435 61.4457C30.2732 62.0758 29.827 63.1526 28.9362 63.1526H13.6594C12.9396 63.1526 12.4561 62.4152 12.7529 61.7594C14.335 58.2628 16.1159 54.8754 18.0809 51.6116ZM117.701 142.484C117.31 142.875 116.677 142.875 116.286 142.484L108.821 135.014C108.191 134.384 108.638 133.307 109.528 133.307H124.459C125.35 133.307 125.796 134.384 125.166 135.014L117.701 142.484ZM117.701 149.558C117.31 149.167 116.677 149.167 116.286 149.558L107.182 158.668C106.552 159.298 106.998 160.375 107.889 160.375H126.098C126.989 160.375 127.435 159.298 126.805 158.668L117.701 149.558ZM134.606 159.399C134.215 159.79 133.581 159.79 133.191 159.399L120.528 146.728C120.138 146.338 120.137 145.705 120.528 145.314L132.234 133.6C132.422 133.413 132.676 133.307 132.941 133.307H136.219C136.484 133.307 136.739 133.413 136.926 133.6L147.951 144.632C148.341 145.022 148.341 145.655 147.951 146.045L134.606 159.399ZM85.4196 83.4767C85.8102 83.0859 86.4437 83.0859 86.8343 83.4767L95.3696 92.0173C95.9993 92.6474 95.553 93.7242 94.6623 93.7242H77.5916C76.7009 93.7242 76.2546 92.6474 76.8843 92.0173L85.4196 83.4767ZM109.141 97.7242C108.25 97.7242 107.804 98.801 108.434 99.4311L118.284 109.287C118.674 109.678 119.308 109.678 119.699 109.287L130.13 98.8488C130.388 98.5916 130.388 98.1746 130.131 97.9173C130.007 97.7937 129.839 97.7242 129.664 97.7242H109.141ZM122.525 113.531C122.135 113.141 122.135 112.508 122.525 112.117L132.716 101.92C133.107 101.529 133.74 101.529 134.131 101.92L145.479 113.275C145.869 113.666 145.869 114.298 145.479 114.689L135.288 124.886C134.897 125.277 134.264 125.277 133.873 124.886L122.525 113.531ZM138.032 129.048C137.687 128.703 137.687 128.144 138.032 127.799L148.305 117.519C148.696 117.128 149.329 117.128 149.72 117.519L159.795 127.6C160.425 128.23 159.978 129.307 159.088 129.307H138.658C138.423 129.307 138.198 129.214 138.032 129.048ZM159.918 63.1526C160.808 63.1526 161.255 62.0755 160.625 61.4455L151.259 52.0803C150.869 51.6897 150.235 51.6898 149.845 52.0806L140.486 61.4457C139.856 62.0758 140.302 63.1526 141.193 63.1526H159.918ZM161.774 32.0706C162.665 32.0706 163.111 33.1474 162.481 33.7775L151.258 45.0077C150.868 45.3984 150.235 45.3985 149.844 45.0079L138.614 33.7777C137.984 33.1477 138.43 32.0706 139.321 32.0706H161.774ZM147.017 49.2517C147.407 48.8611 147.407 48.2281 147.017 47.8377L134.73 35.5507C134.339 35.1601 133.706 35.1602 133.315 35.5509L122.745 46.1278C122.355 46.5183 122.355 47.1511 122.745 47.5416L135.028 59.8325C135.419 60.2233 136.052 60.2233 136.443 59.8324L147.017 49.2517ZM135.429 27.7775C135.241 27.9651 134.987 28.0706 134.722 28.0706H133.321C133.055 28.0706 132.801 27.9652 132.614 27.7777L121.079 16.2431C120.689 15.8526 120.689 15.2197 121.079 14.8291L127.968 7.93528C128.223 7.68064 128.595 7.58205 128.941 7.67985C135.14 9.42963 141.09 11.7733 146.725 14.6455C147.325 14.9513 147.446 15.7523 146.97 16.2286L135.429 27.7775ZM124.835 28.0706C125.726 28.0706 126.172 26.9935 125.542 26.3635L118.252 19.0729C117.861 18.6823 117.228 18.6824 116.838 19.0732L109.552 26.3637C108.922 26.9938 109.368 28.0706 110.259 28.0706H124.835ZM122.081 6.00931C122.853 6.16788 123.13 7.11809 122.573 7.67531L118.251 12.0001C117.86 12.3909 117.227 12.391 116.836 12.0003L110.959 6.12295C110.305 5.46927 110.812 4.36576 111.732 4.45419C115.239 4.79121 118.692 5.31285 122.081 6.00931ZM103.224 4.04492C103.219 4.0399 103.219 4.03176 103.224 4.02675C103.232 4.01871 103.226 4.00493 103.215 4.00482C102.898 4.00172 102.581 4.00011 102.264 4.00001C102.251 4 102.244 4.01529 102.253 4.02504C102.258 4.03103 102.258 4.04005 102.252 4.04567L91.4672 14.83C91.0767 15.2204 91.0766 15.8534 91.4669 16.244L102.031 26.8146C102.422 27.2054 103.055 27.2054 103.446 26.8146L114.009 16.2442C114.4 15.8536 114.4 15.2206 114.009 14.8302L103.224 4.04492ZM151.368 83.2567C151.758 82.8658 152.392 82.8658 152.783 83.2567L161.538 92.0173C162.167 92.6474 161.721 93.7242 160.83 93.7242H143.32C142.429 93.7242 141.983 92.6474 142.613 92.0173L151.368 83.2567ZM151.368 76.1824C151.758 76.5732 152.392 76.5732 152.783 76.1824L160.101 68.8595C160.731 68.2295 160.284 67.1526 159.394 67.1526H144.757C143.866 67.1526 143.42 68.2294 144.05 68.8595L151.368 76.1824ZM136.274 67.1526C136.54 67.1526 136.794 67.2581 136.982 67.4457L148.541 79.0126C148.932 79.4031 148.932 80.036 148.541 80.4264L135.545 93.4311C135.357 93.6188 135.103 93.7242 134.837 93.7242H132.01C131.744 93.7242 131.49 93.6188 131.302 93.4311L120.618 82.7399C120.228 82.3494 120.228 81.7166 120.618 81.3261L134.49 67.4457C134.677 67.2581 134.932 67.1526 135.197 67.1526H136.274ZM118.504 50.3719C118.894 49.981 119.528 49.981 119.918 50.3719L130.985 61.4457C131.615 62.0758 131.169 63.1526 130.278 63.1526H108.144C107.253 63.1526 106.807 62.0758 107.437 61.4457L118.504 50.3719ZM118.504 43.2976C118.894 43.6884 119.528 43.6884 119.918 43.2976L129.433 33.7775C130.062 33.1474 129.616 32.0706 128.725 32.0706H109.697C108.806 32.0706 108.36 33.1474 108.989 33.7775L118.504 43.2976ZM102.031 33.8889C102.422 33.498 103.055 33.498 103.446 33.8889L115.677 46.1278C116.067 46.5183 116.067 47.1511 115.677 47.5416L101.266 61.9611C100.876 62.3519 100.242 62.3519 99.8518 61.9611L87.6205 49.7221C87.2303 49.3316 87.2303 48.6988 87.6205 48.3083L102.031 33.8889ZM95.9253 26.3637C96.5549 26.9938 96.1087 28.0706 95.218 28.0706H80.6404C79.7495 28.0706 79.3033 26.9934 79.9333 26.3635L87.2246 19.0726C87.6152 18.682 88.2485 18.6821 88.639 19.0728L95.9253 26.3637ZM87.2258 12.0002C87.6162 12.3909 88.2496 12.391 88.6402 12.0004L94.6175 6.02317C95.2673 5.37332 94.7706 4.27509 93.8549 4.35251C90.2557 4.65681 86.7117 5.15542 83.2336 5.83781C82.4567 5.99024 82.174 6.94532 82.7337 7.50532L87.2258 12.0002ZM77.2876 7.71455C77.0353 7.46206 76.6673 7.36285 76.323 7.45689C69.0145 9.45258 62.0459 12.272 55.5227 15.8094C54.94 16.1254 54.831 16.9122 55.2996 17.381L65.6895 27.7775C65.877 27.9651 66.1315 28.0706 66.3968 28.0706H72.1559C72.4211 28.0706 72.6754 27.9652 72.863 27.7777L84.3976 16.2431C84.788 15.8526 84.7881 15.2196 84.3978 14.8291L77.2876 7.71455ZM136.716 97.9173C136.459 98.1746 136.459 98.5915 136.716 98.8488L148.305 110.445C148.696 110.836 149.329 110.836 149.72 110.445L160.727 99.4311C161.357 98.801 160.91 97.7242 160.02 97.7242H137.182C137.008 97.7242 136.84 97.7937 136.716 97.9173ZM126.714 67.1526C127.605 67.1526 128.051 68.2294 127.421 68.8595L117.791 78.4959C117.4 78.8867 116.767 78.8867 116.376 78.4959L106.746 68.8595C106.116 68.2295 106.562 67.1526 107.453 67.1526H126.714ZM113.55 82.7399C113.94 82.3495 113.94 81.7166 113.55 81.3262L101.266 69.0353C100.876 68.6445 100.242 68.6445 99.8518 69.0354L89.661 79.2327C89.2708 79.6231 89.2708 80.256 89.661 80.6464L101.944 92.9372C102.335 93.3281 102.968 93.3281 103.359 92.9372L113.55 82.7399ZM74.4912 61.4457C73.8616 62.0758 74.3078 63.1526 75.1985 63.1526H92.9743C93.8651 63.1526 94.3113 62.0758 93.6816 61.4457L84.7938 52.5523C84.4032 52.1615 83.7697 52.1615 83.3791 52.5523L74.4912 61.4457ZM95.7797 32.0706C96.6705 32.0706 97.1167 33.1474 96.4871 33.7775L84.7938 45.4781C84.4032 45.8689 83.7697 45.8689 83.3791 45.4781L72.809 34.9012C72.4186 34.5106 72.4187 33.8776 72.8092 33.4872L73.9329 32.3635C74.1205 32.1759 74.3748 32.0706 74.64 32.0706H95.7797ZM80.5526 49.7221C80.9428 49.3317 80.9428 48.6988 80.5526 48.3084L69.9808 37.73C69.5903 37.3393 68.957 37.3392 68.5664 37.7298L58.372 47.9237C57.9815 48.3141 57.9814 48.9471 58.3717 49.3377L68.947 59.9194C69.3375 60.3103 69.971 60.3103 70.3616 59.9194L80.5526 49.7221ZM65.7399 34.9007C66.1303 34.5103 66.1304 33.8773 65.7402 33.4867L64.6179 32.3637C64.4303 32.176 64.1759 32.0706 63.9105 32.0706H43.5286C42.6379 32.0706 42.1916 33.1474 42.8213 33.7775L54.1313 45.0947C54.5218 45.4854 55.1551 45.4855 55.5457 45.0949L65.7399 34.9007ZM57.9142 28.0706C58.805 28.0706 59.2512 26.9938 58.6216 26.3637L51.3627 19.1003C51.0351 18.7725 50.5248 18.7123 50.1322 18.9587C46.5572 21.2028 43.1371 23.671 39.8914 26.3436C39.1775 26.9315 39.5994 28.0706 40.5242 28.0706H57.9142ZM123.527 93.7242C124.418 93.7242 124.864 92.6474 124.234 92.0173L117.791 85.5701C117.4 85.1793 116.767 85.1793 116.376 85.5701L109.933 92.0173C109.303 92.6474 109.75 93.7242 110.64 93.7242H123.527ZM119.699 116.361C119.308 115.971 118.674 115.971 118.284 116.361L107.052 127.6C106.422 128.23 106.869 129.307 107.759 129.307H130.503C130.738 129.307 130.963 129.214 131.128 129.048C131.473 128.703 131.473 128.144 131.128 127.799L119.699 116.361ZM152.192 141.801C151.802 142.192 151.168 142.192 150.778 141.801L143.995 135.014C143.365 134.384 143.811 133.307 144.702 133.307H158.268C159.159 133.307 159.605 134.384 158.975 135.014L152.192 141.801ZM152.192 148.876C151.802 148.485 151.168 148.485 150.778 148.876L140.991 158.668C140.361 159.298 140.808 160.375 141.698 160.375H161.271C162.162 160.375 162.608 159.298 161.979 158.668L152.192 148.876ZM85.4196 76.4025C85.8102 76.7933 86.4437 76.7933 86.8343 76.4025L94.3726 68.8595C95.0022 68.2294 94.556 67.1526 93.6652 67.1526H78.5887C77.6979 67.1526 77.2517 68.2294 77.8814 68.8595L85.4196 76.4025ZM54.1291 52.1663C54.5197 51.7757 55.153 51.7758 55.5435 52.1665L64.8171 61.4457C65.4468 62.0758 65.0005 63.1526 64.1098 63.1526H45.5566C44.6657 63.1526 44.2195 62.0755 44.8495 61.4455L54.1291 52.1663ZM164.57 26.3436C165.284 26.9315 164.862 28.0706 163.937 28.0706H143.204C142.313 28.0706 141.867 26.9938 142.497 26.3637L151.023 17.8323C151.344 17.511 151.841 17.4461 152.232 17.6779C156.571 20.2526 160.695 23.1525 164.57 26.3436Z" transform="translate(44 311)" fill="#4D4D4D"/>
<rect width="72" height="87.4111" rx="1" transform="translate(382 386.591)" fill="white" stroke="#4D4D4D" stroke-width="4"/>
<path fill-rule="evenodd" clip-rule="evenodd" d="M71.6386 29.4937C71.5537 29.4937 71.4714 29.4638 71.4063 29.4091L36.6429 0.234002C36.2711 -0.0780129 35.7289 -0.078012 35.3571 0.234003L0.593683 29.4091C0.528597 29.4638 0.446344 29.4937 0.361373 29.4937C0.161792 29.4937 0 29.6555 0 29.8551V115.905C0 116.457 0.447715 116.905 1 116.905H71C71.5523 116.905 72 116.457 72 115.905V29.8551C72 29.6555 71.8382 29.4937 71.6386 29.4937Z" transform="translate(382 269.686)" fill="white" stroke="#4D4D4D" stroke-width="4"/>
<path fill-rule="evenodd" clip-rule="evenodd" d="M31.9395 14.8928C31.974 15.444 31.523 15.8929 30.9707 15.8929H0.970703C0.418418 15.8929 -0.0325862 15.444 0.00187246 14.8928C0.521462 6.58128 7.47223 0 15.9707 0C24.4689 0 31.4199 6.58128 31.9395 14.8928ZM16.0095 31.7858H15.9319C15.9448 31.7858 15.9578 31.7858 15.9707 31.7858C15.9836 31.7858 15.9966 31.7858 16.0095 31.7858Z" transform="translate(402.029 284.28)" fill="white" stroke="#4D4D4D" stroke-width="4"/>
<path d="M0 7.94646C25.4327 -6.44535 53.2636 1.94988 64 7.94646" transform="translate(386 306.133)" stroke="#4D4D4D" stroke-width="4" stroke-linecap="round"/>
<path d="M0 0H14.7097" transform="translate(425 330.966)" stroke="#4D4D4D" stroke-width="4" stroke-linecap="round"/>
<path d="M0 0H14.7097" transform="translate(429.29 324.41)" stroke="#4D4D4D" stroke-width="4" stroke-linecap="round"/>
<path d="M0 4.76788V0" transform="translate(434.806 325.602)" stroke="#4D4D4D" stroke-width="4"/>
<path d="M0 4.76788V0" transform="translate(439.097 319.046)" stroke="#4D4D4D" stroke-width="4" stroke-linecap="round"/>
<line x1="2" y1="-2" x2="22" y2="-2" transform="translate(408 394.537)" stroke="#4D4D4D" stroke-width="4" stroke-linecap="round"/>
<line x1="2" y1="-2" x2="22" y2="-2" transform="translate(408 402.484)" stroke="#4D4D4D" stroke-width="4" stroke-linecap="round"/>
<line x1="2" y1="-2" x2="22" y2="-2" transform="translate(408 410.43)" stroke="#4D4D4D" stroke-width="4" stroke-linecap="round"/>
<line x1="2" y1="-2" x2="22" y2="-2" transform="translate(408 418.377)" stroke="#4D4D4D" stroke-width="4" stroke-linecap="round"/>
<line x1="2" y1="-2" x2="22" y2="-2" transform="translate(408 426.323)" stroke="#4D4D4D" stroke-width="4" stroke-linecap="round"/>
<line x1="2" y1="-2" x2="22" y2="-2" transform="translate(408 434.269)" stroke="#4D4D4D" stroke-width="4" stroke-linecap="round"/>
<line x1="2" y1="-2" x2="22" y2="-2" transform="translate(408 442.216)" stroke="#4D4D4D" stroke-width="4" stroke-linecap="round"/>
<line x1="2" y1="-2" x2="22" y2="-2" transform="translate(408 450.162)" stroke="#4D4D4D" stroke-width="4" stroke-linecap="round"/>
<line x1="2" y1="-2" x2="22" y2="-2" transform="translate(408 458.109)" stroke="#4D4D4D" stroke-width="4" stroke-linecap="round"/>
<line x1="2" y1="-2" x2="22" y2="-2" transform="translate(408 466.055)" stroke="#4D4D4D" stroke-width="4" stroke-linecap="round"/>
<line x1="2" y1="-2" x2="22" y2="-2" transform="translate(408 474.002)" stroke="#4D4D4D" stroke-width="4" stroke-linecap="round"/>
<path d="M0 0V87.4111" transform="translate(407 386.591)" stroke="#4D4D4D" stroke-width="4" stroke-linecap="round"/>
<path d="M0 0V87.4111" transform="translate(433 386.591)" stroke="#4D4D4D" stroke-width="4" stroke-linecap="round"/>
<rect width="32" height="47.6788" rx="1" transform="translate(403 338.912)" fill="white" stroke="#4D4D4D" stroke-width="4"/>
<rect width="16" height="7.94646" rx="1" transform="translate(411 345.865)" fill="white" stroke="#4D4D4D" stroke-width="4"/>
<path fill-rule="evenodd" clip-rule="evenodd" d="M79.5899 29.546C79.5007 29.546 79.4139 29.5169 79.3427 29.4631L40.6027 0.202024C40.2461 -0.0673665 39.7539 -0.0673657 39.3973 0.202026L0.657604 29.4631C0.586383 29.5169 0.499564 29.546 0.410309 29.546C0.1837 29.546 0 29.7297 0 29.9563V115.957C0 116.509 0.447715 116.957 1 116.957H79C79.5523 116.957 80 116.509 80 115.957V29.9561C80 29.7296 79.8164 29.546 79.5899 29.546Z" transform="translate(222 269.634)" fill="white" stroke="#4D4D4D" stroke-width="4"/>
<rect width="32" height="55.6252" rx="1" transform="translate(246 330.966)" fill="white" stroke="#4D4D4D" stroke-width="4"/>
<path fill-rule="evenodd" clip-rule="evenodd" d="M31.9395 14.8928C31.974 15.444 31.523 15.8929 30.9707 15.8929H0.970703C0.418418 15.8929 -0.0325862 15.444 0.00187246 14.8928C0.521462 6.58128 7.47223 0 15.9707 0C24.4689 0 31.4199 6.58128 31.9395 14.8928ZM16.0156 31.7858H15.9258C15.9407 31.7858 15.9558 31.7858 15.9707 31.7858C15.9856 31.7858 16.0007 31.7858 16.0156 31.7858Z" transform="translate(246.029 306.133)" fill="white" stroke="#4D4D4D" stroke-width="4"/>
<rect width="7.99999" height="31.7858" rx="1" transform="translate(230 331.959)" fill="white" stroke="#4D4D4D" stroke-width="4"/>
<rect width="7.99999" height="31.7858" rx="1" transform="translate(286 331.959)" fill="white" stroke="#4D4D4D" stroke-width="4"/>
<path d="M0 0H14.7097" transform="translate(234 305.14)" stroke="#4D4D4D" stroke-width="4" stroke-linecap="round"/>
<path d="M0 0H14.7097" transform="translate(238.291 298.584)" stroke="#4D4D4D" stroke-width="4" stroke-linecap="round"/>
<path d="M0 4.76788V0" transform="translate(243.807 299.776)" stroke="#4D4D4D" stroke-width="4"/>
<path d="M0 4.76788V0" transform="translate(248.097 293.22)" stroke="#4D4D4D" stroke-width="4" stroke-linecap="round"/>
<rect width="79.9999" height="87.4111" rx="1" transform="translate(222 386.591)" fill="white" stroke="#4D4D4D" stroke-width="4"/>
<path d="M0 0V95.3575" transform="translate(262 378.644)" stroke="#4D4D4D" stroke-width="4" stroke-linecap="round"/>
<path d="M10 0C6.00002 3.97323 -0.000109145 5.9014 1.48906e-09 18.8728C0.000125372 33.7725 28 40.229 40 52.1487C52 64.0683 51.5 72.0148 50.5 82.4445" transform="translate(239.5 391.061)" stroke="#4D4D4D" stroke-width="4" stroke-linecap="round"/>
<path d="M0 0H16M0 0H16" transform="translate(254.5 392.551)" stroke="#4D4D4D" stroke-width="4" stroke-linecap="round"/>
<path d="M0 0H16M0 0H16" transform="translate(248 400.497)" stroke="#4D4D4D" stroke-width="4" stroke-linecap="round"/>
<path d="M0 0H16M0 0H16" transform="translate(245 408.444)" stroke="#4D4D4D" stroke-width="4" stroke-linecap="round"/>
<path d="M0 0H16M0 0H16" transform="translate(247 416.39)" stroke="#4D4D4D" stroke-width="4" stroke-linecap="round"/>
<path d="M0 0H16M0 0H16" transform="translate(268 473.009)" stroke="#4D4D4D" stroke-width="4" stroke-linecap="round"/>
<path d="M0 0H16M0 0H16" transform="translate(270 465.062)" stroke="#4D4D4D" stroke-width="4" stroke-linecap="round"/>
<path d="M0 0H12M0 0H12" transform="translate(271 457.116)" stroke="#4D4D4D" stroke-width="4" stroke-linecap="round"/>
<path d="M0 0H12M0 0H12" transform="translate(268 450.163)" stroke="#4D4D4D" stroke-width="4" stroke-linecap="round"/>
<path d="M0 0H7.99999M0 0H7.99999" transform="translate(266 443.209)" stroke="#4D4D4D" stroke-width="4" stroke-linecap="round"/>
<path d="M0 0H7.99999M0 0H7.99999" transform="translate(253 423.343)" stroke="#4D4D4D" stroke-width="4" stroke-linecap="round"/>
<path fill-rule="evenodd" clip-rule="evenodd" d="M80.6259 41.287C80.8103 41.2869 80.9038 41.065 80.775 40.933L41.133 0.301653C40.7406 -0.100561 40.0939 -0.10056 39.7015 0.301655L0.0596659 40.9328C-0.0692193 41.0649 0.0243752 41.2869 0.208935 41.287C0.324112 41.287 0.41748 41.3803 0.41748 41.4955V143.591C0.41748 144.143 0.865196 144.591 1.41748 144.591H79.4175C79.9698 144.591 80.4175 144.143 80.4175 143.591V41.4954C80.4175 41.3803 80.5108 41.287 80.6259 41.287Z" transform="translate(301.583 242)" fill="white" stroke="#4D4D4D" stroke-width="4"/>
<path d="M23.3478 0.56099C23.7228 0.238455 24.2772 0.238455 24.6521 0.56099L42.7408 16.1214C43.444 16.7263 43.0162 17.8795 42.0887 17.8795H5.91128C4.98375 17.8795 4.55598 16.7263 5.25914 16.1214L23.3478 0.56099Z" transform="translate(318 255.474)" fill="white" stroke="#4D4D4D" stroke-width="4"/>
<path fill-rule="evenodd" clip-rule="evenodd" d="M16 7.94646C16 3.55775 12.4182 0 8 0C3.58179 0 0 3.55775 0 7.94646V46.6788C0 47.2311 0.447715 47.6788 1 47.6788H15C15.5523 47.6788 16 47.2311 16 46.6788V7.94646Z" transform="translate(314 304.146)" fill="white" stroke="#4D4D4D" stroke-width="4"/>
<path fill-rule="evenodd" clip-rule="evenodd" d="M31.9395 14.8928C31.974 15.444 31.523 15.8929 30.9707 15.8929H0.970703C0.418418 15.8929 -0.0325862 15.444 0.00187246 14.8928C0.521462 6.58128 7.47223 0 15.9707 0C24.4689 0 31.4199 6.58128 31.9395 14.8928ZM16.0449 31.7857H15.8965C15.9211 31.7858 15.9458 31.7858 15.9707 31.7858C15.9956 31.7858 16.0203 31.7858 16.0449 31.7857Z" transform="translate(342.029 301.166)" fill="white" stroke="#4D4D4D" stroke-width="4"/>
<path d="M0 0H14.7097" transform="translate(315 372.684)" stroke="#4D4D4D" stroke-width="4" stroke-linecap="round"/>
<path d="M0 0H14.7097" transform="translate(319.29 366.128)" stroke="#4D4D4D" stroke-width="4" stroke-linecap="round"/>
<path d="M0 4.76788V0" transform="translate(324.806 367.321)" stroke="#4D4D4D" stroke-width="4"/>
<path d="M0 4.76788V0" transform="translate(329.096 360.765)" stroke="#4D4D4D" stroke-width="4" stroke-linecap="round"/>
<path d="M0 7.94646C28.6117 -6.44535 59.9215 1.94988 72 7.94646" transform="translate(306 285.274)" stroke="#4D4D4D" stroke-width="4" stroke-linecap="round"/>
<rect width="79.9999" height="87.4111" rx="1" transform="translate(302 386.591)" fill="white" stroke="#4D4D4D" stroke-width="4"/>
<rect width="16" height="15.8929" rx="1" transform="translate(355 418.377)" fill="white" stroke="#4D4D4D" stroke-width="4"/>
<rect width="56" height="15.8929" rx="1" transform="translate(315 394.537)" fill="white" stroke="#4D4D4D" stroke-width="4"/>
<path d="M0 0H14.7097" transform="translate(355 457.116)" stroke="#4D4D4D" stroke-width="4" stroke-linecap="round"/>
<path d="M0 0H14.7097" transform="translate(359.29 450.56)" stroke="#4D4D4D" stroke-width="4" stroke-linecap="round"/>
<path d="M0 4.76788V0" transform="translate(364.806 451.752)" stroke="#4D4D4D" stroke-width="4"/>
<path d="M0 4.76788V0" transform="translate(369.097 445.196)" stroke="#4D4D4D" stroke-width="4" stroke-linecap="round"/>
<rect width="32" height="55.6252" rx="1" transform="translate(342 325.006)" fill="white" stroke="#4D4D4D" stroke-width="4"/>
<rect width="16" height="15.8929" rx="1" transform="translate(350 332.952)" fill="white" stroke="#4D4D4D" stroke-width="4"/>
<rect width="32" height="55.6252" rx="1" transform="translate(311 418.377)" fill="white" stroke="#4D4D4D" stroke-width="4"/>
<path fill-rule="evenodd" clip-rule="evenodd" d="M539 261.045C539 262.169 538.993 263.292 538.978 264.413C538.971 264.958 538.526 265.396 537.98 265.396H1.0199C0.474186 265.396 0.0290354 264.958 0.0219209 264.413C0.00730698 263.292 0 262.169 0 261.045C0 116.874 120.659 0 269.5 0C418.341 0 539 116.874 539 261.045Z" transform="translate(590 207.604)" fill="white" stroke="#4D4D4D" stroke-width="4"/>
<path d="M4.46105 0C-15.2673 41.7109 35.2204 65.1733 62.5718 75.0797C89.9232 84.986 173.001 91.9973 184.427 145.7C195.188 196.275 166.452 222.156 158.979 223.894" transform="translate(929.698 234.482) scale(-1 1)" stroke="#4D4D4D" stroke-width="4" stroke-linecap="round"/>
<path d="M5.01682 0C-14.3675 41.6248 26.8184 55.7964 53.6929 65.6823C80.5674 75.5681 169.839 88.1651 181.066 141.757C191.639 192.227 166.177 224.505 158.834 226.239" transform="translate(909.895 232.137) scale(-1 1)" stroke="#4D4D4D" stroke-width="4" stroke-linecap="round"/>
<rect width="14.8737" height="62.446" rx="1" transform="translate(868.339 163)" stroke="#4D4D4D" stroke-width="4"/>
<rect width="44.6211" height="13.3813" rx="1" transform="translate(853.465 178.612)" stroke="#4D4D4D" stroke-width="4"/>
<path d="M0 9.73913L7.22727 0.940709C7.62732 0.453695 8.37268 0.453696 8.77273 0.94071L16 9.73913" transform="translate(817 268)" stroke="#4D4D4D" stroke-width="4" stroke-linecap="round"/>
<path d="M0 9.73913L7.22727 0.940709C7.62732 0.453695 8.37268 0.453696 8.77273 0.94071L16 9.73913" transform="translate(817 277.333)" stroke="#4D4D4D" stroke-width="4" stroke-linecap="round"/>
<path d="M0 9.73913L7.22727 0.940709C7.62732 0.453695 8.37268 0.453696 8.77273 0.94071L16 9.73913" transform="translate(817 286.261)" stroke="#4D4D4D" stroke-width="4" stroke-linecap="round"/>
<path d="M0 9.73913L7.22727 0.940709C7.62732 0.453695 8.37268 0.453696 8.77273 0.94071L16 9.73913" transform="translate(843 260)" stroke="#4D4D4D" stroke-width="4" stroke-linecap="round"/>
<path d="M0 9.73913L7.22727 0.940709C7.62732 0.453695 8.37268 0.453696 8.77273 0.94071L16 9.73913" transform="translate(843 269.333)" stroke="#4D4D4D" stroke-width="4" stroke-linecap="round"/>
<path d="M0 9.73913L7.22727 0.940709C7.62732 0.453695 8.37268 0.453696 8.77273 0.94071L16 9.73913" transform="translate(843 278.261)" stroke="#4D4D4D" stroke-width="4" stroke-linecap="round"/>
<path fill-rule="evenodd" clip-rule="evenodd" d="M71.7887 0C72.1226 0 72.4344 0.166588 72.62 0.444085L111.266 58.23C111.34 58.3412 111.465 58.408 111.599 58.408C111.821 58.408 112 58.5875 112 58.8088V59.3157C112 59.3234 112.002 59.331 112.007 59.3374L112.03 59.3725C112.037 59.3834 112.03 59.398 112.016 59.398C112.007 59.398 112 59.4053 112 59.4144V337.408C112 337.96 111.552 338.408 111 338.408H1C0.447715 338.408 0 337.96 0 337.408V59.3737C0 58.8404 0.432379 58.408 0.965745 58.408C1.28815 58.408 1.58928 58.2471 1.76851 57.9791L40.2467 0.444085C40.4323 0.166588 40.7441 0 41.0779 0H71.7887Z" transform="translate(653 136)" fill="white" stroke="#4D4D4D" stroke-width="4"/>
<rect width="15.5678" height="15.8395" rx="1" transform="translate(663.703 196.388)" stroke="#4D4D4D" stroke-width="4"/>
<rect width="15.5678" height="15.8395" rx="1" transform="translate(740.569 195.398)" stroke="#4D4D4D" stroke-width="4"/>
<rect width="15.5678" height="15.8395" rx="1" transform="translate(721.109 215.197)" stroke="#4D4D4D" stroke-width="4"/>
<rect width="15.5678" height="15.8395" rx="1" transform="translate(701.649 234.997)" stroke="#4D4D4D" stroke-width="4"/>
<rect width="15.5678" height="15.8395" rx="1" transform="translate(682.19 215.197)" stroke="#4D4D4D" stroke-width="4"/>
<path d="M0 0V6.91973C0 7.47202 0.447715 7.91973 1 7.91973H7.78391" transform="translate(667.595 235.987)" stroke="#4D4D4D" stroke-width="4" stroke-linecap="round"/>
<path d="M0 0V6.91973C0 7.47202 0.447715 7.91973 1 7.91973H7.78391" transform="translate(667.595 251.826)" stroke="#4D4D4D" stroke-width="4" stroke-linecap="round"/>
<path d="M0 0V6.91973C0 7.47202 0.447715 7.91973 1 7.91973H7.78391" transform="translate(667.595 220.147)" stroke="#4D4D4D" stroke-width="4" stroke-linecap="round"/>
<path d="M0 0V6.91973C0 7.47202 0.447715 7.91973 1 7.91973H7.78391" transform="translate(667.595 267.665)" stroke="#4D4D4D" stroke-width="4" stroke-linecap="round"/>
<path d="M0 0V6.91973C0 7.47202 0.447715 7.91973 1 7.91973H7.78391" transform="translate(667.595 299.344)" stroke="#4D4D4D" stroke-width="4" stroke-linecap="round"/>
<path d="M0 0V6.91973C0 7.47202 0.447715 7.91973 1 7.91973H7.78391" transform="translate(667.595 315.184)" stroke="#4D4D4D" stroke-width="4" stroke-linecap="round"/>
<path d="M0 0V6.91973C0 7.47202 0.447715 7.91973 1 7.91973H7.78391" transform="translate(667.595 283.505)" stroke="#4D4D4D" stroke-width="4" stroke-linecap="round"/>
<path d="M0 0V6.91973C0 7.47202 0.447715 7.91973 1 7.91973H7.78391" transform="translate(667.595 331.023)" stroke="#4D4D4D" stroke-width="4" stroke-linecap="round"/>
<path d="M0 0V6.91973C0 7.47202 0.447715 7.91973 1 7.91973H7.78391" transform="translate(667.595 362.702)" stroke="#4D4D4D" stroke-width="4" stroke-linecap="round"/>
<path d="M0 0V6.91973C0 7.47202 0.447715 7.91973 1 7.91973H7.78391" transform="translate(667.595 378.542)" stroke="#4D4D4D" stroke-width="4" stroke-linecap="round"/>
<path d="M0 0V6.91973C0 7.47202 0.447715 7.91973 1 7.91973H7.78391" transform="translate(667.595 346.863)" stroke="#4D4D4D" stroke-width="4" stroke-linecap="round"/>
<path d="M0 0V6.91973C0 7.47202 0.447715 7.91973 1 7.91973H7.78391" transform="translate(667.595 394.381)" stroke="#4D4D4D" stroke-width="4" stroke-linecap="round"/>
<path d="M0 0V6.91973C0 7.47202 0.447715 7.91973 1 7.91973H7.78391" transform="translate(748.353 235.987)" stroke="#4D4D4D" stroke-width="4" stroke-linecap="round"/>
<path d="M0 0V6.91973C0 7.47202 0.447715 7.91973 1 7.91973H7.78391" transform="translate(748.353 251.826)" stroke="#4D4D4D" stroke-width="4" stroke-linecap="round"/>
<path d="M0 0V6.91973C0 7.47202 0.447715 7.91973 1 7.91973H7.78391" transform="translate(748.353 220.147)" stroke="#4D4D4D" stroke-width="4" stroke-linecap="round"/>
<path d="M0 0V6.91973C0 7.47202 0.447715 7.91973 1 7.91973H7.78391" transform="translate(748.353 267.665)" stroke="#4D4D4D" stroke-width="4" stroke-linecap="round"/>
<path d="M0 0V6.91973C0 7.47202 0.447715 7.91973 1 7.91973H7.78391" transform="translate(748.353 299.344)" stroke="#4D4D4D" stroke-width="4" stroke-linecap="round"/>
<path d="M0 0V6.91973C0 7.47202 0.447715 7.91973 1 7.91973H7.78391" transform="translate(748.353 315.184)" stroke="#4D4D4D" stroke-width="4" stroke-linecap="round"/>
<path d="M0 0V6.91973C0 7.47202 0.447715 7.91973 1 7.91973H7.78391" transform="translate(748.353 283.505)" stroke="#4D4D4D" stroke-width="4" stroke-linecap="round"/>
<path d="M0 0V6.91973C0 7.47202 0.447715 7.91973 1 7.91973H7.78391" transform="translate(748.353 331.023)" stroke="#4D4D4D" stroke-width="4" stroke-linecap="round"/>
<path d="M0 0V6.91973C0 7.47202 0.447715 7.91973 1 7.91973H7.78391" transform="translate(748.353 362.702)" stroke="#4D4D4D" stroke-width="4" stroke-linecap="round"/>
<path d="M0 0V6.91973C0 7.47202 0.447715 7.91973 1 7.91973H7.78391" transform="translate(748.353 378.542)" stroke="#4D4D4D" stroke-width="4" stroke-linecap="round"/>
<path d="M0 0V6.91973C0 7.47202 0.447715 7.91973 1 7.91973H7.78391" transform="translate(748.353 346.863)" stroke="#4D4D4D" stroke-width="4" stroke-linecap="round"/>
<path d="M0 0V6.91973C0 7.47202 0.447715 7.91973 1 7.91973H7.78391" transform="translate(748.353 394.381)" stroke="#4D4D4D" stroke-width="4" stroke-linecap="round"/>
<path d="M0 0V6.91973C0 7.47202 0.447715 7.91973 1 7.91973H7.78391" transform="translate(686.082 252.816)" stroke="#4D4D4D" stroke-width="4" stroke-linecap="round"/>
<path d="M0 0V6.91973C0 7.47202 0.447715 7.91973 1 7.91973H7.78391" transform="translate(686.082 268.655)" stroke="#4D4D4D" stroke-width="4" stroke-linecap="round"/>
<path d="M0 0V6.91973C0 7.47202 0.447715 7.91973 1 7.91973H7.78391" transform="translate(686.082 236.977)" stroke="#4D4D4D" stroke-width="4" stroke-linecap="round"/>
<path d="M0 0V6.91973C0 7.47202 0.447715 7.91973 1 7.91973H7.78391" transform="translate(686.082 284.495)" stroke="#4D4D4D" stroke-width="4" stroke-linecap="round"/>
<path d="M0 0V6.91973C0 7.47202 0.447715 7.91973 1 7.91973H7.78391" transform="translate(686.082 316.174)" stroke="#4D4D4D" stroke-width="4" stroke-linecap="round"/>
<path d="M0 0V6.91973C0 7.47202 0.447715 7.91973 1 7.91973H7.78391" transform="translate(686.082 332.013)" stroke="#4D4D4D" stroke-width="4" stroke-linecap="round"/>
<path d="M0 0V6.91973C0 7.47202 0.447715 7.91973 1 7.91973H7.78391" transform="translate(686.082 300.334)" stroke="#4D4D4D" stroke-width="4" stroke-linecap="round"/>
<path d="M0 0V6.91973C0 7.47202 0.447715 7.91973 1 7.91973H7.78391" transform="translate(686.082 347.853)" stroke="#4D4D4D" stroke-width="4" stroke-linecap="round"/>
<path d="M0 0V6.91973C0 7.47202 0.447715 7.91973 1 7.91973H7.78391" transform="translate(686.082 379.532)" stroke="#4D4D4D" stroke-width="4" stroke-linecap="round"/>
<path d="M0 0V6.91973C0 7.47202 0.447715 7.91973 1 7.91973H7.78391" transform="translate(686.082 395.371)" stroke="#4D4D4D" stroke-width="4" stroke-linecap="round"/>
<path d="M0 0V6.91973C0 7.47202 0.447715 7.91973 1 7.91973H7.78391" transform="translate(686.082 363.692)" stroke="#4D4D4D" stroke-width="4" stroke-linecap="round"/>
<path d="M0 0V6.91973C0 7.47202 0.447715 7.91973 1 7.91973H7.78391" transform="translate(726.947 252.816)" stroke="#4D4D4D" stroke-width="4" stroke-linecap="round"/>
<path d="M0 0V6.91973C0 7.47202 0.447715 7.91973 1 7.91973H7.78391" transform="translate(726.947 268.655)" stroke="#4D4D4D" stroke-width="4" stroke-linecap="round"/>
<path d="M0 0V6.91973C0 7.47202 0.447715 7.91973 1 7.91973H7.78391" transform="translate(726.947 236.977)" stroke="#4D4D4D" stroke-width="4" stroke-linecap="round"/>
<path d="M0 0V6.91973C0 7.47202 0.447715 7.91973 1 7.91973H7.78391" transform="translate(726.947 284.495)" stroke="#4D4D4D" stroke-width="4" stroke-linecap="round"/>
<path d="M0 0V6.91973C0 7.47202 0.447715 7.91973 1 7.91973H7.78391" transform="translate(726.947 316.174)" stroke="#4D4D4D" stroke-width="4" stroke-linecap="round"/>
<path d="M0 0V6.91973C0 7.47202 0.447715 7.91973 1 7.91973H7.78391" transform="translate(726.947 332.013)" stroke="#4D4D4D" stroke-width="4" stroke-linecap="round"/>
<path d="M0 0V6.91973C0 7.47202 0.447715 7.91973 1 7.91973H7.78391" transform="translate(726.947 300.334)" stroke="#4D4D4D" stroke-width="4" stroke-linecap="round"/>
<path d="M0 0V6.91973C0 7.47202 0.447715 7.91973 1 7.91973H7.78391" transform="translate(726.947 347.853)" stroke="#4D4D4D" stroke-width="4" stroke-linecap="round"/>
<path d="M0 0V6.91973C0 7.47202 0.447715 7.91973 1 7.91973H7.78391" transform="translate(726.947 379.532)" stroke="#4D4D4D" stroke-width="4" stroke-linecap="round"/>
<path d="M0 0V6.91973C0 7.47202 0.447715 7.91973 1 7.91973H7.78391" transform="translate(726.947 395.371)" stroke="#4D4D4D" stroke-width="4" stroke-linecap="round"/>
<path d="M0 0V6.91973C0 7.47202 0.447715 7.91973 1 7.91973H7.78391" transform="translate(668 427)" stroke="#4D4D4D" stroke-width="4" stroke-linecap="round"/>
<path d="M0 0V6.91973C0 7.47202 0.447715 7.91973 1 7.91973H7.78391" transform="translate(668 443)" stroke="#4D4D4D" stroke-width="4" stroke-linecap="round"/>
<path d="M0 0V6.91973C0 7.47202 0.447715 7.91973 1 7.91973H7.78391" transform="translate(668 411)" stroke="#4D4D4D" stroke-width="4" stroke-linecap="round"/>
<path d="M0 0V6.91973C0 7.47202 0.447715 7.91973 1 7.91973H7.78391" transform="translate(748 427)" stroke="#4D4D4D" stroke-width="4" stroke-linecap="round"/>
<path d="M0 0V6.91973C0 7.47202 0.447715 7.91973 1 7.91973H7.78391" transform="translate(748 443)" stroke="#4D4D4D" stroke-width="4" stroke-linecap="round"/>
<path d="M0 0V6.91973C0 7.47202 0.447715 7.91973 1 7.91973H7.78391" transform="translate(748 411)" stroke="#4D4D4D" stroke-width="4" stroke-linecap="round"/>
<path d="M0 0V6.91973C0 7.47202 0.447715 7.91973 1 7.91973H7.78391" transform="translate(687 411)" stroke="#4D4D4D" stroke-width="4" stroke-linecap="round"/>
<path d="M0 0V6.91973C0 7.47202 0.447715 7.91973 1 7.91973H7.78391" transform="translate(687 427)" stroke="#4D4D4D" stroke-width="4" stroke-linecap="round"/>
<path d="M0 0V6.91973C0 7.47202 0.447715 7.91973 1 7.91973H7.78391" transform="translate(687 443)" stroke="#4D4D4D" stroke-width="4" stroke-linecap="round"/>
<path d="M0 0V6.91973C0 7.47202 0.447715 7.91973 1 7.91973H7.78391" transform="translate(727 427)" stroke="#4D4D4D" stroke-width="4" stroke-linecap="round"/>
<path d="M0 0V6.91973C0 7.47202 0.447715 7.91973 1 7.91973H7.78391" transform="translate(727 443)" stroke="#4D4D4D" stroke-width="4" stroke-linecap="round"/>
<path d="M0 0V6.91973C0 7.47202 0.447715 7.91973 1 7.91973H7.78391" transform="translate(727 411)" stroke="#4D4D4D" stroke-width="4" stroke-linecap="round"/>
<path d="M0 0V6.91973C0 7.47202 0.447715 7.91973 1 7.91973H7.78391" transform="translate(726.947 363.692)" stroke="#4D4D4D" stroke-width="4" stroke-linecap="round"/>
<path d="M0 0V186" transform="translate(706 256)" stroke="#4D4D4D" stroke-width="4" stroke-linecap="round"/>
<path d="M0 0V186" transform="translate(713 256)" stroke="#4D4D4D" stroke-width="4" stroke-linecap="round"/>
<path d="M0 0V79.1973" transform="translate(705.542 143.92)" stroke="#4D4D4D" stroke-width="4" stroke-linecap="round"/>
<path d="M0 0V79.1973" transform="translate(713.325 143.92)" stroke="#4D4D4D" stroke-width="4" stroke-linecap="round"/>
<rect width="15.5678" height="23.7592" rx="1" transform="translate(702 450)" stroke="#4D4D4D" stroke-width="4"/>
<rect width="152" height="135.062" rx="1" transform="translate(765 338)" fill="white" stroke="#4D4D4D" stroke-width="4"/>
<rect width="40" height="31.7793" rx="1" transform="translate(773 409.503)" fill="white" stroke="#4D4D4D" stroke-width="4"/>
<rect width="40" height="31.7793" rx="1" transform="translate(869 409.503)" stroke="#4D4D4D" stroke-width="4"/>
<rect width="32" height="63.5586" rx="1" transform="translate(825 409.503)" fill="white" stroke="#4D4D4D" stroke-width="4"/>
<path d="M0 0V60.0828" transform="translate(835 411.49)" stroke="#4D4D4D" stroke-width="4" stroke-linecap="round"/>
<path d="M0 0V60.0828" transform="translate(846 411.49)" stroke="#4D4D4D" stroke-width="4" stroke-linecap="round"/>
<line y1="-2" x2="30.0167" y2="-2" transform="translate(826 427.379)" stroke="#4D4D4D" stroke-width="4"/>
<line y1="-2" x2="30.0167" y2="-2" transform="translate(826 443.269)" stroke="#4D4D4D" stroke-width="4"/>
<line y1="-2" x2="30.0167" y2="-2" transform="translate(826 459.159)" stroke="#4D4D4D" stroke-width="4"/>
<path d="M0 0L36.7358 6.46524C37.662 6.62824 38.2806 5.53889 37.6662 4.827L33.5 0" transform="translate(823 409.503)" stroke="#4D4D4D" stroke-width="4"/>
<rect width="136" height="31.7793" rx="1" transform="translate(773 346.938)" fill="white" stroke="#4D4D4D" stroke-width="4"/>
<ellipse cx="16.01" cy="7.94483" rx="16.01" ry="7.94483" transform="translate(777.484 415.462)" fill="white" stroke="#4D4D4D" stroke-width="4"/>
<path d="M0 0H14.7097" transform="translate(887 399.572)" stroke="#4D4D4D" stroke-width="4" stroke-linecap="round"/>
<path d="M0 0H14.7097" transform="translate(891.291 393.018)" stroke="#4D4D4D" stroke-width="4" stroke-linecap="round"/>
<path d="M0 4.7669V0" transform="translate(896.807 394.21)" stroke="#4D4D4D" stroke-width="4"/>
<path d="M0 4.7669V0" transform="translate(901.097 387.655)" stroke="#4D4D4D" stroke-width="4" stroke-linecap="round"/>
<path d="M0 0H14.7097" transform="translate(773 464.124)" stroke="#4D4D4D" stroke-width="4" stroke-linecap="round"/>
<path d="M0 0H14.7097" transform="translate(777.291 457.57)" stroke="#4D4D4D" stroke-width="4" stroke-linecap="round"/>
<path d="M0 4.7669V0" transform="translate(782.807 458.762)" stroke="#4D4D4D" stroke-width="4"/>
<path d="M0 4.7669V0" transform="translate(787.097 452.207)" stroke="#4D4D4D" stroke-width="4" stroke-linecap="round"/>
<mask id="path-217-inside-1" fill="white">
<rect width="40" height="15.8897" rx="1"/>
</mask>
<rect width="40" height="15.8897" rx="1" transform="translate(870 450.221)" fill="white" stroke="#4D4D4D" stroke-width="8" mask="url(#path-217-inside-1)"/>
<path d="M5.19972 0.379536C5.38939 0.139811 5.67828 0 5.98396 0H42.4875C42.8092 0 43.1114 0.154857 43.2993 0.416098L46.8608 5.36782C47.3366 6.02936 46.8638 6.95172 46.049 6.95172H2.0663C1.23031 6.95172 0.76336 5.98688 1.28206 5.33126L5.19972 0.379536Z" transform="translate(866 466.11)" fill="white" stroke="#4D4D4D" stroke-width="4"/>
<path d="M0 0H33" transform="translate(874 458.166)" stroke="#4D4D4D" stroke-width="4"/>
<path d="M0 0V7.94483" transform="translate(866 473.559)" stroke="#4D4D4D" stroke-width="4" stroke-linecap="round"/>
<path d="M0 0V7.94483" transform="translate(914 474.055)" stroke="#4D4D4D" stroke-width="4" stroke-linecap="round"/>
<path d="M0 0V7.94483" transform="translate(874 466.11)" stroke="#4D4D4D" stroke-width="4" stroke-linecap="round"/>
<path d="M0 0V7.94483" transform="translate(907 466.11)" stroke="#4D4D4D" stroke-width="4" stroke-linecap="round"/>
<path d="M0 0H39.5" transform="translate(870 470.083)" stroke="#4D4D4D" stroke-width="4"/>
<path d="M0 0H112" transform="translate(784 363.5)" stroke="#4D4D4D" stroke-width="4" stroke-linecap="round"/>
<path fill-rule="evenodd" clip-rule="evenodd" d="M9.25586 0C8.70361 0 8.25586 0.447723 8.25586 1V60.6408C8.25586 60.9128 7.97149 61.5434 7.69956 61.5434H1C0.447715 61.5434 0 61.9911 0 62.5434V68.2485C0 68.8008 0.447715 69.2485 1 69.2485H23.4595C24.0118 69.2485 24.4595 68.8008 24.4595 68.2485V62.5434C24.4595 61.9911 24.0118 61.5434 23.4595 61.5434H16.9652C16.6933 61.5434 16.4089 60.9128 16.4089 60.6408V1C16.4089 0.447723 15.9612 0 15.4089 0H9.25586Z" transform="translate(1164.36 405.751)" fill="white" stroke="#4D4D4D" stroke-width="4"/>
<rect width="58.0552" height="54.9368" rx="1" transform="matrix(0.994818 0.101669 -0.113688 0.993517 1151.25 347)" fill="white" stroke="#4D4D4D" stroke-width="4"/>
<rect width="43.5414" height="41.2026" rx="1" transform="matrix(0.994818 0.101669 -0.113688 0.993517 1157.68 354.56)" fill="white" stroke="#4D4D4D" stroke-width="4"/>
<path d="M0 0L21 2" transform="translate(1167 367.046) rotate(-0.124691)" stroke="#4D4D4D" stroke-width="4" stroke-linecap="round"/>
<path d="M0 0L25 2" transform="translate(1164 381.052) rotate(-0.12)" stroke="#4D4D4D" stroke-width="4" stroke-linecap="round"/>
<path fill-rule="evenodd" clip-rule="evenodd" d="M6.01392 0C4.96118 0 4.08862 0.816101 4.01855 1.86652L0.00463867 61.8665C-0.0727539 63.021 0.843018 64 2 64H29.9995C31.1565 64 32.0723 63.021 31.9951 61.8665L27.9812 1.86652C27.9109 0.816101 27.0383 0 25.9856 0H6.01392ZM13.1104 6C12.5581 6 12.1104 6.44772 12.1104 7V13C12.1104 13.5523 12.5581 14 13.1104 14H19.1794C19.7317 14 20.1794 13.5523 20.1794 13V7C20.1794 6.44772 19.7317 6 19.1794 6H13.1104ZM28.7524 29C28.7524 29.5523 28.3047 30 27.7524 30H5.04126C4.48898 30 4.04126 29.5523 4.04126 29V27C4.04126 26.4477 4.48898 26 5.04126 26H27.7524C28.3047 26 28.7524 26.4477 28.7524 27V29ZM4.04126 48C4.04126 48.5523 4.48898 49 5.04126 49H27.7524C28.3047 49 28.7524 48.5523 28.7524 48V46C28.7524 45.4477 28.3047 45 27.7524 45H5.04126C4.48898 45 4.04126 45.4477 4.04126 46V48Z" transform="translate(1225 411)" fill="white" stroke="#4D4D4D" stroke-width="4"/>
<path fill-rule="evenodd" clip-rule="evenodd" d="M194.661 81.25L98.2939 0L1.92725 81.25H0.793945V82.2056L0 82.875H0.793945V222.083H198.794V81.25H194.661Z" transform="translate(454.206 254.917)" fill="white"/>
<rect width="16" height="43.3333" rx="1" transform="translate(546 399)" fill="#F2463A"/>
<rect width="39.9995" height="43.3333" rx="1" transform="translate(472 430.417)" stroke="#4D4D4D" stroke-width="4"/>
<path fill-rule="evenodd" clip-rule="evenodd" d="M60.103 0.675446C61.207 -0.225143 62.792 -0.225159 63.896 0.675461L122.58 48.5522C122.651 48.61 122.73 48.6566 122.812 48.6983C123.516 49.0596 123.999 49.7932 123.999 50.6393V95.9987C123.999 96.6604 123.364 97.1384 122.705 97.076C122.473 97.0539 122.237 97.0426 121.999 97.0426C121.761 97.0426 121.525 97.0539 121.292 97.076C120.633 97.1385 119.999 96.6605 119.999 95.9987V52.0828C119.999 51.7824 119.863 51.4979 119.631 51.308L62.6317 4.8063C62.2637 4.5061 61.7353 4.5061 61.3674 4.8063L4.36785 51.3082C4.13507 51.4981 4 51.7826 4 52.083V95.9987C4 96.6604 3.36555 97.1384 2.70678 97.076C2.47397 97.0539 2.23831 97.0426 2.00024 97.0426C1.76199 97.0426 1.52617 97.0539 1.29322 97.076C0.634448 97.1385 0 96.6605 0 95.9988V50.6395C0 49.7932 0.482283 49.0595 1.18685 48.6983C1.26829 48.6565 1.34748 48.6099 1.41839 48.5521L60.103 0.675446ZM120.751 114.271C120.369 114.206 119.999 114.486 119.999 114.874C119.999 115.197 120.261 115.459 120.584 115.459H123.413C123.736 115.459 123.999 115.197 123.999 114.874C123.999 114.487 123.628 114.206 123.247 114.271C122.84 114.34 122.423 114.376 121.999 114.376C121.574 114.376 121.157 114.34 120.751 114.271ZM2.00024 114.376C2.42466 114.376 2.84141 114.34 3.24802 114.271C3.62992 114.206 4 114.487 4 114.874C4 115.197 3.73791 115.459 3.41462 115.459H0.585425C0.262104 115.459 0 115.197 0 114.874C0 114.486 0.370122 114.206 0.752051 114.271C1.15878 114.34 1.57563 114.376 2.00024 114.376ZM23 161.126C22.4477 161.126 22 161.574 22 162.126V164.126C22 164.678 22.4477 165.126 23 165.126H100.999C101.551 165.126 101.999 164.678 101.999 164.126V162.126C101.999 161.574 101.551 161.126 100.999 161.126H23Z" transform="translate(491.999 285.707)" fill="#4D4D4D"/>
<path fill-rule="evenodd" clip-rule="evenodd" d="M0 1C0 0.447715 0.447715 0 1 0H2H41.9995H42.9995C43.5518 0 43.9995 0.447715 43.9995 1V2V48.6227C43.9995 49.2844 43.365 49.7625 42.7062 49.7C42.4734 49.6779 42.2377 49.6667 41.9995 49.6667C41.7614 49.6667 41.5256 49.6779 41.2928 49.7C40.634 49.7625 39.9995 49.2844 39.9995 48.6227V5C39.9995 4.44772 39.5518 4 38.9995 4H5C4.44772 4 4 4.44772 4 5V137.667C4 138.219 4.44772 138.667 5 138.667H18.9998C19.552 138.667 19.9998 139.114 19.9998 139.667V141.667C19.9998 142.219 19.552 142.667 18.9998 142.667H2H1C0.447715 142.667 0 142.219 0 141.667V140.667V2V1ZM40.7515 66.8952C40.3696 66.8304 39.9995 67.1106 39.9995 67.4979C39.9995 67.8212 40.2616 68.0833 40.5849 68.0833H43.4141C43.7374 68.0833 43.9995 67.8212 43.9995 67.4979C43.9995 67.1106 43.6294 66.8304 43.2475 66.8952C42.8409 66.9642 42.4241 67 41.9995 67C41.575 67 41.1582 66.9642 40.7515 66.8952Z" transform="translate(452 333.083)" fill="#4D4D4D"/>
<path fill-rule="evenodd" clip-rule="evenodd" d="M0 1C0 0.447715 0.447715 0 1 0H2H41.9995H42.9995C43.5518 0 43.9995 0.447715 43.9995 1V2V48.6227C43.9995 49.2844 43.365 49.7625 42.7062 49.7C42.4734 49.6779 42.2377 49.6667 41.9995 49.6667C41.7614 49.6667 41.5256 49.6779 41.2928 49.7C40.634 49.7625 39.9995 49.2844 39.9995 48.6227V5C39.9995 4.44772 39.5518 4 38.9995 4H5C4.44772 4 4 4.44772 4 5V137.667C4 138.219 4.44772 138.667 5 138.667H18.9998C19.552 138.667 19.9998 139.114 19.9998 139.667V141.667C19.9998 142.219 19.552 142.667 18.9998 142.667H2H1C0.447715 142.667 0 142.219 0 141.667V140.667V2V1ZM39.9995 67.4979C39.9995 67.1106 40.3696 66.8304 40.7515 66.8952C41.1582 66.9642 41.575 67 41.9995 67C42.4241 67 42.8409 66.9642 43.2475 66.8952C43.6294 66.8304 43.9995 67.1106 43.9995 67.4979C43.9995 67.8212 43.7374 68.0833 43.4141 68.0833H40.5849C40.2616 68.0833 39.9995 67.8212 39.9995 67.4979Z" transform="translate(655.998 333.083) scale(-1 1)" fill="#4D4D4D"/>
<rect width="39.9995" height="43.3333" rx="1" transform="translate(635.998 430.417) scale(-1 1)" stroke="#4D4D4D" stroke-width="4"/>
<line x1="2" y1="-2" x2="45.9994" y2="-2" transform="translate(529.999 459.667)" stroke="#4D4D4D" stroke-width="4" stroke-linecap="round"/>
<line x1="2" y1="-2" x2="53.9993" y2="-2" transform="translate(525.999 468.333)" stroke="#4D4D4D" stroke-width="4" stroke-linecap="round"/>
<line x1="2" y1="-2" x2="61.9992" y2="-2" transform="translate(521.999 477)" stroke="#4D4D4D" stroke-width="4" stroke-linecap="round"/>
<path d="M59.5518 0.22391C59.8335 0.0829667 60.1651 0.0829664 60.4468 0.22391L108.174 24.1057C109.118 24.5778 108.782 26 107.727 26H12.2716C11.2165 26 10.8806 24.5778 11.8241 24.1057L59.5518 0.22391Z" transform="translate(493.999 357.833)" stroke="#4D4D4D" stroke-width="4"/>
<path d="M38.8944 0.459926C39.252 0.188109 39.747 0.188111 40.1047 0.459927L71.344 24.2039C72.1065 24.7834 71.6967 26 70.7389 26H8.26019C7.30242 26 6.89256 24.7834 7.65507 24.2039L38.8944 0.459926Z" transform="translate(514.999 298.25)" stroke="#4D4D4D" stroke-width="4"/>
<line x1="2" y1="-2" x2="101.999" y2="-2" transform="translate(502 394.667)" stroke="#4D4D4D" stroke-width="4" stroke-linecap="round"/>
<path d="M0 0V16.3333C0 16.8856 0.447715 17.3333 1 17.3333H7.99991" transform="translate(549.999 332.917)" stroke="#4D4D4D" stroke-width="4" stroke-linecap="round"/>
<path d="M0 0V16.3333C0 16.8856 0.447715 17.3333 1 17.3333H7.99991" transform="translate(517.999 332.917)" stroke="#4D4D4D" stroke-width="4" stroke-linecap="round"/>
<path d="M0 0V16.3333C0 16.8856 0.447715 17.3333 1 17.3333H7.99991" transform="translate(581.998 332.917)" stroke="#4D4D4D" stroke-width="4" stroke-linecap="round"/>
<path d="M0 39V1C0 0.447715 0.447715 0 1 0H18.9998C19.552 0 19.9998 0.447715 19.9998 1V29.25" transform="translate(543.999 401.167)" stroke="#4D4D4D" stroke-width="4" stroke-linecap="round"/>
<path fill-rule="evenodd" clip-rule="evenodd" d="M48.0378 22.75C48.0008 22.75 47.9722 22.7177 47.9766 22.681C48.058 21.9912 48.0996 21.2915 48.0996 20.5833C48.0996 9.21547 37.3545 0 24.0999 0C10.8452 0 0.100098 9.21547 0.100098 20.5833C0.100098 21.2914 0.141696 21.9911 0.223125 22.6807C0.227475 22.7175 0.198747 22.75 0.161649 22.75C0.12752 22.75 0.0998535 22.7777 0.0998535 22.8118V46.5334C0.0998535 46.561 0.0774949 46.5833 0.0499141 46.5833C-0.00201648 46.5833 -0.0194504 46.6527 0.0263175 46.6773L0.0673435 46.6993C0.0873611 46.71 0.0998535 46.7309 0.0998535 46.7536V47.2563C0.0998535 47.7542 0.503499 48.1579 1.00142 48.1579H2.53693C2.70181 48.1579 2.86413 48.1987 3.00943 48.2766L23.6269 59.33C23.922 59.4882 24.2767 59.4882 24.5719 59.33L45.1895 48.2766C45.3349 48.1986 45.4972 48.1579 45.662 48.1579H47.1977C47.6957 48.1579 48.0994 47.7542 48.0994 47.2562V46.7534C48.0994 46.7307 48.1118 46.7099 48.1318 46.6992L48.1728 46.6772C48.2185 46.6527 48.2011 46.5833 48.1493 46.5833C48.1217 46.5833 48.0994 46.561 48.0994 46.5334V22.8116C48.0994 22.7776 48.0718 22.75 48.0378 22.75Z" transform="translate(529.899 225.667)" fill="white" stroke="#4D4D4D" stroke-width="4"/>
<path d="M0 0V16.3333C0 16.8856 0.447715 17.3333 1 17.3333H7.99991" transform="translate(549.999 243)" stroke="#4D4D4D" stroke-width="4" stroke-linecap="round"/>
<path d="M0 0V15.6544C0 16.4121 0.809987 16.8946 1.47629 16.5337L7.99991 13" transform="translate(563.999 243)" stroke="#4D4D4D" stroke-width="4" stroke-linecap="round"/>
<path d="M0 0V12.4044C0 12.7714 0.201021 13.1089 0.523713 13.2837L7.99991 17.3333" transform="translate(535.999 243)" stroke="#4D4D4D" stroke-width="4" stroke-linecap="round"/>
<path d="M0 61.75L76.9991 0" transform="translate(454 273.333)" stroke="#4D4D4D" stroke-width="4" stroke-linecap="round"/>
<path d="M0 0L75.9991 61.75" transform="translate(577.998 273.333)" stroke="#4D4D4D" stroke-width="4"/>
<ellipse cx="7.99991" cy="8.66667" rx="7.99991" ry="8.66667" transform="translate(486 382.75)" stroke="#4D4D4D" stroke-width="4"/>
<ellipse cx="7.99991" cy="8.66667" rx="7.99991" ry="8.66667" transform="translate(605.998 382.75)" stroke="#4D4D4D" stroke-width="4"/>
<line x1="2" y1="-2" x2="24" y2="-2" transform="translate(492 403.333) rotate(90)" stroke="#4D4D4D" stroke-width="4" stroke-linecap="round"/>
<line x1="2" y1="-2" x2="24" y2="-2" transform="translate(611.998 403.333) rotate(90)" stroke="#4D4D4D" stroke-width="4" stroke-linecap="round"/>
<path d="M0 0H14.7095" transform="translate(478 466.167)" stroke="#4D4D4D" stroke-width="4" stroke-linecap="round"/>
<path d="M0 0H14.7095" transform="translate(482.29 459.017)" stroke="#4D4D4D" stroke-width="4" stroke-linecap="round"/>
<path d="M0 5.2V0" transform="translate(487.806 460.317)" stroke="#4D4D4D" stroke-width="4"/>
<path d="M0 5.2V0" transform="translate(492.096 453.167)" stroke="#4D4D4D" stroke-width="4" stroke-linecap="round"/>
<path d="M0 0H23.9997" transform="translate(479 440.167)" stroke="#4D4D4D" stroke-width="4" stroke-linecap="round"/>
<path d="M0 0H23.9997" transform="translate(603.998 440.167)" stroke="#4D4D4D" stroke-width="4" stroke-linecap="round"/>
<path d="M0 0H14.7095" transform="translate(470 358.917)" stroke="#4D4D4D" stroke-width="4" stroke-linecap="round"/>
<path d="M0 0H14.7095" transform="translate(474.29 351.767)" stroke="#4D4D4D" stroke-width="4" stroke-linecap="round"/>
<path d="M0 5.2V0" transform="translate(479.806 353.067)" stroke="#4D4D4D" stroke-width="4"/>
<path d="M0 5.2V0" transform="translate(484.096 345.917)" stroke="#4D4D4D" stroke-width="4" stroke-linecap="round"/>
<path d="M0 0H14.7095" transform="translate(628.998 414.167)" stroke="#4D4D4D" stroke-width="4" stroke-linecap="round"/>
<path d="M0 0H14.7095" transform="translate(633.288 407.017)" stroke="#4D4D4D" stroke-width="4" stroke-linecap="round"/>
<path d="M0 5.2V0" transform="translate(638.804 408.317)" stroke="#4D4D4D" stroke-width="4"/>
<path d="M0 5.2V0" transform="translate(643.094 401.167)" stroke="#4D4D4D" stroke-width="4" stroke-linecap="round"/>
<path d="M0 34.6667V0" transform="translate(553.999 191)" stroke="#4D4D4D" stroke-width="4"/>
<path fill-rule="evenodd" clip-rule="evenodd" d="M40.0244 1C40.0244 0.447715 39.5767 0 39.0244 0H17.0098C16.4575 0 16.0098 0.447715 16.0098 1V4.97701C16.0098 5.5293 15.5621 5.97701 15.0098 5.97701H1C0.447715 5.97701 0 6.42473 0 6.97701V33.6667C0 34.219 0.447715 34.6667 1 34.6667H23.0146C23.5669 34.6667 24.0146 34.219 24.0146 33.6667V29.6897C24.0146 29.1374 24.4624 28.6897 25.0146 28.6897H39.0244C39.5767 28.6897 40.0244 28.2419 40.0244 27.6897V1Z" transform="translate(514.389 165)" fill="#F2463A" stroke="#4D4D4D" stroke-width="4"/>
<path d="M0 0V43.3333" transform="translate(523.999 400.083)" stroke="#4D4D4D" stroke-width="4" stroke-linecap="round"/>
<path d="M0 0V43.3333" transform="translate(531.999 400.083)" stroke="#4D4D4D" stroke-width="4" stroke-linecap="round"/>
<path d="M0 0V43.3333" transform="translate(575.999 400.083)" stroke="#4D4D4D" stroke-width="4" stroke-linecap="round"/>
<path d="M0 0V43.3333" transform="translate(583.998 400.083)" stroke="#4D4D4D" stroke-width="4" stroke-linecap="round"/>
<rect width="7.83131" height="183.152" rx="1" transform="translate(1027.42 295.857)" stroke="#4D4D4D" stroke-width="4"/>
<path d="M62.6505 15.9263L17.8093 1.32497C8.25377 -1.29782 2.43668 0.538343 0.358012 1.99853C0.121781 2.16448 0 2.44287 0 2.73156V7.03856" transform="translate(964.768 300.834)" stroke="#4D4D4D" stroke-width="4"/>
<rect width="23.4939" height="47.7788" rx="1" transform="translate(954 306.807)" stroke="#4D4D4D" stroke-width="4"/>
<ellipse cx="3.91566" cy="3.98157" rx="3.91566" ry="3.98157" transform="translate(961.831 313.774)" stroke="#4D4D4D" stroke-width="4"/>
<ellipse cx="3.91566" cy="3.98157" rx="3.91566" ry="3.98157" transform="translate(961.831 326.714)" stroke="#4D4D4D" stroke-width="4"/>
<ellipse cx="3.91566" cy="3.98157" rx="3.91566" ry="3.98157" transform="translate(961.831 339.654)" stroke="#4D4D4D" stroke-width="4"/>
<rect width="196" height="23" transform="translate(936 458)" fill="white"/>
<path fill-rule="evenodd" clip-rule="evenodd" d="M46.4971 41C40.3934 41 35.0882 44.4176 32.3903 49.4435C32.2094 49.7805 31.8628 50 31.4804 50H17.4961H1.09106C0.558318 50 0.118272 49.5749 0.0958109 49.0426C-0.806698 27.6554 4.65661 15.7991 17.1951 0.370906C17.3844 0.137949 17.6714 0 17.9716 0H192.496C193.048 0 193.496 0.447715 193.496 1V49C193.496 49.5523 193.048 50 192.496 50H162.514C162.131 50 161.785 49.7805 161.604 49.4435C158.906 44.4176 153.601 41 147.497 41C141.393 41 136.088 44.4176 133.39 49.4435C133.209 49.7805 132.863 50 132.48 50H122.496C121.944 50 121.496 49.5523 121.496 49V44C121.496 43.4477 121.048 43 120.496 43H74.4961C73.9438 43 73.4961 43.4477 73.4961 44V49C73.4961 49.5523 73.0484 50 72.4961 50H61.5138C61.1313 50 60.7847 49.7805 60.6038 49.4435C57.9059 44.4176 52.6008 41 46.4971 41Z" transform="translate(938.504 415)" fill="white" stroke="#4D4D4D" stroke-width="4"/>
<circle cx="16" cy="16" r="16" transform="translate(969 456)" fill="white" stroke="#4D4D4D" stroke-width="4"/>
<circle cx="16" cy="16" r="16" transform="translate(1070 456)" fill="white" stroke="#4D4D4D" stroke-width="4"/>
<path fill-rule="evenodd" clip-rule="evenodd" d="M167.203 4H198V16H166.392C165.673 17.4744 164.735 18.822 163.619 20H199C200.657 20 202 18.6569 202 17V3C202 1.34314 200.657 0 199 0H165.231C166.064 1.22256 166.732 2.56656 167.203 4ZM138.769 0H126V4H136.797C137.268 2.56656 137.936 1.22256 138.769 0ZM140.381 20C139.265 18.822 138.327 17.4744 137.608 16H65.3916C64.6731 17.4744 63.7349 18.822 62.6191 20H140.381ZM64.2307 0H78V4H66.2034C65.7322 2.56656 65.064 1.22256 64.2307 0ZM37.7693 0H3C1.34326 0 0 1.34314 0 3V17C0 18.6569 1.34326 20 3 20H39.3809C38.2651 18.822 37.3269 17.4744 36.6084 16H4V4H35.7966C36.2678 2.56656 36.936 1.22256 37.7693 0Z" transform="translate(934 463)" fill="#4D4D4D"/>
<path d="M14.2158 0.249685C14.3975 0.089425 14.6335 0 14.8757 0H23C23.5523 0 24 0.447715 24 1V27C24 27.5523 23.5523 28 23 28H1.07909C0.496867 28 0.0370488 27.5028 0.0911934 26.9231C1.24015 14.6218 5.65187 7.80614 14.2158 0.249685Z" transform="translate(949 423)" stroke="#4D4D4D" stroke-width="4"/>
<rect width="112" height="28" rx="1" transform="translate(984 423)" stroke="#4D4D4D" stroke-width="4"/>
<rect width="48" height="16" rx="1" transform="translate(1012 458)" stroke="#4D4D4D" stroke-width="4"/>
<path d="M0 0L6.90766 7.33233C7.28895 7.73705 7.92717 7.75302 8.32821 7.36786L16 0" transform="translate(1100.07 429) rotate(90)" stroke="#4D4D4D" stroke-width="8" stroke-linecap="round"/>
<path d="M0 0L6.90766 7.33233C7.28895 7.73705 7.92717 7.75302 8.32821 7.36786L16 0" transform="translate(1114.07 429) rotate(90)" stroke="#4D4D4D" stroke-width="8" stroke-linecap="round"/>
<circle cx="4" cy="4" r="4" transform="translate(981 468)" stroke="#4D4D4D" stroke-width="4"/>
<circle cx="4" cy="4" r="4" transform="translate(1082 468)" stroke="#4D4D4D" stroke-width="4"/>
<line x1="2" y1="-2" x2="30" y2="-2" transform="translate(1020 468)" stroke="#4D4D4D" stroke-width="4" stroke-linecap="round"/>
<line y1="-2" x2="32" y2="-2" transform="translate(1040 453) rotate(-90)" stroke="#4D4D4D" stroke-width="4"/>
</svg>
