<svg width="202" height="77" viewBox="0 0 202 77" fill="none" xmlns="http://www.w3.org/2000/svg">
<rect width="202" height="73" fill="black" fill-opacity="0" transform="translate(0 2)"/>
<rect x="2" y="45" width="196" height="23" fill="white"/>
<path fill-rule="evenodd" clip-rule="evenodd" d="M51.0009 43C44.8972 43 39.592 46.4176 36.8941 51.4435C36.7132 51.7805 36.3666 52 35.9842 52H21.9999H5.59487C5.06213 52 4.62208 51.5749 4.59962 51.0426C3.69711 29.6554 9.16042 17.7991 21.6989 2.37091C21.8882 2.13795 22.1753 2 22.4754 2H197C197.552 2 198 2.44771 198 3V51C198 51.5523 197.552 52 197 52H167.018C166.635 52 166.289 51.7805 166.108 51.4435C163.41 46.4176 158.105 43 152.001 43C145.897 43 140.592 46.4176 137.894 51.4435C137.713 51.7805 137.367 52 136.984 52H127C126.448 52 126 51.5523 126 51V46C126 45.4477 125.552 45 125 45H78.9999C78.4477 45 77.9999 45.4477 77.9999 46V51C77.9999 51.5523 77.5522 52 76.9999 52H66.0176C65.6351 52 65.2885 51.7805 65.1077 51.4435C62.4097 46.4176 57.1046 43 51.0009 43Z" fill="white"/>
<path d="M166.108 51.4435L164.345 52.3894L166.108 51.4435ZM21.6989 2.37091L20.1468 1.10953L21.6989 2.37091ZM65.1077 51.4435L66.8698 50.4976L65.1077 51.4435ZM38.6563 52.3894C41.0197 47.9866 45.6629 45 51.0009 45V41C44.1315 41 38.1644 44.8485 35.1319 50.4976L38.6563 52.3894ZM21.9999 54H35.9842V50H21.9999V54ZM5.59487 54H21.9999V50H5.59487V54ZM20.1468 1.10953C13.8154 8.90014 9.16384 15.9161 6.23485 23.7736C3.29919 31.649 2.14191 40.2383 2.6014 51.127L6.59784 50.9583C6.15482 40.4598 7.27794 32.4273 9.98292 25.1707C12.6946 17.8962 17.0439 11.2698 23.251 3.63228L20.1468 1.10953ZM197 0H22.4754V4H197V0ZM200 51V3H196V51H200ZM167.018 54H197V50H167.018V54ZM152.001 45C157.339 45 161.982 47.9866 164.345 52.3894L167.87 50.4976C164.837 44.8485 158.87 41 152.001 41V45ZM139.656 52.3894C142.02 47.9866 146.663 45 152.001 45V41C145.131 41 139.164 44.8485 136.132 50.4976L139.656 52.3894ZM127 54H136.984V50H127V54ZM124 46V51H128V46H124ZM125 47C124.448 47 124 46.5523 124 46H128C128 44.3431 126.657 43 125 43V47ZM78.9999 47H125V43H78.9999V47ZM79.9999 46C79.9999 46.5523 79.5522 47 78.9999 47V43C77.3431 43 75.9999 44.3431 75.9999 46H79.9999ZM79.9999 51V46H75.9999V51H79.9999ZM66.0176 54H76.9999V50H66.0176V54ZM51.0009 45C56.3389 45 60.982 47.9866 63.3455 52.3894L66.8698 50.4976C63.8374 44.8485 57.8703 41 51.0009 41V45ZM127 50C127.552 50 128 50.4477 128 51H124C124 52.6569 125.343 54 127 54V50ZM136.132 50.4976C136.278 50.2248 136.586 50 136.984 50V54C138.147 54 139.148 53.3362 139.656 52.3894L136.132 50.4976ZM167.018 50C167.415 50 167.723 50.2248 167.87 50.4976L164.345 52.3894C164.854 53.3362 165.855 54 167.018 54V50ZM196 51C196 50.4477 196.448 50 197 50V54C198.657 54 200 52.6569 200 51H196ZM75.9999 51C75.9999 50.4477 76.4476 50 76.9999 50V54C78.6568 54 79.9999 52.6569 79.9999 51H75.9999ZM23.251 3.63228C23.0644 3.86189 22.7835 4 22.4754 4V0C21.567 0 20.7121 0.414009 20.1468 1.10953L23.251 3.63228ZM5.59487 50C6.14252 50 6.57548 50.4284 6.59784 50.9583L2.6014 51.127C2.66868 52.7214 3.98173 54 5.59487 54V50ZM66.0176 50C66.4154 50 66.7234 50.2248 66.8698 50.4976L63.3455 52.3894C63.8537 53.3362 64.8549 54 66.0176 54V50ZM197 4C196.448 4 196 3.55229 196 3H200C200 1.34314 198.657 0 197 0V4ZM35.1319 50.4976C35.2784 50.2248 35.5864 50 35.9842 50V54C37.1469 54 38.1481 53.3362 38.6563 52.3894L35.1319 50.4976Z" fill="#4D4D4D"/>
<circle cx="51" cy="59" r="16" fill="white" stroke="#4D4D4D" stroke-width="4"/>
<circle cx="152" cy="59" r="16" fill="white" stroke="#4D4D4D" stroke-width="4"/>
<path fill-rule="evenodd" clip-rule="evenodd" d="M167.203 54H198V66H166.392C165.673 67.4744 164.735 68.822 163.619 70H199C200.657 70 202 68.6569 202 67V53C202 51.3432 200.657 50 199 50H165.231C166.064 51.2226 166.732 52.5666 167.203 54ZM138.769 50H126V54H136.797C137.268 52.5666 137.936 51.2226 138.769 50ZM140.381 70C139.265 68.822 138.327 67.4744 137.608 66H65.3916C64.6731 67.4744 63.7349 68.822 62.6191 70H140.381ZM64.2307 50H78V54H66.2034C65.7322 52.5666 65.064 51.2226 64.2307 50ZM37.7693 50H3C1.34326 50 0 51.3431 0 53V67C0 68.6568 1.34302 70 3 70H39.3809C38.2651 68.822 37.3269 67.4744 36.6084 66H4V54H35.7966C36.2678 52.5666 36.936 51.2226 37.7693 50Z" fill="#4D4D4D"/>
<path d="M29.2158 10.2497C29.3975 10.0894 29.6335 10 29.8757 10H38C38.5523 10 39 10.4477 39 11V37C39 37.5523 38.5523 38 38 38H16.0791C15.4969 38 15.037 37.5028 15.0912 36.9231C16.2402 24.6218 20.6519 17.8061 29.2158 10.2497Z" stroke="#4D4D4D" stroke-width="4"/>
<rect x="50" y="10" width="112" height="28" rx="1" stroke="#4D4D4D" stroke-width="4"/>
<rect x="78" y="45" width="48" height="16" rx="1" stroke="#4D4D4D" stroke-width="4"/>
<path d="M166.067 16L158.735 22.9077C158.33 23.2889 158.314 23.9272 158.699 24.3282L166.067 32" stroke="#4D4D4D" stroke-width="8" stroke-linecap="round"/>
<path d="M180.067 16L172.735 22.9077C172.33 23.2889 172.314 23.9272 172.699 24.3282L180.067 32" stroke="#4D4D4D" stroke-width="8" stroke-linecap="round"/>
<circle cx="51" cy="59" r="4" stroke="#4D4D4D" stroke-width="4"/>
<circle cx="152" cy="59" r="4" stroke="#4D4D4D" stroke-width="4"/>
<line x1="88" y1="53" x2="116" y2="53" stroke="#4D4D4D" stroke-width="4" stroke-linecap="round"/>
<line x1="104" y1="40" x2="104" y2="8" stroke="#4D4D4D" stroke-width="4"/>
</svg>
