<svg width="1259" height="490" viewBox="0 0 1259 490" fill="none" xmlns="http://www.w3.org/2000/svg">
<rect width="1255" height="486" fill="black" fill-opacity="0" transform="translate(2 2.00003)"/>
<rect width="40" height="120" fill="black" fill-opacity="0" transform="translate(2 359)"/>
<path fill-rule="evenodd" clip-rule="evenodd" d="M19 399.336C18.4478 399.336 18 399.784 18 400.336V469.933C18 470.485 17.5523 470.933 17 470.933H15C14.4477 470.933 14 471.38 14 471.933V478C14 478.552 14.4477 479 15 479H29C29.5523 479 30 478.552 30 478V471.933C30 471.38 29.5523 470.933 29 470.933H27C26.4477 470.933 26 470.485 26 469.933V400.336C26 399.784 25.5522 399.336 25 399.336H19Z" fill="white"/>
<path d="M20 400.336C20 400.888 19.5523 401.336 19 401.336V397.336C17.3432 397.336 16 398.679 16 400.336H20ZM20 469.933V400.336H16V469.933H20ZM15 472.933H17V468.933H15V472.933ZM16 478V471.933H12V478H16ZM29 477H15V481H29V477ZM28 471.933V478H32V471.933H28ZM27 472.933H29V468.933H27V472.933ZM24 400.336V469.933H28V400.336H24ZM25 401.336C24.4477 401.336 24 400.888 24 400.336H28C28 398.679 26.6568 397.336 25 397.336V401.336ZM19 401.336H25V397.336H19V401.336ZM27 468.933C27.5523 468.933 28 469.38 28 469.933H24C24 471.59 25.3431 472.933 27 472.933V468.933ZM32 471.933C32 470.276 30.6569 468.933 29 468.933V472.933C28.4477 472.933 28 472.485 28 471.933H32ZM29 481C30.6569 481 32 479.657 32 478H28C28 477.448 28.4477 477 29 477V481ZM12 478C12 479.657 13.3431 481 15 481V477C15.5523 477 16 477.448 16 478H12ZM15 468.933C13.3431 468.933 12 470.276 12 471.933H16C16 472.485 15.5523 472.933 15 472.933V468.933ZM16 469.933C16 469.38 16.4477 468.933 17 468.933V472.933C18.6569 472.933 20 471.59 20 469.933H16Z" fill="#4D4D4D"/>
<rect width="40" height="40.3361" fill="black" fill-opacity="0" transform="translate(2 359)"/>
<ellipse cx="22" cy="379.168" rx="20" ry="20.1681" fill="white" stroke="#4D4D4D" stroke-width="4"/>
<path d="M14 381.185L20.9077 388.517C21.2889 388.922 21.9272 388.938 22.3282 388.553L30 381.185" stroke="#4D4D4D" stroke-width="4" stroke-linecap="round"/>
<path d="M22 385.218V369.084" stroke="#4D4D4D" stroke-width="4" stroke-linecap="round"/>
<rect width="295.746" height="476" fill="black" fill-opacity="0" transform="translate(819 2.00003)"/>
<path d="M930 62.5002L954 58.0001V478H930V62.5002Z" stroke="#4D4D4D" stroke-width="4"/>
<rect width="25.6274" height="173.627" fill="black" fill-opacity="0" transform="translate(929 60.0001)"/>
<rect width="25.6274" height="22.6274" fill="black" fill-opacity="0" transform="translate(929 83.0001)"/>
<line x1="932" y1="102.799" x2="951.799" y2="83.0001" stroke="#4D4D4D" stroke-width="4" stroke-linecap="round"/>
<line x1="931.829" y1="83.0001" x2="951.628" y2="102.799" stroke="#4D4D4D" stroke-width="4" stroke-linecap="round"/>
<rect width="25.6274" height="22.6274" fill="black" fill-opacity="0" transform="translate(929 60.0001)"/>
<line x1="932" y1="79.7991" x2="951.799" y2="60.0001" stroke="#4D4D4D" stroke-width="4" stroke-linecap="round"/>
<line x1="931.829" y1="60.0001" x2="951.628" y2="79.7991" stroke="#4D4D4D" stroke-width="4" stroke-linecap="round"/>
<rect width="22.6274" height="22.6274" fill="black" fill-opacity="0" transform="translate(932 60.0001)"/>
<line x1="932" y1="79.7991" x2="951.799" y2="60.0001" stroke="#4D4D4D" stroke-width="4" stroke-linecap="round"/>
<line x1="936.315" y1="63.4868" x2="952.141" y2="79.3125" stroke="#4D4D4D" stroke-width="4" stroke-linecap="round"/>
<rect width="25.6274" height="22.6274" fill="black" fill-opacity="0" transform="translate(929 105)"/>
<line x1="932" y1="124.799" x2="951.799" y2="105" stroke="#4D4D4D" stroke-width="4" stroke-linecap="round"/>
<line x1="931.829" y1="105" x2="951.628" y2="124.799" stroke="#4D4D4D" stroke-width="4" stroke-linecap="round"/>
<rect width="25.6274" height="22.6274" fill="black" fill-opacity="0" transform="translate(929 126)"/>
<line x1="932" y1="145.799" x2="951.799" y2="126" stroke="#4D4D4D" stroke-width="4" stroke-linecap="round"/>
<line x1="931.829" y1="126" x2="951.628" y2="145.799" stroke="#4D4D4D" stroke-width="4" stroke-linecap="round"/>
<rect width="25.6274" height="22.6274" fill="black" fill-opacity="0" transform="translate(929 146)"/>
<line x1="932" y1="165.799" x2="951.799" y2="146" stroke="#4D4D4D" stroke-width="4" stroke-linecap="round"/>
<line x1="931.829" y1="146" x2="951.628" y2="165.799" stroke="#4D4D4D" stroke-width="4" stroke-linecap="round"/>
<rect width="25.6274" height="22.6274" fill="black" fill-opacity="0" transform="translate(929 167)"/>
<line x1="932" y1="186.799" x2="951.799" y2="167" stroke="#4D4D4D" stroke-width="4" stroke-linecap="round"/>
<line x1="931.829" y1="167" x2="951.628" y2="186.799" stroke="#4D4D4D" stroke-width="4" stroke-linecap="round"/>
<rect width="25.6274" height="22.6274" fill="black" fill-opacity="0" transform="translate(929 189)"/>
<line x1="932" y1="208.799" x2="951.799" y2="189" stroke="#4D4D4D" stroke-width="4" stroke-linecap="round"/>
<line x1="931.829" y1="189" x2="951.628" y2="208.799" stroke="#4D4D4D" stroke-width="4" stroke-linecap="round"/>
<rect width="25.6274" height="22.6274" fill="black" fill-opacity="0" transform="translate(929 211)"/>
<line x1="932" y1="230.799" x2="951.799" y2="211" stroke="#4D4D4D" stroke-width="4" stroke-linecap="round"/>
<line x1="931.829" y1="211" x2="951.628" y2="230.799" stroke="#4D4D4D" stroke-width="4" stroke-linecap="round"/>
<rect width="295.746" height="135" fill="black" fill-opacity="0" transform="translate(819 2.00003)"/>
<rect width="32" height="54" fill="black" fill-opacity="0" transform="translate(1034 83)"/>
<rect x="1034" y="129" width="32" height="8" rx="1" fill="white" stroke="#4D4D4D" stroke-width="4"/>
<path d="M1046 129.5V83" stroke="#4D4D4D" stroke-width="4"/>
<path d="M1054 129.5V83" stroke="#4D4D4D" stroke-width="4"/>
<path d="M824 62.9087L826.092 39L1112.3 72.0704L1110.9 88.0096L824 62.9087Z" fill="white" stroke="#4D4D4D" stroke-width="4"/>
<rect width="278.746" height="45.9391" fill="black" fill-opacity="0" transform="translate(836 43)"/>
<rect width="25.6274" height="22.6274" fill="black" fill-opacity="0" transform="translate(837.972 43) rotate(5)"/>
<line x1="839.235" y1="62.9852" x2="860.684" y2="44.9871" stroke="#4D4D4D" stroke-width="4" stroke-linecap="round"/>
<line x1="840.79" y1="43.2465" x2="858.788" y2="64.6958" stroke="#4D4D4D" stroke-width="4" stroke-linecap="round"/>
<rect width="25.6274" height="22.6274" fill="black" fill-opacity="0" transform="translate(860.972 44) rotate(5)"/>
<line x1="862.235" y1="63.9852" x2="883.684" y2="45.9871" stroke="#4D4D4D" stroke-width="4" stroke-linecap="round"/>
<line x1="863.79" y1="44.2465" x2="881.788" y2="65.6958" stroke="#4D4D4D" stroke-width="4" stroke-linecap="round"/>
<rect width="25.6274" height="22.6274" fill="black" fill-opacity="0" transform="translate(881.972 46) rotate(5)"/>
<line x1="883.235" y1="65.9852" x2="904.684" y2="47.9871" stroke="#4D4D4D" stroke-width="4" stroke-linecap="round"/>
<line x1="884.79" y1="46.2465" x2="902.788" y2="67.6958" stroke="#4D4D4D" stroke-width="4" stroke-linecap="round"/>
<rect width="25.6274" height="22.6274" fill="black" fill-opacity="0" transform="translate(903.972 49) rotate(5)"/>
<line x1="905.235" y1="68.9852" x2="926.684" y2="50.9871" stroke="#4D4D4D" stroke-width="4" stroke-linecap="round"/>
<line x1="906.79" y1="49.2465" x2="924.788" y2="70.6958" stroke="#4D4D4D" stroke-width="4" stroke-linecap="round"/>
<rect width="25.6274" height="22.6274" fill="black" fill-opacity="0" transform="translate(929.972 52) rotate(5)"/>
<line x1="931.235" y1="71.9852" x2="952.684" y2="53.9871" stroke="#4D4D4D" stroke-width="4" stroke-linecap="round"/>
<line x1="932.79" y1="52.2465" x2="950.788" y2="73.6958" stroke="#4D4D4D" stroke-width="4" stroke-linecap="round"/>
<rect width="25.6274" height="22.6274" fill="black" fill-opacity="0" transform="translate(951.972 54) rotate(5)"/>
<line x1="953.235" y1="73.9852" x2="974.684" y2="55.9871" stroke="#4D4D4D" stroke-width="4" stroke-linecap="round"/>
<line x1="954.79" y1="54.2465" x2="972.788" y2="75.6958" stroke="#4D4D4D" stroke-width="4" stroke-linecap="round"/>
<rect width="25.6273" height="20" fill="black" fill-opacity="0" transform="translate(972.972 57) rotate(5)"/>
<line x1="2" y1="-2" x2="28.1993" y2="-2" transform="matrix(0.804138 -0.594443 0.688698 0.725049 974.217 77.1854)" stroke="#4D4D4D" stroke-width="4" stroke-linecap="round"/>
<line x1="2" y1="-2" x2="28.1993" y2="-2" transform="matrix(0.688698 0.725049 -0.804138 0.594443 972.972 57)" stroke="#4D4D4D" stroke-width="4" stroke-linecap="round"/>
<rect width="25.6273" height="20" fill="black" fill-opacity="0" transform="translate(993.743 59) rotate(5)"/>
<line x1="2" y1="-2" x2="28.1993" y2="-2" transform="matrix(0.804138 -0.594443 0.688698 0.725049 994.989 79.1854)" stroke="#4D4D4D" stroke-width="4" stroke-linecap="round"/>
<line x1="2" y1="-2" x2="28.1993" y2="-2" transform="matrix(0.688698 0.725049 -0.804138 0.594443 993.743 59)" stroke="#4D4D4D" stroke-width="4" stroke-linecap="round"/>
<rect width="24" height="18" fill="black" fill-opacity="0" transform="translate(1014.57 63) rotate(5)"/>
<line x1="2" y1="-2" x2="25.8036" y2="-2" transform="matrix(0.815677 -0.578507 0.702828 0.711359 1015.8 81.1764)" stroke="#4D4D4D" stroke-width="4" stroke-linecap="round"/>
<line x1="2" y1="-2" x2="25.8036" y2="-2" transform="matrix(0.702828 0.711359 -0.815677 0.578507 1014.57 63)" stroke="#4D4D4D" stroke-width="4" stroke-linecap="round"/>
<rect width="24" height="18" fill="black" fill-opacity="0" transform="translate(1035.57 65) rotate(5)"/>
<line x1="2" y1="-2" x2="25.8036" y2="-2" transform="matrix(0.815677 -0.578507 0.702828 0.711359 1036.8 83.1764)" stroke="#4D4D4D" stroke-width="4" stroke-linecap="round"/>
<line x1="2" y1="-2" x2="25.8036" y2="-2" transform="matrix(0.702828 0.711359 -0.815677 0.578507 1035.57 65)" stroke="#4D4D4D" stroke-width="4" stroke-linecap="round"/>
<rect width="24" height="18" fill="black" fill-opacity="0" transform="translate(1055.57 66) rotate(5)"/>
<line x1="2" y1="-2" x2="25.8036" y2="-2" transform="matrix(0.815677 -0.578507 0.702828 0.711359 1056.8 84.1764)" stroke="#4D4D4D" stroke-width="4" stroke-linecap="round"/>
<line x1="2" y1="-2" x2="25.8036" y2="-2" transform="matrix(0.702828 0.711359 -0.815677 0.578507 1055.57 66)" stroke="#4D4D4D" stroke-width="4" stroke-linecap="round"/>
<rect width="22" height="16" fill="black" fill-opacity="0" transform="translate(1076.39 70) rotate(5)"/>
<line x1="2" y1="-2" x2="23.1658" y2="-2" transform="matrix(0.824344 -0.56609 0.71352 0.700635 1077.57 86.1636)" stroke="#4D4D4D" stroke-width="4" stroke-linecap="round"/>
<line x1="2" y1="-2" x2="23.1658" y2="-2" transform="matrix(0.71352 0.700635 -0.824344 0.56609 1076.39 70)" stroke="#4D4D4D" stroke-width="4" stroke-linecap="round"/>
<rect width="22.8332" height="16.01" fill="black" fill-opacity="0" transform="translate(1092 71) rotate(5)"/>
<line x1="2" y1="-2" x2="23.1658" y2="-2" transform="matrix(0.824344 -0.56609 0.71352 0.700635 1094 87.2461)" stroke="#4D4D4D" stroke-width="4" stroke-linecap="round"/>
<line x1="2" y1="-2" x2="23.1658" y2="-2" transform="matrix(0.71352 0.700635 -0.824344 0.56609 1092 71)" stroke="#4D4D4D" stroke-width="4" stroke-linecap="round"/>
<rect x="821.789" y="35" width="16" height="32" rx="1" transform="rotate(5 821.789 35)" fill="white" stroke="#4D4D4D" stroke-width="4"/>
<rect width="256" height="72.5" fill="black" fill-opacity="0" transform="translate(855 2.00003)"/>
<path d="M928 72.5L940 2.00003H949.5L951.5 74.5" stroke="#4D4D4D" stroke-width="4"/>
<path d="M855 42L937.5 2.00003L948.5 2.00003L1111 70.5" stroke="#4D4D4D" stroke-width="4" stroke-linecap="round"/>
<path fill-rule="evenodd" clip-rule="evenodd" d="M48.0588 419.239C48.0588 419.236 48.0599 419.233 48.0619 419.231L48.185 419.108C48.3532 418.94 48.6258 418.94 48.7939 419.108L59.7899 430.111C60.1801 430.502 60.1801 431.135 59.7899 431.525L51.7327 439.587C51.1755 440.145 50.2246 439.868 50.0662 439.096C48.7502 432.683 48.0588 426.042 48.0588 419.239ZM64.0313 434.355C63.6407 433.965 63.0072 433.965 62.6166 434.355L51.8693 445.109C51.6899 445.289 51.6206 445.551 51.6889 445.795C51.7738 446.099 52.0508 446.307 52.3657 446.307H73.5624C74.4532 446.307 74.8994 445.23 74.2698 444.6L64.0313 434.355ZM80.504 443.764C80.1134 444.155 79.4799 444.155 79.0893 443.764L66.8578 431.525C66.4676 431.135 66.4676 430.502 66.8578 430.111L78.7692 418.193C79.1598 417.802 79.7933 417.802 80.1839 418.193L92.4154 430.432C92.8056 430.822 92.8056 431.455 92.4154 431.845L80.504 443.764ZM79.7966 450.307C79.6836 450.307 79.5752 450.352 79.4953 450.432L67.5475 462.387C67.1573 462.778 67.1573 463.411 67.5475 463.801L79.8308 476.092C80.2213 476.483 80.8548 476.483 81.2454 476.092L92.787 464.543C93.1772 464.152 93.1772 463.52 92.787 463.129L80.0979 450.432C80.018 450.352 79.9096 450.307 79.7966 450.307ZM56.4754 450.307C55.5846 450.307 55.1384 451.384 55.7681 452.014L63.3063 459.557C63.6969 459.948 64.3304 459.948 64.721 459.557L72.2593 452.014C72.8889 451.384 72.4427 450.307 71.5519 450.307H56.4754ZM58.6962 463.755C59.0018 464.356 59.8036 464.477 60.2799 464.001L60.4796 463.801C60.8698 463.411 60.8698 462.778 60.4796 462.387L59.5898 461.497C58.8118 460.718 57.6028 461.553 58.0884 462.541C58.2883 462.947 58.4909 463.352 58.6962 463.755ZM73.0448 477.375C73.9356 477.375 74.3818 476.298 73.7522 475.668L64.7208 466.631C64.3302 466.24 63.6967 466.24 63.3061 466.631L61.8814 468.057C61.5606 468.378 61.4957 468.875 61.727 469.265C63.2973 471.915 64.9885 474.485 66.7931 476.967C66.9802 477.224 67.2797 477.375 67.5978 477.375H73.0448ZM97.0284 460.299C96.6378 460.69 96.0043 460.69 95.6137 460.299L87.334 452.014C86.7043 451.384 87.1506 450.307 88.0413 450.307H104.601C105.492 450.307 105.938 451.384 105.308 452.014L97.0284 460.299ZM97.0284 467.373C96.6378 466.982 96.0043 466.982 95.6137 467.373L87.3238 475.668C86.6941 476.298 87.1403 477.375 88.0311 477.375H104.611C105.502 477.375 105.948 476.298 105.318 475.668L97.0284 467.373ZM113.368 476.649C112.978 477.04 112.344 477.04 111.954 476.649L99.8551 464.543C99.4649 464.153 99.4649 463.52 99.8551 463.129L111.767 451.21C112.157 450.82 112.791 450.82 113.181 451.21L125.28 463.316C125.67 463.707 125.67 464.34 125.28 464.73L113.368 476.649ZM64.0313 427.281C63.6407 427.672 63.0072 427.672 62.6166 427.281L52.0246 416.683C51.6343 416.292 51.6344 415.659 52.0249 415.269L52.2765 415.017C52.464 414.83 52.7183 414.724 52.9835 414.724H74.1672C75.0579 414.724 75.5042 415.801 74.8745 416.431L64.0313 427.281ZM44.0224 414.226C44.0367 414.212 44.0447 414.193 44.0447 414.172V410.913C44.0447 410.809 44.1293 410.724 44.2337 410.724C44.332 410.724 44.414 410.648 44.4222 410.55C48.827 358.153 92.7251 317 146.231 317C175.265 317 201.471 329.118 220.072 348.575C220.249 348.76 220.347 349.007 220.347 349.263V352.137C220.347 353.063 219.19 353.499 218.565 352.817C217.482 351.637 216.37 350.483 215.232 349.357C215.045 349.173 214.794 349.071 214.532 349.071H214.257C213.992 349.071 213.737 349.176 213.55 349.364L198.086 364.837C197.696 365.227 197.696 365.86 198.087 366.251L210.189 378.353C210.58 378.743 211.213 378.743 211.603 378.353L218.639 371.312C219.269 370.682 220.347 371.128 220.347 372.019V374.848C220.347 375.113 220.241 375.368 220.054 375.555L217.165 378.446C216.536 379.076 216.982 380.153 217.873 380.153H219.347C219.899 380.153 220.347 380.6 220.347 381.153V383.153C220.347 383.705 219.899 384.153 219.347 384.153H218.403C217.512 384.153 217.066 385.23 217.696 385.86L220.054 388.218C220.241 388.405 220.347 388.66 220.347 388.925V391.753C220.347 392.644 219.27 393.09 218.64 392.46L211.604 385.425C211.214 385.035 210.58 385.035 210.19 385.425L199.609 396.013C199.219 396.403 199.219 397.036 199.609 397.426L210.957 408.781C211.348 409.172 211.981 409.172 212.372 408.781L218.639 402.51C219.269 401.88 220.347 402.326 220.347 403.217V406.046C220.347 406.311 220.241 406.566 220.054 406.753L217.791 409.017C217.162 409.647 217.608 410.724 218.499 410.724H219.347C219.899 410.724 220.347 411.172 220.347 411.724V413.724C220.347 414.276 219.899 414.724 219.347 414.724H219.309C218.419 414.724 217.972 415.801 218.602 416.431L220.054 417.884C220.241 418.071 220.347 418.326 220.347 418.591V421.42C220.347 422.311 219.269 422.757 218.639 422.127L212.372 415.856C211.981 415.465 211.348 415.465 210.957 415.856L196.547 430.275C196.157 430.666 196.157 431.298 196.547 431.689L209.21 444.36C209.6 444.751 210.234 444.751 210.625 444.36L218.639 436.34C219.269 435.71 220.347 436.156 220.347 437.047V439.876C220.347 440.142 220.241 440.396 220.054 440.583L216.04 444.6C215.41 445.23 215.856 446.307 216.747 446.307H219.347C219.899 446.307 220.347 446.755 220.347 447.307V449.307C220.347 449.859 219.899 450.307 219.347 450.307H217.566C216.676 450.307 216.23 451.384 216.859 452.014L220.054 455.211C220.241 455.398 220.347 455.653 220.347 455.918V458.747C220.347 459.638 219.269 460.084 218.639 459.454L210.625 451.434C210.234 451.043 209.6 451.043 209.21 451.434L199.019 461.632C198.629 462.022 198.629 462.655 199.019 463.045L210.398 474.432C210.789 474.823 211.422 474.823 211.813 474.432L218.639 467.601C219.269 466.971 220.347 467.417 220.347 468.308V471.138C220.347 471.403 220.241 471.657 220.054 471.845L216.233 475.668C215.603 476.298 216.049 477.375 216.94 477.375H219.347C219.899 477.375 220.347 477.823 220.347 478.375V479.377C220.347 479.93 220.794 480.377 221.347 480.377H227.875C227.978 480.377 228.036 480.494 227.975 480.576L227.675 480.975C227.486 481.227 227.19 481.375 226.875 481.375H226.375H210.612C210.559 481.375 210.508 481.396 210.471 481.434C210.393 481.512 210.266 481.512 210.188 481.434C210.151 481.396 210.1 481.375 210.047 481.375H179.294C179.29 481.375 179.286 481.377 179.283 481.379C179.278 481.385 179.269 481.385 179.263 481.379C179.26 481.377 179.257 481.375 179.253 481.375H114.538C114.386 481.375 114.24 481.436 114.132 481.543C113.908 481.767 113.545 481.767 113.321 481.543C113.213 481.436 113.067 481.375 112.915 481.375H66.0859H65.5861C65.2715 481.375 64.9753 481.227 64.7864 480.976L64.4863 480.576C61.8776 477.101 59.4851 473.454 57.3287 469.655C57.2842 469.576 57.2294 469.504 57.1656 469.44L56.211 468.485C56.097 468.371 56.097 468.186 56.211 468.072C56.3023 467.981 56.3227 467.84 56.2614 467.726C48.4774 453.296 44.0588 436.78 44.0588 419.234C44.0588 417.742 44.0907 416.258 44.154 414.781C44.1554 414.75 44.1305 414.724 44.0994 414.724C44.0692 414.724 44.0447 414.7 44.0447 414.669V414.388C44.0447 414.368 44.0366 414.348 44.0224 414.334C43.9926 414.304 43.9926 414.256 44.0224 414.226ZM96.6565 427.601C96.266 427.992 95.6325 427.992 95.2419 427.601L84.0786 416.431C83.449 415.801 83.8952 414.724 84.7859 414.724H107.113C108.003 414.724 108.45 415.801 107.82 416.431L96.6565 427.601ZM105.868 446.307C106.759 446.307 107.205 445.23 106.575 444.6L96.6565 434.676C96.266 434.285 95.6325 434.285 95.2419 434.676L85.3235 444.6C84.6938 445.23 85.1401 446.307 86.0308 446.307H105.868ZM99.4833 430.432C99.0931 430.822 99.0931 431.455 99.4833 431.845L111.767 444.136C112.157 444.527 112.791 444.527 113.181 444.136L125.531 431.779C125.921 431.388 125.921 430.756 125.531 430.365L113.247 418.074C112.857 417.684 112.223 417.684 111.833 418.074L99.4833 430.432ZM120.347 450.307C119.456 450.307 119.01 451.384 119.639 452.014L128.106 460.486C128.497 460.877 129.13 460.877 129.521 460.486L137.988 452.014C138.617 451.384 138.171 450.307 137.28 450.307H120.347ZM120.711 477.375C119.82 477.375 119.374 476.298 120.003 475.668L128.106 467.56C128.497 467.17 129.13 467.17 129.521 467.56L137.624 475.668C138.253 476.298 137.807 477.375 136.916 477.375H120.711ZM132.348 463.316C131.957 463.707 131.957 464.34 132.348 464.73L143.696 476.085C144.086 476.476 144.72 476.476 145.11 476.085L157.46 463.728C157.85 463.337 157.85 462.705 157.46 462.314L145.5 450.347C145.474 450.321 145.44 450.307 145.404 450.307C145.369 450.307 145.334 450.321 145.309 450.347L132.348 463.316ZM146.112 443.885C145.721 444.276 145.088 444.276 144.697 443.885L132.599 431.779C132.208 431.389 132.208 430.756 132.599 430.365L145.944 417.012C146.335 416.621 146.968 416.621 147.359 417.012L159.457 429.117C159.847 429.508 159.847 430.141 159.457 430.531L146.112 443.885ZM139.05 446.307C139.94 446.307 140.386 445.23 139.757 444.6L129.772 434.609C129.381 434.218 128.748 434.218 128.357 434.609L118.372 444.6C117.743 445.23 118.189 446.307 119.08 446.307H139.05ZM128.357 427.535C128.748 427.926 129.381 427.926 129.772 427.535L140.869 416.431C141.499 415.801 141.052 414.724 140.162 414.724H117.968C117.077 414.724 116.631 415.801 117.26 416.431L128.357 427.535ZM111.264 410.431C111.452 410.619 111.706 410.724 111.971 410.724H113.109C113.374 410.724 113.629 410.619 113.816 410.431L126.593 397.646C126.983 397.256 126.983 396.623 126.593 396.233L114.813 384.446C114.626 384.258 114.371 384.153 114.106 384.153H113.202C112.937 384.153 112.683 384.258 112.495 384.446L99.6015 397.347C99.2112 397.738 99.2112 398.371 99.6015 398.761L111.264 410.431ZM95.3601 401.591C95.7506 401.201 96.3841 401.201 96.7747 401.591L104.196 409.017C104.826 409.647 104.379 410.724 103.489 410.724H88.6463C87.7555 410.724 87.3093 409.647 87.9389 409.017L95.3601 401.591ZM95.3601 394.517C95.7506 394.908 96.3841 394.908 96.7747 394.517L105.427 385.859C106.057 385.229 105.61 384.153 104.72 384.153H87.4151C86.5243 384.153 86.0781 385.229 86.7078 385.859L95.3601 394.517ZM80.5366 386.758C80.9272 386.367 81.5605 386.368 81.951 386.758L92.5333 397.347C92.9235 397.738 92.9235 398.371 92.5333 398.761L80.8708 410.431C80.6833 410.619 80.4288 410.724 80.1635 410.724H78.7896C78.5243 410.724 78.2699 410.619 78.0823 410.431L68.1827 400.525C67.7924 400.135 67.7925 399.502 68.183 399.111L80.5366 386.758ZM63.9401 403.354C64.3307 402.963 64.9641 402.963 65.3546 403.354L71.0144 409.017C71.644 409.647 71.1978 410.724 70.3071 410.724H58.9836C58.0927 410.724 57.6465 409.647 58.2765 409.017L63.9401 403.354ZM50.5025 410.724C50.7677 410.724 51.0221 410.619 51.2096 410.431L61.1149 400.526C61.5053 400.135 61.5054 399.502 61.1151 399.112L53.5439 391.536C53.0109 391.003 52.1031 391.229 51.8942 391.954C50.2511 397.653 49.1099 403.565 48.5214 409.639C48.4649 410.222 48.9258 410.724 49.5118 410.724H50.5025ZM53.8748 386.33C53.9085 386.297 53.9631 386.297 53.9968 386.33L63.943 396.283C64.3335 396.674 64.9669 396.674 65.3575 396.283L75.7809 385.86C76.4109 385.23 75.9647 384.153 75.0738 384.153H54.8569C54.6446 384.153 54.4542 384.284 54.3792 384.482C54.1585 385.066 53.9431 385.652 53.7333 386.241C53.7025 386.328 53.81 386.395 53.8748 386.33ZM80.8334 379.982C80.9429 380.091 81.0914 380.153 81.2463 380.153C81.4011 380.153 81.5495 380.091 81.659 379.982L95.3031 366.338C95.6936 365.947 95.6937 365.314 95.3033 364.924L79.1977 348.808C78.8137 348.424 78.1928 348.416 77.8035 348.795C73.2237 353.25 69.0771 358.149 65.4325 363.422C65.1597 363.816 65.2105 364.349 65.5496 364.688L80.8334 379.982ZM62.0809 368.612C62.4135 368.059 63.1756 367.971 63.6314 368.427L73.6435 378.446C74.2732 379.076 73.827 380.153 72.9362 380.153H57.6594C56.9396 380.153 56.4561 379.415 56.7529 378.759C58.335 375.263 60.1159 371.875 62.0809 368.612ZM161.701 459.484C161.31 459.875 160.677 459.875 160.286 459.484L152.821 452.014C152.191 451.384 152.638 450.307 153.528 450.307H168.459C169.349 450.307 169.796 451.384 169.166 452.014L161.701 459.484ZM161.701 466.558C161.31 466.167 160.677 466.167 160.286 466.558L151.182 475.668C150.552 476.298 150.998 477.375 151.889 477.375H170.098C170.989 477.375 171.435 476.298 170.805 475.668L161.701 466.558ZM178.606 476.399C178.215 476.79 177.581 476.79 177.191 476.399L164.528 463.728C164.138 463.337 164.137 462.705 164.528 462.314L176.234 450.6C176.422 450.413 176.676 450.307 176.941 450.307H180.219C180.484 450.307 180.739 450.413 180.926 450.6L191.951 461.631C192.341 462.022 192.341 462.655 191.951 463.045L178.606 476.399ZM129.42 400.477C129.81 400.086 130.444 400.086 130.834 400.477L139.37 409.017C139.999 409.647 139.553 410.724 138.662 410.724H121.592C120.701 410.724 120.255 409.647 120.884 409.017L129.42 400.477ZM153.141 414.724C152.25 414.724 151.804 415.801 152.434 416.431L162.284 426.287C162.674 426.678 163.308 426.678 163.699 426.287L174.13 415.849C174.388 415.592 174.388 415.175 174.131 414.917C174.007 414.794 173.839 414.724 173.664 414.724H153.141ZM166.525 430.531C166.135 430.141 166.135 429.508 166.525 429.117L176.716 418.92C177.107 418.529 177.74 418.529 178.131 418.92L189.479 430.275C189.869 430.666 189.869 431.298 189.479 431.689L179.288 441.886C178.897 442.277 178.264 442.277 177.873 441.886L166.525 430.531ZM182.032 446.048C181.687 445.703 181.687 445.144 182.032 444.799L192.305 434.519C192.696 434.128 193.329 434.128 193.72 434.519L203.795 444.6C204.425 445.23 203.978 446.307 203.088 446.307H182.658C182.423 446.307 182.198 446.214 182.032 446.048ZM203.918 380.153C204.808 380.153 205.255 379.075 204.625 378.445L195.259 369.08C194.869 368.69 194.235 368.69 193.845 369.081L184.486 378.446C183.856 379.076 184.302 380.153 185.193 380.153H203.918ZM205.774 349.071C206.665 349.071 207.111 350.147 206.481 350.777L195.258 362.008C194.868 362.398 194.235 362.398 193.844 362.008L182.614 350.778C181.984 350.148 182.43 349.071 183.321 349.071H205.774ZM191.017 366.252C191.407 365.861 191.407 365.228 191.017 364.838L178.73 352.551C178.339 352.16 177.706 352.16 177.315 352.551L166.745 363.128C166.355 363.518 166.355 364.151 166.745 364.542L179.028 376.832C179.419 377.223 180.052 377.223 180.443 376.832L191.017 366.252ZM179.429 344.777C179.241 344.965 178.987 345.071 178.722 345.071H177.321C177.055 345.071 176.801 344.965 176.614 344.778L165.079 333.243C164.689 332.853 164.689 332.22 165.079 331.829L171.968 324.935C172.223 324.681 172.595 324.582 172.941 324.68C179.14 326.43 185.09 328.773 190.725 331.645C191.325 331.951 191.446 332.752 190.97 333.229L179.429 344.777ZM168.835 345.071C169.726 345.071 170.172 343.993 169.542 343.363L162.252 336.073C161.861 335.682 161.228 335.682 160.838 336.073L153.552 343.364C152.922 343.994 153.368 345.071 154.259 345.071H168.835ZM166.081 323.009C166.853 323.168 167.13 324.118 166.573 324.675L162.251 329C161.86 329.391 161.227 329.391 160.836 329L154.959 323.123C154.305 322.469 154.812 321.366 155.732 321.454C159.239 321.791 162.692 322.313 166.081 323.009ZM147.224 321.045C147.219 321.04 147.219 321.032 147.224 321.027C147.232 321.019 147.226 321.005 147.215 321.005C146.898 321.002 146.581 321 146.264 321C146.251 321 146.244 321.015 146.253 321.025C146.258 321.031 146.258 321.04 146.252 321.046L135.467 331.83C135.077 332.22 135.077 332.853 135.467 333.244L146.031 343.815C146.422 344.205 147.055 344.205 147.446 343.815L158.009 333.244C158.4 332.854 158.4 332.221 158.009 331.83L147.224 321.045ZM195.368 400.257C195.758 399.866 196.392 399.866 196.783 400.257L205.538 409.017C206.167 409.647 205.721 410.724 204.83 410.724H187.32C186.429 410.724 185.983 409.647 186.613 409.017L195.368 400.257ZM195.368 393.182C195.758 393.573 196.392 393.573 196.783 393.182L204.101 385.859C204.731 385.229 204.284 384.153 203.394 384.153H188.757C187.866 384.153 187.42 385.229 188.05 385.859L195.368 393.182ZM180.274 384.153C180.54 384.153 180.794 384.258 180.982 384.446L192.541 396.013C192.932 396.403 192.932 397.036 192.541 397.426L179.545 410.431C179.357 410.619 179.103 410.724 178.837 410.724H176.01C175.744 410.724 175.49 410.619 175.302 410.431L164.618 399.74C164.227 399.349 164.227 398.717 164.618 398.326L178.49 384.446C178.677 384.258 178.932 384.153 179.197 384.153H180.274ZM162.504 367.372C162.894 366.981 163.528 366.981 163.918 367.372L174.985 378.446C175.615 379.076 175.169 380.153 174.278 380.153H152.144C151.253 380.153 150.807 379.076 151.437 378.446L162.504 367.372ZM162.504 360.298C162.894 360.688 163.528 360.688 163.918 360.298L173.433 350.777C174.062 350.147 173.616 349.071 172.725 349.071H153.697C152.806 349.071 152.36 350.147 152.989 350.777L162.504 360.298ZM146.031 350.889C146.422 350.498 147.055 350.498 147.446 350.889L159.677 363.128C160.067 363.518 160.067 364.151 159.677 364.542L145.266 378.961C144.876 379.352 144.242 379.352 143.852 378.961L131.62 366.722C131.23 366.332 131.23 365.699 131.621 365.308L146.031 350.889ZM139.925 343.364C140.555 343.994 140.109 345.071 139.218 345.071H124.64C123.749 345.071 123.303 343.993 123.933 343.363L131.225 336.073C131.615 335.682 132.248 335.682 132.639 336.073L139.925 343.364ZM131.226 329C131.616 329.391 132.25 329.391 132.64 329L138.617 323.023C139.267 322.373 138.771 321.275 137.855 321.353C134.256 321.657 130.712 322.155 127.234 322.838C126.457 322.99 126.174 323.945 126.734 324.505L131.226 329ZM121.288 324.715C121.035 324.462 120.667 324.363 120.323 324.457C113.014 326.453 106.046 329.272 99.5227 332.809C98.94 333.125 98.831 333.912 99.2996 334.381L109.689 344.777C109.877 344.965 110.131 345.071 110.397 345.071H116.156C116.421 345.071 116.675 344.965 116.863 344.778L128.398 333.243C128.788 332.853 128.788 332.22 128.398 331.829L121.288 324.715ZM180.716 414.917C180.459 415.175 180.459 415.591 180.716 415.849L192.305 427.445C192.696 427.836 193.329 427.836 193.72 427.445L204.727 416.431C205.356 415.801 204.91 414.724 204.019 414.724H181.182C181.008 414.724 180.84 414.794 180.716 414.917ZM170.714 384.153C171.605 384.153 172.051 385.229 171.421 385.859L161.791 395.496C161.4 395.887 160.767 395.887 160.376 395.496L150.746 385.859C150.116 385.229 150.562 384.153 151.453 384.153H170.714ZM157.55 399.74C157.94 399.349 157.94 398.717 157.55 398.326L145.266 386.035C144.876 385.645 144.242 385.645 143.852 386.035L133.661 396.233C133.271 396.623 133.271 397.256 133.661 397.646L145.944 409.937C146.335 410.328 146.968 410.328 147.359 409.937L157.55 399.74ZM118.491 378.446C117.862 379.076 118.308 380.153 119.199 380.153H136.974C137.865 380.153 138.311 379.076 137.682 378.446L128.794 369.552C128.403 369.161 127.77 369.161 127.379 369.552L118.491 378.446ZM139.78 349.071C140.67 349.071 141.117 350.147 140.487 350.777L128.794 362.478C128.403 362.869 127.77 362.869 127.379 362.478L116.809 351.901C116.419 351.511 116.419 350.878 116.809 350.487L117.933 349.363C118.12 349.176 118.375 349.071 118.64 349.071H139.78ZM124.552 366.722C124.943 366.332 124.943 365.699 124.552 365.308L113.981 354.73C113.59 354.339 112.957 354.339 112.566 354.73L102.372 364.924C101.982 365.314 101.981 365.947 102.372 366.338L112.947 376.919C113.338 377.31 113.971 377.31 114.362 376.919L124.552 366.722ZM109.74 351.901C110.13 351.51 110.13 350.877 109.74 350.487L108.618 349.364C108.43 349.176 108.176 349.071 107.91 349.071H87.5286C86.6379 349.071 86.1916 350.147 86.8213 350.777L98.1313 362.095C98.5218 362.485 99.1551 362.485 99.5457 362.095L109.74 351.901ZM101.914 345.071C102.805 345.071 103.251 343.994 102.622 343.364L95.3627 336.1C95.0351 335.772 94.5248 335.712 94.1322 335.959C90.5573 338.203 87.1371 340.671 83.8914 343.344C83.1775 343.931 83.5994 345.071 84.5242 345.071H101.914ZM167.527 410.724C168.418 410.724 168.864 409.647 168.234 409.017L161.791 402.57C161.4 402.179 160.767 402.179 160.376 402.57L153.933 409.017C153.303 409.647 153.75 410.724 154.64 410.724H167.527ZM163.699 433.361C163.308 432.971 162.674 432.971 162.284 433.361L151.052 444.6C150.422 445.23 150.869 446.307 151.759 446.307H174.503C174.738 446.307 174.963 446.214 175.128 446.048C175.473 445.703 175.473 445.144 175.128 444.798L163.699 433.361ZM196.192 458.801C195.802 459.192 195.168 459.192 194.778 458.801L187.995 452.014C187.365 451.384 187.811 450.307 188.702 450.307H202.268C203.159 450.307 203.605 451.384 202.975 452.014L196.192 458.801ZM196.192 465.876C195.802 465.485 195.168 465.485 194.778 465.876L184.991 475.668C184.361 476.298 184.808 477.375 185.698 477.375H205.271C206.162 477.375 206.608 476.298 205.979 475.668L196.192 465.876ZM129.42 393.402C129.81 393.793 130.444 393.793 130.834 393.402L138.373 385.859C139.002 385.229 138.556 384.153 137.665 384.153H122.589C121.698 384.153 121.252 385.229 121.881 385.859L129.42 393.402ZM98.1291 369.166C98.5197 368.776 99.153 368.776 99.5435 369.166L108.817 378.446C109.447 379.076 109.001 380.153 108.11 380.153H89.5566C88.6657 380.153 88.2195 379.075 88.8495 378.445L98.1291 369.166ZM208.57 343.344C209.284 343.931 208.862 345.071 207.937 345.071H187.204C186.313 345.071 185.867 343.994 186.497 343.364L195.023 334.832C195.344 334.511 195.841 334.446 196.232 334.678C200.571 337.253 204.695 340.152 208.57 343.344Z" fill="#4D4D4D"/>
<rect width="232" height="232.002" fill="black" fill-opacity="0" transform="translate(222 248)"/>
<rect width="72" height="204.316" fill="black" fill-opacity="0" transform="translate(382 275.686)"/>
<rect x="382" y="392.591" width="72" height="87.4111" rx="1" fill="white" stroke="#4D4D4D" stroke-width="4"/>
<path fill-rule="evenodd" clip-rule="evenodd" d="M453.639 305.18C453.554 305.18 453.471 305.15 453.406 305.095L418.643 275.92C418.271 275.608 417.729 275.608 417.357 275.92L382.594 305.095C382.529 305.15 382.446 305.18 382.361 305.18C382.162 305.18 382 305.342 382 305.541V391.591C382 392.143 382.448 392.591 383 392.591H453C453.552 392.591 454 392.143 454 391.591V305.541C454 305.342 453.838 305.18 453.639 305.18Z" fill="white"/>
<path d="M382.594 305.095L383.879 306.627L382.594 305.095ZM453.406 305.095L452.121 306.627L453.406 305.095ZM418.643 275.92L419.929 274.388L418.643 275.92ZM417.357 275.92L416.071 274.388L417.357 275.92ZM417.357 277.452L452.121 306.627L454.692 303.563L419.929 274.388L417.357 277.452ZM383.879 306.627L418.643 277.452L416.071 274.388L381.308 303.563L383.879 306.627ZM384 391.591V305.541H380V391.591H384ZM453 390.591H383V394.591H453V390.591ZM452 305.541V391.591H456V305.541H452ZM456 305.541C456 304.237 454.943 303.18 453.639 303.18V307.18C452.734 307.18 452 306.446 452 305.541H456ZM453 394.591C454.657 394.591 456 393.248 456 391.591H452C452 391.039 452.448 390.591 453 390.591V394.591ZM380 391.591C380 393.248 381.343 394.591 383 394.591V390.591C383.552 390.591 384 391.039 384 391.591H380ZM382.361 303.18C381.057 303.18 380 304.237 380 305.541H384C384 306.446 383.266 307.18 382.361 307.18V303.18ZM381.308 303.563C381.603 303.316 381.976 303.18 382.361 303.18V307.18C382.917 307.18 383.454 306.984 383.879 306.627L381.308 303.563ZM452.121 306.627C452.546 306.984 453.083 307.18 453.639 307.18V303.18C454.024 303.18 454.397 303.316 454.692 303.563L452.121 306.627ZM419.929 274.388C418.813 273.452 417.187 273.452 416.071 274.388L418.643 277.452C418.271 277.764 417.729 277.764 417.357 277.452L419.929 274.388Z" fill="#4D4D4D"/>
<path fill-rule="evenodd" clip-rule="evenodd" d="M433.969 305.173C434.003 305.724 433.552 306.173 433 306.173H403C402.448 306.173 401.997 305.724 402.031 305.173C402.551 296.861 409.502 290.28 418 290.28C426.498 290.28 433.449 296.861 433.969 305.173ZM418.039 322.066H417.961C417.974 322.066 417.987 322.066 418 322.066C418.013 322.066 418.026 322.066 418.039 322.066Z" fill="white"/>
<path d="M418.039 322.066L418.044 324.066L418.039 320.066V322.066ZM417.961 322.066V320.066L417.956 324.066L417.961 322.066ZM433.969 305.173L431.973 305.298L433.969 305.173ZM403 308.173H433V304.173H403V308.173ZM404.027 305.298C404.481 298.045 410.553 292.28 418 292.28V288.28C408.45 288.28 400.621 295.678 400.035 305.048L404.027 305.298ZM418 292.28C425.447 292.28 431.519 298.045 431.973 305.298L435.965 305.048C435.379 295.678 427.549 288.28 418 288.28V292.28ZM418.039 320.066H417.961V324.066H418.039V320.066ZM418 320.066C417.989 320.066 417.977 320.066 417.966 320.066L417.956 324.066C417.971 324.066 417.985 324.066 418 324.066V320.066ZM418.034 320.066C418.023 320.066 418.011 320.066 418 320.066V324.066C418.014 324.066 418.029 324.066 418.044 324.066L418.034 320.066ZM433 308.173C434.623 308.173 436.076 306.832 435.965 305.048L431.973 305.298C431.93 304.617 432.481 304.173 433 304.173V308.173ZM403 304.173C403.519 304.173 404.07 304.617 404.027 305.298L400.035 305.048C399.924 306.832 401.377 308.173 403 308.173V304.173Z" fill="#4D4D4D"/>
<path d="M386 320.079C411.433 305.688 439.264 314.083 450 320.079" stroke="#4D4D4D" stroke-width="4" stroke-linecap="round"/>
<rect width="18.9999" height="11.9197" fill="black" fill-opacity="0" transform="translate(425 325.046)"/>
<path d="M425 336.966H439.71" stroke="#4D4D4D" stroke-width="4" stroke-linecap="round"/>
<path d="M429.29 330.41H444" stroke="#4D4D4D" stroke-width="4" stroke-linecap="round"/>
<path d="M434.806 336.37V331.602" stroke="#4D4D4D" stroke-width="4"/>
<path d="M439.097 329.814V325.046" stroke="#4D4D4D" stroke-width="4" stroke-linecap="round"/>
<rect width="24" height="79.4644" fill="black" fill-opacity="0" transform="translate(408 400.537)"/>
<line x1="410" y1="398.537" x2="430" y2="398.537" stroke="#4D4D4D" stroke-width="4" stroke-linecap="round"/>
<line x1="410" y1="406.484" x2="430" y2="406.484" stroke="#4D4D4D" stroke-width="4" stroke-linecap="round"/>
<line x1="410" y1="414.43" x2="430" y2="414.43" stroke="#4D4D4D" stroke-width="4" stroke-linecap="round"/>
<rect width="24" height="23.8394" fill="black" fill-opacity="0" transform="translate(408 424.377)"/>
<line x1="410" y1="422.377" x2="430" y2="422.377" stroke="#4D4D4D" stroke-width="4" stroke-linecap="round"/>
<line x1="410" y1="430.323" x2="430" y2="430.323" stroke="#4D4D4D" stroke-width="4" stroke-linecap="round"/>
<line x1="410" y1="438.27" x2="430" y2="438.27" stroke="#4D4D4D" stroke-width="4" stroke-linecap="round"/>
<line x1="410" y1="446.216" x2="430" y2="446.216" stroke="#4D4D4D" stroke-width="4" stroke-linecap="round"/>
<rect width="24" height="23.8393" fill="black" fill-opacity="0" transform="translate(408 456.162)"/>
<line x1="410" y1="454.162" x2="430" y2="454.162" stroke="#4D4D4D" stroke-width="4" stroke-linecap="round"/>
<line x1="410" y1="462.109" x2="430" y2="462.109" stroke="#4D4D4D" stroke-width="4" stroke-linecap="round"/>
<line x1="410" y1="470.055" x2="430" y2="470.055" stroke="#4D4D4D" stroke-width="4" stroke-linecap="round"/>
<line x1="410" y1="478.002" x2="430" y2="478.002" stroke="#4D4D4D" stroke-width="4" stroke-linecap="round"/>
<path d="M407 392.591V480.002" stroke="#4D4D4D" stroke-width="4" stroke-linecap="round"/>
<path d="M433 392.591V480.002" stroke="#4D4D4D" stroke-width="4" stroke-linecap="round"/>
<rect width="32" height="47.6788" fill="black" fill-opacity="0" transform="translate(403 344.912)"/>
<rect x="403" y="344.912" width="32" height="47.6788" rx="1" fill="white" stroke="#4D4D4D" stroke-width="4"/>
<rect x="411" y="351.865" width="16" height="7.94646" rx="1" fill="white" stroke="#4D4D4D" stroke-width="4"/>
<rect width="80" height="204.368" fill="black" fill-opacity="0" transform="translate(222 275.634)"/>
<path fill-rule="evenodd" clip-rule="evenodd" d="M301.59 305.18C301.501 305.18 301.414 305.151 301.343 305.097L262.603 275.836C262.246 275.567 261.754 275.567 261.397 275.836L222.658 305.097C222.586 305.151 222.5 305.18 222.41 305.18C222.184 305.18 222 305.364 222 305.59V391.591C222 392.143 222.448 392.591 223 392.591H301C301.552 392.591 302 392.143 302 391.591V305.59C302 305.364 301.816 305.18 301.59 305.18Z" fill="white"/>
<path d="M222.658 305.097L221.452 303.501L222.658 305.097ZM301.343 305.097L302.548 303.501L301.343 305.097ZM262.603 275.836L261.397 277.432L262.603 275.836ZM261.397 275.836L260.192 274.24L261.397 275.836ZM261.397 277.432L300.137 306.693L302.548 303.501L263.808 274.24L261.397 277.432ZM223.863 306.693L262.603 277.432L260.192 274.24L221.452 303.501L223.863 306.693ZM224 391.591V305.59H220V391.591H224ZM301 390.591H223V394.591H301V390.591ZM300 305.59V391.591H304V305.59H300ZM304 305.59C304 304.259 302.921 303.18 301.59 303.18L301.59 307.18C300.712 307.18 300 306.468 300 305.59H304ZM301 394.591C302.657 394.591 304 393.248 304 391.591H300C300 391.039 300.448 390.591 301 390.591V394.591ZM220 391.591C220 393.248 221.343 394.591 223 394.591V390.591C223.552 390.591 224 391.039 224 391.591H220ZM222.41 303.18C221.079 303.18 220 304.259 220 305.59H224C224 306.468 223.288 307.18 222.41 307.18L222.41 303.18ZM221.452 303.501C221.728 303.293 222.064 303.18 222.41 303.18L222.41 307.18C222.935 307.18 223.445 307.009 223.863 306.693L221.452 303.501ZM300.137 306.693C300.556 307.009 301.066 307.18 301.59 307.18L301.59 303.18C301.936 303.18 302.272 303.293 302.548 303.501L300.137 306.693ZM263.808 274.24C262.738 273.432 261.262 273.432 260.192 274.24L262.603 277.432C262.246 277.701 261.754 277.701 261.397 277.432L263.808 274.24Z" fill="#4D4D4D"/>
<rect x="246" y="336.966" width="32" height="55.6252" rx="1" fill="white" stroke="#4D4D4D" stroke-width="4"/>
<path fill-rule="evenodd" clip-rule="evenodd" d="M277.969 327.026C278.003 327.577 277.552 328.026 277 328.026H247C246.448 328.026 245.997 327.577 246.031 327.026C246.551 318.714 253.502 312.133 262 312.133C270.498 312.133 277.449 318.714 277.969 327.026ZM262.045 343.919H261.955C261.97 343.919 261.985 343.919 262 343.919C262.015 343.919 262.03 343.919 262.045 343.919Z" fill="white"/>
<path d="M262.045 343.919L262.051 345.919L262.045 341.919V343.919ZM261.955 343.919V341.919L261.949 345.919L261.955 343.919ZM277.969 327.026L275.973 327.151L277.969 327.026ZM247 330.026H277V326.026H247V330.026ZM248.027 327.151C248.481 319.898 254.553 314.133 262 314.133V310.133C252.45 310.133 244.621 317.531 244.035 326.901L248.027 327.151ZM262 314.133C269.447 314.133 275.519 319.898 275.973 327.151L279.965 326.901C279.379 317.531 271.549 310.133 262 310.133V314.133ZM262.045 341.919H261.955V345.919H262.045V341.919ZM262 341.919C261.986 341.919 261.973 341.919 261.961 341.919L261.949 345.919C261.967 345.919 261.984 345.919 262 345.919V341.919ZM262.039 341.919C262.027 341.919 262.014 341.919 262 341.919V345.919C262.016 345.919 262.033 345.919 262.051 345.919L262.039 341.919ZM277 330.026C278.623 330.026 280.076 328.685 279.965 326.901L275.973 327.151C275.93 326.47 276.481 326.026 277 326.026V330.026ZM247 326.026C247.519 326.026 248.07 326.47 248.027 327.151L244.035 326.901C243.924 328.684 245.377 330.026 247 330.026V326.026Z" fill="#4D4D4D"/>
<rect x="230" y="337.959" width="7.99999" height="31.7858" rx="1" fill="white" stroke="#4D4D4D" stroke-width="4"/>
<rect x="286" y="337.959" width="7.99999" height="31.7858" rx="1" fill="white" stroke="#4D4D4D" stroke-width="4"/>
<rect width="18.9999" height="11.9197" fill="black" fill-opacity="0" transform="translate(234 299.22)"/>
<path d="M234 311.14H248.71" stroke="#4D4D4D" stroke-width="4" stroke-linecap="round"/>
<path d="M238.291 304.584H253" stroke="#4D4D4D" stroke-width="4" stroke-linecap="round"/>
<path d="M243.807 310.544V305.776" stroke="#4D4D4D" stroke-width="4"/>
<path d="M248.097 303.988V299.22" stroke="#4D4D4D" stroke-width="4" stroke-linecap="round"/>
<rect x="222" y="392.591" width="79.9999" height="87.4111" rx="1" fill="white" stroke="#4D4D4D" stroke-width="4"/>
<rect width="50.9687" height="95.3575" fill="black" fill-opacity="0" transform="translate(239.5 384.644)"/>
<path d="M262 384.644V480.002" stroke="#4D4D4D" stroke-width="4" stroke-linecap="round"/>
<path d="M249.5 397.061C245.5 401.034 239.5 402.962 239.5 415.934C239.5 430.833 267.5 437.29 279.5 449.209C291.5 461.129 291 469.076 290 479.505" stroke="#4D4D4D" stroke-width="4" stroke-linecap="round"/>
<path d="M254.5 398.551H270.5M254.5 398.551H270.5" stroke="#4D4D4D" stroke-width="4" stroke-linecap="round"/>
<path d="M248 406.497H264M248 406.497H264" stroke="#4D4D4D" stroke-width="4" stroke-linecap="round"/>
<path d="M245 414.444H261M245 414.444H261" stroke="#4D4D4D" stroke-width="4" stroke-linecap="round"/>
<path d="M247 422.39H263M247 422.39H263" stroke="#4D4D4D" stroke-width="4" stroke-linecap="round"/>
<path d="M268 479.009H284M268 479.009H284" stroke="#4D4D4D" stroke-width="4" stroke-linecap="round"/>
<path d="M270 471.062H286M270 471.062H286" stroke="#4D4D4D" stroke-width="4" stroke-linecap="round"/>
<path d="M271 463.116H283M271 463.116H283" stroke="#4D4D4D" stroke-width="4" stroke-linecap="round"/>
<path d="M268 456.163H280M268 456.163H280" stroke="#4D4D4D" stroke-width="4" stroke-linecap="round"/>
<path d="M266 449.209H274M266 449.209H274" stroke="#4D4D4D" stroke-width="4" stroke-linecap="round"/>
<path d="M253 429.343H261M253 429.343H261" stroke="#4D4D4D" stroke-width="4" stroke-linecap="round"/>
<rect width="80.8347" height="232.002" fill="black" fill-opacity="0" transform="translate(301.583 248)"/>
<path fill-rule="evenodd" clip-rule="evenodd" d="M382.209 289.287C382.393 289.287 382.487 289.065 382.358 288.933L342.716 248.302C342.323 247.9 341.677 247.9 341.284 248.302L301.642 288.933C301.514 289.065 301.607 289.287 301.792 289.287C301.907 289.287 302 289.38 302 289.496V391.591C302 392.143 302.448 392.591 303 392.591H381C381.553 392.591 382 392.143 382 391.591V289.495C382 289.38 382.094 289.287 382.209 289.287Z" fill="white"/>
<path d="M301.642 288.933L303.074 290.33L301.642 288.933ZM382.358 288.933L380.926 290.33L382.358 288.933ZM342.716 248.302L344.147 246.905L342.716 248.302ZM341.284 248.302L339.853 246.905L341.284 248.302ZM341.284 249.698L380.926 290.33L383.789 287.536L344.147 246.905L341.284 249.698ZM303.074 290.33L342.716 249.698L339.853 246.905L300.211 287.536L303.074 290.33ZM304 391.591V289.496H300V391.591H304ZM381 390.591H303V394.591H381V390.591ZM380 289.495V391.591H384V289.495H380ZM384 289.495C384 290.485 383.198 291.287 382.209 291.287V287.287C380.989 287.287 380 288.276 380 289.495H384ZM381 394.591C382.657 394.591 384 393.248 384 391.591H380C380 391.039 380.448 390.591 381 390.591V394.591ZM300 391.591C300 393.248 301.343 394.591 303 394.591V390.591C303.553 390.591 304 391.039 304 391.591H300ZM301.792 291.287C300.802 291.287 300 290.485 300 289.496H304C304 288.276 303.011 287.287 301.792 287.287V291.287ZM300.211 287.536C298.846 288.935 299.837 291.287 301.792 291.287V287.287C303.377 287.287 304.181 289.195 303.074 290.33L300.211 287.536ZM380.926 290.33C379.819 289.195 380.623 287.287 382.209 287.287V291.287C384.163 291.287 385.154 288.935 383.789 287.536L380.926 290.33ZM344.147 246.905C342.97 245.698 341.03 245.698 339.853 246.905L342.716 249.698C342.323 250.101 341.677 250.101 341.284 249.698L344.147 246.905Z" fill="#4D4D4D"/>
<path d="M341.348 262.035C341.723 261.713 342.277 261.713 342.652 262.035L360.741 277.596C361.444 278.201 361.016 279.354 360.089 279.354H323.911C322.984 279.354 322.556 278.201 323.259 277.596L341.348 262.035Z" fill="white" stroke="#4D4D4D" stroke-width="4"/>
<path fill-rule="evenodd" clip-rule="evenodd" d="M330 318.093C330 313.704 326.418 310.146 322 310.146C317.582 310.146 314 313.704 314 318.093V356.825C314 357.378 314.448 357.825 315 357.825H329C329.552 357.825 330 357.378 330 356.825V318.093Z" fill="white"/>
<path d="M322 312.146C325.326 312.146 328 314.821 328 318.093H332C332 312.587 327.51 308.146 322 308.146V312.146ZM316 318.093C316 314.821 318.674 312.146 322 312.146V308.146C316.49 308.146 312 312.587 312 318.093H316ZM316 356.825V318.093H312V356.825H316ZM329 355.825H315V359.825H329V355.825ZM328 318.093V356.825H332V318.093H328ZM329 359.825C330.657 359.825 332 358.482 332 356.825H328C328 356.273 328.448 355.825 329 355.825V359.825ZM312 356.825C312 358.482 313.343 359.825 315 359.825V355.825C315.552 355.825 316 356.273 316 356.825H312Z" fill="#4D4D4D"/>
<path fill-rule="evenodd" clip-rule="evenodd" d="M373.969 322.059C374.003 322.611 373.552 323.059 373 323.059H343C342.448 323.059 341.997 322.611 342.031 322.059C342.551 313.748 349.502 307.167 358 307.167C366.498 307.167 373.449 313.748 373.969 322.059ZM358.074 338.952H357.926C357.95 338.952 357.975 338.952 358 338.952C358.025 338.952 358.05 338.952 358.074 338.952Z" fill="white"/>
<path d="M358.074 338.952L358.083 340.952L358.074 336.952V338.952ZM357.926 338.952V336.952L357.917 340.952L357.926 338.952ZM373.969 322.059L371.973 322.184L373.969 322.059ZM343 325.059H373V321.059H343V325.059ZM344.027 322.184C344.481 314.932 350.553 309.167 358 309.167V305.167C348.45 305.167 340.621 312.564 340.035 321.935L344.027 322.184ZM358 309.167C365.447 309.167 371.519 314.932 371.973 322.184L375.965 321.935C375.379 312.564 367.549 305.167 358 305.167V309.167ZM358.074 336.952H357.926V340.952H358.074V336.952ZM358 336.952C357.978 336.952 357.957 336.952 357.934 336.952L357.917 340.952C357.944 340.952 357.972 340.952 358 340.952V336.952ZM358.066 336.952C358.043 336.952 358.022 336.952 358 336.952V340.952C358.028 340.952 358.056 340.952 358.083 340.952L358.066 336.952ZM373 325.059C374.623 325.059 376.076 323.718 375.965 321.935L371.973 322.184C371.93 321.503 372.481 321.059 373 321.059V325.059ZM343 321.059C343.519 321.059 344.07 321.503 344.027 322.184L340.035 321.935C339.924 323.718 341.377 325.059 343 325.059V321.059Z" fill="#4D4D4D"/>
<rect width="19" height="11.9196" fill="black" fill-opacity="0" transform="translate(315 366.765)"/>
<path d="M315 378.684H329.71" stroke="#4D4D4D" stroke-width="4" stroke-linecap="round"/>
<path d="M319.29 372.129H334" stroke="#4D4D4D" stroke-width="4" stroke-linecap="round"/>
<path d="M324.806 378.089V373.321" stroke="#4D4D4D" stroke-width="4"/>
<path d="M329.096 371.533V366.765" stroke="#4D4D4D" stroke-width="4" stroke-linecap="round"/>
<path d="M306 299.22C334.612 284.828 365.922 293.223 378 299.22" stroke="#4D4D4D" stroke-width="4" stroke-linecap="round"/>
<rect x="302" y="392.591" width="79.9999" height="87.4111" rx="1" fill="white" stroke="#4D4D4D" stroke-width="4"/>
<rect x="355" y="424.377" width="16" height="15.8929" rx="1" fill="white" stroke="#4D4D4D" stroke-width="4"/>
<rect x="315" y="400.537" width="56" height="15.8929" rx="1" fill="white" stroke="#4D4D4D" stroke-width="4"/>
<rect width="19" height="11.9196" fill="black" fill-opacity="0" transform="translate(355 451.196)"/>
<path d="M355 463.116H369.71" stroke="#4D4D4D" stroke-width="4" stroke-linecap="round"/>
<path d="M359.29 456.56H374" stroke="#4D4D4D" stroke-width="4" stroke-linecap="round"/>
<path d="M364.806 462.52V457.752" stroke="#4D4D4D" stroke-width="4"/>
<path d="M369.097 455.964V451.196" stroke="#4D4D4D" stroke-width="4" stroke-linecap="round"/>
<rect width="32" height="55.6252" fill="black" fill-opacity="0" transform="translate(342 331.006)"/>
<rect x="342" y="331.006" width="32" height="55.6252" rx="1" fill="white" stroke="#4D4D4D" stroke-width="4"/>
<rect x="350" y="338.952" width="16" height="15.8929" rx="1" fill="white" stroke="#4D4D4D" stroke-width="4"/>
<rect width="32" height="55.6252" fill="black" fill-opacity="0" transform="translate(311 424.377)"/>
<rect x="311" y="424.377" width="32" height="55.6252" rx="1" fill="white" stroke="#4D4D4D" stroke-width="4"/>
<path d="M319 438H335" stroke="#4D4D4D" stroke-width="4" stroke-linecap="round"/>
<rect width="491.04" height="310" fill="black" fill-opacity="0" transform="translate(637.96 169)"/>
<path fill-rule="evenodd" clip-rule="evenodd" d="M1129 474.649C1129 475.774 1128.99 476.896 1128.98 478.017C1128.97 478.563 1128.53 479 1127.98 479H655C654.448 479 654 478.552 654 478V339.965C654 339.67 653.87 339.391 653.645 339.201L638.008 326.007C638.003 326.003 637.996 326 637.989 326C637.966 326 637.952 325.973 637.966 325.953C686.629 258.058 767.705 213.604 859.5 213.604C1008.34 213.604 1129 330.478 1129 474.649Z" fill="white"/>
<path d="M638.008 326.007L639.298 324.478L638.008 326.007ZM653.645 339.201L654.935 337.672L653.645 339.201ZM637.966 325.953L639.592 327.119L637.966 325.953ZM1128.98 478.017L1130.98 478.043L1128.98 478.017ZM1130.98 478.043C1130.99 476.914 1131 475.782 1131 474.649H1127C1127 475.765 1126.99 476.879 1126.98 477.991L1130.98 478.043ZM655 481H1127.98V477H655V481ZM656 478V339.965H652V478H656ZM654.935 337.672L639.298 324.478L636.718 327.536L652.355 340.729L654.935 337.672ZM859.5 211.604C767.05 211.604 685.373 256.378 636.34 324.788L639.592 327.119C687.886 259.739 768.361 215.604 859.5 215.604V211.604ZM1131 474.649C1131 329.314 1009.38 211.604 859.5 211.604V215.604C1007.3 215.604 1127 331.642 1127 474.649H1131ZM639.298 324.478C638.939 324.176 638.486 324.007 638.016 324L637.963 328C637.507 327.994 637.067 327.83 636.718 327.536L639.298 324.478ZM656 339.965C656 339.081 655.61 338.242 654.935 337.672L652.355 340.729C652.13 340.539 652 340.259 652 339.965H656ZM655 477C655.552 477 656 477.448 656 478H652C652 479.657 653.343 481 655 481V477ZM638.016 324C639.608 324.022 640.519 325.825 639.592 327.119L636.34 324.788C635.385 326.121 636.323 327.978 637.963 328L638.016 324ZM1126.98 477.991C1126.99 477.437 1127.44 477 1127.98 477V481C1129.62 481 1130.96 479.688 1130.98 478.043L1126.98 477.991Z" fill="#4D4D4D"/>
<rect width="203.403" height="226.239" fill="black" fill-opacity="0" transform="translate(726.295 238.137)"/>
<path d="M925.236 240.482C944.965 282.193 894.477 305.655 867.126 315.561C839.774 325.468 756.697 332.479 745.27 386.182C734.509 436.756 763.246 462.638 770.719 464.376" stroke="#4D4D4D" stroke-width="4" stroke-linecap="round"/>
<path d="M904.878 238.137C924.263 279.762 883.077 293.933 856.202 303.819C829.328 313.705 740.056 326.302 728.829 379.894C718.256 430.364 743.718 462.641 751.061 464.376" stroke="#4D4D4D" stroke-width="4" stroke-linecap="round"/>
<rect width="44.6211" height="62.446" fill="black" fill-opacity="0" transform="translate(853.465 169)"/>
<rect x="868.339" y="169" width="14.8737" height="62.446" rx="1" stroke="#4D4D4D" stroke-width="4"/>
<rect x="853.465" y="184.612" width="44.6211" height="13.3813" rx="1" stroke="#4D4D4D" stroke-width="4"/>
<rect width="16" height="28" fill="black" fill-opacity="0" transform="translate(817 274)"/>
<path d="M817 283.739L824.227 274.941C824.627 274.454 825.373 274.454 825.773 274.941L833 283.739" stroke="#4D4D4D" stroke-width="4" stroke-linecap="round"/>
<path d="M817 293.073L824.227 284.274C824.627 283.787 825.373 283.787 825.773 284.274L833 293.073" stroke="#4D4D4D" stroke-width="4" stroke-linecap="round"/>
<path d="M817 302L824.227 293.202C824.627 292.715 825.373 292.715 825.773 293.202L833 302" stroke="#4D4D4D" stroke-width="4" stroke-linecap="round"/>
<rect width="16" height="28" fill="black" fill-opacity="0" transform="translate(843 266)"/>
<path d="M843 275.739L850.227 266.941C850.627 266.454 851.373 266.454 851.773 266.941L859 275.739" stroke="#4D4D4D" stroke-width="4" stroke-linecap="round"/>
<path d="M843 285.073L850.227 276.274C850.627 275.787 851.373 275.787 851.773 276.274L859 285.073" stroke="#4D4D4D" stroke-width="4" stroke-linecap="round"/>
<path d="M843 294L850.227 285.202C850.627 284.715 851.373 284.715 851.773 285.202L859 294" stroke="#4D4D4D" stroke-width="4" stroke-linecap="round"/>
<rect width="112.033" height="338.408" fill="black" fill-opacity="0" transform="translate(653 141)"/>
<path fill-rule="evenodd" clip-rule="evenodd" d="M724.789 141C725.123 141 725.434 141.167 725.62 141.444L764.266 199.23C764.34 199.341 764.465 199.408 764.599 199.408C764.821 199.408 765 199.588 765 199.809V200.316C765 200.324 765.002 200.331 765.007 200.338L765.03 200.373C765.037 200.384 765.03 200.398 765.016 200.398C765.007 200.398 765 200.406 765 200.415V478.408C765 478.96 764.552 479.408 764 479.408H654C653.448 479.408 653 478.96 653 478.408V200.374C653 199.841 653.432 199.408 653.966 199.408C654.288 199.408 654.589 199.247 654.769 198.979L693.247 141.444C693.432 141.167 693.744 141 694.078 141H724.789Z" fill="white"/>
<path d="M693.247 141.444L691.584 140.332L693.247 141.444ZM654.769 198.979L656.431 200.091L654.769 198.979ZM765.03 200.373L763.368 201.484L765.03 200.373ZM765.007 200.338L763.344 201.449L765.007 200.338ZM725.62 141.444L723.958 142.556L725.62 141.444ZM764.266 199.23L765.928 198.118L764.266 199.23ZM765.928 198.118L727.282 140.332L723.958 142.556L762.603 200.342L765.928 198.118ZM767 200.316V199.809H763V200.316H767ZM766.693 199.261L766.669 199.226L763.344 201.449L763.368 201.484L766.693 199.261ZM767 478.408V200.415H763V478.408H767ZM654 481.408H764V477.408H654V481.408ZM651 200.374V478.408H655V200.374H651ZM691.584 140.332L653.106 197.867L656.431 200.091L694.909 142.556L691.584 140.332ZM724.789 139H694.078V143H724.789V139ZM694.909 142.556C694.724 142.834 694.412 143 694.078 143V139C693.076 139 692.141 139.5 691.584 140.332L694.909 142.556ZM653.966 201.408C654.956 201.408 655.881 200.914 656.431 200.091L653.106 197.867C653.298 197.58 653.62 197.408 653.966 197.408V201.408ZM655 200.374C655 200.945 654.537 201.408 653.966 201.408V197.408C652.328 197.408 651 198.736 651 200.374H655ZM654 477.408C654.552 477.408 655 477.856 655 478.408H651C651 480.065 652.343 481.408 654 481.408V477.408ZM763 478.408C763 477.856 763.448 477.408 764 477.408V481.408C765.657 481.408 767 480.065 767 478.408H763ZM765.016 198.398C763.902 198.398 763 199.302 763 200.415H767C767 201.509 766.113 202.398 765.016 202.398V198.398ZM763.368 201.484C762.486 200.166 763.431 198.398 765.016 198.398V202.398C766.628 202.398 767.589 200.601 766.693 199.261L763.368 201.484ZM763 200.316C763 200.719 763.12 201.114 763.344 201.449L766.669 199.226C766.885 199.548 767 199.928 767 200.316H763ZM764.599 201.408C763.716 201.408 763 200.692 763 199.809H767C767 198.483 765.925 197.408 764.599 197.408V201.408ZM727.282 140.332C726.726 139.5 725.79 139 724.789 139V143C724.455 143 724.143 142.834 723.958 142.556L727.282 140.332ZM762.603 200.342C763.049 201.008 763.798 201.408 764.599 201.408V197.408C765.133 197.408 765.632 197.675 765.928 198.118L762.603 200.342Z" fill="#4D4D4D"/>
<rect width="92.434" height="55.4381" fill="black" fill-opacity="0" transform="translate(663.703 200.398)"/>
<rect x="663.703" y="201.388" width="15.5678" height="15.8395" rx="1" stroke="#4D4D4D" stroke-width="4"/>
<rect x="740.569" y="200.398" width="15.5678" height="15.8395" rx="1" stroke="#4D4D4D" stroke-width="4"/>
<rect x="721.109" y="220.198" width="15.5678" height="15.8395" rx="1" stroke="#4D4D4D" stroke-width="4"/>
<rect x="701.649" y="239.997" width="15.5678" height="15.8395" rx="1" stroke="#4D4D4D" stroke-width="4"/>
<rect x="682.19" y="220.198" width="15.5678" height="15.8395" rx="1" stroke="#4D4D4D" stroke-width="4"/>
<rect width="88.5418" height="230.773" fill="black" fill-opacity="0" transform="translate(667.595 225.147)"/>
<path d="M667.595 240.987V247.906C667.595 248.459 668.043 248.906 668.595 248.906H675.379" stroke="#4D4D4D" stroke-width="4" stroke-linecap="round"/>
<path d="M667.595 256.826V263.746C667.595 264.298 668.043 264.746 668.595 264.746H675.379" stroke="#4D4D4D" stroke-width="4" stroke-linecap="round"/>
<path d="M667.595 225.147V232.067C667.595 232.619 668.043 233.067 668.595 233.067H675.379" stroke="#4D4D4D" stroke-width="4" stroke-linecap="round"/>
<path d="M667.595 272.666V279.585C667.595 280.138 668.043 280.585 668.595 280.585H675.379" stroke="#4D4D4D" stroke-width="4" stroke-linecap="round"/>
<path d="M667.595 304.345V311.264C667.595 311.817 668.043 312.264 668.595 312.264H675.379" stroke="#4D4D4D" stroke-width="4" stroke-linecap="round"/>
<path d="M667.595 320.184V327.104C667.595 327.656 668.043 328.104 668.595 328.104H675.379" stroke="#4D4D4D" stroke-width="4" stroke-linecap="round"/>
<path d="M667.595 288.505V295.425C667.595 295.977 668.043 296.425 668.595 296.425H675.379" stroke="#4D4D4D" stroke-width="4" stroke-linecap="round"/>
<path d="M667.595 336.024V342.943C667.595 343.496 668.043 343.943 668.595 343.943H675.379" stroke="#4D4D4D" stroke-width="4" stroke-linecap="round"/>
<path d="M667.595 367.702V374.622C667.595 375.174 668.043 375.622 668.595 375.622H675.379" stroke="#4D4D4D" stroke-width="4" stroke-linecap="round"/>
<path d="M667.595 383.542V390.462C667.595 391.014 668.043 391.462 668.595 391.462H675.379" stroke="#4D4D4D" stroke-width="4" stroke-linecap="round"/>
<path d="M667.595 351.863V358.783C667.595 359.335 668.043 359.783 668.595 359.783H675.379" stroke="#4D4D4D" stroke-width="4" stroke-linecap="round"/>
<path d="M667.595 399.381V406.301C667.595 406.853 668.043 407.301 668.595 407.301H675.379" stroke="#4D4D4D" stroke-width="4" stroke-linecap="round"/>
<path d="M748.353 240.987V247.906C748.353 248.459 748.8 248.906 749.353 248.906H756.137" stroke="#4D4D4D" stroke-width="4" stroke-linecap="round"/>
<path d="M748.353 256.826V263.746C748.353 264.298 748.8 264.746 749.353 264.746H756.137" stroke="#4D4D4D" stroke-width="4" stroke-linecap="round"/>
<path d="M748.353 225.147V232.067C748.353 232.619 748.8 233.067 749.353 233.067H756.137" stroke="#4D4D4D" stroke-width="4" stroke-linecap="round"/>
<path d="M748.353 272.666V279.585C748.353 280.138 748.8 280.585 749.353 280.585H756.137" stroke="#4D4D4D" stroke-width="4" stroke-linecap="round"/>
<path d="M748.353 304.345V311.264C748.353 311.817 748.8 312.264 749.353 312.264H756.137" stroke="#4D4D4D" stroke-width="4" stroke-linecap="round"/>
<path d="M748.353 320.184V327.104C748.353 327.656 748.8 328.104 749.353 328.104H756.137" stroke="#4D4D4D" stroke-width="4" stroke-linecap="round"/>
<path d="M748.353 288.505V295.425C748.353 295.977 748.8 296.425 749.353 296.425H756.137" stroke="#4D4D4D" stroke-width="4" stroke-linecap="round"/>
<path d="M748.353 336.024V342.943C748.353 343.496 748.8 343.943 749.353 343.943H756.137" stroke="#4D4D4D" stroke-width="4" stroke-linecap="round"/>
<path d="M748.353 367.702V374.622C748.353 375.174 748.8 375.622 749.353 375.622H756.137" stroke="#4D4D4D" stroke-width="4" stroke-linecap="round"/>
<path d="M748.353 383.542V390.462C748.353 391.014 748.8 391.462 749.353 391.462H756.137" stroke="#4D4D4D" stroke-width="4" stroke-linecap="round"/>
<path d="M748.353 351.863V358.783C748.353 359.335 748.8 359.783 749.353 359.783H756.137" stroke="#4D4D4D" stroke-width="4" stroke-linecap="round"/>
<path d="M748.353 399.381V406.301C748.353 406.853 748.8 407.301 749.353 407.301H756.137" stroke="#4D4D4D" stroke-width="4" stroke-linecap="round"/>
<path d="M686.082 257.816V264.736C686.082 265.288 686.529 265.736 687.082 265.736H693.865" stroke="#4D4D4D" stroke-width="4" stroke-linecap="round"/>
<path d="M686.082 273.656V280.575C686.082 281.128 686.529 281.575 687.082 281.575H693.865" stroke="#4D4D4D" stroke-width="4" stroke-linecap="round"/>
<path d="M686.082 241.977V248.896C686.082 249.449 686.529 249.896 687.082 249.896H693.865" stroke="#4D4D4D" stroke-width="4" stroke-linecap="round"/>
<path d="M686.082 289.495V296.415C686.082 296.967 686.529 297.415 687.082 297.415H693.865" stroke="#4D4D4D" stroke-width="4" stroke-linecap="round"/>
<path d="M686.082 321.174V328.094C686.082 328.646 686.529 329.094 687.082 329.094H693.865" stroke="#4D4D4D" stroke-width="4" stroke-linecap="round"/>
<path d="M686.082 337.013V343.933C686.082 344.486 686.529 344.933 687.082 344.933H693.865" stroke="#4D4D4D" stroke-width="4" stroke-linecap="round"/>
<path d="M686.082 305.335V312.254C686.082 312.807 686.529 313.254 687.082 313.254H693.865" stroke="#4D4D4D" stroke-width="4" stroke-linecap="round"/>
<path d="M686.082 352.853V359.773C686.082 360.325 686.529 360.773 687.082 360.773H693.865" stroke="#4D4D4D" stroke-width="4" stroke-linecap="round"/>
<path d="M686.082 384.532V391.452C686.082 392.004 686.529 392.452 687.082 392.452H693.865" stroke="#4D4D4D" stroke-width="4" stroke-linecap="round"/>
<path d="M686.082 400.371V407.291C686.082 407.843 686.529 408.291 687.082 408.291H693.865" stroke="#4D4D4D" stroke-width="4" stroke-linecap="round"/>
<path d="M686.082 368.692V375.612C686.082 376.164 686.529 376.612 687.082 376.612H693.865" stroke="#4D4D4D" stroke-width="4" stroke-linecap="round"/>
<path d="M726.947 257.816V264.736C726.947 265.288 727.395 265.736 727.947 265.736H734.731" stroke="#4D4D4D" stroke-width="4" stroke-linecap="round"/>
<path d="M726.947 273.656V280.575C726.947 281.128 727.395 281.575 727.947 281.575H734.731" stroke="#4D4D4D" stroke-width="4" stroke-linecap="round"/>
<path d="M726.947 241.977V248.896C726.947 249.449 727.395 249.896 727.947 249.896H734.731" stroke="#4D4D4D" stroke-width="4" stroke-linecap="round"/>
<path d="M726.947 289.495V296.415C726.947 296.967 727.395 297.415 727.947 297.415H734.731" stroke="#4D4D4D" stroke-width="4" stroke-linecap="round"/>
<path d="M726.947 321.174V328.094C726.947 328.646 727.395 329.094 727.947 329.094H734.731" stroke="#4D4D4D" stroke-width="4" stroke-linecap="round"/>
<path d="M726.947 337.013V343.933C726.947 344.486 727.395 344.933 727.947 344.933H734.731" stroke="#4D4D4D" stroke-width="4" stroke-linecap="round"/>
<path d="M726.947 305.335V312.254C726.947 312.807 727.395 313.254 727.947 313.254H734.731" stroke="#4D4D4D" stroke-width="4" stroke-linecap="round"/>
<path d="M726.947 352.853V359.773C726.947 360.325 727.395 360.773 727.947 360.773H734.731" stroke="#4D4D4D" stroke-width="4" stroke-linecap="round"/>
<path d="M726.947 384.532V391.452C726.947 392.004 727.395 392.452 727.947 392.452H734.731" stroke="#4D4D4D" stroke-width="4" stroke-linecap="round"/>
<path d="M726.947 400.371V407.291C726.947 407.843 727.395 408.291 727.947 408.291H734.731" stroke="#4D4D4D" stroke-width="4" stroke-linecap="round"/>
<path d="M668 432V438.92C668 439.472 668.448 439.92 669 439.92H675.784" stroke="#4D4D4D" stroke-width="4" stroke-linecap="round"/>
<path d="M668 448V454.92C668 455.472 668.448 455.92 669 455.92H675.784" stroke="#4D4D4D" stroke-width="4" stroke-linecap="round"/>
<path d="M668 416V422.92C668 423.472 668.448 423.92 669 423.92H675.784" stroke="#4D4D4D" stroke-width="4" stroke-linecap="round"/>
<path d="M748 432V438.92C748 439.472 748.448 439.92 749 439.92H755.784" stroke="#4D4D4D" stroke-width="4" stroke-linecap="round"/>
<path d="M748 448V454.92C748 455.472 748.448 455.92 749 455.92H755.784" stroke="#4D4D4D" stroke-width="4" stroke-linecap="round"/>
<path d="M748 416V422.92C748 423.472 748.448 423.92 749 423.92H755.784" stroke="#4D4D4D" stroke-width="4" stroke-linecap="round"/>
<path d="M687 416V422.92C687 423.472 687.448 423.92 688 423.92H694.784" stroke="#4D4D4D" stroke-width="4" stroke-linecap="round"/>
<path d="M687 432V438.92C687 439.472 687.448 439.92 688 439.92H694.784" stroke="#4D4D4D" stroke-width="4" stroke-linecap="round"/>
<path d="M687 448V454.92C687 455.472 687.448 455.92 688 455.92H694.784" stroke="#4D4D4D" stroke-width="4" stroke-linecap="round"/>
<path d="M727 432V438.92C727 439.472 727.448 439.92 728 439.92H734.784" stroke="#4D4D4D" stroke-width="4" stroke-linecap="round"/>
<path d="M727 448V454.92C727 455.472 727.448 455.92 728 455.92H734.784" stroke="#4D4D4D" stroke-width="4" stroke-linecap="round"/>
<path d="M727 416V422.92C727 423.472 727.448 423.92 728 423.92H734.784" stroke="#4D4D4D" stroke-width="4" stroke-linecap="round"/>
<path d="M726.947 368.692V375.612C726.947 376.164 727.395 376.612 727.947 376.612H734.731" stroke="#4D4D4D" stroke-width="4" stroke-linecap="round"/>
<rect width="7" height="186" fill="black" fill-opacity="0" transform="translate(706 261)"/>
<path d="M706 261V447" stroke="#4D4D4D" stroke-width="4" stroke-linecap="round"/>
<path d="M713 261V447" stroke="#4D4D4D" stroke-width="4" stroke-linecap="round"/>
<rect width="7.78372" height="79.1973" fill="black" fill-opacity="0" transform="translate(705.542 148.92)"/>
<path d="M705.542 148.92V228.117" stroke="#4D4D4D" stroke-width="4" stroke-linecap="round"/>
<path d="M713.325 148.92V228.117" stroke="#4D4D4D" stroke-width="4" stroke-linecap="round"/>
<rect x="702" y="455" width="15.5678" height="23.7592" rx="1" stroke="#4D4D4D" stroke-width="4"/>
<rect width="152" height="144" fill="black" fill-opacity="0" transform="translate(765 344)"/>
<rect x="765" y="344" width="152" height="135.062" rx="1" fill="white" stroke="#4D4D4D" stroke-width="4"/>
<rect x="773" y="415.503" width="40" height="31.7793" rx="1" fill="white" stroke="#4D4D4D" stroke-width="4"/>
<rect x="869" y="415.503" width="40" height="31.7793" rx="1" stroke="#4D4D4D" stroke-width="4"/>
<rect width="39.5" height="63.5586" fill="black" fill-opacity="0" transform="translate(823 415.503)"/>
<rect x="825" y="415.503" width="32" height="63.5586" rx="1" fill="white" stroke="#4D4D4D" stroke-width="4"/>
<rect width="30.0167" height="60.0828" fill="black" fill-opacity="0" transform="translate(826 417.49)"/>
<path d="M835 417.49V477.572" stroke="#4D4D4D" stroke-width="4" stroke-linecap="round"/>
<path d="M846 417.49V477.572" stroke="#4D4D4D" stroke-width="4" stroke-linecap="round"/>
<line x1="826" y1="431.379" x2="856.017" y2="431.379" stroke="#4D4D4D" stroke-width="4"/>
<line x1="826" y1="447.269" x2="856.017" y2="447.269" stroke="#4D4D4D" stroke-width="4"/>
<line x1="826" y1="463.159" x2="856.017" y2="463.159" stroke="#4D4D4D" stroke-width="4"/>
<path d="M823 415.503L859.736 421.969C860.662 422.132 861.281 421.042 860.666 420.33L856.5 415.503" stroke="#4D4D4D" stroke-width="4"/>
<rect x="773" y="352.938" width="136" height="31.7793" rx="1" fill="white" stroke="#4D4D4D" stroke-width="4"/>
<rect width="32.02" height="15.8897" fill="black" fill-opacity="0" transform="translate(777.484 421.462)"/>
<ellipse cx="793.494" cy="429.407" rx="16.01" ry="7.94483" fill="white" stroke="#4D4D4D" stroke-width="4"/>
<rect width="19.0002" height="11.9171" fill="black" fill-opacity="0" transform="translate(887 393.655)"/>
<path d="M887 405.572H901.71" stroke="#4D4D4D" stroke-width="4" stroke-linecap="round"/>
<path d="M891.291 399.018H906" stroke="#4D4D4D" stroke-width="4" stroke-linecap="round"/>
<path d="M896.807 404.977V400.21" stroke="#4D4D4D" stroke-width="4"/>
<path d="M901.097 398.422V393.655" stroke="#4D4D4D" stroke-width="4" stroke-linecap="round"/>
<rect width="19.0002" height="11.9174" fill="black" fill-opacity="0" transform="translate(773 458.207)"/>
<path d="M773 470.124H787.71" stroke="#4D4D4D" stroke-width="4" stroke-linecap="round"/>
<path d="M777.291 463.57H792" stroke="#4D4D4D" stroke-width="4" stroke-linecap="round"/>
<path d="M782.807 469.528V464.762" stroke="#4D4D4D" stroke-width="4"/>
<path d="M787.097 462.974V458.207" stroke="#4D4D4D" stroke-width="4" stroke-linecap="round"/>
<rect width="48" height="31.7793" fill="black" fill-opacity="0" transform="translate(866 456.221)"/>
<mask id="path-233-inside-1" fill="white">
<rect x="870" y="456.221" width="40" height="15.8897" rx="1"/>
</mask>
<rect x="870" y="456.221" width="40" height="15.8897" rx="1" fill="white" stroke="#4D4D4D" stroke-width="8" mask="url(#path-233-inside-1)"/>
<path d="M871.2 472.49C871.389 472.25 871.678 472.11 871.984 472.11H908.487C908.809 472.11 909.111 472.265 909.299 472.526L912.861 477.478C913.337 478.14 912.864 479.062 912.049 479.062H868.066C867.23 479.062 866.763 478.097 867.282 477.442L871.2 472.49Z" fill="white" stroke="#4D4D4D" stroke-width="4"/>
<path d="M874 464.166H907" stroke="#4D4D4D" stroke-width="4"/>
<path d="M866 479.559V487.503" stroke="#4D4D4D" stroke-width="4" stroke-linecap="round"/>
<path d="M914 480.055V488" stroke="#4D4D4D" stroke-width="4" stroke-linecap="round"/>
<path d="M874 472.11V480.055" stroke="#4D4D4D" stroke-width="4" stroke-linecap="round"/>
<path d="M907 472.11V480.055" stroke="#4D4D4D" stroke-width="4" stroke-linecap="round"/>
<path d="M870 476.083H909.5" stroke="#4D4D4D" stroke-width="4"/>
<path d="M784 369.5H896" stroke="#4D4D4D" stroke-width="4" stroke-linecap="round"/>
<rect width="112" height="128" fill="black" fill-opacity="0" transform="translate(1145 353)"/>
<rect width="64" height="128" fill="black" fill-opacity="0" transform="translate(1145 353)"/>
<path fill-rule="evenodd" clip-rule="evenodd" d="M1173.62 411.751C1173.07 411.751 1172.62 412.199 1172.62 412.751V472.392C1172.62 472.664 1172.34 473.295 1172.06 473.295H1165.36C1164.81 473.295 1164.36 473.743 1164.36 474.295V480C1164.36 480.552 1164.81 481 1165.36 481H1187.82C1188.38 481 1188.82 480.552 1188.82 480V474.295C1188.82 473.743 1188.38 473.295 1187.82 473.295H1181.33C1181.06 473.295 1180.77 472.664 1180.77 472.392V412.751C1180.77 412.199 1180.32 411.751 1179.77 411.751H1173.62Z" fill="white"/>
<path d="M1174.62 412.751C1174.62 413.304 1174.17 413.751 1173.62 413.751V409.751C1171.96 409.751 1170.62 411.095 1170.62 412.751H1174.62ZM1174.62 472.392V412.751H1170.62V472.392H1174.62ZM1165.36 475.295H1172.06V471.295H1165.36V475.295ZM1166.36 480V474.295H1162.36V480H1166.36ZM1187.82 479H1165.36V483H1187.82V479ZM1186.82 474.295V480H1190.82V474.295H1186.82ZM1181.33 475.295H1187.82V471.295H1181.33V475.295ZM1178.77 412.751V472.392H1182.77V412.751H1178.77ZM1179.77 413.751C1179.22 413.751 1178.77 413.304 1178.77 412.751H1182.77C1182.77 411.095 1181.43 409.751 1179.77 409.751V413.751ZM1173.62 413.751H1179.77V409.751H1173.62V413.751ZM1181.33 471.295C1182.03 471.295 1182.44 471.679 1182.52 471.761C1182.65 471.882 1182.7 471.976 1182.7 471.984C1182.71 472.004 1182.72 472.019 1182.73 472.043C1182.73 472.056 1182.74 472.086 1182.75 472.132C1182.76 472.172 1182.77 472.264 1182.77 472.392H1178.77C1178.77 473.003 1179.01 473.572 1179.2 473.907C1179.3 474.106 1179.48 474.375 1179.73 474.623C1179.94 474.832 1180.49 475.295 1181.33 475.295V471.295ZM1190.82 474.295C1190.82 472.638 1189.48 471.295 1187.82 471.295V475.295C1187.27 475.295 1186.82 474.847 1186.82 474.295H1190.82ZM1187.82 483C1189.48 483 1190.82 481.657 1190.82 480H1186.82C1186.82 479.448 1187.27 479 1187.82 479V483ZM1162.36 480C1162.36 481.657 1163.71 483 1165.36 483V479C1165.92 479 1166.36 479.448 1166.36 480H1162.36ZM1165.36 471.295C1163.71 471.295 1162.36 472.638 1162.36 474.295H1166.36C1166.36 474.847 1165.92 475.295 1165.36 475.295V471.295ZM1170.62 472.392C1170.62 472.264 1170.64 472.172 1170.64 472.132C1170.65 472.086 1170.66 472.056 1170.66 472.043C1170.67 472.019 1170.68 472.004 1170.69 471.984C1170.69 471.976 1170.74 471.882 1170.87 471.761C1170.95 471.679 1171.36 471.295 1172.06 471.295V475.295C1172.9 475.295 1173.45 474.832 1173.66 474.623C1173.92 474.375 1174.09 474.106 1174.2 473.907C1174.38 473.572 1174.62 473.003 1174.62 472.392H1170.62Z" fill="#4D4D4D"/>
<rect width="58.0552" height="54.9368" fill="black" fill-opacity="0" transform="matrix(0.994818 0.101669 -0.113688 0.993517 1151.25 353)"/>
<rect width="58.0552" height="54.9368" fill="black" fill-opacity="0" transform="matrix(0.994818 0.101669 -0.113688 0.993517 1151.25 353)"/>
<rect width="58.0552" height="54.9368" rx="1" transform="matrix(0.994818 0.101669 -0.113688 0.993517 1151.25 353)" fill="white" stroke="#4D4D4D" stroke-width="4"/>
<rect width="43.5414" height="41.2026" rx="1" transform="matrix(0.994818 0.101669 -0.113688 0.993517 1157.68 360.56)" fill="white" stroke="#4D4D4D" stroke-width="4"/>
<rect width="25.0041" height="16.0523" fill="black" fill-opacity="0" transform="translate(1164 373)"/>
<path d="M1167 373.046L1188 375" stroke="#4D4D4D" stroke-width="4" stroke-linecap="round"/>
<path d="M1164 387.052L1189 389" stroke="#4D4D4D" stroke-width="4" stroke-linecap="round"/>
<rect width="31.9996" height="64" fill="black" fill-opacity="0" transform="translate(1225 417)"/>
<path fill-rule="evenodd" clip-rule="evenodd" d="M1231.01 417C1229.96 417 1229.09 417.816 1229.02 418.867L1225 478.867C1224.93 480.021 1225.84 481 1227 481H1255C1256.16 481 1257.07 480.021 1257 478.866L1252.98 418.867C1252.91 417.816 1252.04 417 1250.99 417H1231.01ZM1238.11 423C1237.56 423 1237.11 423.448 1237.11 424V430C1237.11 430.552 1237.56 431 1238.11 431H1244.18C1244.73 431 1245.18 430.552 1245.18 430V424C1245.18 423.448 1244.73 423 1244.18 423H1238.11ZM1253.75 446C1253.75 446.552 1253.3 447 1252.75 447H1230.04C1229.49 447 1229.04 446.552 1229.04 446V444C1229.04 443.448 1229.49 443 1230.04 443H1252.75C1253.3 443 1253.75 443.448 1253.75 444V446ZM1229.04 465C1229.04 465.552 1229.49 466 1230.04 466H1252.75C1253.3 466 1253.75 465.552 1253.75 465V463C1253.75 462.448 1253.3 462 1252.75 462H1230.04C1229.49 462 1229.04 462.448 1229.04 463V465Z" fill="white"/>
<path d="M1229.02 418.867L1231.01 419L1231.01 419L1229.02 418.867ZM1225 478.867L1227 479L1227 479L1225 478.867ZM1257 478.866L1258.99 478.733L1258.99 478.733L1257 478.866ZM1252.98 418.867L1254.98 418.733L1254.98 418.733L1252.98 418.867ZM1231.01 419L1231.01 419V415C1228.91 415 1227.16 416.632 1227.02 418.733L1231.01 419ZM1227 479L1231.01 419L1227.02 418.733L1223.01 478.733L1227 479ZM1227 479L1227 479L1223.01 478.733C1222.85 481.042 1224.69 483 1227 483V479ZM1255 479H1227V483H1255V479ZM1255 479L1255 479V483C1257.31 483 1259.15 481.042 1258.99 478.733L1255 479ZM1250.99 419L1255 479L1258.99 478.733L1254.98 418.733L1250.99 419ZM1250.99 419L1250.99 419L1254.98 418.733C1254.84 416.632 1253.09 415 1250.99 415V419ZM1231.01 419H1250.99V415H1231.01V419ZM1239.11 424C1239.11 424.552 1238.66 425 1238.11 425V421C1236.45 421 1235.11 422.343 1235.11 424H1239.11ZM1239.11 430V424H1235.11V430H1239.11ZM1238.11 429C1238.66 429 1239.11 429.448 1239.11 430H1235.11C1235.11 431.657 1236.45 433 1238.11 433V429ZM1244.18 429H1238.11V433H1244.18V429ZM1243.18 430C1243.18 429.448 1243.63 429 1244.18 429V433C1245.84 433 1247.18 431.657 1247.18 430H1243.18ZM1243.18 424V430H1247.18V424H1243.18ZM1244.18 425C1243.63 425 1243.18 424.552 1243.18 424H1247.18C1247.18 422.343 1245.84 421 1244.18 421V425ZM1238.11 425H1244.18V421H1238.11V425ZM1230.04 449H1252.75V445H1230.04V449ZM1227.04 444V446H1231.04V444H1227.04ZM1252.75 441H1230.04V445H1252.75V441ZM1255.75 446V444H1251.75V446H1255.75ZM1252.75 464H1230.04V468H1252.75V464ZM1251.75 463V465H1255.75V463H1251.75ZM1230.04 464H1252.75V460H1230.04V464ZM1231.04 465V463H1227.04V465H1231.04ZM1230.04 460C1228.38 460 1227.04 461.343 1227.04 463H1231.04C1231.04 463.552 1230.59 464 1230.04 464V460ZM1255.75 463C1255.75 461.343 1254.41 460 1252.75 460V464C1252.2 464 1251.75 463.552 1251.75 463H1255.75ZM1230.04 464C1230.59 464 1231.04 464.448 1231.04 465H1227.04C1227.04 466.657 1228.38 468 1230.04 468V464ZM1252.75 468C1254.41 468 1255.75 466.657 1255.75 465H1251.75C1251.75 464.448 1252.2 464 1252.75 464V468ZM1252.75 445C1252.2 445 1251.75 444.552 1251.75 444H1255.75C1255.75 442.343 1254.41 441 1252.75 441V445ZM1231.04 444C1231.04 444.552 1230.59 445 1230.04 445V441C1228.38 441 1227.04 442.343 1227.04 444H1231.04ZM1252.75 449C1254.41 449 1255.75 447.657 1255.75 446H1251.75C1251.75 445.448 1252.2 445 1252.75 445V449ZM1230.04 445C1230.59 445 1231.04 445.448 1231.04 446H1227.04C1227.04 447.657 1228.38 449 1230.04 449V445Z" fill="#4D4D4D"/>
<rect width="203.998" height="312" fill="black" fill-opacity="0" transform="translate(452 171)"/>
<path fill-rule="evenodd" clip-rule="evenodd" d="M651.794 341.875L553.5 259L455.206 341.875H651.794ZM653 342.167H455V483H653V342.167Z" fill="white"/>
<path fill-rule="evenodd" clip-rule="evenodd" d="M613.818 342.167C613.776 342.167 613.736 342.153 613.704 342.126L554.631 293.933C554.263 293.632 553.735 293.633 553.367 293.933L494.293 342.126C494.261 342.153 494.221 342.167 494.179 342.167V342.167C494.08 342.167 493.999 342.248 493.999 342.347V453.834C493.999 454.386 494.447 454.834 494.999 454.834H612.998C613.55 454.834 613.998 454.386 613.998 453.834V342.347C613.998 342.247 613.917 342.167 613.818 342.167V342.167Z" fill="white"/>
<path d="M494.293 342.126L493.029 340.577L494.293 342.126ZM613.704 342.126L614.968 340.577L613.704 342.126ZM554.631 293.933L553.367 295.482L554.631 293.933ZM553.367 293.933L552.102 292.383L553.367 293.933ZM553.367 295.482L612.44 343.676L614.968 340.577L555.895 292.383L553.367 295.482ZM495.558 343.676L554.631 295.482L552.102 292.383L493.029 340.577L495.558 343.676ZM495.999 453.834V342.347H491.999V453.834H495.999ZM612.998 452.834H494.999V456.834H612.998V452.834ZM611.998 342.347V453.834H615.998V342.347H611.998ZM615.998 342.347C615.998 341.143 615.021 340.166 613.817 340.167L613.819 344.167C612.813 344.167 611.998 343.352 611.998 342.347H615.998ZM612.998 456.834C614.655 456.834 615.998 455.49 615.998 453.834H611.998C611.998 453.281 612.446 452.834 612.998 452.834V456.834ZM491.999 453.834C491.999 455.49 493.342 456.834 494.999 456.834V452.834C495.552 452.834 495.999 453.281 495.999 453.834H491.999ZM494.18 340.167C492.976 340.167 491.999 341.143 491.999 342.347H495.999C495.999 343.352 495.184 344.167 494.179 344.167L494.18 340.167ZM493.029 340.577C493.354 340.312 493.761 340.167 494.18 340.167L494.179 344.167C494.681 344.167 495.168 343.994 495.558 343.676L493.029 340.577ZM612.44 343.676C612.829 343.994 613.316 344.167 613.819 344.167L613.817 340.167C614.237 340.167 614.643 340.312 614.968 340.577L612.44 343.676ZM555.895 292.383C554.791 291.482 553.206 291.482 552.102 292.383L554.631 295.482C554.263 295.783 553.735 295.783 553.367 295.482L555.895 292.383Z" fill="#4D4D4D"/>
<path fill-rule="evenodd" clip-rule="evenodd" d="M452 340.084C452 339.531 452.448 339.084 453 339.084H454H494H495C495.552 339.084 496 339.531 496 340.084V341.084V387.706C496 388.368 495.365 388.846 494.706 388.784C494.473 388.761 494.238 388.75 494 388.75C493.761 388.75 493.526 388.761 493.293 388.784C492.634 388.846 492 388.368 492 387.706V344.084C492 343.531 491.552 343.084 491 343.084H457C456.448 343.084 456 343.531 456 344.084V476.75C456 477.302 456.448 477.75 457 477.75H471C471.552 477.75 472 478.198 472 478.75V480.75C472 481.302 471.552 481.75 471 481.75H454H453C452.448 481.75 452 481.302 452 480.75V479.75V341.084V340.084ZM492.752 405.979C492.37 405.914 492 406.194 492 406.581C492 406.905 492.262 407.167 492.585 407.167H495.414C495.737 407.167 496 406.905 496 406.581C496 406.194 495.629 405.914 495.247 405.979C494.841 406.048 494.424 406.084 494 406.084C493.575 406.084 493.158 406.048 492.752 405.979Z" fill="#4D4D4D"/>
<path fill-rule="evenodd" clip-rule="evenodd" d="M655.998 340.084C655.998 339.531 655.55 339.084 654.998 339.084H653.998H613.998H612.998C612.446 339.084 611.998 339.531 611.998 340.084V341.084V387.706C611.998 388.368 612.633 388.846 613.291 388.784C613.524 388.761 613.76 388.75 613.998 388.75C614.236 388.75 614.472 388.761 614.705 388.784C615.364 388.846 615.998 388.368 615.998 387.706V344.084C615.998 343.531 616.446 343.084 616.998 343.084H650.998C651.55 343.084 651.998 343.531 651.998 344.084V476.75C651.998 477.302 651.55 477.75 650.998 477.75H636.998C636.446 477.75 635.998 478.198 635.998 478.75V480.75C635.998 481.302 636.446 481.75 636.998 481.75H653.998H654.998C655.55 481.75 655.998 481.302 655.998 480.75V479.75V341.084V340.084ZM615.998 406.581C615.998 406.194 615.628 405.914 615.246 405.979C614.839 406.048 614.423 406.084 613.998 406.084C613.573 406.084 613.157 406.048 612.75 405.979C612.368 405.914 611.998 406.194 611.998 406.581C611.998 406.905 612.26 407.167 612.583 407.167H615.413C615.736 407.167 615.998 406.905 615.998 406.581Z" fill="#4D4D4D"/>
<rect width="63.9992" height="17.3333" fill="black" fill-opacity="0" transform="translate(521.999 465.667)"/>
<line x1="531.999" y1="463.667" x2="575.998" y2="463.667" stroke="#4D4D4D" stroke-width="4" stroke-linecap="round"/>
<line x1="527.999" y1="472.334" x2="579.999" y2="472.334" stroke="#4D4D4D" stroke-width="4" stroke-linecap="round"/>
<line x1="523.999" y1="481" x2="583.999" y2="481" stroke="#4D4D4D" stroke-width="4" stroke-linecap="round"/>
<path d="M553.551 364.057C553.833 363.916 554.164 363.916 554.446 364.057L602.174 387.939C603.117 388.411 602.781 389.834 601.726 389.834H506.271C505.216 389.834 504.88 388.411 505.823 387.939L553.551 364.057Z" stroke="#4D4D4D" stroke-width="4"/>
<path d="M553.894 304.71C554.251 304.438 554.746 304.438 555.104 304.71L586.343 328.454C587.106 329.034 586.696 330.25 585.738 330.25H523.259C522.302 330.25 521.892 329.034 522.654 328.454L553.894 304.71Z" stroke="#4D4D4D" stroke-width="4"/>
<line x1="504" y1="398.667" x2="603.998" y2="398.667" stroke="#4D4D4D" stroke-width="4" stroke-linecap="round"/>
<rect width="71.9989" height="17.3333" fill="black" fill-opacity="0" transform="translate(517.999 338.917)"/>
<path d="M549.999 338.917V355.25C549.999 355.802 550.446 356.25 550.999 356.25H557.999" stroke="#4D4D4D" stroke-width="4" stroke-linecap="round"/>
<path d="M517.999 338.917V355.25C517.999 355.802 518.447 356.25 518.999 356.25H525.999" stroke="#4D4D4D" stroke-width="4" stroke-linecap="round"/>
<path d="M581.998 338.917V355.25C581.998 355.802 582.446 356.25 582.998 356.25H589.998" stroke="#4D4D4D" stroke-width="4" stroke-linecap="round"/>
<path d="M543.999 446.167V408.167C543.999 407.615 544.447 407.167 544.999 407.167H562.999C563.551 407.167 563.999 407.615 563.999 408.167V436.417" stroke="#4D4D4D" stroke-width="4" stroke-linecap="round"/>
<path fill-rule="evenodd" clip-rule="evenodd" d="M577.937 254.417C577.9 254.417 577.871 254.384 577.876 254.348C577.957 253.658 577.999 252.958 577.999 252.25C577.999 240.882 567.254 231.667 553.999 231.667C540.744 231.667 529.999 240.882 529.999 252.25C529.999 252.958 530.041 253.658 530.122 254.348C530.127 254.384 530.098 254.417 530.061 254.417C530.027 254.417 529.999 254.444 529.999 254.479V278.2C529.999 278.228 529.977 278.25 529.949 278.25C529.897 278.25 529.88 278.32 529.926 278.344L529.967 278.366C529.987 278.377 529.999 278.398 529.999 278.42V278.923C529.999 279.421 530.403 279.825 530.901 279.825H532.436C532.601 279.825 532.763 279.866 532.909 279.943L553.526 290.997C553.821 291.155 554.176 291.155 554.471 290.997L575.089 279.943C575.234 279.866 575.396 279.825 575.561 279.825H577.097C577.595 279.825 577.999 279.421 577.999 278.923V278.42C577.999 278.398 578.011 278.377 578.031 278.366L578.072 278.344C578.118 278.32 578.1 278.25 578.049 278.25C578.021 278.25 577.999 278.228 577.999 278.2V254.479C577.999 254.444 577.971 254.417 577.937 254.417Z" fill="white"/>
<path d="M578.072 278.344L577.127 276.581L578.072 278.344ZM578.031 278.366L578.976 280.129L578.031 278.366ZM553.526 290.997L554.471 289.234L553.526 290.997ZM554.471 290.997L553.526 289.234L554.471 290.997ZM532.909 279.943L531.964 281.706L532.909 279.943ZM529.967 278.366L530.912 276.603L529.967 278.366ZM529.926 278.344L530.871 276.581L529.926 278.344ZM530.122 254.348L532.108 254.113L530.122 254.348ZM575.089 279.943L574.144 278.181L575.089 279.943ZM577.876 254.348L575.889 254.113L577.876 254.348ZM575.999 252.25C575.999 252.88 575.962 253.501 575.889 254.113L579.862 254.582C579.952 253.815 579.999 253.037 579.999 252.25H575.999ZM553.999 233.667C566.448 233.667 575.999 242.264 575.999 252.25H579.999C579.999 239.501 568.059 229.667 553.999 229.667V233.667ZM531.999 252.25C531.999 242.264 541.55 233.667 553.999 233.667V229.667C539.939 229.667 527.999 239.501 527.999 252.25H531.999ZM532.108 254.113C532.036 253.501 531.999 252.88 531.999 252.25H527.999C527.999 253.037 528.045 253.815 528.136 254.582L532.108 254.113ZM527.999 254.479V278.2H531.999V254.479H527.999ZM528.981 280.107L529.022 280.129L530.912 276.603L530.871 276.581L528.981 280.107ZM527.999 278.42V278.923H531.999V278.42H527.999ZM530.901 281.825H532.436V277.825H530.901V281.825ZM531.964 281.706L552.581 292.76L554.471 289.234L533.854 278.181L531.964 281.706ZM555.416 292.76L576.034 281.706L574.144 278.181L553.526 289.234L555.416 292.76ZM575.561 281.825H577.097V277.825H575.561V281.825ZM579.999 278.923V278.42H575.999V278.923H579.999ZM578.976 280.129L579.017 280.107L577.127 276.581L577.086 276.603L578.976 280.129ZM579.999 278.2V254.479H575.999V278.2H579.999ZM579.999 254.479C579.999 253.34 579.076 252.417 577.937 252.417V256.417C576.866 256.417 575.999 255.549 575.999 254.479H579.999ZM578.049 276.25C579.126 276.25 579.999 277.123 579.999 278.2H575.999C575.999 279.332 576.916 280.25 578.049 280.25V276.25ZM579.017 280.107C580.896 279.1 580.18 276.25 578.049 276.25V280.25C576.021 280.25 575.34 277.54 577.127 276.581L579.017 280.107ZM579.999 278.42C579.999 279.135 579.606 279.791 578.976 280.129L577.086 276.603C576.417 276.962 575.999 277.661 575.999 278.42H579.999ZM577.097 281.825C578.7 281.825 579.999 280.526 579.999 278.923H575.999C575.999 278.316 576.49 277.825 577.097 277.825V281.825ZM552.581 292.76C553.467 293.234 554.531 293.234 555.416 292.76L553.526 289.234C553.821 289.076 554.176 289.076 554.471 289.234L552.581 292.76ZM532.436 281.825C532.271 281.825 532.109 281.784 531.964 281.706L533.854 278.181C533.418 277.947 532.931 277.825 532.436 277.825V281.825ZM527.999 278.923C527.999 280.526 529.298 281.825 530.901 281.825V277.825C531.507 277.825 531.999 278.317 531.999 278.923H527.999ZM529.022 280.129C528.392 279.791 527.999 279.135 527.999 278.42H531.999C531.999 277.661 531.581 276.962 530.912 276.603L529.022 280.129ZM529.949 276.25C527.818 276.25 527.102 279.1 528.981 280.107L530.871 276.581C532.658 277.54 531.977 280.25 529.949 280.25V276.25ZM530.061 252.417C528.922 252.417 527.999 253.34 527.999 254.479H531.999C531.999 255.549 531.131 256.417 530.061 256.417V252.417ZM528.136 254.582C528.001 253.435 528.895 252.417 530.061 252.417V256.417C531.301 256.417 532.253 255.334 532.108 254.113L528.136 254.582ZM527.999 278.2C527.999 277.123 528.872 276.25 529.949 276.25V280.25C531.081 280.25 531.999 279.332 531.999 278.2H527.999ZM576.034 281.706C575.889 281.784 575.726 281.825 575.561 281.825V277.825C575.067 277.825 574.58 277.947 574.144 278.181L576.034 281.706ZM575.889 254.113C575.745 255.334 576.697 256.417 577.937 256.417V252.417C579.103 252.417 579.997 253.435 579.862 254.582L575.889 254.113Z" fill="#4D4D4D"/>
<path d="M549.999 249V265.334C549.999 265.886 550.446 266.334 550.999 266.334H557.999" stroke="#4D4D4D" stroke-width="4" stroke-linecap="round"/>
<path d="M563.999 249V264.655C563.999 265.412 564.809 265.895 565.475 265.534L571.998 262" stroke="#4D4D4D" stroke-width="4" stroke-linecap="round"/>
<path d="M535.999 249V261.405C535.999 261.772 536.2 262.109 536.523 262.284L543.999 266.334" stroke="#4D4D4D" stroke-width="4" stroke-linecap="round"/>
<path d="M454 341.084L530.999 279.334" stroke="#4D4D4D" stroke-width="4" stroke-linecap="round"/>
<path d="M577.998 279.334L653.997 341.084" stroke="#4D4D4D" stroke-width="4"/>
<ellipse cx="493.999" cy="396.75" rx="7.99991" ry="8" fill="white" stroke="#4D4D4D" stroke-width="4"/>
<ellipse cx="613.998" cy="396.75" rx="7.99991" ry="8" fill="white" stroke="#4D4D4D" stroke-width="4"/>
<line x1="494" y1="411.333" x2="494" y2="433.333" stroke="#4D4D4D" stroke-width="4" stroke-linecap="round"/>
<rect width="39.9995" height="43.3333" fill="black" fill-opacity="0" transform="translate(472 436.417)"/>
<rect x="472" y="436.417" width="39.9995" height="43.3333" rx="1" fill="white" stroke="#4D4D4D" stroke-width="4"/>
<rect width="18.9998" height="13" fill="black" fill-opacity="0" transform="translate(478 459.167)"/>
<path d="M478 472.167H492.709" stroke="#4D4D4D" stroke-width="4" stroke-linecap="round"/>
<path d="M482.29 465.017H496.999" stroke="#4D4D4D" stroke-width="4" stroke-linecap="round"/>
<path d="M487.806 471.517V466.317" stroke="#4D4D4D" stroke-width="4"/>
<path d="M492.096 464.367V459.167" stroke="#4D4D4D" stroke-width="4" stroke-linecap="round"/>
<path d="M479 446.167H502.999" stroke="#4D4D4D" stroke-width="4" stroke-linecap="round"/>
<rect x="596" y="436.42" width="40" height="43.33" rx="1" fill="white" stroke="#4D4D4D" stroke-width="4"/>
<rect width="23.9997" height="0" fill="black" fill-opacity="0" transform="translate(603.998 446.167)"/>
<path d="M603.998 446.167H627.998" stroke="#4D4D4D" stroke-width="4" stroke-linecap="round"/>
<rect width="18.9998" height="13" fill="black" fill-opacity="0" transform="translate(470 351.917)"/>
<path d="M470 364.917H484.709" stroke="#4D4D4D" stroke-width="4" stroke-linecap="round"/>
<path d="M474.29 357.767H489" stroke="#4D4D4D" stroke-width="4" stroke-linecap="round"/>
<path d="M479.806 364.267V359.067" stroke="#4D4D4D" stroke-width="4"/>
<path d="M484.096 357.117V351.917" stroke="#4D4D4D" stroke-width="4" stroke-linecap="round"/>
<rect width="18.9998" height="13" fill="black" fill-opacity="0" transform="translate(628.998 407.167)"/>
<path d="M628.998 420.167H643.707" stroke="#4D4D4D" stroke-width="4" stroke-linecap="round"/>
<path d="M633.288 413.017H647.998" stroke="#4D4D4D" stroke-width="4" stroke-linecap="round"/>
<path d="M638.804 419.517V414.317" stroke="#4D4D4D" stroke-width="4"/>
<path d="M643.094 412.367V407.167" stroke="#4D4D4D" stroke-width="4" stroke-linecap="round"/>
<rect width="40.0244" height="60.6667" fill="black" fill-opacity="0" transform="translate(514.389 171)"/>
<path d="M553.999 231.667V197" stroke="#4D4D4D" stroke-width="4"/>
<path fill-rule="evenodd" clip-rule="evenodd" d="M554.413 172C554.413 171.448 553.965 171 553.413 171H531.398C530.846 171 530.398 171.448 530.398 172V175.977C530.398 176.529 529.951 176.977 529.398 176.977H515.389C514.836 176.977 514.389 177.425 514.389 177.977V204.667C514.389 205.219 514.836 205.667 515.389 205.667H537.403C537.956 205.667 538.403 205.219 538.403 204.667V200.69C538.403 200.138 538.851 199.69 539.403 199.69H553.413C553.965 199.69 554.413 199.242 554.413 198.69V172Z" fill="#F2463A"/>
<path d="M531.398 173H553.413V169H531.398V173ZM532.398 175.977V172H528.398V175.977H532.398ZM515.389 178.977H529.398V174.977H515.389V178.977ZM516.389 204.667V177.977H512.389V204.667H516.389ZM537.403 203.667H515.389V207.667H537.403V203.667ZM536.403 200.69V204.667H540.403V200.69H536.403ZM553.413 197.69H539.403V201.69H553.413V197.69ZM552.413 172V198.69H556.413V172H552.413ZM553.413 201.69C555.07 201.69 556.413 200.347 556.413 198.69H552.413C552.413 198.138 552.861 197.69 553.413 197.69V201.69ZM540.403 200.69C540.403 201.242 539.956 201.69 539.403 201.69V197.69C537.746 197.69 536.403 199.033 536.403 200.69H540.403ZM537.403 207.667C539.06 207.667 540.403 206.324 540.403 204.667H536.403C536.403 204.115 536.851 203.667 537.403 203.667V207.667ZM512.389 204.667C512.389 206.324 513.732 207.667 515.389 207.667V203.667C515.941 203.667 516.389 204.115 516.389 204.667H512.389ZM515.389 174.977C513.732 174.977 512.389 176.32 512.389 177.977H516.389C516.389 178.529 515.941 178.977 515.389 178.977V174.977ZM528.398 175.977C528.398 175.425 528.846 174.977 529.398 174.977V178.977C531.055 178.977 532.398 177.634 532.398 175.977H528.398ZM553.413 173C552.861 173 552.413 172.552 552.413 172H556.413C556.413 170.343 555.07 169 553.413 169V173ZM531.398 169C529.742 169 528.398 170.343 528.398 172H532.398C532.398 172.552 531.951 173 531.398 173V169Z" fill="#4D4D4D"/>
<rect width="7.99971" height="43.3333" fill="black" fill-opacity="0" transform="translate(523.999 406.083)"/>
<path d="M523.999 406.083V449.417" stroke="#4D4D4D" stroke-width="4" stroke-linecap="round"/>
<path d="M531.999 406.083V449.417" stroke="#4D4D4D" stroke-width="4" stroke-linecap="round"/>
<rect width="7.99991" height="43.3333" fill="black" fill-opacity="0" transform="translate(575.999 406.083)"/>
<path d="M575.999 406.083V449.417" stroke="#4D4D4D" stroke-width="4" stroke-linecap="round"/>
<path d="M583.998 406.083V449.417" stroke="#4D4D4D" stroke-width="4" stroke-linecap="round"/>
<rect width="88.0114" height="216.009" fill="black" fill-opacity="0" transform="translate(954 269)"/>
<rect width="21.3543" height="216.009" fill="black" fill-opacity="0" transform="translate(1020.66 269)"/>
<rect x="1027.42" y="301.857" width="7.83131" height="183.152" rx="1" fill="white" stroke="#4D4D4D" stroke-width="4"/>
<rect width="73.4185" height="53.7512" fill="black" fill-opacity="0" transform="translate(954 306.834)"/>
<path d="M1027.42 322.76L982.577 308.159C973.022 305.536 967.205 307.373 965.126 308.833C964.89 308.999 964.768 309.277 964.768 309.566V313.873" stroke="#4D4D4D" stroke-width="4"/>
<rect width="23.4939" height="47.7788" fill="black" fill-opacity="0" transform="translate(954 312.807)"/>
<rect x="954" y="312.807" width="23.4939" height="47.7788" rx="1" stroke="#4D4D4D" stroke-width="4"/>
<ellipse cx="965.747" cy="323.756" rx="3.91566" ry="3.98157" stroke="#4D4D4D" stroke-width="4"/>
<ellipse cx="965.747" cy="336.696" rx="3.91566" ry="3.98157" stroke="#4D4D4D" stroke-width="4"/>
<ellipse cx="965.747" cy="349.636" rx="3.91566" ry="3.98157" stroke="#4D4D4D" stroke-width="4"/>
</svg>
