<svg width="575" height="400" viewBox="0 0 575 400" fill="none" xmlns="http://www.w3.org/2000/svg">
<rect width="571" height="398" fill="black" fill-opacity="0" transform="translate(2 2)"/>
<path fill-rule="evenodd" clip-rule="evenodd" d="M286.744 278H270.612V310.582H242.38V280.55H228.264L228.265 301.496H210.116L210.116 288.606H196V300.885H178.18V292.828H152.08V292.767H143.997V302.863H111.667V292.767H103.744V279H87.6116V311.582H59.3801V281.55H45.2644L45.2646 302.496H27.116L27.1157 289.606H13V346H27.1157L45.2646 346L59.3801 346L87.6116 346H103.585H103.744L151.965 346L152.08 346H177.851L178.18 346L196 346V345H210.116L228.265 345L242.38 345L270.612 345H286.585H286.744L334.965 345L335.08 345H360.851L361.18 345L379 345V343H407V320H379V299.885H361.18V291.828H335.08V291.767H326.997V301.863H294.667V291.767H286.744V278Z" fill="#F4F4F4"/>
<path d="M2 346H573" stroke="#4D4D4D" stroke-width="4" stroke-linecap="round"/>
<rect width="20" height="11" fill="black" fill-opacity="0" transform="translate(204 230)"/>
<path d="M207.519 230.371C207.708 230.136 207.994 230 208.296 230H216.889C217.19 230 217.476 230.136 217.666 230.371L220.884 234.344C221.074 234.579 221.36 234.715 221.661 234.715H223C223.552 234.715 224 235.163 224 235.715V238.429C224 238.981 223.552 239.429 223 239.429H205C204.448 239.429 204 238.981 204 238.429V235.069C204 234.84 204.079 234.618 204.223 234.44L207.519 230.371Z" fill="#F2463A"/>
<path d="M208.411 230.589L205.882 234.518H211.882V230.589H208.411Z" fill="#F4F4F4"/>
<path d="M216.616 230.589L219.294 234.518H212.941V230.589H216.616Z" fill="#F4F4F4"/>
<ellipse cx="208.353" cy="239.036" rx="2" ry="1.96429" fill="#202020"/>
<ellipse cx="218.706" cy="239.036" rx="2" ry="1.96429" fill="#202020"/>
<rect width="571" height="216" fill="black" fill-opacity="0" transform="translate(2 170)"/>
<rect width="568" height="144" fill="black" fill-opacity="0" transform="translate(2 242)"/>
<path d="M2 242H570M570 266H2" stroke="#4D4D4D" stroke-width="4" stroke-linecap="round"/>
<rect width="64" height="120" fill="black" fill-opacity="0" transform="translate(89 266)"/>
<path d="M101.705 266.894C101.759 266.386 102.188 266 102.699 266H139.301C139.812 266 140.241 266.386 140.295 266.894L152.882 384.894C152.945 385.485 152.482 386 151.888 386H90.1123C89.5181 386 89.055 385.485 89.118 384.894L101.705 266.894Z" fill="white" stroke="#4D4D4D" stroke-width="4"/>
<rect width="18.9999" height="11.9197" fill="black" fill-opacity="0" transform="translate(97 364)"/>
<path d="M97 375.92H111.71" stroke="#4D4D4D" stroke-width="4" stroke-linecap="round"/>
<path d="M101.29 369.364H116" stroke="#4D4D4D" stroke-width="4" stroke-linecap="round"/>
<path d="M106.806 375.324V370.556" stroke="#4D4D4D" stroke-width="4"/>
<path d="M111.097 368.768V364" stroke="#4D4D4D" stroke-width="4" stroke-linecap="round"/>
<path d="M93 356.5H151" stroke="#4D4D4D" stroke-width="4"/>
<path d="M97 289H145" stroke="#4D4D4D" stroke-width="4" stroke-linecap="round"/>
<path d="M93 302H149" stroke="#4D4D4D" stroke-width="4" stroke-linecap="round"/>
<rect width="64" height="120" fill="black" fill-opacity="0" transform="translate(419 266)"/>
<path d="M431.705 266.894C431.759 266.386 432.188 266 432.699 266H469.301C469.812 266 470.241 266.386 470.295 266.894L482.882 384.894C482.945 385.485 482.482 386 481.888 386H420.112C419.518 386 419.055 385.485 419.118 384.894L431.705 266.894Z" fill="white" stroke="#4D4D4D" stroke-width="4"/>
<rect width="18.9999" height="11.9197" fill="black" fill-opacity="0" transform="translate(456 363)"/>
<path d="M456 374.92H470.71" stroke="#4D4D4D" stroke-width="4" stroke-linecap="round"/>
<path d="M460.29 368.364H475" stroke="#4D4D4D" stroke-width="4" stroke-linecap="round"/>
<path d="M465.806 374.324V369.556" stroke="#4D4D4D" stroke-width="4"/>
<path d="M470.097 367.768V363" stroke="#4D4D4D" stroke-width="4" stroke-linecap="round"/>
<path d="M428.5 369H436.5" stroke="#4D4D4D" stroke-width="4" stroke-linecap="round"/>
<path d="M423 356.5H481" stroke="#4D4D4D" stroke-width="4"/>
<path d="M427 289H475" stroke="#4D4D4D" stroke-width="4" stroke-linecap="round"/>
<path d="M423 302H479" stroke="#4D4D4D" stroke-width="4" stroke-linecap="round"/>
<path d="M3.5 273.5H568.5" stroke="#4D4D4D" stroke-width="4" stroke-linecap="round"/>
<rect width="570.5" height="72.4442" fill="black" fill-opacity="0" transform="translate(2.5 170)"/>
<rect width="570.5" height="72" fill="black" fill-opacity="0" transform="translate(2.5 170)"/>
<path d="M2.5 228.5C2.5 228.5 57 230 108.5 178C196 229 259.5 225.5 280 225.5C300.5 225.5 360.5 231 443 178C512 224.5 573 225.5 573 225.5" stroke="#4D4D4D" stroke-width="4" stroke-linecap="round"/>
<line x1="108" y1="240" x2="108" y2="172" stroke="#4D4D4D" stroke-width="4" stroke-linecap="round"/>
<line x1="442" y1="240" x2="442" y2="172" stroke="#4D4D4D" stroke-width="4" stroke-linecap="round"/>
<rect width="552.5" height="62.4442" fill="black" fill-opacity="0" transform="translate(12.5 180)"/>
<path fill-rule="evenodd" clip-rule="evenodd" d="M126.234 216.5L107.931 185.002L89.0325 216.5H126.234ZM125.739 220.5L107.569 239.103L110.431 241.897L131.431 220.397L132.493 219.31L131.729 217.995L110.229 180.995L106.771 183.005L107.357 184.014L104.785 182.471L83.7849 217.471L82.9912 218.794L84.0693 219.897L105.069 241.397L107.931 238.603L90.2493 220.5H125.739Z" fill="#4D4D4D"/>
<path fill-rule="evenodd" clip-rule="evenodd" d="M463.133 216.524L443.092 182.664L423.917 216.524H463.133ZM462.48 220.524H425.125L442.76 239.418L462.48 220.524ZM439.702 180.533L442.904 182.346L442.721 182.037L446.163 180L468.658 218.006L469.466 219.371L468.321 220.469L445.384 242.444L442.82 239.768L440.038 242.365L419.038 219.865L418.036 218.792L418.76 217.515L439.702 180.533Z" fill="#4D4D4D"/>
<path d="M81.49 218.194L60.9128 215.063C60.6487 215.023 60.3794 215.09 60.1651 215.249L38.5253 231.364C37.8794 231.845 38.0379 232.853 38.8003 233.113L59.9253 240.304C60.2784 240.425 60.6691 240.338 60.9387 240.08L82.0307 219.905C82.6306 219.332 82.3106 218.319 81.49 218.194Z" stroke="#4D4D4D" stroke-width="4"/>
<path d="M177.149 226.075L155.596 202.648C155.255 202.277 154.692 202.218 154.282 202.509L132.07 218.242C131.531 218.624 131.504 219.413 132.014 219.831L155.469 239.065C155.789 239.327 156.237 239.365 156.597 239.161L176.907 227.621C177.466 227.303 177.584 226.548 177.149 226.075Z" stroke="#4D4D4D" stroke-width="4"/>
<path d="M225.4 230.991L204.439 217.777C204.164 217.603 203.821 217.574 203.521 217.7L181.821 226.741C181.065 227.056 180.988 228.097 181.689 228.52L203.558 241.733C203.835 241.9 204.177 241.923 204.474 241.794L225.265 232.754C226.002 232.434 226.079 231.42 225.4 230.991Z" stroke="#4D4D4D" stroke-width="4"/>
<path d="M272.646 232.968L252.297 225.607C252.104 225.537 251.894 225.529 251.695 225.583L230.996 231.188C230.059 231.442 229.997 232.749 230.907 233.09L251.685 240.882C251.89 240.959 252.113 240.966 252.322 240.904L272.591 234.866C273.516 234.591 273.553 233.296 272.646 232.968Z" stroke="#4D4D4D" stroke-width="4"/>
<path d="M321.477 232.575L300.296 226.091C300.103 226.032 299.897 226.032 299.705 226.092L278.956 232.576C278.03 232.866 278.017 234.172 278.938 234.479L299.687 241.396C299.89 241.463 300.11 241.464 300.314 241.398L321.495 234.481C322.423 234.178 322.411 232.86 321.477 232.575Z" stroke="#4D4D4D" stroke-width="4"/>
<path d="M370.713 227.768L348.406 220.63C348.147 220.547 347.865 220.573 347.625 220.703L326.028 232.401C325.259 232.818 325.358 233.953 326.188 234.229L347.598 241.366C347.855 241.452 348.136 241.429 348.376 241.305L370.87 229.608C371.658 229.198 371.56 228.039 370.713 227.768Z" stroke="#4D4D4D" stroke-width="4"/>
<path d="M419.333 217.305L397.642 204.383C397.262 204.156 396.777 204.207 396.451 204.508L371.136 227.948C370.603 228.442 370.757 229.32 371.426 229.603L395.415 239.752C395.772 239.904 396.184 239.835 396.473 239.576L419.489 218.908C419.991 218.457 419.912 217.65 419.333 217.305Z" stroke="#4D4D4D" stroke-width="4"/>
<path d="M515.043 226.082L492.562 204.539C492.231 204.222 491.728 204.17 491.34 204.412L469.115 218.303C468.554 218.654 468.482 219.442 468.969 219.888L491.457 240.502C491.78 240.798 492.258 240.85 492.636 240.629L514.855 227.668C515.428 227.333 515.522 226.542 515.043 226.082Z" stroke="#4D4D4D" stroke-width="4"/>
<path d="M562.831 233.785L540.351 221.197C540.126 221.071 539.86 221.036 539.61 221.102L519.233 226.417C518.386 226.638 518.212 227.764 518.952 228.231L539.634 241.269C539.868 241.416 540.152 241.461 540.419 241.391L562.594 235.626C563.466 235.399 563.617 234.225 562.831 233.785Z" stroke="#4D4D4D" stroke-width="4"/>
<path d="M12.5 229L35.5 232.5L12.5 239.5" stroke="#4D4D4D" stroke-width="4"/>
<rect width="552" height="51" fill="black" fill-opacity="0" transform="translate(12 192)"/>
<line x1="132" y1="241" x2="132" y2="194" stroke="#4D4D4D" stroke-width="4" stroke-linecap="round"/>
<path d="M156 241.634V202.929" stroke="#4D4D4D" stroke-width="4" stroke-linecap="round"/>
<path d="M84 241.179L84 201.107" stroke="#4D4D4D" stroke-width="4" stroke-linecap="round"/>
<path d="M60 241.634L60 215.223" stroke="#4D4D4D" stroke-width="4" stroke-linecap="round"/>
<path d="M36 241.634L36 222.509" stroke="#4D4D4D" stroke-width="4" stroke-linecap="round"/>
<path d="M12 241.634L12 227.518" stroke="#4D4D4D" stroke-width="4" stroke-linecap="round"/>
<path d="M180 241.179V210.214" stroke="#4D4D4D" stroke-width="4" stroke-linecap="round"/>
<path d="M204 241.634V217.5" stroke="#4D4D4D" stroke-width="4" stroke-linecap="round"/>
<path d="M228 241.634V222.964" stroke="#4D4D4D" stroke-width="4" stroke-linecap="round"/>
<path d="M252 241.634V224.786" stroke="#4D4D4D" stroke-width="4" stroke-linecap="round"/>
<path d="M276 241.634V224.786" stroke="#4D4D4D" stroke-width="4" stroke-linecap="round"/>
<path d="M300 241.634V224.786" stroke="#4D4D4D" stroke-width="4" stroke-linecap="round"/>
<path d="M324 241.634V222.964" stroke="#4D4D4D" stroke-width="4" stroke-linecap="round"/>
<path d="M348 241.634V219.777" stroke="#4D4D4D" stroke-width="4" stroke-linecap="round"/>
<path d="M372 241.634V213.402" stroke="#4D4D4D" stroke-width="4" stroke-linecap="round"/>
<path d="M396 241.634V204.295" stroke="#4D4D4D" stroke-width="4" stroke-linecap="round"/>
<path d="M420 241.634V193.366" stroke="#4D4D4D" stroke-width="4" stroke-linecap="round"/>
<path d="M468 241.634V193.366" stroke="#4D4D4D" stroke-width="4" stroke-linecap="round"/>
<path d="M492 241.634V203.839" stroke="#4D4D4D" stroke-width="4" stroke-linecap="round"/>
<path d="M516 241.634V213.402" stroke="#4D4D4D" stroke-width="4" stroke-linecap="round"/>
<path d="M540 241.634V220.232" stroke="#4D4D4D" stroke-width="4" stroke-linecap="round"/>
<path d="M564 241.634V224.33" stroke="#4D4D4D" stroke-width="4" stroke-linecap="round"/>
<rect width="568" height="44" fill="black" fill-opacity="0" transform="translate(4 356)"/>
<rect width="56" height="20.5" fill="black" fill-opacity="0" transform="translate(179 379.5) scale(-1 1)"/>
<path d="M161.5 380C162.184 383.446 166.803 388.923 179 388.923L177.827 397.415L123 400L124.466 390.031C128.082 390.4 135.5 387.976 135.5 380C136.38 382.954 140.589 389.384 148.801 390.031C153.492 390.4 161.5 388.271 161.5 380Z" fill="white"/>
<path d="M178.414 388.185C166.217 388.185 162.184 383.446 161.5 380C161.5 388.271 152.906 389.662 148.215 389.292C140.002 388.646 135.88 382.454 135 379.5C135 387.475 127.496 389.662 123.88 389.292" stroke="#4D4D4D" stroke-width="4" stroke-linecap="round"/>
<path d="M219 364.319C229.735 364.319 233.624 360.179 234.226 358.109C234.226 363.077 241.452 365.206 245.581 364.984C252.809 364.596 256.677 358.774 257.452 357C257.452 361.791 263.817 365.206 267 364.984" stroke="#4D4D4D" stroke-width="4" stroke-linecap="round"/>
<path d="M4 363.319C14.7355 363.319 18.6237 359.179 19.2258 357.109C19.2258 362.077 26.4516 364.206 30.5806 363.984C37.8091 363.596 41.6774 357.774 42.4516 356C42.4516 360.791 48.8172 364.206 52 363.984" stroke="#4D4D4D" stroke-width="4" stroke-linecap="round"/>
<path d="M503 397.319C513.735 397.319 517.624 393.179 518.226 391.109C518.226 396.077 525.452 398.206 529.581 397.984C536.809 397.596 540.677 391.774 541.452 390C541.452 394.791 547.817 398.206 551 397.984" stroke="#4D4D4D" stroke-width="4" stroke-linecap="round"/>
<path d="M305 382H337" stroke="#4D4D4D" stroke-width="4" stroke-linecap="round"/>
<path d="M540 368H572" stroke="#4D4D4D" stroke-width="4" stroke-linecap="round"/>
<rect width="570" height="176.38" fill="black" fill-opacity="0" transform="translate(3 2)"/>
<path d="M287 70.3401C287 69.2355 286.105 68.3401 285 68.3401C283.895 68.3401 283 69.2355 283 70.3401H287ZM347.817 70.3401L347.865 72.3395L349.817 72.2931V70.3401H347.817ZM448.226 70.3401H446.226V72.3401H448.226V70.3401ZM469 72.3401C470.105 72.3401 471 71.4447 471 70.3401C471 69.2355 470.105 68.3401 469 68.3401V72.3401ZM283 70.3401C283 71.157 283.46 71.677 283.71 71.8971C283.961 72.1176 284.213 72.2345 284.343 72.2892C284.617 72.405 284.899 72.4681 285.095 72.506C285.52 72.5884 286.071 72.6488 286.682 72.6974C287.927 72.7964 289.691 72.8662 291.826 72.9138C296.109 73.0094 302.022 73.0186 308.57 72.975C321.672 72.8877 337.389 72.5887 347.865 72.3395L347.77 68.3407C337.306 68.5895 321.614 68.888 308.543 68.9751C302.004 69.0186 296.139 69.0091 291.915 68.9148C289.797 68.8676 288.126 68.7996 286.999 68.71C286.424 68.6642 286.054 68.6175 285.856 68.579C285.74 68.5565 285.784 68.5557 285.899 68.6041C285.948 68.6251 286.14 68.7074 286.351 68.8924C286.561 69.077 287 69.5606 287 70.3401H283ZM349.817 70.3401C349.817 54.5825 354.615 45.3667 360.806 40.049C367.057 34.6798 375.055 33 381.946 33V29C374.493 29 365.427 30.8061 358.199 37.0148C350.912 43.275 345.817 53.7293 345.817 70.3401H349.817ZM381.946 33C392.496 33 401.376 39.1468 407.71 47.1009C414.077 55.0962 417.538 64.5047 417.538 70.3401H421.538C421.538 63.3354 417.579 53.0738 410.839 44.6091C404.065 36.1032 394.149 29 381.946 29V33ZM421.538 70.3401C421.538 68.2249 422.689 66.6924 424.895 65.6192C427.178 64.5088 430.394 64.0304 433.777 64.2073C437.147 64.3835 440.439 65.1975 442.819 66.438C445.292 67.727 446.226 69.1452 446.226 70.3401H450.226C450.226 66.865 447.574 64.4056 444.668 62.8909C441.668 61.3275 437.788 60.4116 433.986 60.2128C430.198 60.0147 426.241 60.5162 423.145 62.0221C419.973 63.5652 417.538 66.2852 417.538 70.3401H421.538ZM448.226 72.3401H469V68.3401H448.226V72.3401Z" fill="#F4F4F4"/>
<path d="M107 105H155" stroke="#F4F4F4" stroke-width="4" stroke-linecap="round"/>
<path d="M45 2H93" stroke="#F4F4F4" stroke-width="4" stroke-linecap="round"/>
<path d="M436 155.143C436 137.643 465.5 139.643 465.5 157.38C465.5 145.143 480.5 147.643 480.5 157.38" stroke="#F4F4F4" stroke-width="4" stroke-linecap="round"/>
<path d="M3 176.143C3 158.643 32.5 160.643 32.5 178.38C32.5 166.143 47.5 168.643 47.5 178.38" stroke="#F4F4F4" stroke-width="4" stroke-linecap="round"/>
<path d="M477 112H525" stroke="#F4F4F4" stroke-width="4" stroke-linecap="round"/>
<path d="M525 24H573" stroke="#F4F4F4" stroke-width="4" stroke-linecap="round"/>
<path d="M159 36.1431C159 18.6431 188.5 20.6431 188.5 38.3795C188.5 26.1431 203.5 28.6431 203.5 38.3795" stroke="#F4F4F4" stroke-width="4" stroke-linecap="round"/>
<path d="M225 148.143C225 130.643 254.5 132.643 254.5 150.38C254.5 138.143 269.5 140.643 269.5 150.38" stroke="#F4F4F4" stroke-width="4" stroke-linecap="round"/>
</svg>
