<svg width="1578" height="451" viewBox="0 0 1578 451" fill="none" xmlns="http://www.w3.org/2000/svg">
<path d="M0 0.999991C0 0.447707 0.447715 0 1 0H1576C1576.55 0 1577 0.447715 1577 1V168.052C1577 168.537 1576.65 168.952 1576.18 169.037L1.17571 450.29C0.562777 450.4 0 449.928 0 449.306V0.999991Z" transform="translate(1 0.5)" fill="#F4F4F4"/>
<line y1="-2" x2="1600" y2="-2" transform="translate(1 450.837) rotate(-10)" stroke="#4D4D4D" stroke-width="4"/>
<path d="M2 5.24998C2 4.40424 2.43501 3.66582 3.50774 3.04006C4.62418 2.38881 6.25179 2.00001 8 2.00001C9.74821 2 11.3758 2.3888 12.4923 3.04006C13.565 3.66581 14 4.40423 14 5.24998V232.59L2 234.84V5.24998Z" transform="translate(301.299 163.75)" fill="white" stroke="#4D4D4D" stroke-width="4"/>
<path fill-rule="evenodd" clip-rule="evenodd" d="M0 0C0 6.62744 5.37256 12 12 12C18.6274 12 24 6.62744 24 0H0Z" transform="translate(297.299 271)" fill="white" stroke="#4D4D4D" stroke-width="4"/>
<path fill-rule="evenodd" clip-rule="evenodd" d="M13.9117 8C21.0555 8 26.9496 4.9425 27.805 0.992525C27.9219 0.452751 27.464 0 26.9117 0H0.911679C0.359394 0 -0.0985197 0.452752 0.0183671 0.992526C0.873725 4.9425 6.76788 8 13.9117 8Z" transform="translate(323.299 270) rotate(-180)" fill="#4D4D4D" stroke="#4D4D4D" stroke-width="4"/>
<rect width="24" height="32" rx="1" transform="translate(311.299 202)" fill="white" stroke="#4D4D4D" stroke-width="4"/>
<path d="M2 4.7355C2 4.16735 2.31191 3.54281 3.43129 2.95383C4.56562 2.35698 6.22238 2.00001 8 2C9.77763 2 11.4344 2.35697 12.5687 2.95382C13.6881 3.5428 14 4.16734 14 4.7355V209.604L2 211.633V4.7355Z" transform="translate(1202.3 28)" fill="white" stroke="#4D4D4D" stroke-width="4"/>
<path fill-rule="evenodd" clip-rule="evenodd" d="M0 0C0 6.62744 5.37256 12 12 12C18.6274 12 24 6.62744 24 0H0Z" transform="translate(1198.12 112.25)" fill="white" stroke="#4D4D4D" stroke-width="4"/>
<path fill-rule="evenodd" clip-rule="evenodd" d="M13.9117 8C21.0555 8 26.9496 4.9425 27.805 0.992525C27.9219 0.452751 27.464 0 26.9117 0H0.911679C0.359394 0 -0.0985197 0.452752 0.0183671 0.992526C0.873725 4.9425 6.76788 8 13.9117 8Z" transform="translate(1224.12 111.25) rotate(-180)" fill="#4D4D4D" stroke="#4D4D4D" stroke-width="4"/>
<rect width="24" height="32" rx="1" transform="translate(1212.12 43.25)" fill="white" stroke="#4D4D4D" stroke-width="4"/>
<path d="M0 130C366 171 602 130 887 0" transform="translate(316.799 66)" stroke="#4D4D4D" stroke-width="4"/>
<path d="M0 131.5C108 195.5 818.5 78.5 886.5 0" transform="translate(316.799 67)" stroke="#4D4D4D" stroke-width="4"/>
<path fill-rule="evenodd" clip-rule="evenodd" d="M103.971 35.7834C103.965 35.7834 103.959 35.7816 103.954 35.7782L52.5695 0.178005C52.2269 -0.0593355 51.7731 -0.0593349 51.4305 0.178006L0.0461249 35.7782C0.0412084 35.7816 0.0353696 35.7834 0.0293884 35.7834V35.7834C0.0131576 35.7834 0 35.7966 0 35.8128V114.783C0 115.336 0.447713 115.783 0.999998 115.783H103C103.552 115.783 104 115.336 104 114.783V35.8128C104 35.7966 103.987 35.7834 103.971 35.7834V35.7834Z" transform="translate(1023.3 53)" fill="white" stroke="#4D4D4D" stroke-width="4"/>
<path d="M0 0H104V85.3731L0 104V0Z" transform="translate(1023.3 168.783)" fill="white" stroke="#4D4D4D" stroke-width="4"/>
<path d="M0 0H14.7097" transform="translate(1034.3 244.703)" stroke="#4D4D4D" stroke-width="4" stroke-linecap="round"/>
<path d="M0 0H14.7097" transform="translate(1038.59 238.147)" stroke="#4D4D4D" stroke-width="4" stroke-linecap="round"/>
<path d="M0 4.76788V0" transform="translate(1044.11 239.339)" stroke="#4D4D4D" stroke-width="4"/>
<path d="M0 4.76788V0" transform="translate(1048.4 232.783)" stroke="#4D4D4D" stroke-width="4" stroke-linecap="round"/>
<path d="M0 0H14.7097" transform="translate(1098.3 198.703)" stroke="#4D4D4D" stroke-width="4" stroke-linecap="round"/>
<path d="M0 0H14.7097" transform="translate(1102.59 192.147)" stroke="#4D4D4D" stroke-width="4" stroke-linecap="round"/>
<path d="M0 4.76788V0" transform="translate(1108.11 193.339)" stroke="#4D4D4D" stroke-width="4"/>
<path d="M0 4.76788V0" transform="translate(1112.4 186.783)" stroke="#4D4D4D" stroke-width="4" stroke-linecap="round"/>
<path d="M0 0H14.7097" transform="translate(1044.3 112.92)" stroke="#4D4D4D" stroke-width="4" stroke-linecap="round"/>
<path d="M0 0H14.7097" transform="translate(1048.59 106.364)" stroke="#4D4D4D" stroke-width="4" stroke-linecap="round"/>
<path d="M0 4.76788V0" transform="translate(1054.11 107.556)" stroke="#4D4D4D" stroke-width="4"/>
<path d="M0 4.76788V0" transform="translate(1058.4 101)" stroke="#4D4D4D" stroke-width="4" stroke-linecap="round"/>
<rect width="8" height="8" rx="1" transform="translate(1070.3 135.783)" stroke="#4D4D4D" stroke-width="4"/>
<rect width="24" height="40" rx="1" transform="translate(1062.3 128.783)" stroke="#4D4D4D" stroke-width="4"/>
<path d="M0 0V95.3575" transform="translate(1071.8 164.783)" stroke="#4D4D4D" stroke-width="4" stroke-linecap="round"/>
<path d="M10 0C6.00002 3.97323 -0.000109145 5.9014 1.48906e-09 18.8728C0.000125372 33.7725 28 40.229 40 52.1487C52 64.0683 51.5 72.0148 50.5 82.4445" transform="translate(1049.3 177.2)" stroke="#4D4D4D" stroke-width="4" stroke-linecap="round"/>
<path d="M0 0H16M0 0H16" transform="translate(1064.3 178.69)" stroke="#4D4D4D" stroke-width="4" stroke-linecap="round"/>
<path d="M0 0H16M0 0H16" transform="translate(1057.8 186.636)" stroke="#4D4D4D" stroke-width="4" stroke-linecap="round"/>
<path d="M0 0H16M0 0H16" transform="translate(1054.8 194.583)" stroke="#4D4D4D" stroke-width="4" stroke-linecap="round"/>
<path d="M0 0H16M0 0H16" transform="translate(1056.8 202.529)" stroke="#4D4D4D" stroke-width="4" stroke-linecap="round"/>
<path d="M0 0H16M0 0H16" transform="translate(1077.8 259.148)" stroke="#4D4D4D" stroke-width="4" stroke-linecap="round"/>
<path d="M0 0H16M0 0H16" transform="translate(1079.8 251.201)" stroke="#4D4D4D" stroke-width="4" stroke-linecap="round"/>
<path d="M0 0H12M0 0H12" transform="translate(1080.8 243.255)" stroke="#4D4D4D" stroke-width="4" stroke-linecap="round"/>
<path d="M0 0H12M0 0H12" transform="translate(1077.8 236.302)" stroke="#4D4D4D" stroke-width="4" stroke-linecap="round"/>
<path d="M0 0H7.99999M0 0H7.99999" transform="translate(1075.8 229.349)" stroke="#4D4D4D" stroke-width="4" stroke-linecap="round"/>
<path d="M0 0H7.99999M0 0H7.99999" transform="translate(1062.8 209.482)" stroke="#4D4D4D" stroke-width="4" stroke-linecap="round"/>
<path fill-rule="evenodd" clip-rule="evenodd" d="M22.9621 12C23.5144 12 23.9664 11.5507 23.921 11.0003C23.413 4.84061 18.2529 0 11.9621 0C5.67131 0 0.51115 4.84061 0.00314555 11.0003C-0.0422485 11.5507 0.409812 12 0.962097 12H22.9621Z" transform="translate(1062.3 70)" stroke="#4D4D4D" stroke-width="4"/>
<path d="M0 12.5687C21.3971 -4.93128 85.5885 -3.43119 104 12.5687" transform="translate(1023.3 88)" stroke="#4D4D4D" stroke-width="4" stroke-linecap="round"/>
<rect width="8" height="24" rx="1" transform="translate(1032.3 129)" stroke="#4D4D4D" stroke-width="4"/>
<rect width="8" height="24" rx="1" transform="translate(1046.3 129.217)" stroke="#4D4D4D" stroke-width="4"/>
<rect width="8" height="24" rx="1" transform="translate(1094.3 129)" stroke="#4D4D4D" stroke-width="4"/>
<rect width="8" height="24" rx="1" transform="translate(1108.3 129.217)" stroke="#4D4D4D" stroke-width="4"/>
<path d="M0 0H104V47L0 65.5V0Z" transform="translate(919.299 226)" fill="white" stroke="#4D4D4D" stroke-width="4"/>
<path d="M0 0H12.3872" transform="translate(962.299 263)" stroke="#4D4D4D" stroke-width="4" stroke-linecap="round"/>
<path d="M0 0H12.3872" transform="translate(965.912 257.5)" stroke="#4D4D4D" stroke-width="4" stroke-linecap="round"/>
<path d="M0 4V0" transform="translate(970.557 258.5)" stroke="#4D4D4D" stroke-width="4"/>
<path d="M0 4V0" transform="translate(974.17 253)" stroke="#4D4D4D" stroke-width="4" stroke-linecap="round"/>
<path d="M0 0.999999C0 0.447714 0.447715 0 1 0H23C23.5523 0 24 0.447715 24 1V43.1529C24 43.6417 23.6466 44.0589 23.1644 44.1393L1.1644 47.8059C0.554866 47.9075 0 47.4375 0 46.8195V0.999999Z" transform="translate(932.299 241)" stroke="#4D4D4D" stroke-width="4"/>
<circle cx="4" cy="4" r="4" transform="translate(940.299 251)" stroke="#4D4D4D" stroke-width="4"/>
<path d="M0 0H104V88H0V0Z" transform="translate(919.299 138)" fill="white" stroke="#4D4D4D" stroke-width="4"/>
<rect width="8" height="40" rx="1" transform="translate(932.299 180)" stroke="#4D4D4D" stroke-width="4"/>
<rect width="8" height="40" rx="1" transform="translate(1002.3 181)" stroke="#4D4D4D" stroke-width="4"/>
<path fill-rule="evenodd" clip-rule="evenodd" d="M80 8V16C80 16.5523 79.5523 17 79 17H0.999999C0.447714 17 0 16.5523 0 16V8V7.55938C0 7.53683 0.0182765 7.51855 0.0408217 7.51855V7.51855C0.058894 7.51855 0.0745092 7.50752 0.0799288 7.49028C1.39418 3.30941 18.7646 0 40 0C61.2354 0 78.6058 3.30941 79.9201 7.49028C79.9255 7.50752 79.9411 7.51855 79.9592 7.51855V7.51855C79.9817 7.51855 80 7.53683 80 7.55938V8Z" transform="translate(930.299 149)" stroke="#4D4D4D" stroke-width="4"/>
<path d="M0 12.5V0" transform="translate(945.299 152)" stroke="#4D4D4D" stroke-width="4"/>
<path d="M0 12.5V0" transform="translate(995.299 152)" stroke="#4D4D4D" stroke-width="4"/>
<path fill-rule="evenodd" clip-rule="evenodd" d="M2 0H1C0.447715 0 0 0.447715 0 1V2V50V51C0 51.5523 0.447715 52 1 52H2H24H26H28H50H51C51.5523 52 52 51.5523 52 51V50V2V1C52 0.447715 51.5523 0 51 0H50H28H26H24H2ZM24 5C24 4.44771 23.5523 4 23 4H5C4.44772 4 4 4.44772 4 5V47C4 47.5523 4.44772 48 5 48H23C23.5523 48 24 47.5523 24 47V5ZM29 4C28.4477 4 28 4.44772 28 5V47C28 47.5523 28.4477 48 29 48H47C47.5523 48 48 47.5523 48 47V5C48 4.44771 47.5523 4 47 4H29Z" transform="translate(945.299 170)" fill="#4D4D4D"/>
<circle cx="2" cy="2" r="2" transform="translate(962.299 193)" fill="#4D4D4D"/>
<circle cx="2" cy="2" r="2" transform="translate(975.299 193)" fill="#4D4D4D"/>
<line y1="-2" x2="64" y2="-2" transform="translate(919.299 209)" stroke="#4D4D4D" stroke-width="4"/>
<path d="M0 0L15.5 51.5V71.5" transform="translate(981.299 205.5)" stroke="#4D4D4D" stroke-width="4" stroke-linecap="round"/>
<path d="M0 0L14 49.5V68" transform="translate(1007.8 205)" stroke="#4D4D4D" stroke-width="4" stroke-linecap="round"/>
<path d="M18 50L0 0" transform="translate(978.299 226.5)" stroke="#4D4D4D" stroke-width="4"/>
<path d="M0 0H24" transform="translate(986.299 234)" stroke="#4D4D4D" stroke-width="4" stroke-linecap="round"/>
<path d="M0 0H24" transform="translate(989.299 242)" stroke="#4D4D4D" stroke-width="4" stroke-linecap="round"/>
<path d="M0 0H24" transform="translate(992.299 250)" stroke="#4D4D4D" stroke-width="4" stroke-linecap="round"/>
<path d="M0 0H24" transform="translate(994.299 258)" stroke="#4D4D4D" stroke-width="4" stroke-linecap="round"/>
<path d="M0 0H24" transform="translate(994.299 266)" stroke="#4D4D4D" stroke-width="4" stroke-linecap="round"/>
<path d="M0 0.999999C0 0.447714 0.447715 0 1 0H103C103.552 0 104 0.447715 104 1V39C104 39.5523 103.552 40 103 40H0.999998C0.447713 40 0 39.5523 0 39V0.999999Z" transform="translate(919.299 98)" fill="white" stroke="#4D4D4D" stroke-width="4"/>
<path d="M0 0H12.3872" transform="translate(998.299 124)" stroke="#4D4D4D" stroke-width="4" stroke-linecap="round"/>
<path d="M0 0H12.3872" transform="translate(1001.91 118.5)" stroke="#4D4D4D" stroke-width="4" stroke-linecap="round"/>
<path d="M0 4V0" transform="translate(1006.56 119.5)" stroke="#4D4D4D" stroke-width="4"/>
<path d="M0 4V0" transform="translate(1010.17 114)" stroke="#4D4D4D" stroke-width="4" stroke-linecap="round"/>
<path fill-rule="evenodd" clip-rule="evenodd" d="M40.8096 29.2441C41.0272 29.2441 41.1552 28.9996 41.0313 28.8208L21.3619 0.430504C20.9642 -0.143501 20.1156 -0.143501 19.7179 0.430504L0.0484747 28.8208C-0.0754487 28.9996 0.0525672 29.2441 0.270169 29.2441V29.2441C0.419122 29.2441 0.539872 29.3648 0.539872 29.5138V44.2441C0.539872 44.7963 0.987587 45.2441 1.53987 45.2441H39.5399C40.0922 45.2441 40.5399 44.7963 40.5399 44.2441V29.5138C40.5399 29.3648 40.6606 29.2441 40.8096 29.2441V29.2441Z" transform="translate(950.759 82.7558)" fill="white" stroke="#4D4D4D" stroke-width="4"/>
<path fill-rule="evenodd" clip-rule="evenodd" d="M16 8V23C16 23.5523 15.5523 24 15 24H1C0.447715 24 0 23.5523 0 23V8C0 3.58167 3.58154 0 8 0C12.4185 0 16 3.58167 16 8Z" transform="translate(963.299 104)" stroke="#4D4D4D" stroke-width="4"/>
<path d="M0 0H48" transform="translate(947.299 119)" stroke="#4D4D4D" stroke-width="4" stroke-linecap="round"/>
<path d="M0 0V8" transform="translate(957.299 119)" stroke="#4D4D4D" stroke-width="4"/>
<path d="M0 0V8" transform="translate(971.299 119)" stroke="#4D4D4D" stroke-width="4"/>
<path d="M0 0V8" transform="translate(985.299 119)" stroke="#4D4D4D" stroke-width="4"/>
<path d="M0 0H104V69.3731L0 88V0Z" transform="translate(711.299 240)" fill="white" stroke="#4D4D4D" stroke-width="4"/>
<path d="M0 0.999998C0 0.447713 0.447715 0 1 0H103C103.552 0 104 0.447715 104 1V103C104 103.552 103.552 104 103 104H0.999998C0.447713 104 0 103.552 0 103V0.999998Z" transform="translate(711.299 136)" fill="white" stroke="#4D4D4D" stroke-width="4"/>
<path d="M0 0H14.7097" transform="translate(720.299 162.92)" stroke="#4D4D4D" stroke-width="4" stroke-linecap="round"/>
<path d="M0 0H14.7097" transform="translate(724.589 156.364)" stroke="#4D4D4D" stroke-width="4" stroke-linecap="round"/>
<path d="M0 4.76788V0" transform="translate(730.105 157.556)" stroke="#4D4D4D" stroke-width="4"/>
<path d="M0 4.76788V0" transform="translate(734.396 151)" stroke="#4D4D4D" stroke-width="4" stroke-linecap="round"/>
<path d="M0 0H14.7097" transform="translate(790.299 171.92)" stroke="#4D4D4D" stroke-width="4" stroke-linecap="round"/>
<path d="M0 0H14.7097" transform="translate(794.589 165.364)" stroke="#4D4D4D" stroke-width="4" stroke-linecap="round"/>
<path d="M0 4.76788V0" transform="translate(800.105 166.556)" stroke="#4D4D4D" stroke-width="4"/>
<path d="M0 4.76788V0" transform="translate(804.396 160)" stroke="#4D4D4D" stroke-width="4" stroke-linecap="round"/>
<path fill-rule="evenodd" clip-rule="evenodd" d="M16 8V23C16 23.5523 15.5523 24 15 24H1C0.447715 24 0 23.5523 0 23V8C0 3.58167 3.58154 0 8 0C12.4185 0 16 3.58167 16 8Z" transform="translate(755.299 154)" stroke="#4D4D4D" stroke-width="4"/>
<rect width="32" height="32" rx="1" transform="translate(747.299 146)" stroke="#4D4D4D" stroke-width="4"/>
<path d="M19.0989 1.87296C19.4622 1.1177 20.5378 1.1177 20.9011 1.87296L36.6308 34.5664C36.9502 35.2303 36.4664 36 35.7297 36H4.27034C3.53359 36 3.04979 35.2303 3.36921 34.5664L19.0989 1.87296Z" transform="translate(743.299 111)" fill="white" stroke="#4D4D4D" stroke-width="4"/>
<line x1="2" y1="-2" x2="30" y2="-2" transform="translate(747.299 250)" stroke="#4D4D4D" stroke-width="4" stroke-linecap="round"/>
<line x1="2" y1="-2" x2="30" y2="-2" transform="translate(747.299 258)" stroke="#4D4D4D" stroke-width="4" stroke-linecap="round"/>
<line x1="2" y1="-2" x2="30" y2="-2" transform="translate(747.299 266)" stroke="#4D4D4D" stroke-width="4" stroke-linecap="round"/>
<line x1="2" y1="-2" x2="30" y2="-2" transform="translate(747.299 274)" stroke="#4D4D4D" stroke-width="4" stroke-linecap="round"/>
<line x1="2" y1="-2" x2="30" y2="-2" transform="translate(747.299 282)" stroke="#4D4D4D" stroke-width="4" stroke-linecap="round"/>
<line x1="2" y1="-2" x2="30" y2="-2" transform="translate(747.299 290)" stroke="#4D4D4D" stroke-width="4" stroke-linecap="round"/>
<line x1="2" y1="-2" x2="30" y2="-2" transform="translate(747.299 298)" stroke="#4D4D4D" stroke-width="4" stroke-linecap="round"/>
<line x1="2" y1="-2" x2="30" y2="-2" transform="translate(747.299 314)" stroke="#4D4D4D" stroke-width="4" stroke-linecap="round"/>
<line x1="2" y1="-2" x2="30" y2="-2" transform="translate(747.299 306)" stroke="#4D4D4D" stroke-width="4" stroke-linecap="round"/>
<line x1="2" y1="-2" x2="78" y2="-2" transform="translate(742.299 236) rotate(90)" stroke="#4D4D4D" stroke-width="4" stroke-linecap="round"/>
<line x1="2" y1="-2" x2="78" y2="-2" transform="translate(780.299 236.938) rotate(90)" stroke="#4D4D4D" stroke-width="4" stroke-linecap="round"/>
<rect width="24" height="40" rx="1" transform="translate(739.299 192)" stroke="#4D4D4D" stroke-width="4"/>
<rect width="24" height="40" rx="1" transform="translate(763.299 192)" stroke="#4D4D4D" stroke-width="4"/>
<rect width="8" height="24" rx="1" transform="translate(747.299 200)" stroke="#4D4D4D" stroke-width="4"/>
<rect width="8" height="24" rx="1" transform="translate(772.299 200)" stroke="#4D4D4D" stroke-width="4"/>
<rect width="40" height="24" rx="1" transform="translate(712.299 216)" fill="white" stroke="#4D4D4D" stroke-width="4"/>
<line y1="-2" x2="40" y2="-2" transform="translate(711.299 225)" stroke="#4D4D4D" stroke-width="4"/>
<line x1="2" y1="-2" x2="14" y2="-2" transform="translate(718.299 224) rotate(90)" stroke="#4D4D4D" stroke-width="4" stroke-linecap="round"/>
<line x1="2" y1="-2" x2="14" y2="-2" transform="translate(726.299 224) rotate(90)" stroke="#4D4D4D" stroke-width="4" stroke-linecap="round"/>
<line x1="2" y1="-2" x2="14" y2="-2" transform="translate(734.299 224) rotate(90)" stroke="#4D4D4D" stroke-width="4" stroke-linecap="round"/>
<line x1="2" y1="-2" x2="14" y2="-2" transform="translate(742.299 224) rotate(90)" stroke="#4D4D4D" stroke-width="4" stroke-linecap="round"/>
<rect width="40" height="24" rx="1" transform="translate(774.299 216)" fill="white" stroke="#4D4D4D" stroke-width="4"/>
<line y1="-2" x2="40" y2="-2" transform="translate(775.299 225)" stroke="#4D4D4D" stroke-width="4"/>
<line x1="2" y1="-2" x2="14" y2="-2" transform="translate(781.299 224) rotate(90)" stroke="#4D4D4D" stroke-width="4" stroke-linecap="round"/>
<line x1="2" y1="-2" x2="14" y2="-2" transform="translate(789.299 224) rotate(90)" stroke="#4D4D4D" stroke-width="4" stroke-linecap="round"/>
<line x1="2" y1="-2" x2="14" y2="-2" transform="translate(797.299 224) rotate(90)" stroke="#4D4D4D" stroke-width="4" stroke-linecap="round"/>
<line x1="2" y1="-2" x2="14" y2="-2" transform="translate(805.299 224) rotate(90)" stroke="#4D4D4D" stroke-width="4" stroke-linecap="round"/>
<rect width="16" height="32" rx="1" transform="translate(792.299 256)" stroke="#4D4D4D" stroke-width="4"/>
<rect width="16" height="32" rx="1" transform="translate(718.299 256)" stroke="#4D4D4D" stroke-width="4"/>
<path d="M0 0H104V70.1705L0 88V0Z" transform="translate(815.299 221)" fill="white" stroke="#4D4D4D" stroke-width="4"/>
<path fill-rule="evenodd" clip-rule="evenodd" d="M103.971 35.7834C103.965 35.7834 103.959 35.7816 103.954 35.7782L52.5695 0.178005C52.2269 -0.0593355 51.7731 -0.0593349 51.4305 0.178006L0.0461249 35.7782C0.0412084 35.7816 0.0353696 35.7834 0.0293884 35.7834V35.7834C0.0131576 35.7834 0 35.7966 0 35.8128V114.783C0 115.336 0.447713 115.783 0.999998 115.783H103C103.552 115.783 104 115.336 104 114.783V35.8128C104 35.7966 103.987 35.7834 103.971 35.7834V35.7834Z" transform="translate(815.299 105)" fill="white" stroke="#4D4D4D" stroke-width="4"/>
<line x1="2" y1="-2" x2="14" y2="-2" transform="translate(821.299 202) rotate(90)" stroke="#4D4D4D" stroke-width="4" stroke-linecap="round"/>
<line x1="2" y1="-2" x2="14" y2="-2" transform="translate(829.299 202) rotate(90)" stroke="#4D4D4D" stroke-width="4" stroke-linecap="round"/>
<line x1="2" y1="-2" x2="14" y2="-2" transform="translate(837.299 202) rotate(90)" stroke="#4D4D4D" stroke-width="4" stroke-linecap="round"/>
<line x1="2" y1="-2" x2="14" y2="-2" transform="translate(845.299 202) rotate(90)" stroke="#4D4D4D" stroke-width="4" stroke-linecap="round"/>
<line x1="2" y1="-2" x2="14" y2="-2" transform="translate(861.299 202) rotate(90)" stroke="#4D4D4D" stroke-width="4" stroke-linecap="round"/>
<line x1="2" y1="-2" x2="14" y2="-2" transform="translate(869.299 202) rotate(90)" stroke="#4D4D4D" stroke-width="4" stroke-linecap="round"/>
<line x1="2" y1="-2" x2="14" y2="-2" transform="translate(885.299 202) rotate(90)" stroke="#4D4D4D" stroke-width="4" stroke-linecap="round"/>
<line x1="2" y1="-2" x2="14" y2="-2" transform="translate(893.299 202) rotate(90)" stroke="#4D4D4D" stroke-width="4" stroke-linecap="round"/>
<line x1="2" y1="-2" x2="14" y2="-2" transform="translate(901.299 202) rotate(90)" stroke="#4D4D4D" stroke-width="4" stroke-linecap="round"/>
<line x1="2" y1="-2" x2="14" y2="-2" transform="translate(909.299 202) rotate(90)" stroke="#4D4D4D" stroke-width="4" stroke-linecap="round"/>
<rect width="104" height="24" transform="translate(815.299 197)" stroke="#4D4D4D" stroke-width="4"/>
<circle cx="4" cy="4" r="4" transform="translate(831.299 258)" stroke="#4D4D4D" stroke-width="4"/>
<path d="M0 0V7C0 7.55228 0.447715 8 1 8H5.5" transform="translate(835.299 266)" stroke="#4D4D4D" stroke-width="4" stroke-linecap="round"/>
<circle cx="4" cy="4" r="4" transform="translate(896.299 258)" stroke="#4D4D4D" stroke-width="4"/>
<path d="M0 0V7C0 7.55228 0.447715 8 1 8H5.5" transform="translate(900.299 266)" stroke="#4D4D4D" stroke-width="4" stroke-linecap="round"/>
<path d="M0 0H14.7097" transform="translate(884.299 155.92)" stroke="#4D4D4D" stroke-width="4" stroke-linecap="round"/>
<path d="M0 0H14.7097" transform="translate(888.589 149.364)" stroke="#4D4D4D" stroke-width="4" stroke-linecap="round"/>
<path d="M0 4.76788V0" transform="translate(894.105 150.556)" stroke="#4D4D4D" stroke-width="4"/>
<path d="M0 4.76788V0" transform="translate(898.396 144)" stroke="#4D4D4D" stroke-width="4" stroke-linecap="round"/>
<path d="M0 0H14.7097" transform="translate(842.299 250.92)" stroke="#4D4D4D" stroke-width="4" stroke-linecap="round"/>
<path d="M0 0H14.7097" transform="translate(846.589 244.364)" stroke="#4D4D4D" stroke-width="4" stroke-linecap="round"/>
<path d="M0 4.76788V0" transform="translate(852.105 245.556)" stroke="#4D4D4D" stroke-width="4"/>
<path d="M0 4.76788V0" transform="translate(856.396 239)" stroke="#4D4D4D" stroke-width="4" stroke-linecap="round"/>
<rect width="16" height="16" rx="1" transform="translate(831.299 173)" stroke="#4D4D4D" stroke-width="4"/>
<rect width="16" height="16" rx="1" transform="translate(887.299 173)" stroke="#4D4D4D" stroke-width="4"/>
<path fill-rule="evenodd" clip-rule="evenodd" d="M24 12C24 5.37256 18.6274 0 12 0C5.37256 0 0 5.37256 0 12V52H24V12Z" transform="translate(855.299 169)" stroke="#4D4D4D" stroke-width="4"/>
<path fill-rule="evenodd" clip-rule="evenodd" d="M16 8V23C16 23.5523 15.5523 24 15 24H1C0.447715 24 0 23.5523 0 23V8C0 3.58167 3.58154 0 8 0C12.4185 0 16 3.58167 16 8Z" transform="translate(859.299 120)" stroke="#4D4D4D" stroke-width="4"/>
<path d="M0 0.999999C0 0.447714 0.447715 0 1 0H31C31.5523 0 32 0.447715 32 1V33.6572C32 34.1441 31.6493 34.5603 31.1694 34.6428L1.16939 39.799C0.55836 39.904 0 39.4335 0 38.8135V0.999999Z" transform="translate(853.299 262)" stroke="#4D4D4D" stroke-width="4"/>
<line x1="2" y1="-2" x2="22" y2="-2" transform="translate(857.299 272)" stroke="#4D4D4D" stroke-width="4" stroke-linecap="round"/>
<line x1="2" y1="-2" x2="22" y2="-2" transform="translate(857.299 280)" stroke="#4D4D4D" stroke-width="4" stroke-linecap="round"/>
<path d="M2.56155 14L5.56155 2H106.438L109.438 14H2.56155Z" transform="translate(811.299 219)" fill="white" stroke="#4D4D4D" stroke-width="4"/>
<path fill-rule="evenodd" clip-rule="evenodd" d="M103.971 35.7834C103.965 35.7834 103.959 35.7816 103.954 35.7782L52.5695 0.178005C52.2269 -0.0593355 51.7731 -0.0593349 51.4305 0.178006L0.0461249 35.7782C0.0412084 35.7816 0.0353696 35.7834 0.0293884 35.7834V35.7834C0.0131576 35.7834 0 35.7966 0 35.8128V114.783C0 115.336 0.447713 115.783 0.999998 115.783H103C103.552 115.783 104 115.336 104 114.783V35.8128C104 35.7966 103.987 35.7834 103.971 35.7834V35.7834Z" transform="translate(607.299 126)" fill="white" stroke="#4D4D4D" stroke-width="4"/>
<path d="M0 0H104V85.3731L0 104V0Z" transform="translate(607.299 241.783)" fill="white" stroke="#4D4D4D" stroke-width="4"/>
<path d="M0 0H14.7097" transform="translate(618.299 317.703)" stroke="#4D4D4D" stroke-width="4" stroke-linecap="round"/>
<path d="M0 0H14.7097" transform="translate(622.589 311.147)" stroke="#4D4D4D" stroke-width="4" stroke-linecap="round"/>
<path d="M0 4.76788V0" transform="translate(628.105 312.339)" stroke="#4D4D4D" stroke-width="4"/>
<path d="M0 4.76788V0" transform="translate(632.396 305.783)" stroke="#4D4D4D" stroke-width="4" stroke-linecap="round"/>
<path d="M0 0H14.7097" transform="translate(682.299 271.703)" stroke="#4D4D4D" stroke-width="4" stroke-linecap="round"/>
<path d="M0 0H14.7097" transform="translate(686.589 265.147)" stroke="#4D4D4D" stroke-width="4" stroke-linecap="round"/>
<path d="M0 4.76788V0" transform="translate(692.105 266.339)" stroke="#4D4D4D" stroke-width="4"/>
<path d="M0 4.76788V0" transform="translate(696.396 259.783)" stroke="#4D4D4D" stroke-width="4" stroke-linecap="round"/>
<path d="M0 0H14.7097" transform="translate(678.299 183.703)" stroke="#4D4D4D" stroke-width="4" stroke-linecap="round"/>
<path d="M0 0H14.7097" transform="translate(682.589 177.147)" stroke="#4D4D4D" stroke-width="4" stroke-linecap="round"/>
<path d="M0 4.76788V0" transform="translate(688.105 178.339)" stroke="#4D4D4D" stroke-width="4"/>
<path d="M0 4.76788V0" transform="translate(692.396 171.783)" stroke="#4D4D4D" stroke-width="4" stroke-linecap="round"/>
<rect width="8" height="8" rx="1" transform="translate(654.299 208.783)" stroke="#4D4D4D" stroke-width="4"/>
<rect width="24" height="40" rx="1" transform="translate(646.299 201.783)" stroke="#4D4D4D" stroke-width="4"/>
<path d="M0 0V95.3575" transform="translate(655.799 237.783)" stroke="#4D4D4D" stroke-width="4" stroke-linecap="round"/>
<path d="M10 0C6.00002 3.97323 -0.000109145 5.9014 1.48906e-09 18.8728C0.000125372 33.7725 28 40.229 40 52.1487C52 64.0683 51.5 72.0148 50.5 82.4445" transform="translate(633.299 250.2)" stroke="#4D4D4D" stroke-width="4" stroke-linecap="round"/>
<path d="M0 0H16M0 0H16" transform="translate(648.299 251.69)" stroke="#4D4D4D" stroke-width="4" stroke-linecap="round"/>
<path d="M0 0H16M0 0H16" transform="translate(641.799 259.636)" stroke="#4D4D4D" stroke-width="4" stroke-linecap="round"/>
<path d="M0 0H16M0 0H16" transform="translate(638.799 267.583)" stroke="#4D4D4D" stroke-width="4" stroke-linecap="round"/>
<path d="M0 0H16M0 0H16" transform="translate(640.799 275.529)" stroke="#4D4D4D" stroke-width="4" stroke-linecap="round"/>
<path d="M0 0H16M0 0H16" transform="translate(661.799 332.148)" stroke="#4D4D4D" stroke-width="4" stroke-linecap="round"/>
<path d="M0 0H16M0 0H16" transform="translate(663.799 324.201)" stroke="#4D4D4D" stroke-width="4" stroke-linecap="round"/>
<path d="M0 0H12M0 0H12" transform="translate(664.799 316.255)" stroke="#4D4D4D" stroke-width="4" stroke-linecap="round"/>
<path d="M0 0H12M0 0H12" transform="translate(661.799 309.302)" stroke="#4D4D4D" stroke-width="4" stroke-linecap="round"/>
<path d="M0 0H7.99999M0 0H7.99999" transform="translate(659.799 302.349)" stroke="#4D4D4D" stroke-width="4" stroke-linecap="round"/>
<path d="M0 0H7.99999M0 0H7.99999" transform="translate(646.799 282.482)" stroke="#4D4D4D" stroke-width="4" stroke-linecap="round"/>
<rect width="24" height="24" rx="1" transform="translate(646.299 142.783)" stroke="#4D4D4D" stroke-width="4"/>
<path fill-rule="evenodd" clip-rule="evenodd" d="M22.9621 12C23.5144 12 23.9664 11.5507 23.921 11.0003C23.413 4.84061 18.2529 0 11.9621 0C5.67131 0 0.51115 4.84061 0.00314555 11.0003C-0.0422485 11.5507 0.409812 12 0.962097 12H22.9621Z" transform="translate(646.336 182.783)" stroke="#4D4D4D" stroke-width="4"/>
<rect width="16" height="24" rx="1" transform="translate(618.299 201.783)" stroke="#4D4D4D" stroke-width="4"/>
<rect width="16" height="24" rx="1" transform="translate(683.299 201.783)" stroke="#4D4D4D" stroke-width="4"/>
<path d="M15.7486 0.62861C15.9004 0.248951 16.2681 0 16.677 0H87.323C87.7319 0 88.0996 0.248951 88.2514 0.628609L103.451 38.6286C103.714 39.2855 103.23 40 102.523 40H1.47703C0.769568 40 0.285811 39.2855 0.548556 38.6286L15.7486 0.62861Z" transform="translate(503.299 147)" fill="white" stroke="#4D4D4D" stroke-width="4"/>
<path d="M0 0H14.7097" transform="translate(524.299 171.92)" stroke="#4D4D4D" stroke-width="4" stroke-linecap="round"/>
<path d="M0 0H14.7097" transform="translate(528.589 165.364)" stroke="#4D4D4D" stroke-width="4" stroke-linecap="round"/>
<path d="M0 4.76788V0" transform="translate(534.105 166.556)" stroke="#4D4D4D" stroke-width="4"/>
<path d="M0 4.76788V0" transform="translate(538.396 160)" stroke="#4D4D4D" stroke-width="4" stroke-linecap="round"/>
<rect width="40" height="8" rx="1" transform="translate(555.299 171)" stroke="#4D4D4D" stroke-width="4"/>
<path d="M0 0V8" transform="translate(575.299 173)" stroke="#4D4D4D" stroke-width="4"/>
<path d="M0 0V8" transform="translate(569.299 173)" stroke="#4D4D4D" stroke-width="4"/>
<path d="M0 0V8" transform="translate(581.299 173)" stroke="#4D4D4D" stroke-width="4"/>
<path d="M19.4305 0.394557C19.7731 0.157217 20.2269 0.157217 20.5695 0.394557L34.6907 10.178C35.4964 10.7362 35.1014 12 34.1212 12H5.87881C4.89862 12 4.5036 10.7362 5.30931 10.178L19.4305 0.394557Z" transform="translate(555.299 143)" fill="white" stroke="#4D4D4D" stroke-width="4"/>
<path d="M0 0V14.5" transform="translate(575.299 156)" stroke="#4D4D4D" stroke-width="4"/>
<rect width="24" height="24" rx="1" transform="translate(563.299 155)" stroke="#4D4D4D" stroke-width="4"/>
<path d="M0 0H24" transform="translate(564.299 165)" stroke="#4D4D4D" stroke-width="4"/>
<path d="M0 0H14.7097" transform="translate(572.299 328.92)" stroke="#4D4D4D" stroke-width="4" stroke-linecap="round"/>
<path d="M0 0H14.7097" transform="translate(576.589 322.364)" stroke="#4D4D4D" stroke-width="4" stroke-linecap="round"/>
<path d="M0 4.76788V0" transform="translate(582.105 323.556)" stroke="#4D4D4D" stroke-width="4"/>
<path d="M0 4.76788V0" transform="translate(586.396 317)" stroke="#4D4D4D" stroke-width="4" stroke-linecap="round"/>
<path d="M0 0H104V159.5L0 177.5V0Z" transform="translate(503.299 187)" fill="white" stroke="#4D4D4D" stroke-width="4"/>
<rect width="40" height="64" rx="1" transform="translate(515.299 256)" stroke="#4D4D4D" stroke-width="4"/>
<path fill-rule="evenodd" clip-rule="evenodd" d="M22.9621 12C23.5144 12 23.9664 11.5507 23.921 11.0003C23.413 4.84061 18.2529 0 11.9621 0C5.67131 0 0.51115 4.84061 0.00314555 11.0003C-0.0422485 11.5507 0.409812 12 0.962097 12H22.9621Z" transform="translate(523.336 262)" stroke="#4D4D4D" stroke-width="4"/>
<rect width="24" height="40" rx="1" transform="translate(523.299 280)" stroke="#4D4D4D" stroke-width="4"/>
<path d="M0 0V40" transform="translate(535.799 280)" stroke="#4D4D4D" stroke-width="4"/>
<path d="M0 0V24" transform="translate(523.299 300) rotate(-90)" stroke="#4D4D4D" stroke-width="4"/>
<rect width="24" height="40" rx="1" transform="translate(573.299 256)" stroke="#4D4D4D" stroke-width="4"/>
<path d="M0 0V40" transform="translate(585.799 256)" stroke="#4D4D4D" stroke-width="4"/>
<path d="M0 0V24" transform="translate(573.299 276) rotate(-90)" stroke="#4D4D4D" stroke-width="4"/>
<rect width="24" height="40" rx="1" transform="translate(573.299 198)" stroke="#4D4D4D" stroke-width="4"/>
<path d="M0 0V40" transform="translate(585.799 198)" stroke="#4D4D4D" stroke-width="4"/>
<path d="M0 0V24" transform="translate(573.299 218) rotate(-90)" stroke="#4D4D4D" stroke-width="4"/>
<path d="M0 1C0 0.447716 0.447715 0 1 0H23C23.5523 0 24 0.447715 24 1V25C24 25.5523 23.5523 26 23 26H1C0.447716 26 0 25.5523 0 25V1Z" transform="translate(523.299 198)" stroke="#4D4D4D" stroke-width="4"/>
<path d="M0 0V25.0022" transform="translate(536.049 197.998)" stroke="#4D4D4D" stroke-width="4"/>
<path d="M0 0V24" transform="translate(523.299 218) rotate(-90)" stroke="#4D4D4D" stroke-width="4"/>
<path d="M0 0H32" transform="translate(519.299 328)" stroke="#4D4D4D" stroke-width="4" stroke-linecap="round"/>
<path d="M0 0H32" transform="translate(519.299 336)" stroke="#4D4D4D" stroke-width="4" stroke-linecap="round"/>
<path d="M0 0H32" transform="translate(519.299 344)" stroke="#4D4D4D" stroke-width="4" stroke-linecap="round"/>
<path d="M0 0H32" transform="translate(519.299 352)" stroke="#4D4D4D" stroke-width="4" stroke-linecap="round"/>
<line x1="2" y1="-2" x2="46" y2="-2" transform="translate(513.299 358) rotate(-90)" stroke="#4D4D4D" stroke-width="4" stroke-linecap="round"/>
<line x1="2" y1="-2" x2="46" y2="-2" transform="translate(560.299 357) rotate(-90)" stroke="#4D4D4D" stroke-width="4" stroke-linecap="round"/>
<rect width="48" height="32" rx="1" transform="translate(511.299 224)" stroke="#4D4D4D" stroke-width="4"/>
<rect width="8" height="32" transform="translate(517.299 224)" stroke="#4D4D4D" stroke-width="4"/>
<rect width="8" height="32" transform="translate(545.299 224)" stroke="#4D4D4D" stroke-width="4"/>
<rect width="8" height="32" transform="translate(531.299 224)" stroke="#4D4D4D" stroke-width="4"/>
<path fill-rule="evenodd" clip-rule="evenodd" d="M103.971 35.7834C103.965 35.7834 103.959 35.7816 103.954 35.7782L52.5695 0.178005C52.2269 -0.0593355 51.7731 -0.0593349 51.4305 0.178006L0.0461249 35.7782C0.0412084 35.7816 0.0353696 35.7834 0.0293884 35.7834V35.7834C0.0131576 35.7834 0 35.7966 0 35.8128V114.783C0 115.336 0.447713 115.783 0.999998 115.783H103C103.552 115.783 104 115.336 104 114.783V35.8128C104 35.7966 103.987 35.7834 103.971 35.7834V35.7834Z" transform="translate(399.299 178)" fill="white" stroke="#4D4D4D" stroke-width="4"/>
<path d="M0 0H104V70.1705L0 88V0Z" transform="translate(399.299 294)" fill="white" stroke="#4D4D4D" stroke-width="4"/>
<line x1="2" y1="-2" x2="14" y2="-2" transform="translate(405.299 211) rotate(90)" stroke="#4D4D4D" stroke-width="4" stroke-linecap="round"/>
<line x1="2" y1="-2" x2="14" y2="-2" transform="translate(413.299 211) rotate(90)" stroke="#4D4D4D" stroke-width="4" stroke-linecap="round"/>
<line x1="2" y1="-2" x2="14" y2="-2" transform="translate(421.299 211) rotate(90)" stroke="#4D4D4D" stroke-width="4" stroke-linecap="round"/>
<line x1="2" y1="-2" x2="14" y2="-2" transform="translate(429.299 211) rotate(90)" stroke="#4D4D4D" stroke-width="4" stroke-linecap="round"/>
<line x1="2" y1="-2" x2="14" y2="-2" transform="translate(445.299 211) rotate(90)" stroke="#4D4D4D" stroke-width="4" stroke-linecap="round"/>
<line x1="2" y1="-2" x2="14" y2="-2" transform="translate(453.299 211) rotate(90)" stroke="#4D4D4D" stroke-width="4" stroke-linecap="round"/>
<line x1="2" y1="-2" x2="14" y2="-2" transform="translate(469.299 211) rotate(90)" stroke="#4D4D4D" stroke-width="4" stroke-linecap="round"/>
<line x1="2" y1="-2" x2="14" y2="-2" transform="translate(477.299 211) rotate(90)" stroke="#4D4D4D" stroke-width="4" stroke-linecap="round"/>
<line x1="2" y1="-2" x2="14" y2="-2" transform="translate(485.299 211) rotate(90)" stroke="#4D4D4D" stroke-width="4" stroke-linecap="round"/>
<line x1="2" y1="-2" x2="14" y2="-2" transform="translate(461.299 211) rotate(90)" stroke="#4D4D4D" stroke-width="4" stroke-linecap="round"/>
<line x1="2" y1="-2" x2="14" y2="-2" transform="translate(437.299 211) rotate(90)" stroke="#4D4D4D" stroke-width="4" stroke-linecap="round"/>
<line x1="2" y1="-2" x2="14" y2="-2" transform="translate(493.299 211) rotate(90)" stroke="#4D4D4D" stroke-width="4" stroke-linecap="round"/>
<rect width="104" height="16" rx="1" transform="translate(399.299 211)" stroke="#4D4D4D" stroke-width="4"/>
<circle cx="4" cy="4" r="4" transform="translate(407.299 240)" stroke="#4D4D4D" stroke-width="4"/>
<path d="M0 0V7C0 7.55228 0.447715 8 1 8H5.5" transform="translate(411.299 248)" stroke="#4D4D4D" stroke-width="4" stroke-linecap="round"/>
<path d="M0 0H14.7097" transform="translate(470.299 318.92)" stroke="#4D4D4D" stroke-width="4" stroke-linecap="round"/>
<path d="M0 0H14.7097" transform="translate(474.589 312.364)" stroke="#4D4D4D" stroke-width="4" stroke-linecap="round"/>
<path d="M0 4.76788V0" transform="translate(480.105 313.556)" stroke="#4D4D4D" stroke-width="4"/>
<path d="M0 4.76788V0" transform="translate(484.396 307)" stroke="#4D4D4D" stroke-width="4" stroke-linecap="round"/>
<rect width="24" height="24" rx="1" transform="translate(465.299 244)" stroke="#4D4D4D" stroke-width="4"/>
<path fill-rule="evenodd" clip-rule="evenodd" d="M24 12C24 5.37256 18.6274 0 12 0C5.37256 0 0 5.37256 0 12V52H24V12Z" transform="translate(429.299 242)" stroke="#4D4D4D" stroke-width="4"/>
<path fill-rule="evenodd" clip-rule="evenodd" d="M16 8V17C16 17.5523 15.5523 18 15 18H1C0.447715 18 0 17.5523 0 17V8V7.34761C0 7.33975 0.00637324 7.33337 0.014235 7.33337V7.33337C0.0216429 7.33337 0.0278161 7.32763 0.0284374 7.32025C0.373542 3.22006 3.81062 0 8 0C12.1894 0 15.6265 3.22006 15.9716 7.32025C15.9722 7.32763 15.9784 7.33337 15.9858 7.33337V7.33337C15.9936 7.33337 16 7.33975 16 7.34761V8Z" transform="translate(443.299 186)" stroke="#4D4D4D" stroke-width="4"/>
<path d="M0 0.999999C0 0.447714 0.447715 0 1 0H31C31.5523 0 32 0.447715 32 1V33.6572C32 34.1441 31.6493 34.5603 31.1694 34.6428L1.16939 39.799C0.55836 39.904 0 39.4335 0 38.8135V0.999999Z" transform="translate(449.299 333)" stroke="#4D4D4D" stroke-width="4"/>
<line x1="2" y1="-2" x2="22" y2="-2" transform="translate(453.299 343)" stroke="#4D4D4D" stroke-width="4" stroke-linecap="round"/>
<line x1="2" y1="-2" x2="22" y2="-2" transform="translate(453.299 351)" stroke="#4D4D4D" stroke-width="4" stroke-linecap="round"/>
<line x1="2" y1="-2" x2="22" y2="-2" transform="translate(420.827 304)" stroke="#4D4D4D" stroke-width="4" stroke-linecap="round"/>
<line x1="2" y1="-2" x2="22" y2="-2" transform="translate(416.827 312)" stroke="#4D4D4D" stroke-width="4" stroke-linecap="round"/>
<line x1="2" y1="-2" x2="22" y2="-2" transform="translate(413.827 320)" stroke="#4D4D4D" stroke-width="4" stroke-linecap="round"/>
<line x1="2" y1="-2" x2="22" y2="-2" transform="translate(405.827 328)" stroke="#4D4D4D" stroke-width="4" stroke-linecap="round"/>
<line x1="2" y1="-2" x2="22" y2="-2" transform="translate(405.827 336)" stroke="#4D4D4D" stroke-width="4" stroke-linecap="round"/>
<line x1="2" y1="-2" x2="22" y2="-2" transform="translate(405.827 344)" stroke="#4D4D4D" stroke-width="4" stroke-linecap="round"/>
<line x1="2" y1="-2" x2="22" y2="-2" transform="translate(405.827 352)" stroke="#4D4D4D" stroke-width="4" stroke-linecap="round"/>
<line x1="2" y1="-2" x2="22" y2="-2" transform="translate(405.827 360)" stroke="#4D4D4D" stroke-width="4" stroke-linecap="round"/>
<line x1="2" y1="-2" x2="22" y2="-2" transform="translate(405.827 368)" stroke="#4D4D4D" stroke-width="4" stroke-linecap="round"/>
<line x1="2" y1="-2" x2="22" y2="-2" transform="translate(405.827 376)" stroke="#4D4D4D" stroke-width="4" stroke-linecap="round"/>
<path d="M24.4235 0C21.5901 3.66667 13.0532 17 6.55321 27C-0.77154 38.2689 0.0254748 78 0.0253906 96" transform="translate(405.273 284)" stroke="#4D4D4D" stroke-width="4" stroke-linecap="round"/>
<path d="M25.034 0C22.2007 3.66667 11.5636 24.1871 5.16386 34C-2.33619 45.5 0.543113 75.5 0.543335 92" transform="translate(432.755 284)" stroke="#4D4D4D" stroke-width="4" stroke-linecap="round"/>
<rect width="24" height="24" rx="1" transform="translate(399.299 276)" fill="white" stroke="#4D4D4D" stroke-width="4"/>
<rect width="56" height="24" rx="1" transform="translate(447.299 274)" fill="white" stroke="#4D4D4D" stroke-width="4"/>
<path fill-rule="evenodd" clip-rule="evenodd" d="M16 8V37.3334L0 40V8C0 3.58167 3.58154 0 8 0C12.4185 0 16 3.58167 16 8Z" transform="translate(1157.3 208)" fill="white" stroke="#4D4D4D" stroke-width="4"/>
<circle cx="4" cy="4" r="4" transform="translate(1161.3 225)" fill="white" stroke="#4D4D4D" stroke-width="4"/>
<path fill-rule="evenodd" clip-rule="evenodd" d="M4 0H10C10.5523 0 11 0.447715 11 1V7C11 7.55228 10.5523 8 10 8H4H3.07097C3.03177 8 3 7.96823 3 7.92903V7.92903C3 7.89665 2.97797 7.86842 2.94673 7.85991C1.24872 7.39757 0 5.84453 0 4C0 2.15547 1.24872 0.602431 2.94673 0.140086C2.97797 0.131579 3 0.103345 3 0.0709658V0.0709658C3 0.0317725 3.03177 0 3.07097 0H4Z" transform="translate(1146.3 224)" stroke="#4D4D4D" stroke-width="4"/>
<path fill-rule="evenodd" clip-rule="evenodd" d="M4 0H3.07097C3.03177 0 3 0.0317725 3 0.0709658V0.0709658C3 0.103345 2.97797 0.131579 2.94673 0.140086C1.24872 0.602431 0 2.15547 0 4C0 5.84453 1.24872 7.39757 2.94673 7.85991C2.97797 7.86842 3 7.89665 3 7.92903V7.92903C3 7.96823 3.03177 8 3.07097 8H4H10C10.5523 8 11 7.55228 11 7V1C11 0.447715 10.5523 0 10 0H4Z" transform="translate(1184.3 224) scale(-1 1)" stroke="#4D4D4D" stroke-width="4"/>
<path d="M0 0C5.56522 3.62219 16.5 2.5 20 0" transform="translate(1155.3 216)" stroke="#4D4D4D" stroke-width="4" stroke-linecap="round"/>
<circle cx="16" cy="16" r="16" transform="translate(269.516 372.599) rotate(-10)" stroke="#4D4D4D" stroke-width="4"/>
<circle cx="16" cy="16" r="16" transform="translate(332.543 361.486) rotate(-10)" stroke="#4D4D4D" stroke-width="4"/>
<path d="M31.1057 3.51739L1.50648 4.61104C0.791415 4.63746 0.334692 5.38446 0.637096 6.03297L13.101 32.7622M31.1057 3.51739L48.6003 41.0346M31.1057 3.51739L13.101 32.7622M31.1057 3.51739L38.6487 0M48.6003 41.0346L28.8541 64.0348M48.6003 41.0346L13.101 32.7622M48.6003 41.0346L58.4091 36.4607C58.9097 36.2273 59.5047 36.4438 59.7381 36.9444L63.5417 45.1013" transform="translate(281.921 386.687) rotate(-75)" stroke="#4D4D4D" stroke-width="4" stroke-linecap="round"/>
<circle cx="6" cy="6" r="6" transform="translate(307.94 377.44) rotate(-10)" stroke="#4D4D4D" stroke-width="4"/>
<path d="M0 0L3.72361 7.44721C3.893 7.786 4.23926 8 4.61803 8H9" transform="translate(315.557 383.205) rotate(-10)" stroke="#4D4D4D" stroke-width="4" stroke-linecap="round"/>
<path d="M0.646479 1.41545C0.344002 0.753184 0.828024 0 1.5561 0H14.9185C15.9646 0 16.3083 1.40317 15.3807 1.88674L4.58804 7.513C4.08016 7.77776 3.45411 7.56269 3.21616 7.04171L0.646479 1.41545Z" transform="translate(286.105 345.75) rotate(-10)" stroke="#4D4D4D" stroke-width="4"/>
</svg>
