<svg width="480" height="424" viewBox="0 0 480 424" fill="none" xmlns="http://www.w3.org/2000/svg">
<mask id="path-1-inside-1" fill="white">
<path fill-rule="evenodd" clip-rule="evenodd" d="M66.3167 8.0896C61.8463 3.12378 55.3588 0 48.1396 0C34.6536 0 23.721 10.9009 23.721 24.3479C23.721 24.8149 23.7342 25.2788 23.7602 25.7393H23.7209C11.0055 25.7393 0.697632 36.0172 0.697632 48.6958C0.697632 51.6671 1.26379 54.5066 2.29437 57.1128C0.840942 59.4158 0 62.1432 0 65.067C0 72.3871 5.27112 78.4771 12.2277 79.7538V80H14.9449H62.4969H63.4027V79.973C68.9044 79.6443 73.6042 76.3418 75.9139 71.6522H96.9009L96.9767 71.6523L97.0526 71.6522H98.3721V71.6108C110.438 70.8916 120 60.9072 120 48.6958C120 36.9531 111.158 27.2697 99.7501 25.9041C99.2877 14.209 89.6331 4.86951 77.7907 4.86951C73.5857 4.86951 69.6565 6.04712 66.3167 8.0896Z"/>
</mask>
<path d="M66.3167 8.0896L63.3439 10.7659L65.5679 13.2363L68.4036 11.502L66.3167 8.0896ZM23.7602 25.7393V29.7393H27.9924L27.7538 25.5137L23.7602 25.7393ZM2.29437 57.1128L5.67705 59.2476L6.76086 57.5303L6.01411 55.6419L2.29437 57.1128ZM12.2277 79.7538H16.2277V76.4211L12.9497 75.8195L12.2277 79.7538ZM12.2277 80H8.22766V84H12.2277V80ZM63.4027 80V84H67.4027V80H63.4027ZM63.4027 79.973L63.1641 75.9801L59.4027 76.2049V79.973H63.4027ZM75.9139 71.6522V67.6522H73.4252L72.3256 69.8848L75.9139 71.6522ZM96.9009 71.6522L96.9073 67.6522H96.9009V71.6522ZM96.9767 71.6523L96.9703 75.6524L96.9832 75.6523L96.9767 71.6523ZM97.0526 71.6522V67.6522L97.0462 67.6522L97.0526 71.6522ZM98.3721 71.6522V75.6522H102.372V71.6522H98.3721ZM98.3721 71.6108L98.1341 67.6179L94.3721 67.8422V71.6108H98.3721ZM99.7501 25.9041L95.7532 26.0621L95.888 29.4703L99.2747 29.8757L99.7501 25.9041ZM48.1396 4C54.18 4 59.6013 6.60861 63.3439 10.7659L69.2895 5.41334C64.0912 -0.361051 56.5375 -4 48.1396 -4V4ZM27.721 24.3479C27.721 13.1209 36.8518 4 48.1396 4V-4C32.4554 -4 19.721 8.68081 19.721 24.3479H27.721ZM27.7538 25.5137C27.7321 25.1283 27.721 24.7396 27.721 24.3479H19.721C19.721 24.8902 19.7363 25.4293 19.7666 25.9648L27.7538 25.5137ZM23.7209 29.7393H23.7602V21.7393H23.7209V29.7393ZM4.69763 48.6958C4.69763 38.2373 13.2037 29.7393 23.7209 29.7393V21.7393C8.80731 21.7393 -3.30237 33.7971 -3.30237 48.6958H4.69763ZM6.01411 55.6419C5.1656 53.4961 4.69763 51.1551 4.69763 48.6958H-3.30237C-3.30237 52.1791 -2.63801 55.5171 -1.42536 58.5837L6.01411 55.6419ZM4 65.067C4 62.921 4.61493 60.9306 5.67705 59.2476L-1.0883 54.978C-2.93304 57.901 -4 61.3654 -4 65.067H4ZM12.9497 75.8195C7.85565 74.8846 4 70.4196 4 65.067H-4C-4 74.3546 2.68658 82.0695 11.5056 83.6881L12.9497 75.8195ZM16.2277 80V79.7538H8.22766V80H16.2277ZM14.9449 76H12.2277V84H14.9449V76ZM62.4969 76H14.9449V84H62.4969V76ZM63.4027 76H62.4969V84H63.4027V76ZM59.4027 79.973V80H67.4027V79.973H59.4027ZM72.3256 69.8848C70.6304 73.3266 67.1841 75.7399 63.1641 75.9801L63.6413 83.9659C70.6248 83.5486 76.5779 79.357 79.5023 73.4196L72.3256 69.8848ZM96.9009 67.6522H75.9139V75.6522H96.9009V67.6522ZM96.9832 67.6524L96.9073 67.6522L96.8944 75.6522L96.9703 75.6523L96.9832 67.6524ZM97.0462 67.6522L96.9703 67.6524L96.9832 75.6523L97.0591 75.6522L97.0462 67.6522ZM98.3721 67.6522H97.0526V75.6522H98.3721V67.6522ZM94.3721 71.6108V71.6522H102.372V71.6108H94.3721ZM116 48.6958C116 58.7678 108.11 67.0233 98.1341 67.6179L98.6102 75.6038C112.766 74.7599 124 63.0466 124 48.6958H116ZM99.2747 29.8757C108.705 31.0045 116 39.0116 116 48.6958H124C124 34.8946 113.611 23.5348 100.226 21.9324L99.2747 29.8757ZM77.7907 8.86951C87.4873 8.86951 95.3758 16.5148 95.7532 26.0621L103.747 25.746C103.2 11.9032 91.779 0.869507 77.7907 0.869507V8.86951ZM68.4036 11.502C71.1326 9.83312 74.3424 8.86951 77.7907 8.86951V0.869507C72.829 0.869507 68.1804 2.26111 64.2298 4.67716L68.4036 11.502Z" transform="scale(4)" fill="#A6A6A6" mask="url(#path-1-inside-1)"/>
<mask id="path-3-inside-2" fill="white">
<path fill-rule="evenodd" clip-rule="evenodd" d="M30.7956 0C35.4818 0 39.6931 2.02515 42.595 5.24451C44.7629 3.92041 47.3133 3.1571 50.0428 3.1571C57.73 3.1571 63.997 9.21179 64.2972 16.7935C71.7022 17.6787 77.4418 23.9564 77.4418 31.5691C77.4418 39.4855 71.2348 45.9583 63.4027 46.4246V46.4513H62.5581C62.5377 46.4513 62.5173 46.4514 62.4969 46.4514C62.4766 46.4514 62.4562 46.4513 62.4358 46.4513H15.0061L14.9449 46.4514L14.8838 46.4513H12.2277V46.2061C5.27112 44.9336 0 38.8643 0 31.5691C0 23.3497 6.69104 16.6866 14.9449 16.6866H14.9704C14.9535 16.3881 14.9449 16.0873 14.9449 15.7844C14.9449 7.06689 22.0416 0 30.7956 0Z"/>
</mask>
<path d="M42.595 5.24451L39.6239 7.92266L41.8467 10.3886L44.6799 8.65815L42.595 5.24451ZM64.2972 16.7935L60.3003 16.9517L60.4353 20.3603L63.8224 20.7652L64.2972 16.7935ZM63.4027 46.4246L63.165 42.4316L59.4027 42.6556V46.4246H63.4027ZM63.4027 46.4513V50.4513H67.4027V46.4513H63.4027ZM15.0061 46.4513V42.4513L14.9981 42.4513L15.0061 46.4513ZM14.9449 46.4514L14.937 50.4514L14.9449 50.4514L14.9529 50.4514L14.9449 46.4514ZM14.8838 46.4513L14.8918 42.4513H14.8838V46.4513ZM12.2277 46.4513H8.22766V50.4513H12.2277V46.4513ZM12.2277 46.2061H16.2277V42.8714L12.9474 42.2713L12.2277 46.2061ZM14.9704 16.6866V20.6866H19.2033L18.964 16.4605L14.9704 16.6866ZM45.5661 2.56636C41.9357 -1.46118 36.6587 -4 30.7956 -4V4C34.3049 4 37.4504 5.51148 39.6239 7.92266L45.5661 2.56636ZM50.0428 -0.842896C46.5578 -0.842896 43.2886 0.133759 40.51 1.83086L44.6799 8.65815C46.2371 7.70706 48.0688 7.1571 50.0428 7.1571V-0.842896ZM68.2941 16.6352C67.9087 6.9013 59.8712 -0.842896 50.0428 -0.842896V7.1571C55.5888 7.1571 60.0854 11.5223 60.3003 16.9517L68.2941 16.6352ZM63.8224 20.7652C69.2534 21.4144 73.4418 26.0191 73.4418 31.5691H81.4418C81.4418 21.8937 74.151 13.943 64.772 12.8217L63.8224 20.7652ZM73.4418 31.5691C73.4418 37.3415 68.9112 42.0895 63.165 42.4316L63.6404 50.4175C73.5584 49.827 81.4418 41.6294 81.4418 31.5691H73.4418ZM67.4027 46.4513V46.4246H59.4027V46.4513H67.4027ZM62.5581 50.4513H63.4027V42.4513H62.5581V50.4513ZM62.5581 42.4513C62.5409 42.4513 62.5247 42.4513 62.5156 42.4514C62.5044 42.4514 62.5002 42.4514 62.4969 42.4514V50.4514C62.5141 50.4514 62.5303 50.4514 62.5395 50.4513C62.5507 50.4513 62.5549 50.4513 62.5581 50.4513V42.4513ZM62.4969 42.4514C62.4937 42.4514 62.4895 42.4514 62.4783 42.4514C62.4692 42.4513 62.453 42.4513 62.4358 42.4513V50.4513C62.439 50.4513 62.4432 50.4513 62.4544 50.4513C62.4636 50.4514 62.4798 50.4514 62.4969 50.4514V42.4514ZM15.0061 50.4513H62.4358V42.4513H15.0061V50.4513ZM14.9529 50.4514L15.0141 50.4513L14.9981 42.4513L14.937 42.4514L14.9529 50.4514ZM14.8758 50.4513L14.937 50.4514L14.9529 42.4514L14.8918 42.4513L14.8758 50.4513ZM12.2277 50.4513H14.8838V42.4513H12.2277V50.4513ZM8.22766 46.2061V46.4513H16.2277V46.2061H8.22766ZM-4 31.5691C-4 40.8421 2.69732 48.5292 11.5079 50.1408L12.9474 42.2713C7.84492 41.338 4 36.8864 4 31.5691H-4ZM14.9449 12.6866C4.49772 12.6866 -4 21.1248 -4 31.5691H4C4 25.5747 8.88436 20.6866 14.9449 20.6866V12.6866ZM14.9704 12.6866H14.9449V20.6866H14.9704V12.6866ZM10.9449 15.7844C10.9449 16.1625 10.9556 16.5387 10.9768 16.9128L18.964 16.4605C18.9514 16.2374 18.9449 16.012 18.9449 15.7844H10.9449ZM30.7956 -4C19.8482 -4 10.9449 4.84197 10.9449 15.7844H18.9449C18.9449 9.29182 24.2349 4 30.7956 4V-4Z" transform="translate(0 133.565) scale(4)" fill="#A6A6A6" mask="url(#path-3-inside-2)"/>
<path d="M0 0C9.3913 7 28.6957 7 36 0" transform="translate(169.043 352) scale(4)" stroke="#F2463A" stroke-width="4" stroke-linecap="round"/>
<path d="M0 0C12.5217 9.33333 38.2609 9.33333 48 0" transform="translate(144 388) scale(4)" stroke="#F2463A" stroke-width="4" stroke-linecap="round"/>
</svg>
