<svg width="116" height="761" viewBox="0 0 116 761" fill="none" xmlns="http://www.w3.org/2000/svg">
<ellipse cx="96.5194" cy="427.992" rx="5.64758" ry="5.66661" transform="rotate(179.462 96.5194 427.992)" stroke="#F89790" stroke-width="5.65708"/>
<ellipse cx="83.5826" cy="9.09533" rx="5.64758" ry="5.66661" transform="rotate(179.462 83.5826 9.09533)" stroke="#F89790" stroke-width="5.65708"/>
<path d="M50.6692 588.065C46.5341 598.797 35.9379 598.1 28.1022 590.66C20.2665 583.22 8.96348 582.431 5.53531 593.256" stroke="#F89790" stroke-width="5.65708" stroke-linecap="round"/>
<path d="M115.087 525.84L105.189 516.772C104.661 516.288 103.854 516.276 103.311 516.743L92.4978 526.052" stroke="#F89790" stroke-width="5.65708" stroke-linecap="round"/>
<path d="M103.723 518.559L103.912 538.594" stroke="#F89790" stroke-width="5.65708" stroke-linecap="round"/>
<path d="M26.6331 509.319L26.4201 486.654" stroke="#F89790" stroke-width="5.65708" stroke-linecap="round"/>
<path d="M37.8213 497.88L15.232 498.092" stroke="#F89790" stroke-width="5.65708" stroke-linecap="round"/>
<path d="M117.561 644.304L99.3493 655.367C94.1457 658.528 92.5389 665.338 95.7808 670.492V670.492C97.7959 673.695 101.328 675.625 105.112 675.589L106.657 675.575C110.329 675.54 113.747 673.693 115.788 670.639V670.639C119.347 665.313 117.677 658.089 112.14 654.866L94.367 644.522" stroke="#F89790" stroke-width="5.65708" stroke-linecap="round" stroke-linejoin="round"/>
<path fill-rule="evenodd" clip-rule="evenodd" d="M131.353 234.758L121.268 216.246L121.079 216.402L120.581 215.985L110.462 234.37L111.152 234.948L120.85 217.326L130.659 235.33L131.353 234.758Z" fill="black"/>
<path d="M121.268 216.246L122.846 215.386C122.589 214.916 122.136 214.584 121.609 214.482C121.083 214.38 120.538 214.518 120.125 214.859L121.268 216.246ZM131.353 234.758L132.496 236.145C133.16 235.597 133.343 234.654 132.931 233.898L131.353 234.758ZM121.079 216.402L119.925 217.779C120.588 218.335 121.554 218.339 122.222 217.788L121.079 216.402ZM120.581 215.985L121.735 214.607C121.323 214.262 120.779 214.119 120.25 214.218C119.722 214.317 119.266 214.648 119.007 215.118L120.581 215.985ZM110.462 234.37L108.888 233.504C108.474 234.256 108.65 235.196 109.308 235.748L110.462 234.37ZM111.152 234.948L109.997 236.325C110.409 236.67 110.954 236.813 111.482 236.714C112.011 236.615 112.467 236.285 112.726 235.814L111.152 234.948ZM120.85 217.326L122.428 216.466C122.114 215.889 121.511 215.53 120.854 215.529C120.198 215.527 119.593 215.884 119.276 216.459L120.85 217.326ZM130.659 235.33L129.081 236.189C129.337 236.66 129.791 236.992 130.317 237.094C130.844 237.196 131.388 237.057 131.802 236.716L130.659 235.33ZM119.689 217.106L129.775 235.617L132.931 233.898L122.846 215.386L119.689 217.106ZM122.222 217.788L122.411 217.633L120.125 214.859L119.936 215.015L122.222 217.788ZM119.427 217.362L119.925 217.779L122.233 215.024L121.735 214.607L119.427 217.362ZM112.037 235.237L122.156 216.851L119.007 215.118L108.888 233.504L112.037 235.237ZM112.306 233.57L111.617 232.993L109.308 235.748L109.997 236.325L112.306 233.57ZM119.276 216.459L109.577 234.081L112.726 235.814L122.425 218.192L119.276 216.459ZM132.237 234.47L122.428 216.466L119.272 218.185L129.081 236.189L132.237 234.47ZM130.21 233.371L129.516 233.943L131.802 236.716L132.496 236.145L130.21 233.371Z" fill="#F89790"/>
<path fill-rule="evenodd" clip-rule="evenodd" d="M80.2412 322.753L73.5958 315.033L79.3306 308.291L78.0426 307.708L72.6987 313.991L66.6099 306.917L65.3273 307.512L71.8069 315.039L65.1533 322.861L66.4413 323.444L72.704 316.081L79.3494 323.801L72.2997 332.089L73.5877 332.672L80.2465 324.844L87.2043 332.927L81.0277 340.188L82.3157 340.771L88.1014 333.969L93.8781 340.68L95.1608 340.086L88.9931 332.92L95.205 325.617L93.917 325.035L88.0959 331.878L81.1382 323.795L86.477 317.519L85.189 316.936L80.2412 322.753Z" fill="black"/>
<path d="M73.5958 315.033L71.4413 313.2C70.5385 314.262 70.5431 315.822 71.4521 316.878L73.5958 315.033ZM80.2412 322.753L78.0974 324.598C78.6367 325.225 79.4229 325.584 80.2495 325.581C81.076 325.579 81.8602 325.215 82.3957 324.586L80.2412 322.753ZM79.3306 308.291L81.4851 310.123C82.0607 309.447 82.285 308.539 82.0906 307.672C81.8962 306.805 81.3058 306.08 80.4964 305.714L79.3306 308.291ZM78.0426 307.708L79.2084 305.131C78.0594 304.611 76.7051 304.915 75.888 305.875L78.0426 307.708ZM72.6987 313.991L70.5549 315.836C71.0942 316.462 71.8804 316.822 72.707 316.819C73.5335 316.817 74.3177 316.453 74.8532 315.823L72.6987 313.991ZM66.6099 306.917L68.7537 305.072C67.9288 304.114 66.568 303.819 65.4207 304.351L66.6099 306.917ZM65.3273 307.512L64.1381 304.945C63.3334 305.318 62.7502 306.047 62.5627 306.913C62.3752 307.78 62.605 308.685 63.1836 309.357L65.3273 307.512ZM71.8069 315.039L73.9614 316.872C74.8642 315.81 74.8595 314.25 73.9506 313.194L71.8069 315.039ZM65.1533 322.861L62.9987 321.029C62.4231 321.705 62.1989 322.613 62.3932 323.48C62.5875 324.347 63.1777 325.072 63.9871 325.438L65.1533 322.861ZM66.4413 323.444L65.2751 326.021C66.4241 326.541 67.7786 326.238 68.5958 325.277L66.4413 323.444ZM72.704 316.081L74.8477 314.236C74.3085 313.61 73.5222 313.25 72.6957 313.253C71.8691 313.255 71.085 313.619 70.5495 314.249L72.704 316.081ZM79.3494 323.801L81.5039 325.634C82.4067 324.573 82.4021 323.012 81.4931 321.956L79.3494 323.801ZM72.2997 332.089L70.1452 330.257C69.5696 330.933 69.3454 331.841 69.5397 332.708C69.734 333.575 70.3242 334.3 71.1335 334.666L72.2997 332.089ZM73.5877 332.672L72.4215 335.249C73.5706 335.769 74.9251 335.465 75.7423 334.505L73.5877 332.672ZM80.2465 324.844L82.3902 322.998C81.851 322.372 81.0647 322.013 80.2382 322.015C79.4116 322.017 78.6275 322.381 78.092 323.011L80.2465 324.844ZM87.2043 332.927L89.3588 334.759C90.2616 333.698 90.257 332.137 89.348 331.081L87.2043 332.927ZM81.0277 340.188L78.8732 338.355C78.2976 339.032 78.0734 339.94 78.2676 340.807C78.4619 341.673 79.0522 342.399 79.8615 342.765L81.0277 340.188ZM82.3157 340.771L81.1495 343.348C82.2986 343.868 83.6531 343.564 84.4703 342.604L82.3157 340.771ZM88.1014 333.969L90.2451 332.124C89.7059 331.497 88.9196 331.138 88.0931 331.14C87.2665 331.143 86.4824 331.507 85.9469 332.136L88.1014 333.969ZM93.8781 340.68L91.7344 342.525C92.5592 343.483 93.9197 343.778 95.0669 343.246L93.8781 340.68ZM95.1608 340.086L96.3496 342.652C97.1544 342.28 97.7377 341.551 97.9253 340.684C98.1129 339.817 97.8831 338.913 97.3045 338.24L95.1608 340.086ZM88.9931 332.92L86.8385 331.088C85.9358 332.149 85.9404 333.71 86.8494 334.766L88.9931 332.92ZM95.205 325.617L97.3596 327.45C97.9352 326.773 98.1594 325.865 97.965 324.999C97.7707 324.132 97.1803 323.406 96.3708 323.04L95.205 325.617ZM93.917 325.035L95.0828 322.458C93.9338 321.938 92.5795 322.241 91.7625 323.202L93.917 325.035ZM88.0959 331.878L85.9522 333.724C86.4914 334.35 87.2777 334.709 88.1042 334.707C88.9308 334.704 89.7149 334.341 90.2505 333.711L88.0959 331.878ZM81.1382 323.795L78.9837 321.962C78.0809 323.024 78.0855 324.584 78.9945 325.64L81.1382 323.795ZM86.477 317.519L88.6316 319.351C89.2072 318.675 89.4314 317.767 89.2371 316.9C89.0427 316.033 88.4523 315.308 87.6428 314.941L86.477 317.519ZM85.189 316.936L86.3548 314.359C85.2058 313.839 83.8516 314.143 83.0345 315.103L85.189 316.936ZM71.4521 316.878L78.0974 324.598L82.3849 320.908L75.7395 313.188L71.4521 316.878ZM77.176 306.458L71.4413 313.2L75.7504 316.865L81.4851 310.123L77.176 306.458ZM76.8768 310.285L78.1648 310.868L80.4964 305.714L79.2084 305.131L76.8768 310.285ZM74.8532 315.823L80.1971 309.541L75.888 305.875L70.5441 312.158L74.8532 315.823ZM64.4662 308.763L70.5549 315.836L74.8424 312.145L68.7537 305.072L64.4662 308.763ZM66.5165 310.078L67.7991 309.484L65.4207 304.351L64.1381 304.945L66.5165 310.078ZM73.9506 313.194L67.471 305.666L63.1836 309.357L69.6632 316.884L73.9506 313.194ZM67.3078 324.694L73.9614 316.872L69.6523 313.206L62.9987 321.029L67.3078 324.694ZM67.6075 320.867L66.3195 320.284L63.9871 325.438L65.2751 326.021L67.6075 320.867ZM70.5495 314.249L64.2867 321.612L68.5958 325.277L74.8586 317.914L70.5495 314.249ZM81.4931 321.956L74.8477 314.236L70.5603 317.927L77.2056 325.647L81.4931 321.956ZM74.4543 333.922L81.5039 325.634L77.1948 321.969L70.1452 330.257L74.4543 333.922ZM74.7539 330.095L73.4659 329.512L71.1335 334.666L72.4215 335.249L74.7539 330.095ZM78.092 323.011L71.4332 330.84L75.7423 334.505L82.4011 326.676L78.092 323.011ZM89.348 331.081L82.3902 322.998L78.1028 326.689L85.0605 334.772L89.348 331.081ZM83.1823 342.021L89.3588 334.759L85.0497 331.094L78.8732 338.355L83.1823 342.021ZM83.4819 338.194L82.1939 337.611L79.8615 342.765L81.1495 343.348L83.4819 338.194ZM85.9469 332.136L80.1612 338.938L84.4703 342.604L90.256 335.802L85.9469 332.136ZM96.0218 338.835L90.2451 332.124L85.9577 335.814L91.7344 342.525L96.0218 338.835ZM93.972 337.519L92.6893 338.113L95.0669 343.246L96.3496 342.652L93.972 337.519ZM86.8494 334.766L93.0171 341.931L97.3045 338.24L91.1368 331.075L86.8494 334.766ZM93.0505 323.785L86.8385 331.088L91.1476 334.753L97.3596 327.45L93.0505 323.785ZM92.7512 327.612L94.0392 328.194L96.3708 323.04L95.0828 322.458L92.7512 327.612ZM90.2505 333.711L96.0716 326.867L91.7625 323.202L85.9414 330.046L90.2505 333.711ZM78.9945 325.64L85.9522 333.724L90.2397 330.033L83.2819 321.95L78.9945 325.64ZM84.3225 315.686L78.9837 321.962L83.2927 325.628L88.6316 319.351L84.3225 315.686ZM84.0232 319.513L85.3112 320.096L87.6428 314.941L86.3548 314.359L84.0232 319.513ZM82.3957 324.586L87.3436 318.769L83.0345 315.103L78.0866 320.92L82.3957 324.586Z" fill="#F89790"/>
<path d="M42.7436 189.606L50.2031 211.568L27.0873 210.968L35.7993 231.221" stroke="#F89790" stroke-width="5.6571" stroke-linecap="round" stroke-linejoin="round"/>
<path fill-rule="evenodd" clip-rule="evenodd" d="M81.2998 85.6366L88.8052 70.2776L87.7755 69.3072L80.5505 84.0923L73.1603 68.8627L72.1223 69.8244L79.7954 85.6373L71.8502 101.896L72.8799 102.867L80.5447 87.1814L88.0628 102.675L89.1007 101.713L81.2998 85.6366Z" fill="black"/>
<path d="M88.8052 70.2776L91.3465 71.5194C91.8905 70.4063 91.6467 69.0687 90.7451 68.2191L88.8052 70.2776ZM81.2998 85.6366L78.7584 84.3947C78.3767 85.1759 78.3754 86.0892 78.755 86.8714L81.2998 85.6366ZM87.7755 69.3072L89.7154 67.2487C89.0612 66.6322 88.1528 66.3633 87.2684 66.5245C86.384 66.6857 85.6289 67.2576 85.2342 68.0653L87.7755 69.3072ZM80.5505 84.0923L78.0057 85.3272C78.4781 86.3007 79.4645 86.9194 80.5466 86.9208C81.6286 86.9223 82.6167 86.3064 83.0918 85.3342L80.5505 84.0923ZM73.1603 68.8627L75.7051 67.6279C75.3139 66.8217 74.5638 66.2485 73.6831 66.0829C72.8024 65.9173 71.8953 66.1788 71.238 66.7878L73.1603 68.8627ZM72.1223 69.8244L70.2 67.7495C69.2868 68.5956 69.0341 69.9393 69.5776 71.0593L72.1223 69.8244ZM79.7954 85.6373L82.3368 86.8792C82.7185 86.098 82.7198 85.1847 82.3402 84.4025L79.7954 85.6373ZM71.8502 101.896L69.3089 100.654C68.7649 101.768 69.0087 103.105 69.9103 103.955L71.8502 101.896ZM72.8799 102.867L70.94 104.925C71.5942 105.542 72.5026 105.811 73.387 105.649C74.2714 105.488 75.0265 104.916 75.4212 104.108L72.8799 102.867ZM80.5447 87.1814L83.0895 85.9465C82.6171 84.973 81.6307 84.3543 80.5486 84.3528C79.4665 84.3513 78.4784 84.9673 78.0034 85.9395L80.5447 87.1814ZM88.0628 102.675L85.5181 103.909C85.9093 104.716 86.6594 105.289 87.5401 105.454C88.4209 105.62 89.328 105.359 89.9853 104.749L88.0628 102.675ZM89.1007 101.713L91.0232 103.788C91.9363 102.942 92.1889 101.598 91.6455 100.478L89.1007 101.713ZM86.2638 69.0357L78.7584 84.3947L83.8411 86.8785L91.3465 71.5194L86.2638 69.0357ZM85.8356 71.3657L86.8653 72.3361L90.7451 68.2191L89.7154 67.2487L85.8356 71.3657ZM83.0918 85.3342L90.3168 70.5491L85.2342 68.0653L78.0091 82.8504L83.0918 85.3342ZM70.6156 70.0976L78.0057 85.3272L83.0952 82.8575L75.7051 67.6279L70.6156 70.0976ZM74.0447 71.8993L75.0827 70.9376L71.238 66.7878L70.2 67.7495L74.0447 71.8993ZM82.3402 84.4025L74.6671 68.5896L69.5776 71.0593L77.2507 86.8721L82.3402 84.4025ZM74.3915 103.138L82.3368 86.8792L77.2541 84.3954L69.3089 100.654L74.3915 103.138ZM74.8198 100.808L73.7901 99.8378L69.9103 103.955L70.94 104.925L74.8198 100.808ZM78.0034 85.9395L70.3385 101.625L75.4212 104.108L83.086 88.4232L78.0034 85.9395ZM90.6076 101.44L83.0895 85.9465L77.9999 88.4162L85.5181 103.909L90.6076 101.44ZM87.1782 99.6382L86.1403 100.6L89.9853 104.749L91.0232 103.788L87.1782 99.6382ZM78.755 86.8714L86.5559 102.948L91.6455 100.478L83.8445 84.4018L78.755 86.8714Z" fill="#F89790"/>
<mask id="path-16-inside-1" fill="white">
<path fill-rule="evenodd" clip-rule="evenodd" d="M81.8647 744.681C82.334 744.677 82.7684 744.929 82.998 745.338L90.7064 759.083C91.2028 759.968 92.4808 759.956 92.9605 759.062L103.916 738.636C104.378 737.775 103.748 736.734 102.771 736.743L85.3467 736.906C84.8774 736.911 84.443 736.659 84.2135 736.25L76.505 722.504C76.0086 721.619 74.7306 721.631 74.251 722.526L63.2952 742.952C62.8334 743.813 63.4631 744.854 64.4401 744.845L81.8647 744.681Z"/>
</mask>
<path d="M63.2952 742.952L67.8265 745.382L63.2952 742.952ZM76.505 722.504L80.9898 719.989L76.505 722.504ZM84.2135 736.25L79.7287 738.765L84.2135 736.25ZM82.998 745.338L87.4828 742.823L82.998 745.338ZM92.9605 759.062L97.4917 761.492L92.9605 759.062ZM95.1912 756.568L87.4828 742.823L78.5132 747.853L86.2216 761.598L95.1912 756.568ZM99.3849 736.205L88.4292 756.632L97.4917 761.492L108.447 741.066L99.3849 736.205ZM85.395 742.048L102.82 741.884L102.723 731.601L85.2984 731.765L85.395 742.048ZM72.0202 725.02L79.7287 738.765L88.6983 733.735L80.9898 719.989L72.0202 725.02ZM67.8265 745.382L78.7822 724.956L69.7197 720.095L58.7639 740.522L67.8265 745.382ZM81.8164 739.54L64.3918 739.703L64.4884 749.987L81.913 749.823L81.8164 739.54ZM58.7639 740.522C56.4548 744.827 59.6032 750.033 64.4884 749.987L64.3918 739.703C67.3229 739.676 69.212 742.799 67.8265 745.382L58.7639 740.522ZM80.9898 719.989C78.5081 715.564 72.1178 715.624 69.7197 720.095L78.7822 724.956C77.3434 727.639 73.5092 727.675 72.0202 725.02L80.9898 719.989ZM85.2984 731.765C86.7063 731.752 88.0096 732.507 88.6983 733.735L79.7287 738.765C80.8765 740.812 83.0485 742.07 85.395 742.048L85.2984 731.765ZM108.447 741.066C110.757 736.761 107.608 731.555 102.723 731.601L102.82 741.884C99.8885 741.912 97.9994 738.789 99.3849 736.205L108.447 741.066ZM87.4828 742.823C86.3349 740.776 84.1629 739.518 81.8164 739.54L81.913 749.823C80.5051 749.836 79.2019 749.081 78.5132 747.853L87.4828 742.823ZM86.2216 761.598C88.7034 766.024 95.0936 765.964 97.4917 761.492L88.4292 756.632C89.8681 753.949 93.7022 753.913 95.1912 756.568L86.2216 761.598Z" fill="#F89790" mask="url(#path-16-inside-1)"/>
</svg>



