<svg width="1440" height="1119" viewBox="0 0 1440 1119" fill="none" xmlns="http://www.w3.org/2000/svg">
<ellipse cx="1233.42" cy="650.45" rx="9.33127" ry="9.36271" transform="rotate(179.462 1233.42 650.45)" stroke="#F89790" stroke-width="9.48161"/>
<path d="M396.698 340.454C389.866 358.187 372.358 357.036 359.412 344.742C346.465 332.449 327.79 331.145 322.125 349.031" stroke="#F89790" stroke-width="9.48161" stroke-linecap="round"/>
<path d="M105.479 796.551L89.125 781.568C88.2521 780.769 86.919 780.748 86.0219 781.521L68.1554 796.902" stroke="#F89790" stroke-width="9.48161" stroke-linecap="round"/>
<path d="M86.7028 784.522L87.0139 817.625" stroke="#F89790" stroke-width="9.48161" stroke-linecap="round"/>
<path d="M1008.01 911.625L1007.66 874.175" stroke="#F89790" stroke-width="9.48161" stroke-linecap="round"/>
<path d="M1026.5 892.725L989.176 893.075" stroke="#F89790" stroke-width="9.48161" stroke-linecap="round"/>
<path d="M1424.99 353.072L1394.9 371.351C1386.3 376.574 1383.64 387.825 1389 396.34V396.34C1392.33 401.633 1398.17 404.821 1404.42 404.763L1406.97 404.739C1413.04 404.682 1418.69 401.629 1422.06 396.584V396.584C1427.94 387.784 1425.18 375.847 1416.03 370.523L1386.67 353.432" stroke="#F89790" stroke-width="9.48161" stroke-linecap="round" stroke-linejoin="round"/>
<path d="M29.9878 982.072L-0.103384 1000.35C-8.70109 1005.57 -11.3559 1016.83 -5.9995 1025.34V1025.34C-2.66998 1030.63 3.16608 1033.82 9.41889 1033.76L11.9709 1033.74C18.0386 1033.68 23.686 1030.63 27.0577 1025.58V1025.58C32.9389 1016.78 30.1782 1004.85 21.0305 999.523L-8.33535 982.432" stroke="#F89790" stroke-width="9.48161" stroke-linecap="round" stroke-linejoin="round"/>
<path fill-rule="evenodd" clip-rule="evenodd" d="M1113.8 457.182L1097.14 426.596L1096.82 426.853L1096 426.165L1079.28 456.542L1080.42 457.496L1096.45 428.38L1112.65 458.127L1113.8 457.182Z" fill="black"/>
<path d="M1097.14 426.596L1101.3 424.328C1100.62 423.086 1099.43 422.211 1098.04 421.942C1096.65 421.673 1095.21 422.038 1094.12 422.938L1097.14 426.596ZM1113.8 457.182L1116.82 460.841C1118.57 459.396 1119.05 456.91 1117.96 454.914L1113.8 457.182ZM1096.82 426.853L1093.78 430.487C1095.53 431.954 1098.08 431.964 1099.84 430.512L1096.82 426.853ZM1096 426.165L1099.05 422.531C1097.96 421.62 1096.52 421.244 1095.13 421.505C1093.74 421.766 1092.53 422.637 1091.85 423.879L1096 426.165ZM1079.28 456.542L1075.13 454.256C1074.04 456.241 1074.5 458.721 1076.24 460.176L1079.28 456.542ZM1080.42 457.496L1077.38 461.13C1078.46 462.04 1079.9 462.417 1081.3 462.156C1082.69 461.895 1083.89 461.024 1084.58 459.782L1080.42 457.496ZM1096.45 428.38L1100.61 426.112C1099.78 424.591 1098.19 423.643 1096.46 423.639C1094.73 423.636 1093.13 424.577 1092.29 426.094L1096.45 428.38ZM1112.65 458.127L1108.49 460.395C1109.17 461.637 1110.36 462.512 1111.75 462.781C1113.14 463.05 1114.58 462.685 1115.67 461.786L1112.65 458.127ZM1092.97 428.865L1109.64 459.45L1117.96 454.914L1101.3 424.328L1092.97 428.865ZM1099.84 430.512L1100.15 430.255L1094.12 422.938L1093.81 423.195L1099.84 430.512ZM1092.96 429.798L1093.78 430.487L1099.87 423.219L1099.05 422.531L1092.96 429.798ZM1083.44 458.828L1100.16 428.45L1091.85 423.879L1075.13 454.256L1083.44 458.828ZM1083.47 453.862L1082.33 452.908L1076.24 460.176L1077.38 461.13L1083.47 453.862ZM1092.29 426.094L1076.27 455.21L1084.58 459.782L1100.6 430.666L1092.29 426.094ZM1116.82 455.859L1100.61 426.112L1092.28 430.648L1108.49 460.395L1116.82 455.859ZM1110.79 453.524L1109.64 454.469L1115.67 461.786L1116.82 460.841L1110.79 453.524Z" fill="#F89790"/>
<path fill-rule="evenodd" clip-rule="evenodd" d="M1434.12 31.606L1423.03 18.7238L1432.67 7.39633L1430.54 6.43342L1421.55 17.0018L1411.6 5.44122L1409.48 6.42304L1420.08 18.734L1409.25 31.4709L1411.37 32.4338L1421.56 20.4561L1432.65 33.3382L1421 47.0319L1423.13 47.9948L1434.13 35.0603L1445.63 48.4158L1435.42 60.4135L1437.55 61.3764L1447.11 50.1379L1456.66 61.2259L1458.77 60.2441L1448.58 48.4056L1458.85 36.3389L1456.72 35.376L1447.1 46.6835L1435.61 33.328L1444.43 22.9573L1442.3 21.9944L1434.12 31.606Z" fill="black"/>
<path d="M1423.03 18.7238L1419.42 15.6522C1417.91 17.431 1417.92 20.0467 1419.44 21.8166L1423.03 18.7238ZM1434.12 31.606L1430.53 34.6988C1431.43 35.7487 1432.75 36.3508 1434.14 36.3467C1435.52 36.3427 1436.84 35.7328 1437.73 34.6776L1434.12 31.606ZM1432.67 7.39633L1436.28 10.4679C1437.25 9.33375 1437.62 7.81223 1437.3 6.35932C1436.97 4.90642 1435.98 3.69093 1434.62 3.07711L1432.67 7.39633ZM1430.54 6.43342L1432.5 2.1142C1430.57 1.24278 1428.3 1.75167 1426.93 3.36182L1430.54 6.43342ZM1421.55 17.0018L1417.96 20.0946C1418.86 21.1445 1420.18 21.7466 1421.57 21.7425C1422.95 21.7385 1424.27 21.1286 1425.16 20.0733L1421.55 17.0018ZM1411.6 5.44122L1415.19 2.34841C1413.81 0.742326 1411.53 0.248806 1409.61 1.13957L1411.6 5.44122ZM1409.48 6.42304L1407.49 2.1214C1406.14 2.74622 1405.16 3.96747 1404.85 5.42029C1404.53 6.87311 1404.92 8.38928 1405.89 9.51585L1409.48 6.42304ZM1420.08 18.734L1423.69 21.8056C1425.2 20.0268 1425.2 17.4111 1423.67 15.6412L1420.08 18.734ZM1409.25 31.4709L1405.63 28.3993C1404.67 29.5335 1404.29 31.055 1404.62 32.5079C1404.94 33.9608 1405.93 35.1763 1407.29 35.7901L1409.25 31.4709ZM1411.37 32.4338L1409.42 36.7531C1411.34 37.6245 1413.61 37.1156 1414.98 35.5054L1411.37 32.4338ZM1421.56 20.4561L1425.15 17.3633C1424.25 16.3133 1422.93 15.7112 1421.55 15.7153C1420.16 15.7194 1418.85 16.3292 1417.95 17.3845L1421.56 20.4561ZM1432.65 33.3382L1436.26 36.4098C1437.77 34.631 1437.77 32.0153 1436.24 30.2454L1432.65 33.3382ZM1421 47.0319L1417.39 43.9603C1416.43 45.0945 1416.05 46.616 1416.38 48.0689C1416.7 49.5218 1417.69 50.7373 1419.05 51.3511L1421 47.0319ZM1423.13 47.9948L1421.18 52.314C1423.1 53.1854 1425.37 52.6765 1426.74 51.0664L1423.13 47.9948ZM1434.13 35.0603L1437.73 31.9675C1436.82 30.9175 1435.5 30.3154 1434.12 30.3195C1432.73 30.3236 1431.42 30.9334 1430.52 31.9887L1434.13 35.0603ZM1445.63 48.4158L1449.24 51.4874C1450.75 49.7086 1450.74 47.0929 1449.22 45.323L1445.63 48.4158ZM1435.42 60.4135L1431.81 57.3419C1430.85 58.4761 1430.47 59.9976 1430.8 61.4505C1431.12 62.9034 1432.11 64.1189 1433.47 64.7327L1435.42 60.4135ZM1437.55 61.3764L1435.6 65.6957C1437.52 66.5671 1439.79 66.0582 1441.16 64.448L1437.55 61.3764ZM1447.11 50.1379L1450.7 47.045C1449.8 45.9951 1448.48 45.393 1447.1 45.3971C1445.71 45.4012 1444.4 46.011 1443.5 47.0663L1447.11 50.1379ZM1456.66 61.2259L1453.06 64.3187C1454.44 65.9248 1456.73 66.4183 1458.65 65.5276L1456.66 61.2259ZM1458.77 60.2441L1460.77 64.5457C1462.12 63.9209 1463.09 62.6997 1463.41 61.2469C1463.72 59.794 1463.34 58.2779 1462.37 57.1513L1458.77 60.2441ZM1448.58 48.4056L1444.97 45.334C1443.46 47.1128 1443.47 49.7285 1444.99 51.4984L1448.58 48.4056ZM1458.85 36.3389L1462.46 39.4105C1463.42 38.2763 1463.8 36.7548 1463.47 35.3019C1463.15 33.849 1462.16 32.6335 1460.8 32.0197L1458.85 36.3389ZM1456.72 35.376L1458.67 31.0568C1456.75 30.1854 1454.48 30.6943 1453.11 32.3044L1456.72 35.376ZM1447.1 46.6835L1443.51 49.7764C1444.41 50.8263 1445.73 51.4284 1447.12 51.4243C1448.5 51.4202 1449.82 50.8104 1450.71 49.7551L1447.1 46.6835ZM1435.61 33.328L1431.99 30.2564C1430.48 32.0352 1430.49 34.6509 1432.01 36.4208L1435.61 33.328ZM1444.43 22.9573L1448.04 26.0289C1449 24.8947 1449.38 23.3732 1449.05 21.9203C1448.73 20.4674 1447.74 19.2519 1446.38 18.6381L1444.43 22.9573ZM1442.3 21.9944L1444.25 17.6751C1442.33 16.8037 1440.06 17.3126 1438.69 18.9228L1442.3 21.9944ZM1419.44 21.8166L1430.53 34.6988L1437.72 28.5132L1426.63 15.631L1419.44 21.8166ZM1429.06 4.32473L1419.42 15.6522L1426.65 21.7954L1436.28 10.4679L1429.06 4.32473ZM1428.59 10.7526L1430.72 11.7155L1434.62 3.07711L1432.5 2.1142L1428.59 10.7526ZM1425.16 20.0733L1434.15 9.50502L1426.93 3.36182L1417.94 13.9302L1425.16 20.0733ZM1408.01 8.53402L1417.96 20.0946L1425.15 13.9089L1415.19 2.34841L1408.01 8.53402ZM1411.47 10.7247L1413.59 9.74285L1409.61 1.13957L1407.49 2.1214L1411.47 10.7247ZM1423.67 15.6412L1413.07 3.33023L1405.89 9.51585L1416.49 21.8268L1423.67 15.6412ZM1412.86 34.5425L1423.69 21.8056L1416.47 15.6624L1405.63 28.3993L1412.86 34.5425ZM1413.33 28.1146L1411.2 27.1517L1407.29 35.7901L1409.42 36.7531L1413.33 28.1146ZM1417.95 17.3845L1407.76 29.3622L1414.98 35.5054L1425.17 23.5277L1417.95 17.3845ZM1436.24 30.2454L1425.15 17.3633L1417.97 23.5489L1429.06 36.431L1436.24 30.2454ZM1424.61 50.1035L1436.26 36.4098L1429.04 30.2666L1417.39 43.9603L1424.61 50.1035ZM1425.08 43.6756L1422.96 42.7127L1419.05 51.3511L1421.18 52.314L1425.08 43.6756ZM1430.52 31.9887L1419.52 44.9232L1426.74 51.0664L1437.74 38.1319L1430.52 31.9887ZM1449.22 45.323L1437.73 31.9675L1430.54 38.1531L1442.04 51.5086L1449.22 45.323ZM1439.03 63.4851L1449.24 51.4874L1442.02 45.3442L1431.81 57.3419L1439.03 63.4851ZM1439.51 57.0572L1437.38 56.0943L1433.47 64.7327L1435.6 65.6957L1439.51 57.0572ZM1443.5 47.0663L1433.94 58.3048L1441.16 64.448L1450.72 53.2095L1443.5 47.0663ZM1460.25 58.1331L1450.7 47.045L1443.52 53.2307L1453.06 64.3187L1460.25 58.1331ZM1456.78 55.9425L1454.66 56.9243L1458.65 65.5276L1460.77 64.5457L1456.78 55.9425ZM1444.99 51.4984L1455.18 63.3369L1462.37 57.1513L1452.18 45.3128L1444.99 51.4984ZM1455.24 33.2673L1444.97 45.334L1452.2 51.4772L1462.46 39.4105L1455.24 33.2673ZM1454.77 39.6952L1456.89 40.6581L1460.8 32.0197L1458.67 31.0568L1454.77 39.6952ZM1450.71 49.7551L1460.33 38.4476L1453.11 32.3044L1443.49 43.6119L1450.71 49.7551ZM1432.01 36.4208L1443.51 49.7764L1450.69 43.5907L1439.2 30.2352L1432.01 36.4208ZM1440.82 19.8857L1431.99 30.2564L1439.22 36.3996L1448.04 26.0289L1440.82 19.8857ZM1440.34 26.3136L1442.47 27.2765L1446.38 18.6381L1444.25 17.6751L1440.34 26.3136ZM1437.73 34.6776L1445.91 25.066L1438.69 18.9228L1430.51 28.5344L1437.73 34.6776Z" fill="#F89790"/>
<path d="M192.733 453L205.058 489.286L166.865 488.295L181.259 521.758" stroke="#F89790" stroke-width="9.48161" stroke-linecap="round" stroke-linejoin="round"/>
<path fill-rule="evenodd" clip-rule="evenodd" d="M107.126 195.957L119.527 170.58L117.825 168.977L105.888 193.406L93.6774 168.243L91.9625 169.831L104.64 195.958L91.5127 222.823L93.214 224.426L105.879 198.51L118.3 224.108L120.015 222.52L107.126 195.957Z" fill="black"/>
<path d="M119.527 170.58L123.786 172.662C124.698 170.796 124.289 168.555 122.778 167.13L119.527 170.58ZM107.126 195.957L102.866 193.876C102.227 195.185 102.224 196.716 102.861 198.027L107.126 195.957ZM117.825 168.977L121.077 165.527C119.98 164.494 118.458 164.043 116.976 164.313C115.493 164.583 114.228 165.542 113.566 166.896L117.825 168.977ZM105.888 193.406L101.623 195.476C102.414 197.107 104.068 198.144 105.881 198.147C107.695 198.149 109.351 197.117 110.147 195.487L105.888 193.406ZM93.6774 168.243L97.9425 166.173C97.2868 164.822 96.0296 163.861 94.5535 163.583C93.0775 163.306 91.5571 163.744 90.4554 164.765L93.6774 168.243ZM91.9625 169.831L88.7405 166.354C87.2099 167.772 86.7864 170.024 87.6973 171.901L91.9625 169.831ZM104.64 195.958L108.9 198.04C109.54 196.731 109.542 195.2 108.906 193.889L104.64 195.958ZM91.5127 222.823L87.2533 220.741C86.3416 222.607 86.7501 224.849 88.2612 226.273L91.5127 222.823ZM93.214 224.426L89.9625 227.876C91.059 228.91 92.5815 229.36 94.0639 229.09C95.5462 228.82 96.8119 227.861 97.4735 226.508L93.214 224.426ZM105.879 198.51L110.144 196.44C109.352 194.809 107.699 193.772 105.885 193.769C104.071 193.767 102.415 194.799 101.619 196.428L105.879 198.51ZM118.3 224.108L114.035 226.178C114.691 227.529 115.948 228.49 117.424 228.768C118.9 229.045 120.42 228.607 121.522 227.586L118.3 224.108ZM120.015 222.52L123.237 225.997C124.768 224.579 125.191 222.327 124.28 220.45L120.015 222.52ZM115.267 168.499L102.866 193.876L111.385 198.039L123.786 172.662L115.267 168.499ZM114.574 172.427L116.275 174.031L122.778 167.13L121.077 165.527L114.574 172.427ZM110.147 195.487L122.085 171.058L113.566 166.896L101.628 191.324L110.147 195.487ZM89.4122 170.312L101.623 195.476L110.153 191.336L97.9425 166.173L89.4122 170.312ZM95.1844 173.309L96.8994 171.72L90.4554 164.765L88.7405 166.354L95.1844 173.309ZM108.906 193.889L96.2276 167.762L87.6973 171.901L100.375 198.028L108.906 193.889ZM95.7721 224.904L108.9 198.04L100.381 193.877L87.2533 220.741L95.7721 224.904ZM96.4656 220.976L94.7643 219.373L88.2612 226.273L89.9625 227.876L96.4656 220.976ZM101.619 196.428L88.9546 222.345L97.4735 226.508L110.138 200.591L101.619 196.428ZM122.565 222.039L110.144 196.44L101.613 200.579L114.035 226.178L122.565 222.039ZM116.793 219.042L115.078 220.631L121.522 227.586L123.237 225.997L116.793 219.042ZM102.861 198.027L115.75 224.589L124.28 220.45L111.391 193.888L102.861 198.027Z" fill="#F89790"/>
<mask id="path-16-inside-1" fill="white">
<path fill-rule="evenodd" clip-rule="evenodd" d="M1209.27 164.17C1210.05 164.163 1210.77 164.578 1211.15 165.255L1223.88 187.966C1224.7 189.428 1226.81 189.408 1227.61 187.931L1245.71 154.181C1246.47 152.758 1245.43 151.038 1243.82 151.053L1215.03 151.324C1214.25 151.331 1213.53 150.915 1213.15 150.239L1200.42 127.528C1199.6 126.066 1197.49 126.086 1196.69 127.563L1178.59 161.313C1177.83 162.735 1178.87 164.456 1180.48 164.44L1209.27 164.17Z"/>
</mask>
<path d="M1178.59 161.313L1186.95 165.794L1178.59 161.313ZM1200.42 127.528L1192.15 132.166L1200.42 127.528ZM1196.69 127.563L1205.05 132.045L1196.69 127.563ZM1215.03 151.324L1214.94 141.843L1215.03 151.324ZM1213.15 150.239L1204.88 154.877L1213.15 150.239ZM1245.71 154.181L1254.06 158.663L1245.71 154.181ZM1243.82 151.053L1243.91 160.534L1243.82 151.053ZM1211.15 165.255L1219.42 160.617L1211.15 165.255ZM1209.27 164.17L1209.36 173.651L1209.27 164.17ZM1223.88 187.966L1232.15 183.328L1223.88 187.966ZM1227.61 187.931L1235.96 192.412L1227.61 187.931ZM1232.15 183.328L1219.42 160.617L1202.88 169.893L1215.61 192.603L1232.15 183.328ZM1237.35 149.699L1219.25 183.449L1235.96 192.412L1254.06 158.663L1237.35 149.699ZM1215.12 160.805L1243.91 160.534L1243.73 141.572L1214.94 141.843L1215.12 160.805ZM1192.15 132.166L1204.88 154.877L1221.42 145.601L1208.69 122.89L1192.15 132.166ZM1186.95 165.794L1205.05 132.045L1188.34 123.082L1170.24 156.831L1186.95 165.794ZM1209.18 154.689L1180.39 154.959L1180.57 173.922L1209.36 173.651L1209.18 154.689ZM1170.24 156.831C1166.07 164.605 1171.75 174.005 1180.57 173.922L1180.39 154.959C1185.99 154.907 1189.59 160.866 1186.95 165.794L1170.24 156.831ZM1208.69 122.89C1204.21 114.9 1192.67 115.008 1188.34 123.082L1205.05 132.045C1202.3 137.163 1194.99 137.232 1192.15 132.166L1208.69 122.89ZM1214.94 141.843C1217.62 141.817 1220.11 143.258 1221.42 145.601L1204.88 154.877C1206.96 158.572 1210.88 160.845 1215.12 160.805L1214.94 141.843ZM1254.06 158.663C1258.23 150.889 1252.55 141.489 1243.73 141.572L1243.91 160.534C1238.31 160.587 1234.71 154.628 1237.35 149.699L1254.06 158.663ZM1219.42 160.617C1217.34 156.921 1213.42 154.649 1209.18 154.689L1209.36 173.651C1206.68 173.676 1204.19 172.236 1202.88 169.893L1219.42 160.617ZM1215.61 192.603C1220.09 200.594 1231.63 200.485 1235.96 192.412L1219.25 183.449C1222 178.331 1229.31 178.262 1232.15 183.328L1215.61 192.603Z" fill="#F89790" mask="url(#path-16-inside-1)"/>
<path d="M1422.73 855L1435.06 891.286L1396.86 890.295L1411.26 923.758" stroke="#F89790" stroke-width="9.48161" stroke-linecap="round" stroke-linejoin="round"/>
<ellipse cx="335.419" cy="707.45" rx="9.33127" ry="9.36271" transform="rotate(179.462 335.419 707.45)" stroke="#F89790" stroke-width="9.48161"/>
</svg>
