<svg width="456" height="929" viewBox="0 0 456 929" fill="none" xmlns="http://www.w3.org/2000/svg">
<ellipse cx="249.419" cy="650.45" rx="9.33127" ry="9.36271" transform="rotate(179.462 249.419 650.45)" stroke="#F89790" stroke-width="9.48161"/>
<path d="M24.0134 911.625L23.6615 874.175" stroke="#F89790" stroke-width="9.48161" stroke-linecap="round"/>
<path d="M42.4993 892.725L5.17582 893.075" stroke="#F89790" stroke-width="9.48161" stroke-linecap="round"/>
<path d="M440.989 353.072L410.897 371.351C402.3 376.574 399.645 387.825 405.001 396.34V396.34C408.331 401.633 414.167 404.821 420.42 404.763L422.972 404.739C429.039 404.682 434.687 401.629 438.059 396.584V396.584C443.94 387.784 441.179 375.847 432.031 370.523L402.666 353.432" stroke="#F89790" stroke-width="9.48161" stroke-linecap="round" stroke-linejoin="round"/>
<path fill-rule="evenodd" clip-rule="evenodd" d="M129.8 457.182L113.137 426.596L112.825 426.853L112.003 426.165L95.2838 456.542L96.4225 457.496L112.447 428.38L128.654 458.127L129.8 457.182Z" fill="black"/>
<path d="M113.137 426.596L117.3 424.328C116.623 423.086 115.427 422.211 114.038 421.942C112.65 421.673 111.213 422.038 110.122 422.938L113.137 426.596ZM129.8 457.182L132.815 460.841C134.569 459.396 135.05 456.91 133.963 454.914L129.8 457.182ZM112.825 426.853L109.78 430.487C111.531 431.954 114.078 431.964 115.84 430.512L112.825 426.853ZM112.003 426.165L115.048 422.531C113.961 421.62 112.524 421.244 111.13 421.505C109.737 421.766 108.533 422.637 107.85 423.879L112.003 426.165ZM95.2838 456.542L91.1305 454.256C90.0381 456.241 90.5026 458.721 92.239 460.176L95.2838 456.542ZM96.4225 457.496L93.3778 461.13C94.4645 462.04 95.9016 462.417 97.2951 462.156C98.6886 461.895 99.8922 461.024 100.576 459.782L96.4225 457.496ZM112.447 428.38L116.61 426.112C115.782 424.591 114.19 423.643 112.457 423.639C110.725 423.636 109.129 424.577 108.294 426.094L112.447 428.38ZM128.654 458.127L124.491 460.395C125.168 461.637 126.364 462.512 127.752 462.781C129.141 463.05 130.577 462.685 131.669 461.786L128.654 458.127ZM108.974 428.865L125.637 459.45L133.963 454.914L117.3 424.328L108.974 428.865ZM115.84 430.512L116.152 430.255L110.122 422.938L109.81 423.195L115.84 430.512ZM108.958 429.798L109.78 430.487L115.87 423.219L115.048 422.531L108.958 429.798ZM99.4371 458.828L116.156 428.45L107.85 423.879L91.1305 454.256L99.4371 458.828ZM99.4672 453.862L98.3285 452.908L92.239 460.176L93.3778 461.13L99.4672 453.862ZM108.294 426.094L92.2692 455.21L100.576 459.782L116.601 430.666L108.294 426.094ZM132.817 455.859L116.61 426.112L108.284 430.648L124.491 460.395L132.817 455.859ZM126.785 453.524L125.639 454.469L131.669 461.786L132.815 460.841L126.785 453.524Z" fill="#F89790"/>
<path fill-rule="evenodd" clip-rule="evenodd" d="M450.123 31.606L439.035 18.7238L448.67 7.39633L446.542 6.43342L437.552 17.0018L427.601 5.44122L425.482 6.42304L436.079 18.734L425.245 31.4709L427.373 32.4338L437.561 20.4561L448.65 33.3382L437.002 47.0319L439.13 47.9948L450.132 35.0603L461.628 48.4158L451.423 60.4135L453.551 61.3764L463.111 50.1379L472.655 61.2259L474.775 60.2441L464.584 48.4056L474.848 36.3389L472.72 35.376L463.102 46.6835L451.606 33.328L460.427 22.9573L458.299 21.9944L450.123 31.606Z" fill="black"/>
<path d="M439.035 18.7238L435.423 15.6522C433.91 17.431 433.918 20.0467 435.442 21.8166L439.035 18.7238ZM450.123 31.606L446.53 34.6988C447.434 35.7487 448.752 36.3508 450.137 36.3467C451.523 36.3427 452.837 35.7328 453.734 34.6776L450.123 31.606ZM448.67 7.39633L452.281 10.4679C453.245 9.33375 453.621 7.81223 453.296 6.35932C452.97 4.90642 451.98 3.69093 450.624 3.07711L448.67 7.39633ZM446.542 6.43342L448.496 2.1142C446.57 1.24278 444.3 1.75167 442.93 3.36182L446.542 6.43342ZM437.552 17.0018L433.959 20.0946C434.863 21.1445 436.181 21.7466 437.566 21.7425C438.952 21.7385 440.266 21.1286 441.163 20.0733L437.552 17.0018ZM427.601 5.44122L431.194 2.34841C429.812 0.742326 427.531 0.248806 425.608 1.13957L427.601 5.44122ZM425.482 6.42304L423.489 2.1214C422.14 2.74622 421.163 3.96747 420.848 5.42029C420.534 6.87311 420.919 8.38928 421.889 9.51585L425.482 6.42304ZM436.079 18.734L439.69 21.8056C441.203 20.0268 441.195 17.4111 439.672 15.6412L436.079 18.734ZM425.245 31.4709L421.634 28.3993C420.669 29.5335 420.293 31.055 420.619 32.5079C420.945 33.9608 421.934 35.1763 423.291 35.7901L425.245 31.4709ZM427.373 32.4338L425.419 36.7531C427.345 37.6245 429.615 37.1156 430.984 35.5054L427.373 32.4338ZM437.561 20.4561L441.154 17.3633C440.25 16.3133 438.933 15.7112 437.547 15.7153C436.162 15.7194 434.848 16.3292 433.95 17.3845L437.561 20.4561ZM448.65 33.3382L452.261 36.4098C453.774 34.631 453.766 32.0153 452.243 30.2454L448.65 33.3382ZM437.002 47.0319L433.391 43.9603C432.426 45.0945 432.051 46.616 432.376 48.0689C432.702 49.5218 433.691 50.7373 435.048 51.3511L437.002 47.0319ZM439.13 47.9948L437.176 52.314C439.102 53.1854 441.372 52.6765 442.742 51.0664L439.13 47.9948ZM450.132 35.0603L453.725 31.9675C452.821 30.9175 451.504 30.3154 450.118 30.3195C448.733 30.3236 447.419 30.9334 446.521 31.9887L450.132 35.0603ZM461.628 48.4158L465.24 51.4874C466.753 49.7086 466.745 47.0929 465.221 45.323L461.628 48.4158ZM451.423 60.4135L447.812 57.3419C446.847 58.4761 446.472 59.9976 446.797 61.4505C447.123 62.9034 448.112 64.1189 449.469 64.7327L451.423 60.4135ZM453.551 61.3764L451.597 65.6957C453.523 66.5671 455.793 66.0582 457.163 64.448L453.551 61.3764ZM463.111 50.1379L466.704 47.045C465.8 45.9951 464.482 45.393 463.097 45.3971C461.711 45.4012 460.397 46.011 459.5 47.0663L463.111 50.1379ZM472.655 61.2259L469.062 64.3187C470.445 65.9248 472.725 66.4183 474.648 65.5276L472.655 61.2259ZM474.775 60.2441L476.767 64.5457C478.116 63.9209 479.094 62.6997 479.408 61.2469C479.723 59.794 479.337 58.2779 478.368 57.1513L474.775 60.2441ZM464.584 48.4056L460.973 45.334C459.46 47.1128 459.468 49.7285 460.991 51.4984L464.584 48.4056ZM474.848 36.3389L478.459 39.4105C479.424 38.2763 479.8 36.7548 479.474 35.3019C479.148 33.849 478.159 32.6335 476.802 32.0197L474.848 36.3389ZM472.72 35.376L474.674 31.0568C472.748 30.1854 470.478 30.6943 469.109 32.3044L472.72 35.376ZM463.102 46.6835L459.509 49.7764C460.413 50.8263 461.73 51.4284 463.116 51.4243C464.501 51.4202 465.815 50.8104 466.713 49.7551L463.102 46.6835ZM451.606 33.328L447.994 30.2564C446.481 32.0352 446.489 34.6509 448.013 36.4208L451.606 33.328ZM460.427 22.9573L464.038 26.0289C465.003 24.8947 465.379 23.3732 465.053 21.9203C464.727 20.4674 463.738 19.2519 462.381 18.6381L460.427 22.9573ZM458.299 21.9944L460.253 17.6751C458.327 16.8037 456.057 17.3126 454.688 18.9228L458.299 21.9944ZM435.442 21.8166L446.53 34.6988L453.716 28.5132L442.628 15.631L435.442 21.8166ZM445.058 4.32473L435.423 15.6522L442.646 21.7954L452.281 10.4679L445.058 4.32473ZM444.587 10.7526L446.715 11.7155L450.624 3.07711L448.496 2.1142L444.587 10.7526ZM441.163 20.0733L450.153 9.50502L442.93 3.36182L433.941 13.9302L441.163 20.0733ZM424.008 8.53402L433.959 20.0946L441.145 13.9089L431.194 2.34841L424.008 8.53402ZM427.475 10.7247L429.594 9.74285L425.608 1.13957L423.489 2.1214L427.475 10.7247ZM439.672 15.6412L429.075 3.33023L421.889 9.51585L432.486 21.8268L439.672 15.6412ZM428.856 34.5425L439.69 21.8056L432.468 15.6624L421.634 28.3993L428.856 34.5425ZM429.327 28.1146L427.199 27.1517L423.291 35.7901L425.419 36.7531L429.327 28.1146ZM433.95 17.3845L423.762 29.3622L430.984 35.5054L441.172 23.5277L433.95 17.3845ZM452.243 30.2454L441.154 17.3633L433.968 23.5489L445.057 36.431L452.243 30.2454ZM440.613 50.1035L452.261 36.4098L445.039 30.2666L433.391 43.9603L440.613 50.1035ZM441.085 43.6756L438.957 42.7127L435.048 51.3511L437.176 52.314L441.085 43.6756ZM446.521 31.9887L435.519 44.9232L442.742 51.0664L453.743 38.1319L446.521 31.9887ZM465.221 45.323L453.725 31.9675L446.539 38.1531L458.035 51.5086L465.221 45.323ZM455.035 63.4851L465.24 51.4874L458.017 45.3442L447.812 57.3419L455.035 63.4851ZM455.506 57.0572L453.378 56.0943L449.469 64.7327L451.597 65.6957L455.506 57.0572ZM459.5 47.0663L449.94 58.3048L457.163 64.448L466.722 53.2095L459.5 47.0663ZM476.248 58.1331L466.704 47.045L459.518 53.2307L469.062 64.3187L476.248 58.1331ZM472.782 55.9425L470.662 56.9243L474.648 65.5276L476.767 64.5457L472.782 55.9425ZM460.991 51.4984L471.182 63.3369L478.368 57.1513L468.177 45.3128L460.991 51.4984ZM471.237 33.2673L460.973 45.334L468.195 51.4772L478.459 39.4105L471.237 33.2673ZM470.765 39.6952L472.894 40.6581L476.802 32.0197L474.674 31.0568L470.765 39.6952ZM466.713 49.7551L476.331 38.4476L469.109 32.3044L459.491 43.6119L466.713 49.7551ZM448.013 36.4208L459.509 49.7764L466.695 43.5907L455.199 30.2352L448.013 36.4208ZM456.816 19.8857L447.994 30.2564L455.217 36.3996L464.038 26.0289L456.816 19.8857ZM456.344 26.3136L458.472 27.2765L462.381 18.6381L460.253 17.6751L456.344 26.3136ZM453.734 34.6776L461.91 25.066L454.688 18.9228L446.512 28.5344L453.734 34.6776Z" fill="#F89790"/>
<mask id="path-9-inside-1" fill="white">
<path fill-rule="evenodd" clip-rule="evenodd" d="M225.273 164.17C226.049 164.163 226.766 164.578 227.146 165.255L239.882 187.966C240.702 189.428 242.814 189.408 243.606 187.931L261.708 154.181C262.471 152.758 261.431 151.038 259.816 151.053L231.026 151.324C230.251 151.331 229.533 150.915 229.154 150.239L216.417 127.528C215.597 126.066 213.486 126.086 212.693 127.563L194.591 161.313C193.828 162.735 194.869 164.456 196.483 164.44L225.273 164.17Z"/>
</mask>
<path d="M194.591 161.313L202.947 165.794L194.591 161.313ZM216.417 127.528L208.148 132.166L216.417 127.528ZM212.693 127.563L221.049 132.045L212.693 127.563ZM231.026 151.324L230.937 141.843L231.026 151.324ZM229.154 150.239L220.884 154.877L229.154 150.239ZM261.708 154.181L270.064 158.663L261.708 154.181ZM259.816 151.053L259.905 160.534L259.816 151.053ZM227.146 165.255L235.416 160.617L227.146 165.255ZM225.273 164.17L225.362 173.651L225.273 164.17ZM239.882 187.966L248.152 183.328L239.882 187.966ZM243.606 187.931L251.962 192.412L243.606 187.931ZM248.152 183.328L235.416 160.617L218.876 169.893L231.612 192.603L248.152 183.328ZM253.352 149.699L235.251 183.449L251.962 192.412L270.064 158.663L253.352 149.699ZM231.115 160.805L259.905 160.534L259.727 141.572L230.937 141.843L231.115 160.805ZM208.148 132.166L220.884 154.877L237.424 145.601L224.687 122.89L208.148 132.166ZM202.947 165.794L221.049 132.045L204.338 123.082L186.236 156.831L202.947 165.794ZM225.184 154.689L196.394 154.959L196.572 173.922L225.362 173.651L225.184 154.689ZM186.236 156.831C182.066 164.605 187.751 174.005 196.572 173.922L196.394 154.959C201.986 154.907 205.59 160.866 202.947 165.794L186.236 156.831ZM224.687 122.89C220.206 114.9 208.668 115.008 204.338 123.082L221.049 132.045C218.304 137.163 210.989 137.232 208.148 132.166L224.687 122.89ZM230.937 141.843C233.623 141.817 236.11 143.258 237.424 145.601L220.884 154.877C222.956 158.572 226.878 160.845 231.115 160.805L230.937 141.843ZM270.064 158.663C274.233 150.889 268.548 141.489 259.727 141.572L259.905 160.534C254.313 160.587 250.709 154.628 253.352 149.699L270.064 158.663ZM235.416 160.617C233.343 156.921 229.421 154.649 225.184 154.689L225.362 173.651C222.676 173.676 220.19 172.236 218.876 169.893L235.416 160.617ZM231.612 192.603C236.093 200.594 247.632 200.485 251.962 192.412L235.251 183.449C237.996 178.331 245.311 178.262 248.152 183.328L231.612 192.603Z" fill="#F89790" mask="url(#path-9-inside-1)"/>
<path d="M438.733 855L451.058 891.286L412.865 890.295L427.259 923.758" stroke="#F89790" stroke-width="9.48161" stroke-linecap="round" stroke-linejoin="round"/>
</svg>
