<svg width="402" height="876" viewBox="0 0 402 876" fill="none" xmlns="http://www.w3.org/2000/svg">
<path d="M396.698 177.454C389.866 195.187 372.358 194.036 359.412 181.742C346.465 169.449 327.79 168.145 322.125 186.031" stroke="#F89790" stroke-width="9.48161" stroke-linecap="round"/>
<path d="M105.479 633.551L89.125 618.568C88.2521 617.769 86.919 617.748 86.0219 618.521L68.1554 633.902" stroke="#F89790" stroke-width="9.48161" stroke-linecap="round"/>
<path d="M86.7028 621.522L87.0139 654.625" stroke="#F89790" stroke-width="9.48161" stroke-linecap="round"/>
<path d="M29.9878 819.072L-0.103384 837.351C-8.70109 842.574 -11.3559 853.825 -5.9995 862.34V862.34C-2.66998 867.633 3.16608 870.821 9.41889 870.763L11.9709 870.739C18.0386 870.682 23.686 867.629 27.0577 862.584V862.584C32.9389 853.784 30.1782 841.847 21.0305 836.523L-8.33535 819.432" stroke="#F89790" stroke-width="9.48161" stroke-linecap="round" stroke-linejoin="round"/>
<path d="M192.733 290L205.058 326.286L166.865 325.295L181.259 358.758" stroke="#F89790" stroke-width="9.48161" stroke-linecap="round" stroke-linejoin="round"/>
<path fill-rule="evenodd" clip-rule="evenodd" d="M107.126 32.9574L119.527 7.58048L117.825 5.97704L105.888 30.4059L93.6774 5.2426L91.9625 6.83144L104.64 32.9584L91.5127 59.8226L93.214 61.4261L105.879 35.5098L118.3 61.1085L120.015 59.5196L107.126 32.9574Z" fill="black"/>
<path d="M119.527 7.58048L123.786 9.66193C124.698 7.79635 124.289 5.55459 122.778 4.13045L119.527 7.58048ZM107.126 32.9574L102.866 30.8759C102.227 32.1852 102.224 33.716 102.861 35.027L107.126 32.9574ZM117.825 5.97704L121.077 2.52701C119.98 1.49357 118.458 1.04292 116.976 1.31302C115.493 1.58312 114.228 2.5418 113.566 3.89558L117.825 5.97704ZM105.888 30.4059L101.623 32.4756C102.414 34.1073 104.068 35.1442 105.881 35.1467C107.695 35.1493 109.351 34.1169 110.147 32.4874L105.888 30.4059ZM93.6774 5.2426L97.9425 3.17294C97.2868 1.82167 96.0296 0.861047 94.5535 0.583466C93.0775 0.305885 91.5571 0.744182 90.4554 1.76496L93.6774 5.2426ZM91.9625 6.83144L88.7405 3.35379C87.2099 4.77186 86.7864 7.02391 87.6973 8.9011L91.9625 6.83144ZM104.64 32.9584L108.9 35.0399C109.54 33.7306 109.542 32.1998 108.906 30.8887L104.64 32.9584ZM91.5127 59.8226L87.2533 57.7412C86.3416 59.6068 86.7501 61.8485 88.2612 63.2727L91.5127 59.8226ZM93.214 61.4261L89.9625 64.8761C91.059 65.9095 92.5815 66.3602 94.0639 66.0901C95.5462 65.82 96.8119 64.8613 97.4735 63.5075L93.214 61.4261ZM105.879 35.5098L110.144 33.4402C109.352 31.8085 107.699 30.7715 105.885 30.769C104.071 30.7665 102.415 31.7989 101.619 33.4284L105.879 35.5098ZM118.3 61.1085L114.035 63.1781C114.691 64.5294 115.948 65.49 117.424 65.7676C118.9 66.0452 120.42 65.6069 121.522 64.5861L118.3 61.1085ZM120.015 59.5196L123.237 62.9973C124.768 61.5792 125.191 59.3272 124.28 57.45L120.015 59.5196ZM115.267 5.49902L102.866 30.8759L111.385 35.0388L123.786 9.66193L115.267 5.49902ZM114.574 9.42706L116.275 11.0305L122.778 4.13045L121.077 2.52701L114.574 9.42706ZM110.147 32.4874L122.085 8.0585L113.566 3.89558L101.628 28.3245L110.147 32.4874ZM89.4122 7.31227L101.623 32.4756L110.153 28.3363L97.9425 3.17294L89.4122 7.31227ZM95.1844 10.3091L96.8994 8.72025L90.4554 1.76496L88.7405 3.35379L95.1844 10.3091ZM108.906 30.8887L96.2276 4.76178L87.6973 8.9011L100.375 35.0281L108.906 30.8887ZM95.7721 61.9041L108.9 35.0399L100.381 30.8769L87.2533 57.7412L95.7721 61.9041ZM96.4656 57.976L94.7643 56.3726L88.2612 63.2727L89.9625 64.8761L96.4656 57.976ZM101.619 33.4284L88.9546 59.3446L97.4735 63.5075L110.138 37.5913L101.619 33.4284ZM122.565 59.0388L110.144 33.4402L101.613 37.5795L114.035 63.1781L122.565 59.0388ZM116.793 56.042L115.078 57.6308L121.522 64.5861L123.237 62.9973L116.793 56.042ZM102.861 35.027L115.75 61.5893L124.28 57.45L111.391 30.8877L102.861 35.027Z" fill="#F89790"/>
<ellipse cx="335.419" cy="544.45" rx="9.33127" ry="9.36271" transform="rotate(179.462 335.419 544.45)" stroke="#F89790" stroke-width="9.48161"/>
</svg>





