<svg width="901" height="395" viewBox="0 0 901 395" fill="none" xmlns="http://www.w3.org/2000/svg">
<path d="M2 39.3401C2 38.2355 1.10457 37.3401 0 37.3401C-1.10457 37.3401 -2 38.2355 -2 39.3401H2ZM62.8172 39.3401L62.8648 41.3395L64.8172 41.2931V39.3401H62.8172ZM163.226 39.3401H161.226V41.3401H163.226V39.3401ZM184 41.3401C185.105 41.3401 186 40.4447 186 39.3401C186 38.2355 185.105 37.3401 184 37.3401V41.3401ZM-2 39.3401C-2 40.157 -1.54029 40.677 -1.28975 40.8971C-1.03879 41.1176 -0.786558 41.2345 -0.656987 41.2892C-0.382656 41.405 -0.10078 41.4681 0.0949675 41.506C0.520275 41.5884 1.07094 41.6488 1.68175 41.6974C2.92665 41.7964 4.69071 41.8662 6.82601 41.9138C11.1091 42.0094 17.0217 42.0186 23.5698 41.975C36.6723 41.8877 52.389 41.5887 62.8648 41.3395L62.7697 37.3407C52.3063 37.5895 36.6144 37.888 23.5431 37.9751C17.0043 38.0186 11.1386 38.0091 6.91526 37.9148C4.7973 37.8676 3.12605 37.7996 1.99894 37.71C1.42375 37.6642 1.05424 37.6175 0.855879 37.579C0.73979 37.5565 0.783954 37.5557 0.898533 37.6041C0.948228 37.6251 1.14007 37.7074 1.35062 37.8924C1.56074 38.077 2 38.5606 2 39.3401H-2ZM64.8172 39.3401C64.8172 23.5825 69.6153 14.3667 75.8059 9.04901C82.0565 3.67976 90.055 2 96.9462 2V-2C89.4934 -2 80.4274 -0.193929 73.1995 6.01476C65.9116 12.275 60.8172 22.7293 60.8172 39.3401H64.8172ZM96.9462 2C107.496 2 116.376 8.14677 122.71 16.1009C129.077 24.0962 132.538 33.5047 132.538 39.3401H136.538C136.538 32.3354 132.579 22.0738 125.839 13.6091C119.065 5.10323 109.149 -2 96.9462 -2V2ZM136.538 39.3401C136.538 37.2249 137.689 35.6924 139.895 34.6192C142.178 33.5088 145.394 33.0304 148.777 33.2073C152.147 33.3835 155.439 34.1975 157.819 35.438C160.292 36.727 161.226 38.1452 161.226 39.3401H165.226C165.226 35.865 162.574 33.4056 159.668 31.8909C156.668 30.3275 152.788 29.4116 148.986 29.2128C145.198 29.0147 141.241 29.5162 138.145 31.0221C134.973 32.5652 132.538 35.2852 132.538 39.3401H136.538ZM163.226 41.3401H184V37.3401H163.226V41.3401Z" transform="translate(204 205)" fill="#F4F4F4"/>
<path d="M2 39.3401C2 38.2355 1.10457 37.3401 0 37.3401C-1.10457 37.3401 -2 38.2355 -2 39.3401H2ZM62.8172 39.3401L62.8648 41.3395L64.8172 41.2931V39.3401H62.8172ZM163.226 39.3401H161.226V41.3401H163.226V39.3401ZM184 41.3401C185.105 41.3401 186 40.4447 186 39.3401C186 38.2355 185.105 37.3401 184 37.3401V41.3401ZM-2 39.3401C-2 40.157 -1.54029 40.677 -1.28975 40.8971C-1.03879 41.1176 -0.786558 41.2345 -0.656987 41.2892C-0.382656 41.405 -0.10078 41.4681 0.0949675 41.506C0.520275 41.5884 1.07094 41.6488 1.68175 41.6974C2.92665 41.7964 4.69071 41.8662 6.82601 41.9138C11.1091 42.0094 17.0217 42.0186 23.5698 41.975C36.6723 41.8877 52.389 41.5887 62.8648 41.3395L62.7697 37.3407C52.3063 37.5895 36.6144 37.888 23.5431 37.9751C17.0043 38.0186 11.1386 38.0091 6.91526 37.9148C4.7973 37.8676 3.12605 37.7996 1.99894 37.71C1.42375 37.6642 1.05424 37.6175 0.855879 37.579C0.73979 37.5565 0.783954 37.5557 0.898533 37.6041C0.948228 37.6251 1.14007 37.7074 1.35062 37.8924C1.56074 38.077 2 38.5606 2 39.3401H-2ZM64.8172 39.3401C64.8172 23.5825 69.6153 14.3667 75.8059 9.04901C82.0565 3.67976 90.055 2 96.9462 2V-2C89.4934 -2 80.4274 -0.193929 73.1995 6.01476C65.9116 12.275 60.8172 22.7293 60.8172 39.3401H64.8172ZM96.9462 2C107.496 2 116.376 8.14677 122.71 16.1009C129.077 24.0962 132.538 33.5047 132.538 39.3401H136.538C136.538 32.3354 132.579 22.0738 125.839 13.6091C119.065 5.10323 109.149 -2 96.9462 -2V2ZM136.538 39.3401C136.538 37.2249 137.689 35.6924 139.895 34.6192C142.178 33.5088 145.394 33.0304 148.777 33.2073C152.147 33.3835 155.439 34.1975 157.819 35.438C160.292 36.727 161.226 38.1452 161.226 39.3401H165.226C165.226 35.865 162.574 33.4056 159.668 31.8909C156.668 30.3275 152.788 29.4116 148.986 29.2128C145.198 29.0147 141.241 29.5162 138.145 31.0221C134.973 32.5652 132.538 35.2852 132.538 39.3401H136.538ZM163.226 41.3401H184V37.3401H163.226V41.3401Z" transform="translate(61 120)" fill="#F4F4F4"/>
<path d="M2 39.3401C2 38.2355 1.10457 37.3401 0 37.3401C-1.10457 37.3401 -2 38.2355 -2 39.3401H2ZM62.8172 39.3401L62.8648 41.3395L64.8172 41.2931V39.3401H62.8172ZM163.226 39.3401H161.226V41.3401H163.226V39.3401ZM184 41.3401C185.105 41.3401 186 40.4447 186 39.3401C186 38.2355 185.105 37.3401 184 37.3401V41.3401ZM-2 39.3401C-2 40.157 -1.54029 40.677 -1.28975 40.8971C-1.03879 41.1176 -0.786558 41.2345 -0.656987 41.2892C-0.382656 41.405 -0.10078 41.4681 0.0949675 41.506C0.520275 41.5884 1.07094 41.6488 1.68175 41.6974C2.92665 41.7964 4.69071 41.8662 6.82601 41.9138C11.1091 42.0094 17.0217 42.0186 23.5698 41.975C36.6723 41.8877 52.389 41.5887 62.8648 41.3395L62.7697 37.3407C52.3063 37.5895 36.6144 37.888 23.5431 37.9751C17.0043 38.0186 11.1386 38.0091 6.91526 37.9148C4.7973 37.8676 3.12605 37.7996 1.99894 37.71C1.42375 37.6642 1.05424 37.6175 0.855879 37.579C0.73979 37.5565 0.783954 37.5557 0.898533 37.6041C0.948228 37.6251 1.14007 37.7074 1.35062 37.8924C1.56074 38.077 2 38.5606 2 39.3401H-2ZM64.8172 39.3401C64.8172 23.5825 69.6153 14.3667 75.8059 9.04901C82.0565 3.67976 90.055 2 96.9462 2V-2C89.4934 -2 80.4274 -0.193929 73.1995 6.01476C65.9116 12.275 60.8172 22.7293 60.8172 39.3401H64.8172ZM96.9462 2C107.496 2 116.376 8.14677 122.71 16.1009C129.077 24.0962 132.538 33.5047 132.538 39.3401H136.538C136.538 32.3354 132.579 22.0738 125.839 13.6091C119.065 5.10323 109.149 -2 96.9462 -2V2ZM136.538 39.3401C136.538 37.2249 137.689 35.6924 139.895 34.6192C142.178 33.5088 145.394 33.0304 148.777 33.2073C152.147 33.3835 155.439 34.1975 157.819 35.438C160.292 36.727 161.226 38.1452 161.226 39.3401H165.226C165.226 35.865 162.574 33.4056 159.668 31.8909C156.668 30.3275 152.788 29.4116 148.986 29.2128C145.198 29.0147 141.241 29.5162 138.145 31.0221C134.973 32.5652 132.538 35.2852 132.538 39.3401H136.538ZM163.226 41.3401H184V37.3401H163.226V41.3401Z" transform="translate(725 353)" fill="#F4F4F4"/>
<path d="M2 39.3401C2 38.2355 1.10457 37.3401 0 37.3401C-1.10457 37.3401 -2 38.2355 -2 39.3401H2ZM62.8172 39.3401L62.8648 41.3395L64.8172 41.2931V39.3401H62.8172ZM163.226 39.3401H161.226V41.3401H163.226V39.3401ZM184 41.3401C185.105 41.3401 186 40.4447 186 39.3401C186 38.2355 185.105 37.3401 184 37.3401V41.3401ZM-2 39.3401C-2 40.157 -1.54029 40.677 -1.28975 40.8971C-1.03879 41.1176 -0.786558 41.2345 -0.656987 41.2892C-0.382656 41.405 -0.10078 41.4681 0.0949675 41.506C0.520275 41.5884 1.07094 41.6488 1.68175 41.6974C2.92665 41.7964 4.69071 41.8662 6.82601 41.9138C11.1091 42.0094 17.0217 42.0186 23.5698 41.975C36.6723 41.8877 52.389 41.5887 62.8648 41.3395L62.7697 37.3407C52.3063 37.5895 36.6144 37.888 23.5431 37.9751C17.0043 38.0186 11.1386 38.0091 6.91526 37.9148C4.7973 37.8676 3.12605 37.7996 1.99894 37.71C1.42375 37.6642 1.05424 37.6175 0.855879 37.579C0.73979 37.5565 0.783954 37.5557 0.898533 37.6041C0.948228 37.6251 1.14007 37.7074 1.35062 37.8924C1.56074 38.077 2 38.5606 2 39.3401H-2ZM64.8172 39.3401C64.8172 23.5825 69.6153 14.3667 75.8059 9.04901C82.0565 3.67976 90.055 2 96.9462 2V-2C89.4934 -2 80.4274 -0.193929 73.1995 6.01476C65.9116 12.275 60.8172 22.7293 60.8172 39.3401H64.8172ZM96.9462 2C107.496 2 116.376 8.14677 122.71 16.1009C129.077 24.0962 132.538 33.5047 132.538 39.3401H136.538C136.538 32.3354 132.579 22.0738 125.839 13.6091C119.065 5.10323 109.149 -2 96.9462 -2V2ZM136.538 39.3401C136.538 37.2249 137.689 35.6924 139.895 34.6192C142.178 33.5088 145.394 33.0304 148.777 33.2073C152.147 33.3835 155.439 34.1975 157.819 35.438C160.292 36.727 161.226 38.1452 161.226 39.3401H165.226C165.226 35.865 162.574 33.4056 159.668 31.8909C156.668 30.3275 152.788 29.4116 148.986 29.2128C145.198 29.0147 141.241 29.5162 138.145 31.0221C134.973 32.5652 132.538 35.2852 132.538 39.3401H136.538ZM163.226 41.3401H184V37.3401H163.226V41.3401Z" transform="translate(596 171)" fill="#F4F4F4"/>
<path d="M0 0H48" transform="translate(418 245)" stroke="#F4F4F4" stroke-width="4" stroke-linecap="round"/>
<path d="M0 0H48" transform="translate(655 297)" stroke="#F4F4F4" stroke-width="4" stroke-linecap="round"/>
<path d="M0 0H48" transform="translate(356 142)" stroke="#F4F4F4" stroke-width="4" stroke-linecap="round"/>
<path d="M0 12.1431C0 -5.3569 29.5 -3.3569 29.5 14.3795C29.5 2.1431 44.5 4.64308 44.5 14.3795" transform="translate(496.5 233.357)" stroke="#F4F4F4" stroke-width="4" stroke-linecap="round"/>
<path d="M0 12.1431C0 -5.3569 29.5 -3.3569 29.5 14.3795C29.5 2.1431 44.5 4.64308 44.5 14.3795" transform="translate(747 283)" stroke="#F4F4F4" stroke-width="4" stroke-linecap="round"/>
<path d="M0 0H48" transform="translate(165 325)" stroke="#F4F4F4" stroke-width="4" stroke-linecap="round"/>
<path d="M0 0H48" transform="translate(50 303)" stroke="#F4F4F4" stroke-width="4" stroke-linecap="round"/>
<path d="M0 0H48" transform="translate(90 245)" stroke="#F4F4F4" stroke-width="4" stroke-linecap="round"/>
<path d="M0 0H48" transform="translate(231 388)" stroke="#F4F4F4" stroke-width="4" stroke-linecap="round"/>
<path d="M0 12.1431C0 -5.3569 29.5 -3.3569 29.5 14.3795C29.5 2.1431 44.5 4.64308 44.5 14.3795" transform="translate(257 311)" stroke="#F4F4F4" stroke-width="4" stroke-linecap="round"/>
<path d="M0 12.1431C0 -5.3569 29.5 -3.3569 29.5 14.3795C29.5 2.1431 44.5 4.64308 44.5 14.3795" transform="translate(2 227)" stroke="#F4F4F4" stroke-width="4" stroke-linecap="round"/>
<path d="M0 12.1431C0 -5.3569 29.5 -3.3569 29.5 14.3795C29.5 2.1431 44.5 4.64308 44.5 14.3795" transform="translate(71 374)" stroke="#F4F4F4" stroke-width="4" stroke-linecap="round"/>
<path d="M0 12.1431C0 -5.3569 29.5 -3.3569 29.5 14.3795C29.5 2.1431 44.5 4.64308 44.5 14.3795" transform="translate(84 28)" stroke="#F4F4F4" stroke-width="4" stroke-linecap="round"/>
<path d="M0 12.1431C0 -5.3569 29.5 -3.3569 29.5 14.3795C29.5 2.1431 44.5 4.64308 44.5 14.3795" transform="translate(343 374)" stroke="#F4F4F4" stroke-width="4" stroke-linecap="round"/>
<path d="M2 39.3401C2 38.2355 1.10457 37.3401 0 37.3401C-1.10457 37.3401 -2 38.2355 -2 39.3401H2ZM62.8172 39.3401L62.8648 41.3395L64.8172 41.2931V39.3401H62.8172ZM163.226 39.3401H161.226V41.3401H163.226V39.3401ZM184 41.3401C185.105 41.3401 186 40.4447 186 39.3401C186 38.2355 185.105 37.3401 184 37.3401V41.3401ZM-2 39.3401C-2 40.157 -1.54029 40.677 -1.28975 40.8971C-1.03879 41.1176 -0.786558 41.2345 -0.656987 41.2892C-0.382656 41.405 -0.10078 41.4681 0.0949675 41.506C0.520275 41.5884 1.07094 41.6488 1.68175 41.6974C2.92665 41.7964 4.69071 41.8662 6.82601 41.9138C11.1091 42.0094 17.0217 42.0186 23.5698 41.975C36.6723 41.8877 52.389 41.5887 62.8648 41.3395L62.7697 37.3407C52.3063 37.5895 36.6144 37.888 23.5431 37.9751C17.0043 38.0186 11.1386 38.0091 6.91526 37.9148C4.7973 37.8676 3.12605 37.7996 1.99894 37.71C1.42375 37.6642 1.05424 37.6175 0.855879 37.579C0.73979 37.5565 0.783954 37.5557 0.898533 37.6041C0.948228 37.6251 1.14007 37.7074 1.35062 37.8924C1.56074 38.077 2 38.5606 2 39.3401H-2ZM64.8172 39.3401C64.8172 23.5825 69.6153 14.3667 75.8059 9.04901C82.0565 3.67976 90.055 2 96.9462 2V-2C89.4934 -2 80.4274 -0.193929 73.1995 6.01476C65.9116 12.275 60.8172 22.7293 60.8172 39.3401H64.8172ZM96.9462 2C107.496 2 116.376 8.14677 122.71 16.1009C129.077 24.0962 132.538 33.5047 132.538 39.3401H136.538C136.538 32.3354 132.579 22.0738 125.839 13.6091C119.065 5.10323 109.149 -2 96.9462 -2V2ZM136.538 39.3401C136.538 37.2249 137.689 35.6924 139.895 34.6192C142.178 33.5088 145.394 33.0304 148.777 33.2073C152.147 33.3835 155.439 34.1975 157.819 35.438C160.292 36.727 161.226 38.1452 161.226 39.3401H165.226C165.226 35.865 162.574 33.4056 159.668 31.8909C156.668 30.3275 152.788 29.4116 148.986 29.2128C145.198 29.0147 141.241 29.5162 138.145 31.0221C134.973 32.5652 132.538 35.2852 132.538 39.3401H136.538ZM163.226 41.3401H184V37.3401H163.226V41.3401Z" transform="translate(446 102)" fill="#F4F4F4"/>
<path d="M0 0H48" transform="translate(660 142)" stroke="#F4F4F4" stroke-width="4" stroke-linecap="round"/>
<path d="M0 0H48" transform="translate(824 181)" stroke="#F4F4F4" stroke-width="4" stroke-linecap="round"/>
<path d="M0 0H48" transform="translate(788 252)" stroke="#F4F4F4" stroke-width="4" stroke-linecap="round"/>
<path d="M0 12.1431C0 -5.3569 29.5 -3.3569 29.5 14.3795C29.5 2.1431 44.5 4.64308 44.5 14.3795" transform="translate(738.5 130.357)" stroke="#F4F4F4" stroke-width="4" stroke-linecap="round"/>
<path d="M0 0H48" transform="translate(218 42)" stroke="#F4F4F4" stroke-width="4" stroke-linecap="round"/>
<path d="M2 39.3401C2 38.2355 1.10457 37.3401 0 37.3401C-1.10457 37.3401 -2 38.2355 -2 39.3401H2ZM62.8172 39.3401L62.8648 41.3395L64.8172 41.2931V39.3401H62.8172ZM163.226 39.3401H161.226V41.3401H163.226V39.3401ZM184 41.3401C185.105 41.3401 186 40.4447 186 39.3401C186 38.2355 185.105 37.3401 184 37.3401V41.3401ZM-2 39.3401C-2 40.157 -1.54029 40.677 -1.28975 40.8971C-1.03879 41.1176 -0.786558 41.2345 -0.656987 41.2892C-0.382656 41.405 -0.10078 41.4681 0.0949675 41.506C0.520275 41.5884 1.07094 41.6488 1.68175 41.6974C2.92665 41.7964 4.69071 41.8662 6.82601 41.9138C11.1091 42.0094 17.0217 42.0186 23.5698 41.975C36.6723 41.8877 52.389 41.5887 62.8648 41.3395L62.7697 37.3407C52.3063 37.5895 36.6144 37.888 23.5431 37.9751C17.0043 38.0186 11.1386 38.0091 6.91526 37.9148C4.7973 37.8676 3.12605 37.7996 1.99894 37.71C1.42375 37.6642 1.05424 37.6175 0.855879 37.579C0.73979 37.5565 0.783954 37.5557 0.898533 37.6041C0.948228 37.6251 1.14007 37.7074 1.35062 37.8924C1.56074 38.077 2 38.5606 2 39.3401H-2ZM64.8172 39.3401C64.8172 23.5825 69.6153 14.3667 75.8059 9.04901C82.0565 3.67976 90.055 2 96.9462 2V-2C89.4934 -2 80.4274 -0.193929 73.1995 6.01476C65.9116 12.275 60.8172 22.7293 60.8172 39.3401H64.8172ZM96.9462 2C107.496 2 116.376 8.14677 122.71 16.1009C129.077 24.0962 132.538 33.5047 132.538 39.3401H136.538C136.538 32.3354 132.579 22.0738 125.839 13.6091C119.065 5.10323 109.149 -2 96.9462 -2V2ZM136.538 39.3401C136.538 37.2249 137.689 35.6924 139.895 34.6192C142.178 33.5088 145.394 33.0304 148.777 33.2073C152.147 33.3835 155.439 34.1975 157.819 35.438C160.292 36.727 161.226 38.1452 161.226 39.3401H165.226C165.226 35.865 162.574 33.4056 159.668 31.8909C156.668 30.3275 152.788 29.4116 148.986 29.2128C145.198 29.0147 141.241 29.5162 138.145 31.0221C134.973 32.5652 132.538 35.2852 132.538 39.3401H136.538ZM163.226 41.3401H184V37.3401H163.226V41.3401Z" transform="translate(308 2)" fill="#F4F4F4"/>
<path d="M0 0H48" transform="translate(522 42)" stroke="#F4F4F4" stroke-width="4" stroke-linecap="round"/>
<path d="M0 12.1431C0 -5.3569 29.5 -3.3569 29.5 14.3795C29.5 2.1431 44.5 4.64308 44.5 14.3795" transform="translate(600.5 30.3569)" stroke="#F4F4F4" stroke-width="4" stroke-linecap="round"/>
<path d="M2 39.3401C2 38.2355 1.10457 37.3401 0 37.3401C-1.10457 37.3401 -2 38.2355 -2 39.3401H2ZM62.8172 39.3401L62.8648 41.3395L64.8172 41.2931V39.3401H62.8172ZM163.226 39.3401H161.226V41.3401H163.226V39.3401ZM184 41.3401C185.105 41.3401 186 40.4447 186 39.3401C186 38.2355 185.105 37.3401 184 37.3401V41.3401ZM-2 39.3401C-2 40.157 -1.54029 40.677 -1.28975 40.8971C-1.03879 41.1176 -0.786558 41.2345 -0.656987 41.2892C-0.382656 41.405 -0.10078 41.4681 0.0949675 41.506C0.520275 41.5884 1.07094 41.6488 1.68175 41.6974C2.92665 41.7964 4.69071 41.8662 6.82601 41.9138C11.1091 42.0094 17.0217 42.0186 23.5698 41.975C36.6723 41.8877 52.389 41.5887 62.8648 41.3395L62.7697 37.3407C52.3063 37.5895 36.6144 37.888 23.5431 37.9751C17.0043 38.0186 11.1386 38.0091 6.91526 37.9148C4.7973 37.8676 3.12605 37.7996 1.99894 37.71C1.42375 37.6642 1.05424 37.6175 0.855879 37.579C0.73979 37.5565 0.783954 37.5557 0.898533 37.6041C0.948228 37.6251 1.14007 37.7074 1.35062 37.8924C1.56074 38.077 2 38.5606 2 39.3401H-2ZM64.8172 39.3401C64.8172 23.5825 69.6153 14.3667 75.8059 9.04901C82.0565 3.67976 90.055 2 96.9462 2V-2C89.4934 -2 80.4274 -0.193929 73.1995 6.01476C65.9116 12.275 60.8172 22.7293 60.8172 39.3401H64.8172ZM96.9462 2C107.496 2 116.376 8.14677 122.71 16.1009C129.077 24.0962 132.538 33.5047 132.538 39.3401H136.538C136.538 32.3354 132.579 22.0738 125.839 13.6091C119.065 5.10323 109.149 -2 96.9462 -2V2ZM136.538 39.3401C136.538 37.2249 137.689 35.6924 139.895 34.6192C142.178 33.5088 145.394 33.0304 148.777 33.2073C152.147 33.3835 155.439 34.1975 157.819 35.438C160.292 36.727 161.226 38.1452 161.226 39.3401H165.226C165.226 35.865 162.574 33.4056 159.668 31.8909C156.668 30.3275 152.788 29.4116 148.986 29.2128C145.198 29.0147 141.241 29.5162 138.145 31.0221C134.973 32.5652 132.538 35.2852 132.538 39.3401H136.538ZM163.226 41.3401H184V37.3401H163.226V41.3401Z" transform="translate(703 2)" fill="#F4F4F4"/>
<path d="M0 12.1431C0 -5.3569 29.5 -3.3569 29.5 14.3795C29.5 2.1431 44.5 4.64308 44.5 14.3795" transform="translate(257 85)" stroke="#F4F4F4" stroke-width="4" stroke-linecap="round"/>
</svg>
