<svg width="110" height="60" viewBox="0 0 110 60" fill="none" xmlns="http://www.w3.org/2000/svg">
<rect width="104.186" height="55.9978" fill="black" fill-opacity="0" transform="translate(3 2)"/>
<path fill-rule="evenodd" clip-rule="evenodd" d="M106.032 57.9854C106.903 58.1188 107.509 57.1418 107.001 56.4212L68.9812 2.42438C68.6799 1.99648 68.0996 1.87325 67.6504 2.14175L42.7707 17.0135C42.1226 17.4009 42.1212 18.3394 42.7682 18.7287L98.2975 52.1418L36.1622 21.4963C35.8578 21.3462 35.4981 21.3607 35.2068 21.5348L3.48765 40.4947C2.6831 40.9756 2.92286 42.1996 3.84938 42.3415L106.032 57.9854Z" fill="white"/>
<path d="M98.2975 52.1418L97.4129 53.9356L99.3287 50.4282L98.2975 52.1418ZM36.1622 21.4963L37.0468 19.7026L36.1622 21.4963ZM35.2068 21.5348L36.2329 23.2515L35.2068 21.5348ZM42.7682 18.7287L41.7371 20.4424L42.7682 18.7287ZM107.001 56.4212L105.366 57.5727L107.001 56.4212ZM106.032 57.9854L106.335 56.0085L106.032 57.9854ZM3.48765 40.4947L4.51379 42.2114L3.48765 40.4947ZM3.84938 42.3415L4.15205 40.3645L3.84938 42.3415ZM68.9812 2.42438L70.6165 1.27294L68.9812 2.42438ZM67.6504 2.14175L68.6766 3.85844L67.6504 2.14175ZM67.3459 3.57581L105.366 57.5727L108.636 55.2698L70.6165 1.27294L67.3459 3.57581ZM43.7969 18.7302L68.6766 3.85844L66.6243 0.425058L41.7446 15.2968L43.7969 18.7302ZM41.7371 20.4424L97.2664 53.8555L99.3287 50.4282L43.7994 17.015L41.7371 20.4424ZM99.1822 50.3481L37.0468 19.7026L35.2775 23.29L97.4129 53.9356L99.1822 50.3481ZM4.51379 42.2114L36.2329 23.2515L34.1806 19.8181L2.46151 38.778L4.51379 42.2114ZM106.335 56.0085L4.15205 40.3645L3.54671 44.3185L105.73 59.9624L106.335 56.0085ZM37.0468 19.7026C36.1337 19.2523 35.0545 19.2958 34.1806 19.8181L36.2329 23.2515C35.9416 23.4256 35.5819 23.4401 35.2775 23.29L37.0468 19.7026ZM41.7446 15.2968C39.8002 16.459 39.7961 19.2744 41.7371 20.4424L43.7994 17.015C44.4464 17.4043 44.445 18.3428 43.7969 18.7302L41.7446 15.2968ZM105.366 57.5727C104.858 56.8521 105.464 55.8751 106.335 56.0085L105.73 59.9624C108.343 60.3625 110.159 57.4316 108.636 55.2698L105.366 57.5727ZM2.46151 38.778C0.0478876 40.2207 0.767129 43.8929 3.54671 44.3185L4.15205 40.3645C5.07859 40.5064 5.31832 41.7305 4.51379 42.2114L2.46151 38.778ZM70.6165 1.27294C69.7126 -0.0107481 67.9719 -0.380451 66.6243 0.425058L68.6766 3.85844C68.2274 4.12694 67.6472 4.00371 67.3459 3.57581L70.6165 1.27294Z" fill="#4D4D4D"/>
<path d="M24.176 46.6556V55.8451C24.176 56.3952 24.6202 56.8419 25.1703 56.8451L100.844 57.2822" stroke="#4D4D4D" stroke-width="4"/>
<path d="M43.448 24.9597V20.0892" stroke="#4D4D4D" stroke-width="4"/>
</svg>
