<svg width="145" height="126" viewBox="0 0 145 126" fill="none" xmlns="http://www.w3.org/2000/svg">
<path fill-rule="evenodd" clip-rule="evenodd" d="M103.032 55.9854C103.903 56.1188 104.509 55.1418 104.001 54.4212L65.9812 0.424376C65.6799 -0.00351944 65.0996 -0.126754 64.6504 0.141749L39.7707 15.0135C39.1226 15.4009 39.1212 16.3394 39.7682 16.7287L95.2975 50.1418L33.1622 19.4963C32.8578 19.3462 32.4981 19.3607 32.2068 19.5348L0.487649 38.4947C-0.316895 38.9756 -0.0771412 40.1996 0.849382 40.3415L103.032 55.9854Z" transform="translate(38 68)" fill="white" stroke="#4D4D4D" stroke-width="4"/>
<path d="M0 0V9.18956C0 9.73959 0.444203 10.1864 0.994225 10.1895L76.6677 10.6266" transform="translate(59.176 112.656)" stroke="#4D4D4D" stroke-width="4"/>
<path d="M0 4.87051V0" transform="translate(78.448 86.0892)" stroke="#4D4D4D" stroke-width="4"/>
<path d="M0 0C0.244726 1.29428 0.714821 2.33897 1.35862 3.48617C2.46075 5.45006 3.42729 7.50026 4.61501 9.4148C6.62288 12.6514 9.27107 15.7241 11.9257 18.4422C14.9952 21.5852 18.7502 24.9191 22.9457 26.4583C30.0862 29.0779 38.3651 27.4473 42.1605 20.4005C44.784 15.5294 45.1569 8.75274 39.5511 5.81028C37.4063 4.6845 35.0217 4.61624 32.6501 4.64822C29.6375 4.68885 27.5176 5.84057 25.5766 8.14515C23.6835 10.3929 22.4745 13.0993 21.9752 15.989C21.2523 20.1728 21.928 23.5559 23.8191 27.3298C27.4507 34.5777 32.8711 40.7335 39.1844 45.7936C40.621 46.945 42.404 47.7366 43.6701 49" transform="translate(10 22)" stroke="#4D4D4D" stroke-width="4" stroke-linecap="round" stroke-linejoin="round"/>
<circle cx="2.5" cy="2.5" r="2.5" transform="translate(4 11)" fill="#4D4D4D"/>
<circle cx="2.5" cy="2.5" r="2.5" fill="#4D4D4D"/>
</svg>
