<svg width="1440" height="375" viewBox="0 0 1440 375" fill="none" xmlns="http://www.w3.org/2000/svg">
<path fill-rule="evenodd" clip-rule="evenodd" d="M543 0H607V192H709V136H781V360H709H607H605H543V363H431H375V368H183V360H111H56H55H0V120H55V80H111V144H183H215V168H343V144H375V43H431V123H543V0Z" transform="translate(-2)" fill="#F4F4F4"/>
<path fill-rule="evenodd" clip-rule="evenodd" d="M351 0H415V84H446V112.286H574V84H606H710V136H781V360H709V348H606H415V360H351H239H183H111H56H55H0V120H55V80H111V144H183V40H239V120H351V0Z" transform="translate(702 15)" fill="#F4F4F4"/>
</svg>
