<svg width="343" height="74" viewBox="0 0 343 74" fill="none" xmlns="http://www.w3.org/2000/svg">
<path d="M0 71.448C0 72.176 0.415997 72.8 1.144 72.8H3.224C4.16 72.8 4.576 72.28 4.576 71.448V41.808C5.096 40.976 9.672 34.632 18.096 34.632C25.896 34.632 30.16 39.624 30.16 49.192V71.448C30.16 72.28 30.68 72.8 31.408 72.8H33.384C34.112 72.8 34.736 72.176 34.736 71.448V49.192C34.736 46.384 34.424 43.888 33.8 41.704C35.152 40.04 39.728 34.632 47.528 34.632C55.328 34.632 59.488 39.624 59.488 49.192V71.448C59.488 72.28 60.008 72.8 60.632 72.8H62.712C63.44 72.8 64.064 72.176 64.064 71.448V49.192C64.064 37.544 59.176 30.16 47.84 30.16C39.312 30.16 33.488 36.088 32.24 37.752C29.64 32.864 24.96 30.16 18.616 30.16C10.192 30.16 5.408 35.152 4.264 36.712L3.744 32.24C3.64 31.616 3.224 31.2 2.6 31.2H1.352C0.623997 31.2 0 31.824 0 32.552V71.448Z" transform="translate(0.440002)" fill="#F2463A"/>
<path d="M76.2003 52C76.2003 64.584 86.2883 73.84 98.0403 73.84C106.672 73.84 112.808 68.328 114.368 65.832C114.784 65.208 114.576 64.688 114.056 64.168L112.912 63.128C112.288 62.504 111.664 62.504 110.936 63.336C109.792 64.584 105.736 69.472 97.9363 69.472C88.6803 69.472 80.8803 61.984 80.8803 51.896C80.8803 42.016 88.5763 34.632 98.0403 34.632C104.592 34.632 108.96 38.272 110 39.416C110.624 40.04 111.456 40.352 112.184 39.624L113.224 38.584C113.848 38.064 113.952 37.336 113.432 36.712C111.56 34.32 106.152 30.16 98.0403 30.16C86.2883 30.16 76.2003 39.52 76.2003 52Z" transform="translate(0.440002)" fill="#F2463A"/>
<path d="M127.055 71.448C127.055 72.176 127.471 72.8 128.199 72.8H130.175C131.111 72.8 131.527 72.28 131.527 71.448V41.912C131.943 41.392 137.767 34.632 146.399 34.632C154.303 34.632 158.775 39.624 158.775 49.192V71.448C158.775 72.176 159.399 72.8 160.127 72.8H161.999C162.727 72.8 163.351 72.176 163.351 71.448V49.192C163.351 36.816 157.423 30.16 146.607 30.16C138.391 30.16 132.879 35.464 131.527 36.816V1.352C131.527 0.623998 130.903 0 130.175 0H128.511C127.679 0 127.055 0.623998 127.055 1.352V71.448Z" transform="translate(0.440002)" fill="#F2463A"/>
<path d="M175.219 60.008C175.219 68.536 181.147 73.84 188.843 73.84C195.499 73.84 200.595 70.408 203.299 67.912L203.715 71.656C203.923 72.384 204.235 72.8 204.963 72.8H206.211C206.939 72.8 207.563 72.176 207.563 71.448V48.36C207.563 37.752 207.043 30.16 194.355 30.16C185.723 30.16 180.419 33.072 180.107 33.28C179.587 33.488 179.171 33.904 179.483 34.84L180.003 36.088C180.211 36.816 180.731 37.232 181.563 36.92C182.499 36.608 187.179 34.112 194.043 34.112C202.259 34.112 203.195 38.688 203.195 47.84C202.051 47.424 197.475 45.968 192.691 45.968C181.771 45.968 175.219 52 175.219 60.008ZM179.483 59.904C179.483 53.768 184.787 49.712 192.691 49.712C197.683 49.712 201.843 51.272 203.195 51.896V63.336C201.219 65.936 195.707 69.784 189.363 69.784C183.643 69.784 179.483 65.936 179.483 59.904Z" transform="translate(0.440002)" fill="#F2463A"/>
<path d="M219.81 52C219.81 64.584 229.898 73.84 241.65 73.84C250.282 73.84 256.418 68.328 257.978 65.832C258.394 65.208 258.186 64.688 257.666 64.168L256.522 63.128C255.898 62.504 255.274 62.504 254.546 63.336C253.402 64.584 249.346 69.472 241.546 69.472C232.29 69.472 224.49 61.984 224.49 51.896C224.49 42.016 232.186 34.632 241.65 34.632C248.202 34.632 252.57 38.272 253.61 39.416C254.234 40.04 255.066 40.352 255.794 39.624L256.834 38.584C257.458 38.064 257.562 37.336 257.042 36.712C255.17 34.32 249.762 30.16 241.65 30.16C229.898 30.16 219.81 39.52 219.81 52Z" transform="translate(0.440002)" fill="#F2463A"/>
<path d="M270.664 71.448C270.664 72.176 271.08 72.8 271.808 72.8H273.784C274.72 72.8 275.136 72.28 275.136 71.448V51.272L299.16 71.968C300.096 72.696 300.616 72.8 301.24 72.8H304.464C305.296 72.8 305.816 71.76 304.984 71.032L279.92 49.504L302.28 33.072C303.112 32.552 303.008 31.2 301.968 31.2H298.952C298.432 31.2 297.808 31.408 297.288 31.824L275.136 47.944V1.352C275.136 0.623998 274.512 0 273.784 0H272.016C271.288 0 270.664 0.623998 270.664 1.352V71.448Z" transform="translate(0.440002)" fill="#F2463A"/>
<path d="M313.172 69.16C315.46 70.928 319.724 73.84 326.796 73.84C335.116 73.84 341.564 68.536 341.564 62.296C341.564 54.704 334.7 52.104 326.9 49.192C320.764 47.008 317.02 45.032 317.02 40.872C317.02 38.064 319.412 34.216 325.964 34.216C330.436 34.216 334.596 36.504 335.532 37.128C336.26 37.544 337.092 37.336 337.508 36.608L338.132 35.464C338.548 34.736 338.34 33.904 337.716 33.488C335.636 32.136 331.476 30.16 325.964 30.16C316.396 30.16 312.34 36.4 312.34 40.976C312.34 47.424 317.748 50.648 325.132 53.248C332.1 55.848 336.78 57.824 336.78 62.608C336.78 66.664 332.724 69.992 326.796 69.992C320.972 69.992 316.708 66.768 315.668 65.936C314.94 65.312 314.108 65.52 313.796 66.04L312.756 67.704C312.444 68.224 312.756 68.848 313.172 69.16Z" transform="translate(0.440002)" fill="#F2463A"/>
<path d="M0 41.288C0 42.016 0.415997 42.64 1.144 42.64H3.224C4.16 42.64 4.576 42.12 4.576 41.288V11.648C5.096 10.816 9.672 4.472 18.096 4.472C25.896 4.472 30.16 9.464 30.16 19.032V41.288C30.16 42.12 30.68 42.64 31.408 42.64H33.384C34.112 42.64 34.736 42.016 34.736 41.288V19.032C34.736 16.224 34.424 13.728 33.8 11.544C35.152 9.88 39.728 4.472 47.528 4.472C55.328 4.472 59.488 9.464 59.488 19.032V41.288C59.488 42.12 60.008 42.64 60.632 42.64H62.712C63.44 42.64 64.064 42.016 64.064 41.288V19.032C64.064 7.384 59.176 0 47.84 0C39.312 0 33.488 5.928 32.24 7.592C29.64 2.704 24.96 0 18.616 0C10.192 0 5.408 4.992 4.264 6.552L3.744 2.08C3.64 1.456 3.224 1.04 2.6 1.04H1.352C0.623997 1.04 0 1.664 0 2.392V41.288Z" transform="translate(0.440002 30.16)" fill="#F89790"/>
<path d="M76.2003 21.84C76.2003 34.424 86.2883 43.68 98.0403 43.68C106.672 43.68 112.808 38.168 114.368 35.672C114.784 35.048 114.576 34.528 114.056 34.008L112.912 32.968C112.288 32.344 111.664 32.344 110.936 33.176C109.792 34.424 105.736 39.312 97.9363 39.312C88.6803 39.312 80.8803 31.824 80.8803 21.736C80.8803 11.856 88.5763 4.472 98.0403 4.472C104.592 4.472 108.96 8.112 110 9.256C110.624 9.88 111.456 10.192 112.184 9.464L113.224 8.424C113.848 7.904 113.952 7.176 113.432 6.552C111.56 4.16 106.152 0 98.0403 0C86.2883 0 76.2003 9.36 76.2003 21.84Z" transform="translate(0.440002 30.16)" fill="#F89790"/>
</svg>
