<svg width="432" height="432" viewBox="0 0 432 432" fill="none" xmlns="http://www.w3.org/2000/svg">
<path fill-rule="evenodd" clip-rule="evenodd" d="M52 104C80.7188 104 104 80.7188 104 52C104 23.2812 80.7188 0 52 0C23.2812 0 0 23.2812 0 52C0 80.7188 23.2812 104 52 104ZM52 72C63.0457 72 72 63.0457 72 52C72 40.9543 63.0457 32 52 32C40.9543 32 32 40.9543 32 52C32 63.0457 40.9543 72 52 72Z" transform="translate(8 8) scale(4)" stroke="#A6A6A6" stroke-width="4"/>
<path fill-rule="evenodd" clip-rule="evenodd" d="M20 40.8C31.0457 40.8 40 31.6666 40 20.4C40 9.13342 31.0457 0 20 0C8.95428 0 0 9.13342 0 20.4C0 31.6666 8.95428 40.8 20 40.8ZM20.24 28.24C24.6583 28.24 28.24 24.6583 28.24 20.24C28.24 15.8217 24.6583 12.24 20.24 12.24C15.8217 12.24 12.24 15.8217 12.24 20.24C12.24 24.6583 15.8217 28.24 20.24 28.24Z" transform="translate(136 136) scale(4)" stroke="#A6A6A6" stroke-width="4"/>
<path d="M1.29695 -1.52247C0.456113 -2.23876 -0.806185 -2.13779 -1.52247 -1.29695C-2.23876 -0.456113 -2.13779 0.806185 -1.29695 1.52247L1.29695 -1.52247ZM28.7608 1.43575C29.5537 0.666783 29.5731 -0.599398 28.8042 -1.39234C28.0352 -2.18529 26.769 -2.20472 25.9761 -1.43575L28.7608 1.43575ZM-1.29695 1.52247C2.48991 4.74839 8.30547 6.3161 13.8329 6.36256C19.3426 6.40888 25.1418 4.94531 28.7608 1.43575L25.9761 -1.43575C23.4151 1.0478 18.8408 2.40452 13.8666 2.36271C8.91015 2.32104 4.13149 0.892191 1.29695 -1.52247L-1.29695 1.52247Z" transform="translate(97.7812 265.941) scale(4) rotate(40.3372)" fill="#F89790"/>
<path d="M1.3164 -1.50568C0.484837 -2.23271 -0.778654 -2.14797 -1.50568 -1.3164C-2.23271 -0.484837 -2.14797 0.778654 -1.3164 1.50568L1.3164 -1.50568ZM41.4109 1.41755C42.1938 0.638351 42.1968 -0.627976 41.4176 -1.41087C40.6384 -2.19376 39.372 -2.19675 38.5891 -1.41755L41.4109 1.41755ZM-1.3164 1.50568C3.99877 6.15268 12.2667 8.47522 20.2247 8.54388C28.1661 8.6124 36.3669 6.43772 41.4109 1.41755L38.5891 -1.41755C34.6008 2.55195 27.6404 4.60771 20.2592 4.54403C12.8946 4.48049 5.67865 2.30818 1.3164 -1.50568L-1.3164 1.50568Z" transform="translate(64.4016 266.22) scale(4) rotate(40.3372)" fill="#F89790"/>
<path d="M1.29695 -1.52247C0.456113 -2.23876 -0.806185 -2.13779 -1.52247 -1.29695C-2.23876 -0.456113 -2.13779 0.806185 -1.29695 1.52247L1.29695 -1.52247ZM28.7608 1.43575C29.5537 0.666783 29.5731 -0.599398 28.8042 -1.39234C28.0352 -2.18529 26.769 -2.20472 25.9761 -1.43575L28.7608 1.43575ZM-1.29695 1.52247C2.48991 4.74839 8.30547 6.3161 13.8329 6.36256C19.3426 6.40888 25.1418 4.94531 28.7608 1.43575L25.9761 -1.43575C23.4151 1.0478 18.8408 2.40452 13.8666 2.36271C8.91015 2.32104 4.13149 0.892191 1.29695 -1.52247L-1.29695 1.52247Z" transform="translate(326.219 166.059) scale(4) rotate(-139.663)" fill="#F89790"/>
<path d="M1.3164 -1.50568C0.484837 -2.23271 -0.778654 -2.14797 -1.50568 -1.3164C-2.23271 -0.484837 -2.14797 0.778654 -1.3164 1.50568L1.3164 -1.50568ZM41.4109 1.41755C42.1938 0.638351 42.1968 -0.627976 41.4176 -1.41087C40.6384 -2.19376 39.372 -2.19675 38.5891 -1.41755L41.4109 1.41755ZM-1.3164 1.50568C3.99877 6.15268 12.2667 8.47522 20.2247 8.54388C28.1661 8.6124 36.3669 6.43772 41.4109 1.41755L38.5891 -1.41755C34.6008 2.55195 27.6404 4.60771 20.2592 4.54403C12.8946 4.48049 5.67865 2.30818 1.3164 -1.50568L-1.3164 1.50568Z" transform="translate(359.598 165.78) scale(4) rotate(-139.663)" fill="#F89790"/>
</svg>
