<svg width="124" height="108" viewBox="0 0 124 108" fill="none" xmlns="http://www.w3.org/2000/svg">
<path d="M42.2609 88C51.6522 95 70.9565 95 78.2609 88M36 97.0001C48.5217 106.333 74.2609 106.333 84 97.0001M48.1396 0C55.3588 0 61.8463 3.12378 66.3167 8.0896C69.6565 6.04712 73.5857 4.86951 77.7907 4.86951C89.6331 4.86951 99.2877 14.209 99.7501 25.9041C111.158 27.2697 120 36.9531 120 48.6958C120 60.9072 110.438 70.8916 98.3721 71.6108V71.6522H97.0526L96.9767 71.6523L96.9009 71.6522H75.9139C73.6042 76.3418 68.9044 79.6443 63.4027 79.973V80H12.2277V79.7538C5.27112 78.4771 0 72.3871 0 65.067C0 62.1432 0.840942 59.4158 2.29437 57.1128C1.26379 54.5066 0.697632 51.6671 0.697632 48.6958C0.697632 36.0172 11.0055 25.7393 23.7209 25.7393H23.7602C23.7342 25.2788 23.721 24.8149 23.721 24.3479C23.721 10.9009 34.6536 0 48.1396 0ZM42.595 38.6357C39.6931 35.4164 35.4818 33.3912 30.7956 33.3912C22.0416 33.3912 14.9449 40.4581 14.9449 49.1757C14.9449 49.4785 14.9535 49.7793 14.9704 50.0779H14.9449C6.69104 50.0779 0 56.741 0 64.9603C0 72.2555 5.27112 78.3248 12.2277 79.5973V79.8425H14.8838L14.9449 79.8427L15.0061 79.8425H62.4358C62.4562 79.8425 62.4766 79.8427 62.4969 79.8427C62.5173 79.8427 62.5377 79.8425 62.5581 79.8425H63.4027V79.8158C71.2348 79.3495 77.4418 72.8767 77.4418 64.9603C77.4418 57.3477 71.7022 51.0699 64.2972 50.1847C63.997 42.603 57.73 36.5483 50.0428 36.5483C47.3133 36.5483 44.7629 37.3116 42.595 38.6357Z" transform="translate(2 2)" stroke="#A6A6A6" stroke-width="4" stroke-linecap="round"/>
<path d="M6.26086 0C15.6522 7 34.9565 7 42.2609 0M0 9.00012C12.5217 18.3335 38.2609 18.3335 48 9.00012" transform="translate(38 90)" stroke="#F2463A" stroke-width="4" stroke-linecap="round"/>
</svg>
